%TF.GenerationSoftware,KiCad,Pcbnew,7.0.8-7.0.8~ubuntu22.04.1*%
%TF.CreationDate,2023-10-08T09:38:23-05:00*%
%TF.ProjectId,crossover_v1,63726f73-736f-4766-9572-5f76312e6b69,v1.0.0*%
%TF.SameCoordinates,Original*%
%TF.FileFunction,Soldermask,Top*%
%TF.FilePolarity,Negative*%
%FSLAX46Y46*%
G04 Gerber Fmt 4.6, Leading zero omitted, Abs format (unit mm)*
G04 Created by KiCad (PCBNEW 7.0.8-7.0.8~ubuntu22.04.1) date 2023-10-08 09:38:23*
%MOMM*%
%LPD*%
G01*
G04 APERTURE LIST*
%ADD10R,1.700000X1.700000*%
%ADD11O,1.700000X1.700000*%
%ADD12C,1.600000*%
%ADD13O,1.600000X1.600000*%
%ADD14R,2.400000X1.600000*%
%ADD15O,2.400000X1.600000*%
%ADD16C,5.600000*%
%ADD17C,2.340000*%
%ADD18O,4.200000X2.500000*%
%ADD19C,3.000000*%
%ADD20C,5.000000*%
G04 APERTURE END LIST*
D10*
%TO.C,J5*%
X132955000Y-80970000D03*
D11*
X135495000Y-80970000D03*
X138035000Y-80970000D03*
%TD*%
D12*
%TO.C,C4*%
X146205000Y-100950000D03*
X146205000Y-105950000D03*
%TD*%
%TO.C,R12*%
X164805000Y-88870000D03*
D13*
X164805000Y-99030000D03*
%TD*%
D14*
%TO.C,U2*%
X146180000Y-90350000D03*
D15*
X146180000Y-92890000D03*
X146180000Y-95430000D03*
X146180000Y-97970000D03*
X153800000Y-97970000D03*
X153800000Y-95430000D03*
X153800000Y-92890000D03*
X153800000Y-90350000D03*
%TD*%
D12*
%TO.C,R13*%
X161180000Y-99030000D03*
D13*
X161180000Y-88870000D03*
%TD*%
D12*
%TO.C,R7*%
X170180000Y-110490000D03*
D13*
X170180000Y-120650000D03*
%TD*%
D12*
%TO.C,C5*%
X141680000Y-95870000D03*
X141680000Y-100870000D03*
%TD*%
%TO.C,R11*%
X168605000Y-99030000D03*
D13*
X168605000Y-88870000D03*
%TD*%
D12*
%TO.C,R1*%
X115260000Y-86170000D03*
D13*
X105100000Y-86170000D03*
%TD*%
D12*
%TO.C,C6*%
X138280000Y-100870000D03*
X138280000Y-95870000D03*
%TD*%
D16*
%TO.C,H2*%
X145980000Y-119570000D03*
%TD*%
D12*
%TO.C,R8*%
X133880000Y-95770000D03*
D13*
X133880000Y-105930000D03*
%TD*%
D17*
%TO.C,RV4*%
X177180000Y-120370000D03*
X182180000Y-120370000D03*
X187180000Y-120370000D03*
X177180000Y-115370000D03*
X182180000Y-115370000D03*
X187180000Y-115370000D03*
%TD*%
D14*
%TO.C,U1*%
X113155000Y-89570000D03*
D15*
X113155000Y-92110000D03*
X113155000Y-94650000D03*
X113155000Y-97190000D03*
X120775000Y-97190000D03*
X120775000Y-94650000D03*
X120775000Y-92110000D03*
X120775000Y-89570000D03*
%TD*%
D10*
%TO.C,J3*%
X112580000Y-80970000D03*
D11*
X115120000Y-80970000D03*
%TD*%
D12*
%TO.C,R4*%
X129580000Y-103570000D03*
D13*
X129580000Y-93410000D03*
%TD*%
D12*
%TO.C,R5*%
X122580000Y-112170000D03*
D13*
X132740000Y-112170000D03*
%TD*%
D17*
%TO.C,RV3*%
X153780000Y-120370000D03*
X158780000Y-120370000D03*
X163780000Y-120370000D03*
X153780000Y-115370000D03*
X158780000Y-115370000D03*
X163780000Y-115370000D03*
%TD*%
D12*
%TO.C,R2*%
X109380000Y-88890000D03*
D13*
X109380000Y-99050000D03*
%TD*%
D17*
%TO.C,RV2*%
X106780000Y-120370000D03*
X111780000Y-120370000D03*
X116780000Y-120370000D03*
X106780000Y-115370000D03*
X111780000Y-115370000D03*
X116780000Y-115370000D03*
%TD*%
D12*
%TO.C,C1*%
X106180000Y-93870000D03*
X106180000Y-98870000D03*
%TD*%
%TO.C,C10*%
X113780000Y-101770000D03*
X108780000Y-101770000D03*
%TD*%
%TO.C,R14*%
X157580000Y-88870000D03*
D13*
X157580000Y-99030000D03*
%TD*%
D12*
%TO.C,C8*%
X165280000Y-101670000D03*
X170280000Y-101670000D03*
%TD*%
D16*
%TO.C,H1*%
X104980000Y-80970000D03*
%TD*%
D10*
%TO.C,J1*%
X120580000Y-81970000D03*
D11*
X123120000Y-81970000D03*
X125660000Y-81970000D03*
%TD*%
D12*
%TO.C,C3*%
X157880000Y-86170000D03*
X152880000Y-86170000D03*
%TD*%
%TO.C,C9*%
X117880000Y-86070000D03*
X122880000Y-86070000D03*
%TD*%
%TO.C,C7*%
X157105000Y-101750000D03*
X162105000Y-101750000D03*
%TD*%
%TO.C,C2*%
X116380000Y-100370000D03*
X116380000Y-105370000D03*
%TD*%
%TO.C,R3*%
X125980000Y-103570000D03*
D13*
X125980000Y-93410000D03*
%TD*%
D12*
%TO.C,R10*%
X133125000Y-92550000D03*
D13*
X143285000Y-92550000D03*
%TD*%
D12*
%TO.C,R9*%
X143285000Y-89150000D03*
D13*
X133125000Y-89150000D03*
%TD*%
D17*
%TO.C,RV1*%
X127780000Y-120970000D03*
X132780000Y-120970000D03*
X137780000Y-120970000D03*
%TD*%
D10*
%TO.C,J4*%
X175180000Y-88370000D03*
D11*
X175180000Y-90910000D03*
X175180000Y-93450000D03*
X175180000Y-95990000D03*
%TD*%
D12*
%TO.C,R6*%
X103580000Y-105170000D03*
D13*
X113740000Y-105170000D03*
%TD*%
D18*
%TO.C,J2*%
X187380000Y-79620000D03*
X187380000Y-103920000D03*
D19*
X182630000Y-80770000D03*
X182630000Y-94770000D03*
D20*
X187480000Y-84770000D03*
X187380000Y-98770000D03*
%TD*%
M02*
