%TF.GenerationSoftware,KiCad,Pcbnew,(5.99.0-12960-gccd3a1e6a9)*%
%TF.CreationDate,2021-11-22T21:09:54-05:00*%
%TF.ProjectId,crossover_v1,63726f73-736f-4766-9572-5f76312e6b69,rev?*%
%TF.SameCoordinates,Original*%
%TF.FileFunction,Soldermask,Bot*%
%TF.FilePolarity,Negative*%
%FSLAX46Y46*%
G04 Gerber Fmt 4.6, Leading zero omitted, Abs format (unit mm)*
G04 Created by KiCad (PCBNEW (5.99.0-12960-gccd3a1e6a9)) date 2021-11-22 21:09:54*
%MOMM*%
%LPD*%
G01*
G04 APERTURE LIST*
%ADD10C,0.818303*%
%ADD11C,0.010000*%
%ADD12C,2.340000*%
%ADD13R,1.700000X1.700000*%
%ADD14O,1.700000X1.700000*%
%ADD15C,1.600000*%
%ADD16O,1.600000X1.600000*%
%ADD17R,2.400000X1.600000*%
%ADD18O,2.400000X1.600000*%
%ADD19C,5.600000*%
%ADD20O,4.200000X2.500000*%
%ADD21C,3.000000*%
%ADD22C,5.000000*%
G04 APERTURE END LIST*
D10*
X86009151Y-32600000D02*
G75*
G03*
X86009151Y-32600000I-409151J0D01*
G01*
X74409151Y-32600000D02*
G75*
G03*
X74409151Y-32600000I-409151J0D01*
G01*
X29709151Y-12793303D02*
G75*
G03*
X29709151Y-12793303I-409151J0D01*
G01*
X71409151Y-32593303D02*
G75*
G03*
X71409151Y-32593303I-409151J0D01*
G01*
X56409151Y-32593303D02*
G75*
G03*
X56409151Y-32593303I-409151J0D01*
G01*
X52309151Y-11400000D02*
G75*
G03*
X52309151Y-11400000I-409151J0D01*
G01*
X32809151Y-11393303D02*
G75*
G03*
X32809151Y-11393303I-409151J0D01*
G01*
X53915848Y-13000000D02*
G75*
G03*
X53915848Y-13000000I-409151J0D01*
G01*
D11*
%TO.C,G\u002A\u002A\u002A*%
X44442493Y-35878455D02*
X44217608Y-35882416D01*
X44217608Y-35882416D02*
X44038603Y-35891026D01*
X44038603Y-35891026D02*
X43896675Y-35905927D01*
X43896675Y-35905927D02*
X43783021Y-35928763D01*
X43783021Y-35928763D02*
X43688840Y-35961176D01*
X43688840Y-35961176D02*
X43605327Y-36004809D01*
X43605327Y-36004809D02*
X43523680Y-36061305D01*
X43523680Y-36061305D02*
X43458011Y-36113405D01*
X43458011Y-36113405D02*
X43300031Y-36280554D01*
X43300031Y-36280554D02*
X43192832Y-36474409D01*
X43192832Y-36474409D02*
X43134996Y-36685516D01*
X43134996Y-36685516D02*
X43125103Y-36904425D01*
X43125103Y-36904425D02*
X43161734Y-37121684D01*
X43161734Y-37121684D02*
X43243470Y-37327841D01*
X43243470Y-37327841D02*
X43368890Y-37513445D01*
X43368890Y-37513445D02*
X43536577Y-37669043D01*
X43536577Y-37669043D02*
X43706552Y-37768500D01*
X43706552Y-37768500D02*
X43774375Y-37796982D01*
X43774375Y-37796982D02*
X43843351Y-37818323D01*
X43843351Y-37818323D02*
X43925222Y-37834102D01*
X43925222Y-37834102D02*
X44031729Y-37845896D01*
X44031729Y-37845896D02*
X44174616Y-37855284D01*
X44174616Y-37855284D02*
X44365624Y-37863844D01*
X44365624Y-37863844D02*
X44436124Y-37866565D01*
X44436124Y-37866565D02*
X44658181Y-37876169D01*
X44658181Y-37876169D02*
X44823463Y-37887157D01*
X44823463Y-37887157D02*
X44938693Y-37901389D01*
X44938693Y-37901389D02*
X45010594Y-37920725D01*
X45010594Y-37920725D02*
X45045888Y-37947025D01*
X45045888Y-37947025D02*
X45051299Y-37982150D01*
X45051299Y-37982150D02*
X45033550Y-38027960D01*
X45033550Y-38027960D02*
X45031742Y-38031376D01*
X45031742Y-38031376D02*
X45015461Y-38053904D01*
X45015461Y-38053904D02*
X44988123Y-38070635D01*
X44988123Y-38070635D02*
X44940544Y-38082714D01*
X44940544Y-38082714D02*
X44863544Y-38091289D01*
X44863544Y-38091289D02*
X44747942Y-38097504D01*
X44747942Y-38097504D02*
X44584555Y-38102505D01*
X44584555Y-38102505D02*
X44434227Y-38105954D01*
X44434227Y-38105954D02*
X44183287Y-38113990D01*
X44183287Y-38113990D02*
X43984942Y-38128276D01*
X43984942Y-38128276D02*
X43828350Y-38152220D01*
X43828350Y-38152220D02*
X43702668Y-38189228D01*
X43702668Y-38189228D02*
X43597056Y-38242708D01*
X43597056Y-38242708D02*
X43500671Y-38316065D01*
X43500671Y-38316065D02*
X43402671Y-38412706D01*
X43402671Y-38412706D02*
X43380035Y-38437193D01*
X43380035Y-38437193D02*
X43300981Y-38529035D01*
X43300981Y-38529035D02*
X43240097Y-38616692D01*
X43240097Y-38616692D02*
X43194938Y-38710350D01*
X43194938Y-38710350D02*
X43163058Y-38820196D01*
X43163058Y-38820196D02*
X43142012Y-38956416D01*
X43142012Y-38956416D02*
X43129354Y-39129195D01*
X43129354Y-39129195D02*
X43122640Y-39348721D01*
X43122640Y-39348721D02*
X43120327Y-39518984D01*
X43120327Y-39518984D02*
X43118876Y-39736455D01*
X43118876Y-39736455D02*
X43119843Y-39899779D01*
X43119843Y-39899779D02*
X43123861Y-40018287D01*
X43123861Y-40018287D02*
X43131564Y-40101308D01*
X43131564Y-40101308D02*
X43143586Y-40158170D01*
X43143586Y-40158170D02*
X43160558Y-40198203D01*
X43160558Y-40198203D02*
X43167178Y-40209042D01*
X43167178Y-40209042D02*
X43252207Y-40287889D01*
X43252207Y-40287889D02*
X43359843Y-40319160D01*
X43359843Y-40319160D02*
X43470686Y-40302897D01*
X43470686Y-40302897D02*
X43565335Y-40239144D01*
X43565335Y-40239144D02*
X43589434Y-40208110D01*
X43589434Y-40208110D02*
X43610067Y-40167739D01*
X43610067Y-40167739D02*
X43624300Y-40113155D01*
X43624300Y-40113155D02*
X43632967Y-40033760D01*
X43632967Y-40033760D02*
X43636900Y-39918956D01*
X43636900Y-39918956D02*
X43636931Y-39758145D01*
X43636931Y-39758145D02*
X43635268Y-39624837D01*
X43635268Y-39624837D02*
X43634556Y-39376886D01*
X43634556Y-39376886D02*
X43641704Y-39183672D01*
X43641704Y-39183672D02*
X43657907Y-39036783D01*
X43657907Y-39036783D02*
X43684362Y-38927808D01*
X43684362Y-38927808D02*
X43722265Y-38848335D01*
X43722265Y-38848335D02*
X43750941Y-38811376D01*
X43750941Y-38811376D02*
X43800712Y-38759082D01*
X43800712Y-38759082D02*
X43847253Y-38719865D01*
X43847253Y-38719865D02*
X43900521Y-38691555D01*
X43900521Y-38691555D02*
X43970469Y-38671985D01*
X43970469Y-38671985D02*
X44067055Y-38658987D01*
X44067055Y-38658987D02*
X44200233Y-38650394D01*
X44200233Y-38650394D02*
X44379959Y-38644037D01*
X44379959Y-38644037D02*
X44539080Y-38639750D01*
X44539080Y-38639750D02*
X45150752Y-38623875D01*
X45150752Y-38623875D02*
X45288314Y-38527215D01*
X45288314Y-38527215D02*
X45436087Y-38389535D01*
X45436087Y-38389535D02*
X45532431Y-38227899D01*
X45532431Y-38227899D02*
X45578756Y-38052707D01*
X45578756Y-38052707D02*
X45576478Y-37874359D01*
X45576478Y-37874359D02*
X45527007Y-37703254D01*
X45527007Y-37703254D02*
X45431758Y-37549791D01*
X45431758Y-37549791D02*
X45292144Y-37424370D01*
X45292144Y-37424370D02*
X45127450Y-37343277D01*
X45127450Y-37343277D02*
X45050804Y-37328656D01*
X45050804Y-37328656D02*
X44921054Y-37317210D01*
X44921054Y-37317210D02*
X44748541Y-37309558D01*
X44748541Y-37309558D02*
X44543610Y-37306317D01*
X44543610Y-37306317D02*
X44507830Y-37306250D01*
X44507830Y-37306250D02*
X44308790Y-37305302D01*
X44308790Y-37305302D02*
X44162005Y-37301747D01*
X44162005Y-37301747D02*
X44056246Y-37294518D01*
X44056246Y-37294518D02*
X43980286Y-37282548D01*
X43980286Y-37282548D02*
X43922897Y-37264769D01*
X43922897Y-37264769D02*
X43885505Y-37247096D01*
X43885505Y-37247096D02*
X43760103Y-37146053D01*
X43760103Y-37146053D02*
X43681571Y-37007039D01*
X43681571Y-37007039D02*
X43655925Y-36841137D01*
X43655925Y-36841137D02*
X43683317Y-36682918D01*
X43683317Y-36682918D02*
X43763137Y-36558100D01*
X43763137Y-36558100D02*
X43863913Y-36479352D01*
X43863913Y-36479352D02*
X43900432Y-36459776D01*
X43900432Y-36459776D02*
X43943246Y-36444800D01*
X43943246Y-36444800D02*
X44000871Y-36433814D01*
X44000871Y-36433814D02*
X44081828Y-36426208D01*
X44081828Y-36426208D02*
X44194633Y-36421371D01*
X44194633Y-36421371D02*
X44347806Y-36418693D01*
X44347806Y-36418693D02*
X44549865Y-36417564D01*
X44549865Y-36417564D02*
X44729145Y-36417368D01*
X44729145Y-36417368D02*
X45492914Y-36417250D01*
X45492914Y-36417250D02*
X45601364Y-36497262D01*
X45601364Y-36497262D02*
X45678032Y-36560947D01*
X45678032Y-36560947D02*
X45734021Y-36619955D01*
X45734021Y-36619955D02*
X45742470Y-36632199D01*
X45742470Y-36632199D02*
X45750970Y-36677991D01*
X45750970Y-36677991D02*
X45759095Y-36784194D01*
X45759095Y-36784194D02*
X45766745Y-36947716D01*
X45766745Y-36947716D02*
X45773821Y-37165471D01*
X45773821Y-37165471D02*
X45780226Y-37434367D01*
X45780226Y-37434367D02*
X45785858Y-37751316D01*
X45785858Y-37751316D02*
X45790621Y-38113228D01*
X45790621Y-38113228D02*
X45791000Y-38147625D01*
X45791000Y-38147625D02*
X45806875Y-39608125D01*
X45806875Y-39608125D02*
X45891025Y-39766875D01*
X45891025Y-39766875D02*
X46038418Y-39981372D01*
X46038418Y-39981372D02*
X46227543Y-40152636D01*
X46227543Y-40152636D02*
X46353891Y-40229224D01*
X46353891Y-40229224D02*
X46514232Y-40284306D01*
X46514232Y-40284306D02*
X46706512Y-40310115D01*
X46706512Y-40310115D02*
X46906577Y-40306451D01*
X46906577Y-40306451D02*
X47090274Y-40273111D01*
X47090274Y-40273111D02*
X47188000Y-40236154D01*
X47188000Y-40236154D02*
X47381744Y-40108493D01*
X47381744Y-40108493D02*
X47550622Y-39934471D01*
X47550622Y-39934471D02*
X47658873Y-39768704D01*
X47658873Y-39768704D02*
X47743625Y-39608125D01*
X47743625Y-39608125D02*
X47759500Y-38147625D01*
X47759500Y-38147625D02*
X47763276Y-37796722D01*
X47763276Y-37796722D02*
X47766784Y-37503620D01*
X47766784Y-37503620D02*
X47770742Y-37262624D01*
X47770742Y-37262624D02*
X47775870Y-37068042D01*
X47775870Y-37068042D02*
X47782886Y-36914182D01*
X47782886Y-36914182D02*
X47792508Y-36795350D01*
X47792508Y-36795350D02*
X47805456Y-36705853D01*
X47805456Y-36705853D02*
X47822448Y-36639999D01*
X47822448Y-36639999D02*
X47844202Y-36592096D01*
X47844202Y-36592096D02*
X47871437Y-36556449D01*
X47871437Y-36556449D02*
X47904872Y-36527367D01*
X47904872Y-36527367D02*
X47945226Y-36499157D01*
X47945226Y-36499157D02*
X47969681Y-36482601D01*
X47969681Y-36482601D02*
X48047112Y-36438719D01*
X48047112Y-36438719D02*
X48126734Y-36420691D01*
X48126734Y-36420691D02*
X48236756Y-36422699D01*
X48236756Y-36422699D02*
X48253598Y-36424031D01*
X48253598Y-36424031D02*
X48370863Y-36440593D01*
X48370863Y-36440593D02*
X48453089Y-36474193D01*
X48453089Y-36474193D02*
X48528519Y-36536577D01*
X48528519Y-36536577D02*
X48531621Y-36539664D01*
X48531621Y-36539664D02*
X48632625Y-36640617D01*
X48632625Y-36640617D02*
X48649792Y-38092621D01*
X48649792Y-38092621D02*
X48653995Y-38436177D01*
X48653995Y-38436177D02*
X48657955Y-38722239D01*
X48657955Y-38722239D02*
X48661973Y-38956813D01*
X48661973Y-38956813D02*
X48666350Y-39145901D01*
X48666350Y-39145901D02*
X48671386Y-39295510D01*
X48671386Y-39295510D02*
X48677384Y-39411642D01*
X48677384Y-39411642D02*
X48684644Y-39500302D01*
X48684644Y-39500302D02*
X48693467Y-39567494D01*
X48693467Y-39567494D02*
X48704154Y-39619224D01*
X48704154Y-39619224D02*
X48717007Y-39661494D01*
X48717007Y-39661494D02*
X48730146Y-39695156D01*
X48730146Y-39695156D02*
X48851828Y-39908443D01*
X48851828Y-39908443D02*
X49019909Y-40090992D01*
X49019909Y-40090992D02*
X49191349Y-40211632D01*
X49191349Y-40211632D02*
X49281907Y-40258259D01*
X49281907Y-40258259D02*
X49361090Y-40286597D01*
X49361090Y-40286597D02*
X49450318Y-40301095D01*
X49450318Y-40301095D02*
X49571009Y-40306202D01*
X49571009Y-40306202D02*
X49648625Y-40306625D01*
X49648625Y-40306625D02*
X49792845Y-40304492D01*
X49792845Y-40304492D02*
X49894991Y-40295150D01*
X49894991Y-40295150D02*
X49976431Y-40274184D01*
X49976431Y-40274184D02*
X50058530Y-40237180D01*
X50058530Y-40237180D02*
X50104410Y-40212445D01*
X50104410Y-40212445D02*
X50288482Y-40082625D01*
X50288482Y-40082625D02*
X50443694Y-39918743D01*
X50443694Y-39918743D02*
X50554646Y-39737846D01*
X50554646Y-39737846D02*
X50573021Y-39693676D01*
X50573021Y-39693676D02*
X50586490Y-39652210D01*
X50586490Y-39652210D02*
X50597860Y-39601575D01*
X50597860Y-39601575D02*
X50607404Y-39535840D01*
X50607404Y-39535840D02*
X50615396Y-39449073D01*
X50615396Y-39449073D02*
X50622111Y-39335341D01*
X50622111Y-39335341D02*
X50627822Y-39188713D01*
X50627822Y-39188713D02*
X50632804Y-39003257D01*
X50632804Y-39003257D02*
X50637330Y-38773041D01*
X50637330Y-38773041D02*
X50641675Y-38492132D01*
X50641675Y-38492132D02*
X50646111Y-38154600D01*
X50646111Y-38154600D02*
X50646843Y-38095339D01*
X50646843Y-38095339D02*
X50651132Y-37753884D01*
X50651132Y-37753884D02*
X50655066Y-37470235D01*
X50655066Y-37470235D02*
X50658950Y-37238702D01*
X50658950Y-37238702D02*
X50663087Y-37053595D01*
X50663087Y-37053595D02*
X50667783Y-36909224D01*
X50667783Y-36909224D02*
X50673340Y-36799898D01*
X50673340Y-36799898D02*
X50680063Y-36719927D01*
X50680063Y-36719927D02*
X50688257Y-36663622D01*
X50688257Y-36663622D02*
X50698225Y-36625291D01*
X50698225Y-36625291D02*
X50710271Y-36599245D01*
X50710271Y-36599245D02*
X50724700Y-36579793D01*
X50724700Y-36579793D02*
X50728051Y-36576026D01*
X50728051Y-36576026D02*
X50857612Y-36475161D01*
X50857612Y-36475161D02*
X51007673Y-36424844D01*
X51007673Y-36424844D02*
X51163828Y-36424203D01*
X51163828Y-36424203D02*
X51311669Y-36472363D01*
X51311669Y-36472363D02*
X51436793Y-36568452D01*
X51436793Y-36568452D02*
X51478173Y-36621487D01*
X51478173Y-36621487D02*
X51488980Y-36649177D01*
X51488980Y-36649177D02*
X51498287Y-36700645D01*
X51498287Y-36700645D02*
X51506287Y-36780849D01*
X51506287Y-36780849D02*
X51513175Y-36894747D01*
X51513175Y-36894747D02*
X51519145Y-37047297D01*
X51519145Y-37047297D02*
X51524388Y-37243458D01*
X51524388Y-37243458D02*
X51529100Y-37488188D01*
X51529100Y-37488188D02*
X51533474Y-37786445D01*
X51533474Y-37786445D02*
X51537702Y-38143187D01*
X51537702Y-38143187D02*
X51537750Y-38147625D01*
X51537750Y-38147625D02*
X51541546Y-38490243D01*
X51541546Y-38490243D02*
X51545032Y-38775312D01*
X51545032Y-38775312D02*
X51548531Y-39008779D01*
X51548531Y-39008779D02*
X51552367Y-39196593D01*
X51552367Y-39196593D02*
X51556862Y-39344702D01*
X51556862Y-39344702D02*
X51562341Y-39459051D01*
X51562341Y-39459051D02*
X51569126Y-39545591D01*
X51569126Y-39545591D02*
X51577541Y-39610268D01*
X51577541Y-39610268D02*
X51587909Y-39659030D01*
X51587909Y-39659030D02*
X51600553Y-39697824D01*
X51600553Y-39697824D02*
X51615797Y-39732599D01*
X51615797Y-39732599D02*
X51624906Y-39751164D01*
X51624906Y-39751164D02*
X51758386Y-39955201D01*
X51758386Y-39955201D02*
X51931743Y-40120964D01*
X51931743Y-40120964D02*
X52134248Y-40240933D01*
X52134248Y-40240933D02*
X52355169Y-40307590D01*
X52355169Y-40307590D02*
X52432016Y-40316733D01*
X52432016Y-40316733D02*
X52540438Y-40320992D01*
X52540438Y-40320992D02*
X52609569Y-40310008D01*
X52609569Y-40310008D02*
X52662967Y-40277629D01*
X52662967Y-40277629D02*
X52694413Y-40248224D01*
X52694413Y-40248224D02*
X52763546Y-40143014D01*
X52763546Y-40143014D02*
X52776451Y-40033297D01*
X52776451Y-40033297D02*
X52738200Y-39931129D01*
X52738200Y-39931129D02*
X52653869Y-39848561D01*
X52653869Y-39848561D02*
X52528531Y-39797648D01*
X52528531Y-39797648D02*
X52502741Y-39792888D01*
X52502741Y-39792888D02*
X52321908Y-39742121D01*
X52321908Y-39742121D02*
X52191631Y-39653665D01*
X52191631Y-39653665D02*
X52149237Y-39601000D01*
X52149237Y-39601000D02*
X52135924Y-39576185D01*
X52135924Y-39576185D02*
X52124732Y-39542047D01*
X52124732Y-39542047D02*
X52115394Y-39492883D01*
X52115394Y-39492883D02*
X52107643Y-39422990D01*
X52107643Y-39422990D02*
X52101212Y-39326664D01*
X52101212Y-39326664D02*
X52095835Y-39198203D01*
X52095835Y-39198203D02*
X52091242Y-39031904D01*
X52091242Y-39031904D02*
X52087168Y-38822064D01*
X52087168Y-38822064D02*
X52083346Y-38562981D01*
X52083346Y-38562981D02*
X52079507Y-38248950D01*
X52079507Y-38248950D02*
X52077500Y-38069723D01*
X52077500Y-38069723D02*
X52073659Y-37728430D01*
X52073659Y-37728430D02*
X52070089Y-37444623D01*
X52070089Y-37444623D02*
X52066473Y-37212291D01*
X52066473Y-37212291D02*
X52062492Y-37025421D01*
X52062492Y-37025421D02*
X52057829Y-36878002D01*
X52057829Y-36878002D02*
X52052163Y-36764023D01*
X52052163Y-36764023D02*
X52045177Y-36677471D01*
X52045177Y-36677471D02*
X52036552Y-36612337D01*
X52036552Y-36612337D02*
X52025970Y-36562607D01*
X52025970Y-36562607D02*
X52013112Y-36522271D01*
X52013112Y-36522271D02*
X51997660Y-36485317D01*
X51997660Y-36485317D02*
X51993017Y-36475172D01*
X51993017Y-36475172D02*
X51860307Y-36257785D01*
X51860307Y-36257785D02*
X51686930Y-36085523D01*
X51686930Y-36085523D02*
X51479481Y-35963039D01*
X51479481Y-35963039D02*
X51244559Y-35894988D01*
X51244559Y-35894988D02*
X51156296Y-35884837D01*
X51156296Y-35884837D02*
X50908326Y-35897316D01*
X50908326Y-35897316D02*
X50677641Y-35968022D01*
X50677641Y-35968022D02*
X50472758Y-36092384D01*
X50472758Y-36092384D02*
X50302196Y-36265830D01*
X50302196Y-36265830D02*
X50223262Y-36385500D01*
X50223262Y-36385500D02*
X50124875Y-36560125D01*
X50124875Y-36560125D02*
X50109000Y-38020625D01*
X50109000Y-38020625D02*
X50104423Y-38395385D01*
X50104423Y-38395385D02*
X50099426Y-38710335D01*
X50099426Y-38710335D02*
X50093876Y-38969165D01*
X50093876Y-38969165D02*
X50087643Y-39175564D01*
X50087643Y-39175564D02*
X50080592Y-39333222D01*
X50080592Y-39333222D02*
X50072593Y-39445827D01*
X50072593Y-39445827D02*
X50063511Y-39517069D01*
X50063511Y-39517069D02*
X50054154Y-39549137D01*
X50054154Y-39549137D02*
X50004519Y-39613675D01*
X50004519Y-39613675D02*
X49930825Y-39687616D01*
X49930825Y-39687616D02*
X49912797Y-39703302D01*
X49912797Y-39703302D02*
X49845838Y-39752808D01*
X49845838Y-39752808D02*
X49781713Y-39776226D01*
X49781713Y-39776226D02*
X49694763Y-39780092D01*
X49694763Y-39780092D02*
X49626766Y-39776169D01*
X49626766Y-39776169D02*
X49461819Y-39743538D01*
X49461819Y-39743538D02*
X49336875Y-39667911D01*
X49336875Y-39667911D02*
X49240898Y-39544625D01*
X49240898Y-39544625D02*
X49230876Y-39502811D01*
X49230876Y-39502811D02*
X49221892Y-39412299D01*
X49221892Y-39412299D02*
X49213863Y-39270742D01*
X49213863Y-39270742D02*
X49206709Y-39075796D01*
X49206709Y-39075796D02*
X49200349Y-38825114D01*
X49200349Y-38825114D02*
X49194701Y-38516350D01*
X49194701Y-38516350D02*
X49189684Y-38147159D01*
X49189684Y-38147159D02*
X49188250Y-38020625D01*
X49188250Y-38020625D02*
X49184448Y-37677926D01*
X49184448Y-37677926D02*
X49180948Y-37392824D01*
X49180948Y-37392824D02*
X49177433Y-37159418D01*
X49177433Y-37159418D02*
X49173586Y-36971806D01*
X49173586Y-36971806D02*
X49169090Y-36824088D01*
X49169090Y-36824088D02*
X49163627Y-36710363D01*
X49163627Y-36710363D02*
X49156879Y-36624731D01*
X49156879Y-36624731D02*
X49148531Y-36561291D01*
X49148531Y-36561291D02*
X49138263Y-36514141D01*
X49138263Y-36514141D02*
X49125759Y-36477382D01*
X49125759Y-36477382D02*
X49110702Y-36445113D01*
X49110702Y-36445113D02*
X49102709Y-36429923D01*
X49102709Y-36429923D02*
X48960428Y-36223210D01*
X48960428Y-36223210D02*
X48786643Y-36065304D01*
X48786643Y-36065304D02*
X48589829Y-35955983D01*
X48589829Y-35955983D02*
X48378465Y-35895026D01*
X48378465Y-35895026D02*
X48161028Y-35882212D01*
X48161028Y-35882212D02*
X47945995Y-35917320D01*
X47945995Y-35917320D02*
X47741844Y-36000128D01*
X47741844Y-36000128D02*
X47557052Y-36130416D01*
X47557052Y-36130416D02*
X47400097Y-36307962D01*
X47400097Y-36307962D02*
X47303486Y-36476863D01*
X47303486Y-36476863D02*
X47287443Y-36513695D01*
X47287443Y-36513695D02*
X47274051Y-36552618D01*
X47274051Y-36552618D02*
X47262994Y-36599642D01*
X47262994Y-36599642D02*
X47253955Y-36660777D01*
X47253955Y-36660777D02*
X47246618Y-36742031D01*
X47246618Y-36742031D02*
X47240666Y-36849415D01*
X47240666Y-36849415D02*
X47235784Y-36988938D01*
X47235784Y-36988938D02*
X47231656Y-37166609D01*
X47231656Y-37166609D02*
X47227965Y-37388438D01*
X47227965Y-37388438D02*
X47224394Y-37660434D01*
X47224394Y-37660434D02*
X47220629Y-37988608D01*
X47220629Y-37988608D02*
X47219750Y-38068250D01*
X47219750Y-38068250D02*
X47215356Y-38430438D01*
X47215356Y-38430438D02*
X47210696Y-38733720D01*
X47210696Y-38733720D02*
X47205596Y-38982689D01*
X47205596Y-38982689D02*
X47199884Y-39181939D01*
X47199884Y-39181939D02*
X47193383Y-39336062D01*
X47193383Y-39336062D02*
X47185920Y-39449653D01*
X47185920Y-39449653D02*
X47177321Y-39527305D01*
X47177321Y-39527305D02*
X47167411Y-39573611D01*
X47167411Y-39573611D02*
X47162162Y-39586011D01*
X47162162Y-39586011D02*
X47069092Y-39689799D01*
X47069092Y-39689799D02*
X46940169Y-39756101D01*
X46940169Y-39756101D02*
X46792986Y-39781716D01*
X46792986Y-39781716D02*
X46645139Y-39763444D01*
X46645139Y-39763444D02*
X46520387Y-39702737D01*
X46520387Y-39702737D02*
X46443719Y-39639052D01*
X46443719Y-39639052D02*
X46387730Y-39580044D01*
X46387730Y-39580044D02*
X46379281Y-39567800D01*
X46379281Y-39567800D02*
X46370748Y-39521966D01*
X46370748Y-39521966D02*
X46362590Y-39415782D01*
X46362590Y-39415782D02*
X46354909Y-39252400D01*
X46354909Y-39252400D02*
X46347807Y-39034970D01*
X46347807Y-39034970D02*
X46341385Y-38766643D01*
X46341385Y-38766643D02*
X46335745Y-38450567D01*
X46335745Y-38450567D02*
X46330991Y-38089895D01*
X46330991Y-38089895D02*
X46330750Y-38068250D01*
X46330750Y-38068250D02*
X46326956Y-37727940D01*
X46326956Y-37727940D02*
X46323499Y-37445057D01*
X46323499Y-37445057D02*
X46320035Y-37213532D01*
X46320035Y-37213532D02*
X46316219Y-37027296D01*
X46316219Y-37027296D02*
X46311706Y-36880280D01*
X46311706Y-36880280D02*
X46306152Y-36766415D01*
X46306152Y-36766415D02*
X46299213Y-36679631D01*
X46299213Y-36679631D02*
X46290544Y-36613860D01*
X46290544Y-36613860D02*
X46279801Y-36563032D01*
X46279801Y-36563032D02*
X46266639Y-36521078D01*
X46266639Y-36521078D02*
X46250713Y-36481929D01*
X46250713Y-36481929D02*
X46239253Y-36456298D01*
X46239253Y-36456298D02*
X46146358Y-36303670D01*
X46146358Y-36303670D02*
X46014710Y-36155464D01*
X46014710Y-36155464D02*
X45862718Y-36028912D01*
X45862718Y-36028912D02*
X45708792Y-35941244D01*
X45708792Y-35941244D02*
X45675347Y-35928493D01*
X45675347Y-35928493D02*
X45615891Y-35912007D01*
X45615891Y-35912007D02*
X45540790Y-35899335D01*
X45540790Y-35899335D02*
X45441680Y-35890032D01*
X45441680Y-35890032D02*
X45310199Y-35883649D01*
X45310199Y-35883649D02*
X45137983Y-35879738D01*
X45137983Y-35879738D02*
X44916669Y-35877853D01*
X44916669Y-35877853D02*
X44722060Y-35877499D01*
X44722060Y-35877499D02*
X44442493Y-35878455D01*
X44442493Y-35878455D02*
X44442493Y-35878455D01*
G36*
X44916669Y-35877853D02*
G01*
X45137983Y-35879738D01*
X45310199Y-35883649D01*
X45441680Y-35890032D01*
X45540790Y-35899335D01*
X45615891Y-35912007D01*
X45675347Y-35928493D01*
X45708792Y-35941244D01*
X45862718Y-36028912D01*
X46014710Y-36155464D01*
X46146358Y-36303670D01*
X46239253Y-36456298D01*
X46250713Y-36481929D01*
X46266639Y-36521078D01*
X46279801Y-36563032D01*
X46290544Y-36613860D01*
X46299213Y-36679631D01*
X46306152Y-36766415D01*
X46311706Y-36880280D01*
X46316219Y-37027296D01*
X46320035Y-37213532D01*
X46323499Y-37445057D01*
X46326956Y-37727940D01*
X46330750Y-38068250D01*
X46330991Y-38089895D01*
X46335745Y-38450567D01*
X46341385Y-38766643D01*
X46347807Y-39034970D01*
X46354909Y-39252400D01*
X46362590Y-39415782D01*
X46370748Y-39521966D01*
X46379281Y-39567800D01*
X46387730Y-39580044D01*
X46443719Y-39639052D01*
X46520387Y-39702737D01*
X46645139Y-39763444D01*
X46792986Y-39781716D01*
X46940169Y-39756101D01*
X47069092Y-39689799D01*
X47162162Y-39586011D01*
X47167411Y-39573611D01*
X47177321Y-39527305D01*
X47185920Y-39449653D01*
X47193383Y-39336062D01*
X47199884Y-39181939D01*
X47205596Y-38982689D01*
X47210696Y-38733720D01*
X47215356Y-38430438D01*
X47219750Y-38068250D01*
X47220629Y-37988608D01*
X47224394Y-37660434D01*
X47227965Y-37388438D01*
X47231656Y-37166609D01*
X47235784Y-36988938D01*
X47240666Y-36849415D01*
X47246618Y-36742031D01*
X47253955Y-36660777D01*
X47262994Y-36599642D01*
X47274051Y-36552618D01*
X47287443Y-36513695D01*
X47303486Y-36476863D01*
X47400097Y-36307962D01*
X47557052Y-36130416D01*
X47741844Y-36000128D01*
X47945995Y-35917320D01*
X48161028Y-35882212D01*
X48378465Y-35895026D01*
X48589829Y-35955983D01*
X48786643Y-36065304D01*
X48960428Y-36223210D01*
X49102709Y-36429923D01*
X49110702Y-36445113D01*
X49125759Y-36477382D01*
X49138263Y-36514141D01*
X49148531Y-36561291D01*
X49156879Y-36624731D01*
X49163627Y-36710363D01*
X49169090Y-36824088D01*
X49173586Y-36971806D01*
X49177433Y-37159418D01*
X49180948Y-37392824D01*
X49184448Y-37677926D01*
X49188250Y-38020625D01*
X49189684Y-38147159D01*
X49194701Y-38516350D01*
X49200349Y-38825114D01*
X49206709Y-39075796D01*
X49213863Y-39270742D01*
X49221892Y-39412299D01*
X49230876Y-39502811D01*
X49240898Y-39544625D01*
X49336875Y-39667911D01*
X49461819Y-39743538D01*
X49626766Y-39776169D01*
X49694763Y-39780092D01*
X49781713Y-39776226D01*
X49845838Y-39752808D01*
X49912797Y-39703302D01*
X49930825Y-39687616D01*
X50004519Y-39613675D01*
X50054154Y-39549137D01*
X50063511Y-39517069D01*
X50072593Y-39445827D01*
X50080592Y-39333222D01*
X50087643Y-39175564D01*
X50093876Y-38969165D01*
X50099426Y-38710335D01*
X50104423Y-38395385D01*
X50109000Y-38020625D01*
X50124875Y-36560125D01*
X50223262Y-36385500D01*
X50302196Y-36265830D01*
X50472758Y-36092384D01*
X50677641Y-35968022D01*
X50908326Y-35897316D01*
X51156296Y-35884837D01*
X51244559Y-35894988D01*
X51479481Y-35963039D01*
X51686930Y-36085523D01*
X51860307Y-36257785D01*
X51993017Y-36475172D01*
X51997660Y-36485317D01*
X52013112Y-36522271D01*
X52025970Y-36562607D01*
X52036552Y-36612337D01*
X52045177Y-36677471D01*
X52052163Y-36764023D01*
X52057829Y-36878002D01*
X52062492Y-37025421D01*
X52066473Y-37212291D01*
X52070089Y-37444623D01*
X52073659Y-37728430D01*
X52077500Y-38069723D01*
X52079507Y-38248950D01*
X52083346Y-38562981D01*
X52087168Y-38822064D01*
X52091242Y-39031904D01*
X52095835Y-39198203D01*
X52101212Y-39326664D01*
X52107643Y-39422990D01*
X52115394Y-39492883D01*
X52124732Y-39542047D01*
X52135924Y-39576185D01*
X52149237Y-39601000D01*
X52191631Y-39653665D01*
X52321908Y-39742121D01*
X52502741Y-39792888D01*
X52528531Y-39797648D01*
X52653869Y-39848561D01*
X52738200Y-39931129D01*
X52776451Y-40033297D01*
X52763546Y-40143014D01*
X52694413Y-40248224D01*
X52662967Y-40277629D01*
X52609569Y-40310008D01*
X52540438Y-40320992D01*
X52432016Y-40316733D01*
X52355169Y-40307590D01*
X52134248Y-40240933D01*
X51931743Y-40120964D01*
X51758386Y-39955201D01*
X51624906Y-39751164D01*
X51615797Y-39732599D01*
X51600553Y-39697824D01*
X51587909Y-39659030D01*
X51577541Y-39610268D01*
X51569126Y-39545591D01*
X51562341Y-39459051D01*
X51556862Y-39344702D01*
X51552367Y-39196593D01*
X51548531Y-39008779D01*
X51545032Y-38775312D01*
X51541546Y-38490243D01*
X51537750Y-38147625D01*
X51537702Y-38143187D01*
X51533474Y-37786445D01*
X51529100Y-37488188D01*
X51524388Y-37243458D01*
X51519145Y-37047297D01*
X51513175Y-36894747D01*
X51506287Y-36780849D01*
X51498287Y-36700645D01*
X51488980Y-36649177D01*
X51478173Y-36621487D01*
X51436793Y-36568452D01*
X51311669Y-36472363D01*
X51163828Y-36424203D01*
X51007673Y-36424844D01*
X50857612Y-36475161D01*
X50728051Y-36576026D01*
X50724700Y-36579793D01*
X50710271Y-36599245D01*
X50698225Y-36625291D01*
X50688257Y-36663622D01*
X50680063Y-36719927D01*
X50673340Y-36799898D01*
X50667783Y-36909224D01*
X50663087Y-37053595D01*
X50658950Y-37238702D01*
X50655066Y-37470235D01*
X50651132Y-37753884D01*
X50646843Y-38095339D01*
X50646111Y-38154600D01*
X50641675Y-38492132D01*
X50637330Y-38773041D01*
X50632804Y-39003257D01*
X50627822Y-39188713D01*
X50622111Y-39335341D01*
X50615396Y-39449073D01*
X50607404Y-39535840D01*
X50597860Y-39601575D01*
X50586490Y-39652210D01*
X50573021Y-39693676D01*
X50554646Y-39737846D01*
X50443694Y-39918743D01*
X50288482Y-40082625D01*
X50104410Y-40212445D01*
X50058530Y-40237180D01*
X49976431Y-40274184D01*
X49894991Y-40295150D01*
X49792845Y-40304492D01*
X49648625Y-40306625D01*
X49571009Y-40306202D01*
X49450318Y-40301095D01*
X49361090Y-40286597D01*
X49281907Y-40258259D01*
X49191349Y-40211632D01*
X49019909Y-40090992D01*
X48851828Y-39908443D01*
X48730146Y-39695156D01*
X48717007Y-39661494D01*
X48704154Y-39619224D01*
X48693467Y-39567494D01*
X48684644Y-39500302D01*
X48677384Y-39411642D01*
X48671386Y-39295510D01*
X48666350Y-39145901D01*
X48661973Y-38956813D01*
X48657955Y-38722239D01*
X48653995Y-38436177D01*
X48649792Y-38092621D01*
X48632625Y-36640617D01*
X48531621Y-36539664D01*
X48528519Y-36536577D01*
X48453089Y-36474193D01*
X48370863Y-36440593D01*
X48253598Y-36424031D01*
X48236756Y-36422699D01*
X48126734Y-36420691D01*
X48047112Y-36438719D01*
X47969681Y-36482601D01*
X47945226Y-36499157D01*
X47904872Y-36527367D01*
X47871437Y-36556449D01*
X47844202Y-36592096D01*
X47822448Y-36639999D01*
X47805456Y-36705853D01*
X47792508Y-36795350D01*
X47782886Y-36914182D01*
X47775870Y-37068042D01*
X47770742Y-37262624D01*
X47766784Y-37503620D01*
X47763276Y-37796722D01*
X47759500Y-38147625D01*
X47743625Y-39608125D01*
X47658873Y-39768704D01*
X47550622Y-39934471D01*
X47381744Y-40108493D01*
X47188000Y-40236154D01*
X47090274Y-40273111D01*
X46906577Y-40306451D01*
X46706512Y-40310115D01*
X46514232Y-40284306D01*
X46353891Y-40229224D01*
X46227543Y-40152636D01*
X46038418Y-39981372D01*
X45891025Y-39766875D01*
X45806875Y-39608125D01*
X45791000Y-38147625D01*
X45790621Y-38113228D01*
X45785858Y-37751316D01*
X45780226Y-37434367D01*
X45773821Y-37165471D01*
X45766745Y-36947716D01*
X45759095Y-36784194D01*
X45750970Y-36677991D01*
X45742470Y-36632199D01*
X45734021Y-36619955D01*
X45678032Y-36560947D01*
X45601364Y-36497262D01*
X45492914Y-36417250D01*
X44729145Y-36417368D01*
X44549865Y-36417564D01*
X44347806Y-36418693D01*
X44194633Y-36421371D01*
X44081828Y-36426208D01*
X44000871Y-36433814D01*
X43943246Y-36444800D01*
X43900432Y-36459776D01*
X43863913Y-36479352D01*
X43763137Y-36558100D01*
X43683317Y-36682918D01*
X43655925Y-36841137D01*
X43681571Y-37007039D01*
X43760103Y-37146053D01*
X43885505Y-37247096D01*
X43922897Y-37264769D01*
X43980286Y-37282548D01*
X44056246Y-37294518D01*
X44162005Y-37301747D01*
X44308790Y-37305302D01*
X44507830Y-37306250D01*
X44543610Y-37306317D01*
X44748541Y-37309558D01*
X44921054Y-37317210D01*
X45050804Y-37328656D01*
X45127450Y-37343277D01*
X45292144Y-37424370D01*
X45431758Y-37549791D01*
X45527007Y-37703254D01*
X45576478Y-37874359D01*
X45578756Y-38052707D01*
X45532431Y-38227899D01*
X45436087Y-38389535D01*
X45288314Y-38527215D01*
X45150752Y-38623875D01*
X44539080Y-38639750D01*
X44379959Y-38644037D01*
X44200233Y-38650394D01*
X44067055Y-38658987D01*
X43970469Y-38671985D01*
X43900521Y-38691555D01*
X43847253Y-38719865D01*
X43800712Y-38759082D01*
X43750941Y-38811376D01*
X43722265Y-38848335D01*
X43684362Y-38927808D01*
X43657907Y-39036783D01*
X43641704Y-39183672D01*
X43634556Y-39376886D01*
X43635268Y-39624837D01*
X43636931Y-39758145D01*
X43636900Y-39918956D01*
X43632967Y-40033760D01*
X43624300Y-40113155D01*
X43610067Y-40167739D01*
X43589434Y-40208110D01*
X43565335Y-40239144D01*
X43470686Y-40302897D01*
X43359843Y-40319160D01*
X43252207Y-40287889D01*
X43167178Y-40209042D01*
X43160558Y-40198203D01*
X43143586Y-40158170D01*
X43131564Y-40101308D01*
X43123861Y-40018287D01*
X43119843Y-39899779D01*
X43118876Y-39736455D01*
X43120327Y-39518984D01*
X43122640Y-39348721D01*
X43129354Y-39129195D01*
X43142012Y-38956416D01*
X43163058Y-38820196D01*
X43194938Y-38710350D01*
X43240097Y-38616692D01*
X43300981Y-38529035D01*
X43380035Y-38437193D01*
X43402671Y-38412706D01*
X43500671Y-38316065D01*
X43597056Y-38242708D01*
X43702668Y-38189228D01*
X43828350Y-38152220D01*
X43984942Y-38128276D01*
X44183287Y-38113990D01*
X44434227Y-38105954D01*
X44584555Y-38102505D01*
X44747942Y-38097504D01*
X44863544Y-38091289D01*
X44940544Y-38082714D01*
X44988123Y-38070635D01*
X45015461Y-38053904D01*
X45031742Y-38031376D01*
X45033550Y-38027960D01*
X45051299Y-37982150D01*
X45045888Y-37947025D01*
X45010594Y-37920725D01*
X44938693Y-37901389D01*
X44823463Y-37887157D01*
X44658181Y-37876169D01*
X44436124Y-37866565D01*
X44365624Y-37863844D01*
X44174616Y-37855284D01*
X44031729Y-37845896D01*
X43925222Y-37834102D01*
X43843351Y-37818323D01*
X43774375Y-37796982D01*
X43706552Y-37768500D01*
X43536577Y-37669043D01*
X43368890Y-37513445D01*
X43243470Y-37327841D01*
X43161734Y-37121684D01*
X43125103Y-36904425D01*
X43134996Y-36685516D01*
X43192832Y-36474409D01*
X43300031Y-36280554D01*
X43458011Y-36113405D01*
X43523680Y-36061305D01*
X43605327Y-36004809D01*
X43688840Y-35961176D01*
X43783021Y-35928763D01*
X43896675Y-35905927D01*
X44038603Y-35891026D01*
X44217608Y-35882416D01*
X44442493Y-35878455D01*
X44722060Y-35877499D01*
X44916669Y-35877853D01*
G37*
X44916669Y-35877853D02*
X45137983Y-35879738D01*
X45310199Y-35883649D01*
X45441680Y-35890032D01*
X45540790Y-35899335D01*
X45615891Y-35912007D01*
X45675347Y-35928493D01*
X45708792Y-35941244D01*
X45862718Y-36028912D01*
X46014710Y-36155464D01*
X46146358Y-36303670D01*
X46239253Y-36456298D01*
X46250713Y-36481929D01*
X46266639Y-36521078D01*
X46279801Y-36563032D01*
X46290544Y-36613860D01*
X46299213Y-36679631D01*
X46306152Y-36766415D01*
X46311706Y-36880280D01*
X46316219Y-37027296D01*
X46320035Y-37213532D01*
X46323499Y-37445057D01*
X46326956Y-37727940D01*
X46330750Y-38068250D01*
X46330991Y-38089895D01*
X46335745Y-38450567D01*
X46341385Y-38766643D01*
X46347807Y-39034970D01*
X46354909Y-39252400D01*
X46362590Y-39415782D01*
X46370748Y-39521966D01*
X46379281Y-39567800D01*
X46387730Y-39580044D01*
X46443719Y-39639052D01*
X46520387Y-39702737D01*
X46645139Y-39763444D01*
X46792986Y-39781716D01*
X46940169Y-39756101D01*
X47069092Y-39689799D01*
X47162162Y-39586011D01*
X47167411Y-39573611D01*
X47177321Y-39527305D01*
X47185920Y-39449653D01*
X47193383Y-39336062D01*
X47199884Y-39181939D01*
X47205596Y-38982689D01*
X47210696Y-38733720D01*
X47215356Y-38430438D01*
X47219750Y-38068250D01*
X47220629Y-37988608D01*
X47224394Y-37660434D01*
X47227965Y-37388438D01*
X47231656Y-37166609D01*
X47235784Y-36988938D01*
X47240666Y-36849415D01*
X47246618Y-36742031D01*
X47253955Y-36660777D01*
X47262994Y-36599642D01*
X47274051Y-36552618D01*
X47287443Y-36513695D01*
X47303486Y-36476863D01*
X47400097Y-36307962D01*
X47557052Y-36130416D01*
X47741844Y-36000128D01*
X47945995Y-35917320D01*
X48161028Y-35882212D01*
X48378465Y-35895026D01*
X48589829Y-35955983D01*
X48786643Y-36065304D01*
X48960428Y-36223210D01*
X49102709Y-36429923D01*
X49110702Y-36445113D01*
X49125759Y-36477382D01*
X49138263Y-36514141D01*
X49148531Y-36561291D01*
X49156879Y-36624731D01*
X49163627Y-36710363D01*
X49169090Y-36824088D01*
X49173586Y-36971806D01*
X49177433Y-37159418D01*
X49180948Y-37392824D01*
X49184448Y-37677926D01*
X49188250Y-38020625D01*
X49189684Y-38147159D01*
X49194701Y-38516350D01*
X49200349Y-38825114D01*
X49206709Y-39075796D01*
X49213863Y-39270742D01*
X49221892Y-39412299D01*
X49230876Y-39502811D01*
X49240898Y-39544625D01*
X49336875Y-39667911D01*
X49461819Y-39743538D01*
X49626766Y-39776169D01*
X49694763Y-39780092D01*
X49781713Y-39776226D01*
X49845838Y-39752808D01*
X49912797Y-39703302D01*
X49930825Y-39687616D01*
X50004519Y-39613675D01*
X50054154Y-39549137D01*
X50063511Y-39517069D01*
X50072593Y-39445827D01*
X50080592Y-39333222D01*
X50087643Y-39175564D01*
X50093876Y-38969165D01*
X50099426Y-38710335D01*
X50104423Y-38395385D01*
X50109000Y-38020625D01*
X50124875Y-36560125D01*
X50223262Y-36385500D01*
X50302196Y-36265830D01*
X50472758Y-36092384D01*
X50677641Y-35968022D01*
X50908326Y-35897316D01*
X51156296Y-35884837D01*
X51244559Y-35894988D01*
X51479481Y-35963039D01*
X51686930Y-36085523D01*
X51860307Y-36257785D01*
X51993017Y-36475172D01*
X51997660Y-36485317D01*
X52013112Y-36522271D01*
X52025970Y-36562607D01*
X52036552Y-36612337D01*
X52045177Y-36677471D01*
X52052163Y-36764023D01*
X52057829Y-36878002D01*
X52062492Y-37025421D01*
X52066473Y-37212291D01*
X52070089Y-37444623D01*
X52073659Y-37728430D01*
X52077500Y-38069723D01*
X52079507Y-38248950D01*
X52083346Y-38562981D01*
X52087168Y-38822064D01*
X52091242Y-39031904D01*
X52095835Y-39198203D01*
X52101212Y-39326664D01*
X52107643Y-39422990D01*
X52115394Y-39492883D01*
X52124732Y-39542047D01*
X52135924Y-39576185D01*
X52149237Y-39601000D01*
X52191631Y-39653665D01*
X52321908Y-39742121D01*
X52502741Y-39792888D01*
X52528531Y-39797648D01*
X52653869Y-39848561D01*
X52738200Y-39931129D01*
X52776451Y-40033297D01*
X52763546Y-40143014D01*
X52694413Y-40248224D01*
X52662967Y-40277629D01*
X52609569Y-40310008D01*
X52540438Y-40320992D01*
X52432016Y-40316733D01*
X52355169Y-40307590D01*
X52134248Y-40240933D01*
X51931743Y-40120964D01*
X51758386Y-39955201D01*
X51624906Y-39751164D01*
X51615797Y-39732599D01*
X51600553Y-39697824D01*
X51587909Y-39659030D01*
X51577541Y-39610268D01*
X51569126Y-39545591D01*
X51562341Y-39459051D01*
X51556862Y-39344702D01*
X51552367Y-39196593D01*
X51548531Y-39008779D01*
X51545032Y-38775312D01*
X51541546Y-38490243D01*
X51537750Y-38147625D01*
X51537702Y-38143187D01*
X51533474Y-37786445D01*
X51529100Y-37488188D01*
X51524388Y-37243458D01*
X51519145Y-37047297D01*
X51513175Y-36894747D01*
X51506287Y-36780849D01*
X51498287Y-36700645D01*
X51488980Y-36649177D01*
X51478173Y-36621487D01*
X51436793Y-36568452D01*
X51311669Y-36472363D01*
X51163828Y-36424203D01*
X51007673Y-36424844D01*
X50857612Y-36475161D01*
X50728051Y-36576026D01*
X50724700Y-36579793D01*
X50710271Y-36599245D01*
X50698225Y-36625291D01*
X50688257Y-36663622D01*
X50680063Y-36719927D01*
X50673340Y-36799898D01*
X50667783Y-36909224D01*
X50663087Y-37053595D01*
X50658950Y-37238702D01*
X50655066Y-37470235D01*
X50651132Y-37753884D01*
X50646843Y-38095339D01*
X50646111Y-38154600D01*
X50641675Y-38492132D01*
X50637330Y-38773041D01*
X50632804Y-39003257D01*
X50627822Y-39188713D01*
X50622111Y-39335341D01*
X50615396Y-39449073D01*
X50607404Y-39535840D01*
X50597860Y-39601575D01*
X50586490Y-39652210D01*
X50573021Y-39693676D01*
X50554646Y-39737846D01*
X50443694Y-39918743D01*
X50288482Y-40082625D01*
X50104410Y-40212445D01*
X50058530Y-40237180D01*
X49976431Y-40274184D01*
X49894991Y-40295150D01*
X49792845Y-40304492D01*
X49648625Y-40306625D01*
X49571009Y-40306202D01*
X49450318Y-40301095D01*
X49361090Y-40286597D01*
X49281907Y-40258259D01*
X49191349Y-40211632D01*
X49019909Y-40090992D01*
X48851828Y-39908443D01*
X48730146Y-39695156D01*
X48717007Y-39661494D01*
X48704154Y-39619224D01*
X48693467Y-39567494D01*
X48684644Y-39500302D01*
X48677384Y-39411642D01*
X48671386Y-39295510D01*
X48666350Y-39145901D01*
X48661973Y-38956813D01*
X48657955Y-38722239D01*
X48653995Y-38436177D01*
X48649792Y-38092621D01*
X48632625Y-36640617D01*
X48531621Y-36539664D01*
X48528519Y-36536577D01*
X48453089Y-36474193D01*
X48370863Y-36440593D01*
X48253598Y-36424031D01*
X48236756Y-36422699D01*
X48126734Y-36420691D01*
X48047112Y-36438719D01*
X47969681Y-36482601D01*
X47945226Y-36499157D01*
X47904872Y-36527367D01*
X47871437Y-36556449D01*
X47844202Y-36592096D01*
X47822448Y-36639999D01*
X47805456Y-36705853D01*
X47792508Y-36795350D01*
X47782886Y-36914182D01*
X47775870Y-37068042D01*
X47770742Y-37262624D01*
X47766784Y-37503620D01*
X47763276Y-37796722D01*
X47759500Y-38147625D01*
X47743625Y-39608125D01*
X47658873Y-39768704D01*
X47550622Y-39934471D01*
X47381744Y-40108493D01*
X47188000Y-40236154D01*
X47090274Y-40273111D01*
X46906577Y-40306451D01*
X46706512Y-40310115D01*
X46514232Y-40284306D01*
X46353891Y-40229224D01*
X46227543Y-40152636D01*
X46038418Y-39981372D01*
X45891025Y-39766875D01*
X45806875Y-39608125D01*
X45791000Y-38147625D01*
X45790621Y-38113228D01*
X45785858Y-37751316D01*
X45780226Y-37434367D01*
X45773821Y-37165471D01*
X45766745Y-36947716D01*
X45759095Y-36784194D01*
X45750970Y-36677991D01*
X45742470Y-36632199D01*
X45734021Y-36619955D01*
X45678032Y-36560947D01*
X45601364Y-36497262D01*
X45492914Y-36417250D01*
X44729145Y-36417368D01*
X44549865Y-36417564D01*
X44347806Y-36418693D01*
X44194633Y-36421371D01*
X44081828Y-36426208D01*
X44000871Y-36433814D01*
X43943246Y-36444800D01*
X43900432Y-36459776D01*
X43863913Y-36479352D01*
X43763137Y-36558100D01*
X43683317Y-36682918D01*
X43655925Y-36841137D01*
X43681571Y-37007039D01*
X43760103Y-37146053D01*
X43885505Y-37247096D01*
X43922897Y-37264769D01*
X43980286Y-37282548D01*
X44056246Y-37294518D01*
X44162005Y-37301747D01*
X44308790Y-37305302D01*
X44507830Y-37306250D01*
X44543610Y-37306317D01*
X44748541Y-37309558D01*
X44921054Y-37317210D01*
X45050804Y-37328656D01*
X45127450Y-37343277D01*
X45292144Y-37424370D01*
X45431758Y-37549791D01*
X45527007Y-37703254D01*
X45576478Y-37874359D01*
X45578756Y-38052707D01*
X45532431Y-38227899D01*
X45436087Y-38389535D01*
X45288314Y-38527215D01*
X45150752Y-38623875D01*
X44539080Y-38639750D01*
X44379959Y-38644037D01*
X44200233Y-38650394D01*
X44067055Y-38658987D01*
X43970469Y-38671985D01*
X43900521Y-38691555D01*
X43847253Y-38719865D01*
X43800712Y-38759082D01*
X43750941Y-38811376D01*
X43722265Y-38848335D01*
X43684362Y-38927808D01*
X43657907Y-39036783D01*
X43641704Y-39183672D01*
X43634556Y-39376886D01*
X43635268Y-39624837D01*
X43636931Y-39758145D01*
X43636900Y-39918956D01*
X43632967Y-40033760D01*
X43624300Y-40113155D01*
X43610067Y-40167739D01*
X43589434Y-40208110D01*
X43565335Y-40239144D01*
X43470686Y-40302897D01*
X43359843Y-40319160D01*
X43252207Y-40287889D01*
X43167178Y-40209042D01*
X43160558Y-40198203D01*
X43143586Y-40158170D01*
X43131564Y-40101308D01*
X43123861Y-40018287D01*
X43119843Y-39899779D01*
X43118876Y-39736455D01*
X43120327Y-39518984D01*
X43122640Y-39348721D01*
X43129354Y-39129195D01*
X43142012Y-38956416D01*
X43163058Y-38820196D01*
X43194938Y-38710350D01*
X43240097Y-38616692D01*
X43300981Y-38529035D01*
X43380035Y-38437193D01*
X43402671Y-38412706D01*
X43500671Y-38316065D01*
X43597056Y-38242708D01*
X43702668Y-38189228D01*
X43828350Y-38152220D01*
X43984942Y-38128276D01*
X44183287Y-38113990D01*
X44434227Y-38105954D01*
X44584555Y-38102505D01*
X44747942Y-38097504D01*
X44863544Y-38091289D01*
X44940544Y-38082714D01*
X44988123Y-38070635D01*
X45015461Y-38053904D01*
X45031742Y-38031376D01*
X45033550Y-38027960D01*
X45051299Y-37982150D01*
X45045888Y-37947025D01*
X45010594Y-37920725D01*
X44938693Y-37901389D01*
X44823463Y-37887157D01*
X44658181Y-37876169D01*
X44436124Y-37866565D01*
X44365624Y-37863844D01*
X44174616Y-37855284D01*
X44031729Y-37845896D01*
X43925222Y-37834102D01*
X43843351Y-37818323D01*
X43774375Y-37796982D01*
X43706552Y-37768500D01*
X43536577Y-37669043D01*
X43368890Y-37513445D01*
X43243470Y-37327841D01*
X43161734Y-37121684D01*
X43125103Y-36904425D01*
X43134996Y-36685516D01*
X43192832Y-36474409D01*
X43300031Y-36280554D01*
X43458011Y-36113405D01*
X43523680Y-36061305D01*
X43605327Y-36004809D01*
X43688840Y-35961176D01*
X43783021Y-35928763D01*
X43896675Y-35905927D01*
X44038603Y-35891026D01*
X44217608Y-35882416D01*
X44442493Y-35878455D01*
X44722060Y-35877499D01*
X44916669Y-35877853D01*
%TD*%
D12*
%TO.C,RV4*%
X90800000Y-48000000D03*
X85800000Y-48000000D03*
X80800000Y-48000000D03*
X90800000Y-43000000D03*
X85800000Y-43000000D03*
X80800000Y-43000000D03*
%TD*%
%TO.C,RV3*%
X67400000Y-48000000D03*
X62400000Y-48000000D03*
X57400000Y-48000000D03*
X67400000Y-43000000D03*
X62400000Y-43000000D03*
X57400000Y-43000000D03*
%TD*%
%TO.C,RV2*%
X20400000Y-48000000D03*
X15400000Y-48000000D03*
X10400000Y-48000000D03*
X20400000Y-43000000D03*
X15400000Y-43000000D03*
X10400000Y-43000000D03*
%TD*%
D13*
%TO.C,J5*%
X36575000Y-8600000D03*
D14*
X39115000Y-8600000D03*
X41655000Y-8600000D03*
%TD*%
D15*
%TO.C,C4*%
X49825000Y-28580000D03*
X49825000Y-33580000D03*
%TD*%
%TO.C,R12*%
X68425000Y-16500000D03*
D16*
X68425000Y-26660000D03*
%TD*%
D17*
%TO.C,U2*%
X49800000Y-17980000D03*
D18*
X49800000Y-20520000D03*
X49800000Y-23060000D03*
X49800000Y-25600000D03*
X57420000Y-25600000D03*
X57420000Y-23060000D03*
X57420000Y-20520000D03*
X57420000Y-17980000D03*
%TD*%
D15*
%TO.C,R13*%
X64800000Y-26660000D03*
D16*
X64800000Y-16500000D03*
%TD*%
D15*
%TO.C,R7*%
X73800000Y-38120000D03*
D16*
X73800000Y-48280000D03*
%TD*%
D15*
%TO.C,C5*%
X45300000Y-23500000D03*
X45300000Y-28500000D03*
%TD*%
%TO.C,R11*%
X72225000Y-26660000D03*
D16*
X72225000Y-16500000D03*
%TD*%
D15*
%TO.C,R1*%
X18880000Y-13800000D03*
D16*
X8720000Y-13800000D03*
%TD*%
D15*
%TO.C,C6*%
X41900000Y-28500000D03*
X41900000Y-23500000D03*
%TD*%
D19*
%TO.C,H2*%
X49600000Y-47200000D03*
%TD*%
D15*
%TO.C,R8*%
X37500000Y-23400000D03*
D16*
X37500000Y-33560000D03*
%TD*%
D17*
%TO.C,U1*%
X16775000Y-17200000D03*
D18*
X16775000Y-19740000D03*
X16775000Y-22280000D03*
X16775000Y-24820000D03*
X24395000Y-24820000D03*
X24395000Y-22280000D03*
X24395000Y-19740000D03*
X24395000Y-17200000D03*
%TD*%
D13*
%TO.C,J3*%
X16200000Y-8600000D03*
D14*
X18740000Y-8600000D03*
%TD*%
D15*
%TO.C,R4*%
X33200000Y-31200000D03*
D16*
X33200000Y-21040000D03*
%TD*%
D15*
%TO.C,R5*%
X26200000Y-39800000D03*
D16*
X36360000Y-39800000D03*
%TD*%
D15*
%TO.C,R2*%
X13000000Y-16520000D03*
D16*
X13000000Y-26680000D03*
%TD*%
D15*
%TO.C,C1*%
X9800000Y-21500000D03*
X9800000Y-26500000D03*
%TD*%
%TO.C,C10*%
X17400000Y-29400000D03*
X12400000Y-29400000D03*
%TD*%
%TO.C,R14*%
X61200000Y-16500000D03*
D16*
X61200000Y-26660000D03*
%TD*%
D15*
%TO.C,C8*%
X68900000Y-29300000D03*
X73900000Y-29300000D03*
%TD*%
D19*
%TO.C,H1*%
X8600000Y-8600000D03*
%TD*%
D13*
%TO.C,J1*%
X24200000Y-9600000D03*
D14*
X26740000Y-9600000D03*
X29280000Y-9600000D03*
%TD*%
D15*
%TO.C,C3*%
X61500000Y-13800000D03*
X56500000Y-13800000D03*
%TD*%
%TO.C,C9*%
X21500000Y-13700000D03*
X26500000Y-13700000D03*
%TD*%
%TO.C,C7*%
X60725000Y-29380000D03*
X65725000Y-29380000D03*
%TD*%
%TO.C,C2*%
X20000000Y-28000000D03*
X20000000Y-33000000D03*
%TD*%
%TO.C,R3*%
X29600000Y-31200000D03*
D16*
X29600000Y-21040000D03*
%TD*%
D15*
%TO.C,R10*%
X36745000Y-20180000D03*
D16*
X46905000Y-20180000D03*
%TD*%
D15*
%TO.C,R9*%
X46905000Y-16780000D03*
D16*
X36745000Y-16780000D03*
%TD*%
D12*
%TO.C,RV1*%
X31400000Y-48600000D03*
X36400000Y-48600000D03*
X41400000Y-48600000D03*
%TD*%
D14*
%TO.C,J4*%
X78800000Y-23620000D03*
X78800000Y-21080000D03*
X78800000Y-18540000D03*
D13*
X78800000Y-16000000D03*
%TD*%
D15*
%TO.C,R6*%
X7200000Y-32800000D03*
D16*
X17360000Y-32800000D03*
%TD*%
D20*
%TO.C,J2*%
X91000000Y-31550000D03*
X91000000Y-7250000D03*
D21*
X86250000Y-8400000D03*
X86250000Y-22400000D03*
D22*
X91000000Y-26400000D03*
X91100000Y-12400000D03*
%TD*%
M02*
