M48
; DRILL file {KiCad 7.0.8-7.0.8~ubuntu22.04.1} date Sun 08 Oct 2023 09:38:35 -05
; FORMAT={-:-/ absolute / metric / decimal}
; #@! TF.CreationDate,2023-10-08T09:38:35-05:00
; #@! TF.GenerationSoftware,Kicad,Pcbnew,7.0.8-7.0.8~ubuntu22.04.1
; #@! TF.FileFunction,Plated,1,2,PTH
FMAT,2
METRIC
; #@! TA.AperFunction,Plated,PTH,ViaDrill
T1C0.800
; #@! TA.AperFunction,Plated,PTH,ComponentDrill
T2C0.800
; #@! TA.AperFunction,Plated,PTH,ComponentDrill
T3C1.000
; #@! TA.AperFunction,Plated,PTH,ComponentDrill
T4C1.300
; #@! TA.AperFunction,Plated,PTH,ComponentDrill
T5C1.400
; #@! TA.AperFunction,Plated,PTH,ComponentDrill
T6C2.500
; #@! TA.AperFunction,Plated,PTH,ComponentDrill
T7C3.200
%
G90
G05
T1
X125.68Y-85.17
X128.78Y-83.77
X148.28Y-83.77
X149.88Y-85.37
X152.38Y-104.97
X167.38Y-104.97
X170.38Y-104.97
X181.98Y-104.97
T2
X103.58Y-105.17
X105.1Y-86.17
X106.18Y-93.87
X106.18Y-98.87
X108.78Y-101.77
X109.38Y-88.89
X109.38Y-99.05
X113.155Y-89.57
X113.155Y-92.11
X113.155Y-94.65
X113.155Y-97.19
X113.74Y-105.17
X113.78Y-101.77
X115.26Y-86.17
X116.38Y-100.37
X116.38Y-105.37
X117.88Y-86.07
X120.775Y-89.57
X120.775Y-92.11
X120.775Y-94.65
X120.775Y-97.19
X122.58Y-112.17
X122.88Y-86.07
X125.98Y-93.41
X125.98Y-103.57
X129.58Y-93.41
X129.58Y-103.57
X132.74Y-112.17
X133.125Y-89.15
X133.125Y-92.55
X133.88Y-95.77
X133.88Y-105.93
X138.28Y-95.87
X138.28Y-100.87
X141.68Y-95.87
X141.68Y-100.87
X143.285Y-89.15
X143.285Y-92.55
X146.18Y-90.35
X146.18Y-92.89
X146.18Y-95.43
X146.18Y-97.97
X146.205Y-100.95
X146.205Y-105.95
X152.88Y-86.17
X153.8Y-90.35
X153.8Y-92.89
X153.8Y-95.43
X153.8Y-97.97
X157.105Y-101.75
X157.58Y-88.87
X157.58Y-99.03
X157.88Y-86.17
X161.18Y-88.87
X161.18Y-99.03
X162.105Y-101.75
X164.805Y-88.87
X164.805Y-99.03
X165.28Y-101.67
X168.605Y-88.87
X168.605Y-99.03
X170.18Y-110.49
X170.18Y-120.65
X170.28Y-101.67
T3
X112.58Y-80.97
X115.12Y-80.97
X120.58Y-81.97
X123.12Y-81.97
X125.66Y-81.97
X132.955Y-80.97
X135.495Y-80.97
X138.035Y-80.97
X175.18Y-88.37
X175.18Y-90.91
X175.18Y-93.45
X175.18Y-95.99
T4
X106.78Y-115.37
X106.78Y-120.37
X111.78Y-115.37
X111.78Y-120.37
X116.78Y-115.37
X116.78Y-120.37
X127.78Y-120.97
X132.78Y-120.97
X137.78Y-120.97
X153.78Y-115.37
X153.78Y-120.37
X158.78Y-115.37
X158.78Y-120.37
X163.78Y-115.37
X163.78Y-120.37
X177.18Y-115.37
X177.18Y-120.37
X182.18Y-115.37
X182.18Y-120.37
X187.18Y-115.37
X187.18Y-120.37
T5
X182.63Y-80.77
X182.63Y-94.77
T6
X187.38Y-98.77
X187.48Y-84.77
T7
X104.98Y-80.97
X145.98Y-119.57
T0
M30
