%TF.GenerationSoftware,KiCad,Pcbnew,(5.99.0-12960-gccd3a1e6a9)*%
%TF.CreationDate,2021-11-22T21:09:54-05:00*%
%TF.ProjectId,crossover_v1,63726f73-736f-4766-9572-5f76312e6b69,rev?*%
%TF.SameCoordinates,Original*%
%TF.FileFunction,Soldermask,Top*%
%TF.FilePolarity,Negative*%
%FSLAX46Y46*%
G04 Gerber Fmt 4.6, Leading zero omitted, Abs format (unit mm)*
G04 Created by KiCad (PCBNEW (5.99.0-12960-gccd3a1e6a9)) date 2021-11-22 21:09:54*
%MOMM*%
%LPD*%
G01*
G04 APERTURE LIST*
%ADD10C,2.340000*%
%ADD11R,1.700000X1.700000*%
%ADD12O,1.700000X1.700000*%
%ADD13C,1.600000*%
%ADD14O,1.600000X1.600000*%
%ADD15R,2.400000X1.600000*%
%ADD16O,2.400000X1.600000*%
%ADD17C,5.600000*%
%ADD18O,4.200000X2.500000*%
%ADD19C,3.000000*%
%ADD20C,5.000000*%
G04 APERTURE END LIST*
D10*
%TO.C,RV4*%
X90800000Y-48000000D03*
X85800000Y-48000000D03*
X80800000Y-48000000D03*
X90800000Y-43000000D03*
X85800000Y-43000000D03*
X80800000Y-43000000D03*
%TD*%
%TO.C,RV3*%
X67400000Y-48000000D03*
X62400000Y-48000000D03*
X57400000Y-48000000D03*
X67400000Y-43000000D03*
X62400000Y-43000000D03*
X57400000Y-43000000D03*
%TD*%
%TO.C,RV2*%
X20400000Y-48000000D03*
X15400000Y-48000000D03*
X10400000Y-48000000D03*
X20400000Y-43000000D03*
X15400000Y-43000000D03*
X10400000Y-43000000D03*
%TD*%
D11*
%TO.C,J5*%
X36575000Y-8600000D03*
D12*
X39115000Y-8600000D03*
X41655000Y-8600000D03*
%TD*%
D13*
%TO.C,C4*%
X49825000Y-28580000D03*
X49825000Y-33580000D03*
%TD*%
%TO.C,R12*%
X68425000Y-16500000D03*
D14*
X68425000Y-26660000D03*
%TD*%
D15*
%TO.C,U2*%
X49800000Y-17980000D03*
D16*
X49800000Y-20520000D03*
X49800000Y-23060000D03*
X49800000Y-25600000D03*
X57420000Y-25600000D03*
X57420000Y-23060000D03*
X57420000Y-20520000D03*
X57420000Y-17980000D03*
%TD*%
D13*
%TO.C,R13*%
X64800000Y-26660000D03*
D14*
X64800000Y-16500000D03*
%TD*%
D13*
%TO.C,R7*%
X73800000Y-38120000D03*
D14*
X73800000Y-48280000D03*
%TD*%
D13*
%TO.C,C5*%
X45300000Y-23500000D03*
X45300000Y-28500000D03*
%TD*%
%TO.C,R11*%
X72225000Y-26660000D03*
D14*
X72225000Y-16500000D03*
%TD*%
D13*
%TO.C,R1*%
X18880000Y-13800000D03*
D14*
X8720000Y-13800000D03*
%TD*%
D13*
%TO.C,C6*%
X41900000Y-28500000D03*
X41900000Y-23500000D03*
%TD*%
D17*
%TO.C,H2*%
X49600000Y-47200000D03*
%TD*%
D13*
%TO.C,R8*%
X37500000Y-23400000D03*
D14*
X37500000Y-33560000D03*
%TD*%
D15*
%TO.C,U1*%
X16775000Y-17200000D03*
D16*
X16775000Y-19740000D03*
X16775000Y-22280000D03*
X16775000Y-24820000D03*
X24395000Y-24820000D03*
X24395000Y-22280000D03*
X24395000Y-19740000D03*
X24395000Y-17200000D03*
%TD*%
D11*
%TO.C,J3*%
X16200000Y-8600000D03*
D12*
X18740000Y-8600000D03*
%TD*%
D13*
%TO.C,R4*%
X33200000Y-31200000D03*
D14*
X33200000Y-21040000D03*
%TD*%
D13*
%TO.C,R5*%
X26200000Y-39800000D03*
D14*
X36360000Y-39800000D03*
%TD*%
D13*
%TO.C,R2*%
X13000000Y-16520000D03*
D14*
X13000000Y-26680000D03*
%TD*%
D13*
%TO.C,C1*%
X9800000Y-21500000D03*
X9800000Y-26500000D03*
%TD*%
%TO.C,C10*%
X17400000Y-29400000D03*
X12400000Y-29400000D03*
%TD*%
%TO.C,R14*%
X61200000Y-16500000D03*
D14*
X61200000Y-26660000D03*
%TD*%
D13*
%TO.C,C8*%
X68900000Y-29300000D03*
X73900000Y-29300000D03*
%TD*%
D17*
%TO.C,H1*%
X8600000Y-8600000D03*
%TD*%
D11*
%TO.C,J1*%
X24200000Y-9600000D03*
D12*
X26740000Y-9600000D03*
X29280000Y-9600000D03*
%TD*%
D13*
%TO.C,C3*%
X61500000Y-13800000D03*
X56500000Y-13800000D03*
%TD*%
%TO.C,C9*%
X21500000Y-13700000D03*
X26500000Y-13700000D03*
%TD*%
%TO.C,C7*%
X60725000Y-29380000D03*
X65725000Y-29380000D03*
%TD*%
%TO.C,C2*%
X20000000Y-28000000D03*
X20000000Y-33000000D03*
%TD*%
%TO.C,R3*%
X29600000Y-31200000D03*
D14*
X29600000Y-21040000D03*
%TD*%
D13*
%TO.C,R10*%
X36745000Y-20180000D03*
D14*
X46905000Y-20180000D03*
%TD*%
D13*
%TO.C,R9*%
X46905000Y-16780000D03*
D14*
X36745000Y-16780000D03*
%TD*%
D10*
%TO.C,RV1*%
X31400000Y-48600000D03*
X36400000Y-48600000D03*
X41400000Y-48600000D03*
%TD*%
D12*
%TO.C,J4*%
X78800000Y-23620000D03*
X78800000Y-21080000D03*
X78800000Y-18540000D03*
D11*
X78800000Y-16000000D03*
%TD*%
D13*
%TO.C,R6*%
X7200000Y-32800000D03*
D14*
X17360000Y-32800000D03*
%TD*%
D18*
%TO.C,J2*%
X91000000Y-31550000D03*
X91000000Y-7250000D03*
D19*
X86250000Y-8400000D03*
X86250000Y-22400000D03*
D20*
X91000000Y-26400000D03*
X91100000Y-12400000D03*
%TD*%
M02*
