M48
; DRILL file {KiCad (5.99.0-12960-gccd3a1e6a9)} date Mon Nov 22 21:09:58 2021
; FORMAT={-:-/ absolute / metric / decimal}
; #@! TF.CreationDate,2021-11-22T21:09:58-05:00
; #@! TF.GenerationSoftware,Kicad,Pcbnew,(5.99.0-12960-gccd3a1e6a9)
; #@! TF.FileFunction,MixedPlating,1,2
FMAT,2
METRIC
; #@! TA.AperFunction,Plated,PTH,ViaDrill
T1C0.800
; #@! TA.AperFunction,Plated,PTH,ComponentDrill
T2C0.800
; #@! TA.AperFunction,Plated,PTH,ComponentDrill
T3C1.000
; #@! TA.AperFunction,Plated,PTH,ComponentDrill
T4C1.300
; #@! TA.AperFunction,Plated,PTH,ComponentDrill
T5C1.400
; #@! TA.AperFunction,Plated,PTH,ComponentDrill
T6C2.500
; #@! TA.AperFunction,Plated,PTH,ComponentDrill
T7C3.200
; #@! TA.AperFunction,NonPlated,NPTH,ComponentDrill
T8C2.500
%
G90
G05
T1
X29.3Y-12.8
X32.4Y-11.4
X51.9Y-11.4
X53.5Y-13.0
X56.0Y-32.6
X71.0Y-32.6
X74.0Y-32.6
X85.6Y-32.6
T2
X7.2Y-32.8
X8.72Y-13.8
X9.8Y-21.5
X9.8Y-26.5
X12.4Y-29.4
X13.0Y-16.52
X13.0Y-26.68
X16.775Y-17.2
X16.775Y-19.74
X16.775Y-22.28
X16.775Y-24.82
X17.36Y-32.8
X17.4Y-29.4
X18.88Y-13.8
X20.0Y-28.0
X20.0Y-33.0
X21.5Y-13.7
X24.395Y-17.2
X24.395Y-19.74
X24.395Y-22.28
X24.395Y-24.82
X26.2Y-39.8
X26.5Y-13.7
X29.6Y-21.04
X29.6Y-31.2
X33.2Y-21.04
X33.2Y-31.2
X36.36Y-39.8
X36.745Y-16.78
X36.745Y-20.18
X37.5Y-23.4
X37.5Y-33.56
X41.9Y-23.5
X41.9Y-28.5
X45.3Y-23.5
X45.3Y-28.5
X46.905Y-16.78
X46.905Y-20.18
X49.8Y-17.98
X49.8Y-20.52
X49.8Y-23.06
X49.8Y-25.6
X49.825Y-28.58
X49.825Y-33.58
X56.5Y-13.8
X57.42Y-17.98
X57.42Y-20.52
X57.42Y-23.06
X57.42Y-25.6
X60.725Y-29.38
X61.2Y-16.5
X61.2Y-26.66
X61.5Y-13.8
X64.8Y-16.5
X64.8Y-26.66
X65.725Y-29.38
X68.425Y-16.5
X68.425Y-26.66
X68.9Y-29.3
X72.225Y-16.5
X72.225Y-26.66
X73.8Y-38.12
X73.8Y-48.28
X73.9Y-29.3
T3
X16.2Y-8.6
X18.74Y-8.6
X24.2Y-9.6
X26.74Y-9.6
X29.28Y-9.6
X36.575Y-8.6
X39.115Y-8.6
X41.655Y-8.6
X78.8Y-16.0
X78.8Y-18.54
X78.8Y-21.08
X78.8Y-23.62
T4
X10.4Y-43.0
X10.4Y-48.0
X15.4Y-43.0
X15.4Y-48.0
X20.4Y-43.0
X20.4Y-48.0
X31.4Y-48.6
X36.4Y-48.6
X41.4Y-48.6
X57.4Y-43.0
X57.4Y-48.0
X62.4Y-43.0
X62.4Y-48.0
X67.4Y-43.0
X67.4Y-48.0
X80.8Y-43.0
X80.8Y-48.0
X85.8Y-43.0
X85.8Y-48.0
X90.8Y-43.0
X90.8Y-48.0
T5
X86.25Y-8.4
X86.25Y-22.4
T6
X91.0Y-26.4
X91.1Y-12.4
T7
X8.6Y-8.6
X49.6Y-47.2
T8
G00X91.85Y-7.25
M15
G01X90.15Y-7.25
M16
G05
G00X91.85Y-31.55
M15
G01X90.15Y-31.55
M16
G05
T0
M30
