%TF.GenerationSoftware,KiCad,Pcbnew,7.0.8-7.0.8~ubuntu22.04.1*%
%TF.CreationDate,2023-10-08T09:38:23-05:00*%
%TF.ProjectId,crossover_v1,63726f73-736f-4766-9572-5f76312e6b69,v1.0.0*%
%TF.SameCoordinates,Original*%
%TF.FileFunction,Soldermask,Bot*%
%TF.FilePolarity,Negative*%
%FSLAX46Y46*%
G04 Gerber Fmt 4.6, Leading zero omitted, Abs format (unit mm)*
G04 Created by KiCad (PCBNEW 7.0.8-7.0.8~ubuntu22.04.1) date 2023-10-08 09:38:23*
%MOMM*%
%LPD*%
G01*
G04 APERTURE LIST*
%ADD10C,0.818303*%
%ADD11C,0.010000*%
%ADD12R,1.700000X1.700000*%
%ADD13O,1.700000X1.700000*%
%ADD14C,1.600000*%
%ADD15O,1.600000X1.600000*%
%ADD16R,2.400000X1.600000*%
%ADD17O,2.400000X1.600000*%
%ADD18C,5.600000*%
%ADD19C,2.340000*%
%ADD20O,4.200000X2.500000*%
%ADD21C,3.000000*%
%ADD22C,5.000000*%
G04 APERTURE END LIST*
D10*
X126089151Y-85163303D02*
G75*
G03*
X126089151Y-85163303I-409151J0D01*
G01*
X167789151Y-104963303D02*
G75*
G03*
X167789151Y-104963303I-409151J0D01*
G01*
X152789151Y-104963303D02*
G75*
G03*
X152789151Y-104963303I-409151J0D01*
G01*
X148689151Y-83770000D02*
G75*
G03*
X148689151Y-83770000I-409151J0D01*
G01*
X182389151Y-104970000D02*
G75*
G03*
X182389151Y-104970000I-409151J0D01*
G01*
X170789151Y-104970000D02*
G75*
G03*
X170789151Y-104970000I-409151J0D01*
G01*
X129189151Y-83763303D02*
G75*
G03*
X129189151Y-83763303I-409151J0D01*
G01*
X150295848Y-85370000D02*
G75*
G03*
X150295848Y-85370000I-409151J0D01*
G01*
%TO.C,G\u002A\u002A\u002A*%
D11*
X141296669Y-108247853D02*
X141517983Y-108249738D01*
X141690199Y-108253649D01*
X141821680Y-108260032D01*
X141920790Y-108269335D01*
X141995891Y-108282007D01*
X142055347Y-108298493D01*
X142088792Y-108311244D01*
X142242718Y-108398912D01*
X142394710Y-108525464D01*
X142526358Y-108673670D01*
X142619253Y-108826298D01*
X142630713Y-108851929D01*
X142646639Y-108891078D01*
X142659801Y-108933032D01*
X142670544Y-108983860D01*
X142679213Y-109049631D01*
X142686152Y-109136415D01*
X142691706Y-109250280D01*
X142696219Y-109397296D01*
X142700035Y-109583532D01*
X142703499Y-109815057D01*
X142706956Y-110097940D01*
X142710750Y-110438250D01*
X142710991Y-110459895D01*
X142715745Y-110820567D01*
X142721385Y-111136643D01*
X142727807Y-111404970D01*
X142734909Y-111622400D01*
X142742590Y-111785782D01*
X142750748Y-111891966D01*
X142759281Y-111937800D01*
X142767730Y-111950044D01*
X142823719Y-112009052D01*
X142900387Y-112072737D01*
X143025139Y-112133444D01*
X143172986Y-112151716D01*
X143320169Y-112126101D01*
X143449092Y-112059799D01*
X143542162Y-111956011D01*
X143547411Y-111943611D01*
X143557321Y-111897305D01*
X143565920Y-111819653D01*
X143573383Y-111706062D01*
X143579884Y-111551939D01*
X143585596Y-111352689D01*
X143590696Y-111103720D01*
X143595356Y-110800438D01*
X143599750Y-110438250D01*
X143600629Y-110358608D01*
X143604394Y-110030434D01*
X143607965Y-109758438D01*
X143611656Y-109536609D01*
X143615784Y-109358938D01*
X143620666Y-109219415D01*
X143626618Y-109112031D01*
X143633955Y-109030777D01*
X143642994Y-108969642D01*
X143654051Y-108922618D01*
X143667443Y-108883695D01*
X143683486Y-108846863D01*
X143780097Y-108677962D01*
X143937052Y-108500416D01*
X144121844Y-108370128D01*
X144325995Y-108287320D01*
X144541028Y-108252212D01*
X144758465Y-108265026D01*
X144969829Y-108325983D01*
X145166643Y-108435304D01*
X145340428Y-108593210D01*
X145482709Y-108799923D01*
X145490702Y-108815113D01*
X145505759Y-108847382D01*
X145518263Y-108884141D01*
X145528531Y-108931291D01*
X145536879Y-108994731D01*
X145543627Y-109080363D01*
X145549090Y-109194088D01*
X145553586Y-109341806D01*
X145557433Y-109529418D01*
X145560948Y-109762824D01*
X145564448Y-110047926D01*
X145568250Y-110390625D01*
X145569684Y-110517159D01*
X145574701Y-110886350D01*
X145580349Y-111195114D01*
X145586709Y-111445796D01*
X145593863Y-111640742D01*
X145601892Y-111782299D01*
X145610876Y-111872811D01*
X145620898Y-111914625D01*
X145716875Y-112037911D01*
X145841819Y-112113538D01*
X146006766Y-112146169D01*
X146074763Y-112150092D01*
X146161713Y-112146226D01*
X146225838Y-112122808D01*
X146292797Y-112073302D01*
X146310825Y-112057616D01*
X146384519Y-111983675D01*
X146434154Y-111919137D01*
X146443511Y-111887069D01*
X146452593Y-111815827D01*
X146460592Y-111703222D01*
X146467643Y-111545564D01*
X146473876Y-111339165D01*
X146479426Y-111080335D01*
X146484423Y-110765385D01*
X146489000Y-110390625D01*
X146504875Y-108930125D01*
X146603262Y-108755500D01*
X146682196Y-108635830D01*
X146852758Y-108462384D01*
X147057641Y-108338022D01*
X147288326Y-108267316D01*
X147536296Y-108254837D01*
X147624559Y-108264988D01*
X147859481Y-108333039D01*
X148066930Y-108455523D01*
X148240307Y-108627785D01*
X148373017Y-108845172D01*
X148377660Y-108855317D01*
X148393112Y-108892271D01*
X148405970Y-108932607D01*
X148416552Y-108982337D01*
X148425177Y-109047471D01*
X148432163Y-109134023D01*
X148437829Y-109248002D01*
X148442492Y-109395421D01*
X148446473Y-109582291D01*
X148450089Y-109814623D01*
X148453659Y-110098430D01*
X148457500Y-110439723D01*
X148459507Y-110618950D01*
X148463346Y-110932981D01*
X148467168Y-111192064D01*
X148471242Y-111401904D01*
X148475835Y-111568203D01*
X148481212Y-111696664D01*
X148487643Y-111792990D01*
X148495394Y-111862883D01*
X148504732Y-111912047D01*
X148515924Y-111946185D01*
X148529237Y-111971000D01*
X148571631Y-112023665D01*
X148701908Y-112112121D01*
X148882741Y-112162888D01*
X148908531Y-112167648D01*
X149033869Y-112218561D01*
X149118200Y-112301129D01*
X149156451Y-112403297D01*
X149143546Y-112513014D01*
X149074413Y-112618224D01*
X149042967Y-112647629D01*
X148989569Y-112680008D01*
X148920438Y-112690992D01*
X148812016Y-112686733D01*
X148735169Y-112677590D01*
X148514248Y-112610933D01*
X148311743Y-112490964D01*
X148138386Y-112325201D01*
X148004906Y-112121164D01*
X147995797Y-112102599D01*
X147980553Y-112067824D01*
X147967909Y-112029030D01*
X147957541Y-111980268D01*
X147949126Y-111915591D01*
X147942341Y-111829051D01*
X147936862Y-111714702D01*
X147932367Y-111566593D01*
X147928531Y-111378779D01*
X147925032Y-111145312D01*
X147921546Y-110860243D01*
X147917750Y-110517625D01*
X147917702Y-110513187D01*
X147913474Y-110156445D01*
X147909100Y-109858188D01*
X147904388Y-109613458D01*
X147899145Y-109417297D01*
X147893175Y-109264747D01*
X147886287Y-109150849D01*
X147878287Y-109070645D01*
X147868980Y-109019177D01*
X147858173Y-108991487D01*
X147816793Y-108938452D01*
X147691669Y-108842363D01*
X147543828Y-108794203D01*
X147387673Y-108794844D01*
X147237612Y-108845161D01*
X147108051Y-108946026D01*
X147104700Y-108949793D01*
X147090271Y-108969245D01*
X147078225Y-108995291D01*
X147068257Y-109033622D01*
X147060063Y-109089927D01*
X147053340Y-109169898D01*
X147047783Y-109279224D01*
X147043087Y-109423595D01*
X147038950Y-109608702D01*
X147035066Y-109840235D01*
X147031132Y-110123884D01*
X147026843Y-110465339D01*
X147026111Y-110524600D01*
X147021675Y-110862132D01*
X147017330Y-111143041D01*
X147012804Y-111373257D01*
X147007822Y-111558713D01*
X147002111Y-111705341D01*
X146995396Y-111819073D01*
X146987404Y-111905840D01*
X146977860Y-111971575D01*
X146966490Y-112022210D01*
X146953021Y-112063676D01*
X146934646Y-112107846D01*
X146823694Y-112288743D01*
X146668482Y-112452625D01*
X146484410Y-112582445D01*
X146438530Y-112607180D01*
X146356431Y-112644184D01*
X146274991Y-112665150D01*
X146172845Y-112674492D01*
X146028625Y-112676625D01*
X145951009Y-112676202D01*
X145830318Y-112671095D01*
X145741090Y-112656597D01*
X145661907Y-112628259D01*
X145571349Y-112581632D01*
X145399909Y-112460992D01*
X145231828Y-112278443D01*
X145110146Y-112065156D01*
X145097007Y-112031494D01*
X145084154Y-111989224D01*
X145073467Y-111937494D01*
X145064644Y-111870302D01*
X145057384Y-111781642D01*
X145051386Y-111665510D01*
X145046350Y-111515901D01*
X145041973Y-111326813D01*
X145037955Y-111092239D01*
X145033995Y-110806177D01*
X145029792Y-110462621D01*
X145012625Y-109010617D01*
X144911621Y-108909664D01*
X144908519Y-108906577D01*
X144833089Y-108844193D01*
X144750863Y-108810593D01*
X144633598Y-108794031D01*
X144616756Y-108792699D01*
X144506734Y-108790691D01*
X144427112Y-108808719D01*
X144349681Y-108852601D01*
X144325226Y-108869157D01*
X144284872Y-108897367D01*
X144251437Y-108926449D01*
X144224202Y-108962096D01*
X144202448Y-109009999D01*
X144185456Y-109075853D01*
X144172508Y-109165350D01*
X144162886Y-109284182D01*
X144155870Y-109438042D01*
X144150742Y-109632624D01*
X144146784Y-109873620D01*
X144143276Y-110166722D01*
X144139500Y-110517625D01*
X144123625Y-111978125D01*
X144038873Y-112138704D01*
X143930622Y-112304471D01*
X143761744Y-112478493D01*
X143568000Y-112606154D01*
X143470274Y-112643111D01*
X143286577Y-112676451D01*
X143086512Y-112680115D01*
X142894232Y-112654306D01*
X142733891Y-112599224D01*
X142607543Y-112522636D01*
X142418418Y-112351372D01*
X142271025Y-112136875D01*
X142186875Y-111978125D01*
X142171000Y-110517625D01*
X142170621Y-110483228D01*
X142165858Y-110121316D01*
X142160226Y-109804367D01*
X142153821Y-109535471D01*
X142146745Y-109317716D01*
X142139095Y-109154194D01*
X142130970Y-109047991D01*
X142122470Y-109002199D01*
X142114021Y-108989955D01*
X142058032Y-108930947D01*
X141981364Y-108867262D01*
X141872914Y-108787250D01*
X141109145Y-108787368D01*
X140929865Y-108787564D01*
X140727806Y-108788693D01*
X140574633Y-108791371D01*
X140461828Y-108796208D01*
X140380871Y-108803814D01*
X140323246Y-108814800D01*
X140280432Y-108829776D01*
X140243913Y-108849352D01*
X140143137Y-108928100D01*
X140063317Y-109052918D01*
X140035925Y-109211137D01*
X140061571Y-109377039D01*
X140140103Y-109516053D01*
X140265505Y-109617096D01*
X140302897Y-109634769D01*
X140360286Y-109652548D01*
X140436246Y-109664518D01*
X140542005Y-109671747D01*
X140688790Y-109675302D01*
X140887830Y-109676250D01*
X140923610Y-109676317D01*
X141128541Y-109679558D01*
X141301054Y-109687210D01*
X141430804Y-109698656D01*
X141507450Y-109713277D01*
X141672144Y-109794370D01*
X141811758Y-109919791D01*
X141907007Y-110073254D01*
X141956478Y-110244359D01*
X141958756Y-110422707D01*
X141912431Y-110597899D01*
X141816087Y-110759535D01*
X141668314Y-110897215D01*
X141530752Y-110993875D01*
X140919080Y-111009750D01*
X140759959Y-111014037D01*
X140580233Y-111020394D01*
X140447055Y-111028987D01*
X140350469Y-111041985D01*
X140280521Y-111061555D01*
X140227253Y-111089865D01*
X140180712Y-111129082D01*
X140130941Y-111181376D01*
X140102265Y-111218335D01*
X140064362Y-111297808D01*
X140037907Y-111406783D01*
X140021704Y-111553672D01*
X140014556Y-111746886D01*
X140015268Y-111994837D01*
X140016931Y-112128145D01*
X140016900Y-112288956D01*
X140012967Y-112403760D01*
X140004300Y-112483155D01*
X139990067Y-112537739D01*
X139969434Y-112578110D01*
X139945335Y-112609144D01*
X139850686Y-112672897D01*
X139739843Y-112689160D01*
X139632207Y-112657889D01*
X139547178Y-112579042D01*
X139540558Y-112568203D01*
X139523586Y-112528170D01*
X139511564Y-112471308D01*
X139503861Y-112388287D01*
X139499843Y-112269779D01*
X139498876Y-112106455D01*
X139500327Y-111888984D01*
X139502640Y-111718721D01*
X139509354Y-111499195D01*
X139522012Y-111326416D01*
X139543058Y-111190196D01*
X139574938Y-111080350D01*
X139620097Y-110986692D01*
X139680981Y-110899035D01*
X139760035Y-110807193D01*
X139782671Y-110782706D01*
X139880671Y-110686065D01*
X139977056Y-110612708D01*
X140082668Y-110559228D01*
X140208350Y-110522220D01*
X140364942Y-110498276D01*
X140563287Y-110483990D01*
X140814227Y-110475954D01*
X140964555Y-110472505D01*
X141127942Y-110467504D01*
X141243544Y-110461289D01*
X141320544Y-110452714D01*
X141368123Y-110440635D01*
X141395461Y-110423904D01*
X141411742Y-110401376D01*
X141413550Y-110397960D01*
X141431299Y-110352150D01*
X141425888Y-110317025D01*
X141390594Y-110290725D01*
X141318693Y-110271389D01*
X141203463Y-110257157D01*
X141038181Y-110246169D01*
X140816124Y-110236565D01*
X140745624Y-110233844D01*
X140554616Y-110225284D01*
X140411729Y-110215896D01*
X140305222Y-110204102D01*
X140223351Y-110188323D01*
X140154375Y-110166982D01*
X140086552Y-110138500D01*
X139916577Y-110039043D01*
X139748890Y-109883445D01*
X139623470Y-109697841D01*
X139541734Y-109491684D01*
X139505103Y-109274425D01*
X139514996Y-109055516D01*
X139572832Y-108844409D01*
X139680031Y-108650554D01*
X139838011Y-108483405D01*
X139903680Y-108431305D01*
X139985327Y-108374809D01*
X140068840Y-108331176D01*
X140163021Y-108298763D01*
X140276675Y-108275927D01*
X140418603Y-108261026D01*
X140597608Y-108252416D01*
X140822493Y-108248455D01*
X141102060Y-108247499D01*
X141296669Y-108247853D01*
G36*
X141296669Y-108247853D02*
G01*
X141517983Y-108249738D01*
X141690199Y-108253649D01*
X141821680Y-108260032D01*
X141920790Y-108269335D01*
X141995891Y-108282007D01*
X142055347Y-108298493D01*
X142088792Y-108311244D01*
X142242718Y-108398912D01*
X142394710Y-108525464D01*
X142526358Y-108673670D01*
X142619253Y-108826298D01*
X142630713Y-108851929D01*
X142646639Y-108891078D01*
X142659801Y-108933032D01*
X142670544Y-108983860D01*
X142679213Y-109049631D01*
X142686152Y-109136415D01*
X142691706Y-109250280D01*
X142696219Y-109397296D01*
X142700035Y-109583532D01*
X142703499Y-109815057D01*
X142706956Y-110097940D01*
X142710750Y-110438250D01*
X142710991Y-110459895D01*
X142715745Y-110820567D01*
X142721385Y-111136643D01*
X142727807Y-111404970D01*
X142734909Y-111622400D01*
X142742590Y-111785782D01*
X142750748Y-111891966D01*
X142759281Y-111937800D01*
X142767730Y-111950044D01*
X142823719Y-112009052D01*
X142900387Y-112072737D01*
X143025139Y-112133444D01*
X143172986Y-112151716D01*
X143320169Y-112126101D01*
X143449092Y-112059799D01*
X143542162Y-111956011D01*
X143547411Y-111943611D01*
X143557321Y-111897305D01*
X143565920Y-111819653D01*
X143573383Y-111706062D01*
X143579884Y-111551939D01*
X143585596Y-111352689D01*
X143590696Y-111103720D01*
X143595356Y-110800438D01*
X143599750Y-110438250D01*
X143600629Y-110358608D01*
X143604394Y-110030434D01*
X143607965Y-109758438D01*
X143611656Y-109536609D01*
X143615784Y-109358938D01*
X143620666Y-109219415D01*
X143626618Y-109112031D01*
X143633955Y-109030777D01*
X143642994Y-108969642D01*
X143654051Y-108922618D01*
X143667443Y-108883695D01*
X143683486Y-108846863D01*
X143780097Y-108677962D01*
X143937052Y-108500416D01*
X144121844Y-108370128D01*
X144325995Y-108287320D01*
X144541028Y-108252212D01*
X144758465Y-108265026D01*
X144969829Y-108325983D01*
X145166643Y-108435304D01*
X145340428Y-108593210D01*
X145482709Y-108799923D01*
X145490702Y-108815113D01*
X145505759Y-108847382D01*
X145518263Y-108884141D01*
X145528531Y-108931291D01*
X145536879Y-108994731D01*
X145543627Y-109080363D01*
X145549090Y-109194088D01*
X145553586Y-109341806D01*
X145557433Y-109529418D01*
X145560948Y-109762824D01*
X145564448Y-110047926D01*
X145568250Y-110390625D01*
X145569684Y-110517159D01*
X145574701Y-110886350D01*
X145580349Y-111195114D01*
X145586709Y-111445796D01*
X145593863Y-111640742D01*
X145601892Y-111782299D01*
X145610876Y-111872811D01*
X145620898Y-111914625D01*
X145716875Y-112037911D01*
X145841819Y-112113538D01*
X146006766Y-112146169D01*
X146074763Y-112150092D01*
X146161713Y-112146226D01*
X146225838Y-112122808D01*
X146292797Y-112073302D01*
X146310825Y-112057616D01*
X146384519Y-111983675D01*
X146434154Y-111919137D01*
X146443511Y-111887069D01*
X146452593Y-111815827D01*
X146460592Y-111703222D01*
X146467643Y-111545564D01*
X146473876Y-111339165D01*
X146479426Y-111080335D01*
X146484423Y-110765385D01*
X146489000Y-110390625D01*
X146504875Y-108930125D01*
X146603262Y-108755500D01*
X146682196Y-108635830D01*
X146852758Y-108462384D01*
X147057641Y-108338022D01*
X147288326Y-108267316D01*
X147536296Y-108254837D01*
X147624559Y-108264988D01*
X147859481Y-108333039D01*
X148066930Y-108455523D01*
X148240307Y-108627785D01*
X148373017Y-108845172D01*
X148377660Y-108855317D01*
X148393112Y-108892271D01*
X148405970Y-108932607D01*
X148416552Y-108982337D01*
X148425177Y-109047471D01*
X148432163Y-109134023D01*
X148437829Y-109248002D01*
X148442492Y-109395421D01*
X148446473Y-109582291D01*
X148450089Y-109814623D01*
X148453659Y-110098430D01*
X148457500Y-110439723D01*
X148459507Y-110618950D01*
X148463346Y-110932981D01*
X148467168Y-111192064D01*
X148471242Y-111401904D01*
X148475835Y-111568203D01*
X148481212Y-111696664D01*
X148487643Y-111792990D01*
X148495394Y-111862883D01*
X148504732Y-111912047D01*
X148515924Y-111946185D01*
X148529237Y-111971000D01*
X148571631Y-112023665D01*
X148701908Y-112112121D01*
X148882741Y-112162888D01*
X148908531Y-112167648D01*
X149033869Y-112218561D01*
X149118200Y-112301129D01*
X149156451Y-112403297D01*
X149143546Y-112513014D01*
X149074413Y-112618224D01*
X149042967Y-112647629D01*
X148989569Y-112680008D01*
X148920438Y-112690992D01*
X148812016Y-112686733D01*
X148735169Y-112677590D01*
X148514248Y-112610933D01*
X148311743Y-112490964D01*
X148138386Y-112325201D01*
X148004906Y-112121164D01*
X147995797Y-112102599D01*
X147980553Y-112067824D01*
X147967909Y-112029030D01*
X147957541Y-111980268D01*
X147949126Y-111915591D01*
X147942341Y-111829051D01*
X147936862Y-111714702D01*
X147932367Y-111566593D01*
X147928531Y-111378779D01*
X147925032Y-111145312D01*
X147921546Y-110860243D01*
X147917750Y-110517625D01*
X147917702Y-110513187D01*
X147913474Y-110156445D01*
X147909100Y-109858188D01*
X147904388Y-109613458D01*
X147899145Y-109417297D01*
X147893175Y-109264747D01*
X147886287Y-109150849D01*
X147878287Y-109070645D01*
X147868980Y-109019177D01*
X147858173Y-108991487D01*
X147816793Y-108938452D01*
X147691669Y-108842363D01*
X147543828Y-108794203D01*
X147387673Y-108794844D01*
X147237612Y-108845161D01*
X147108051Y-108946026D01*
X147104700Y-108949793D01*
X147090271Y-108969245D01*
X147078225Y-108995291D01*
X147068257Y-109033622D01*
X147060063Y-109089927D01*
X147053340Y-109169898D01*
X147047783Y-109279224D01*
X147043087Y-109423595D01*
X147038950Y-109608702D01*
X147035066Y-109840235D01*
X147031132Y-110123884D01*
X147026843Y-110465339D01*
X147026111Y-110524600D01*
X147021675Y-110862132D01*
X147017330Y-111143041D01*
X147012804Y-111373257D01*
X147007822Y-111558713D01*
X147002111Y-111705341D01*
X146995396Y-111819073D01*
X146987404Y-111905840D01*
X146977860Y-111971575D01*
X146966490Y-112022210D01*
X146953021Y-112063676D01*
X146934646Y-112107846D01*
X146823694Y-112288743D01*
X146668482Y-112452625D01*
X146484410Y-112582445D01*
X146438530Y-112607180D01*
X146356431Y-112644184D01*
X146274991Y-112665150D01*
X146172845Y-112674492D01*
X146028625Y-112676625D01*
X145951009Y-112676202D01*
X145830318Y-112671095D01*
X145741090Y-112656597D01*
X145661907Y-112628259D01*
X145571349Y-112581632D01*
X145399909Y-112460992D01*
X145231828Y-112278443D01*
X145110146Y-112065156D01*
X145097007Y-112031494D01*
X145084154Y-111989224D01*
X145073467Y-111937494D01*
X145064644Y-111870302D01*
X145057384Y-111781642D01*
X145051386Y-111665510D01*
X145046350Y-111515901D01*
X145041973Y-111326813D01*
X145037955Y-111092239D01*
X145033995Y-110806177D01*
X145029792Y-110462621D01*
X145012625Y-109010617D01*
X144911621Y-108909664D01*
X144908519Y-108906577D01*
X144833089Y-108844193D01*
X144750863Y-108810593D01*
X144633598Y-108794031D01*
X144616756Y-108792699D01*
X144506734Y-108790691D01*
X144427112Y-108808719D01*
X144349681Y-108852601D01*
X144325226Y-108869157D01*
X144284872Y-108897367D01*
X144251437Y-108926449D01*
X144224202Y-108962096D01*
X144202448Y-109009999D01*
X144185456Y-109075853D01*
X144172508Y-109165350D01*
X144162886Y-109284182D01*
X144155870Y-109438042D01*
X144150742Y-109632624D01*
X144146784Y-109873620D01*
X144143276Y-110166722D01*
X144139500Y-110517625D01*
X144123625Y-111978125D01*
X144038873Y-112138704D01*
X143930622Y-112304471D01*
X143761744Y-112478493D01*
X143568000Y-112606154D01*
X143470274Y-112643111D01*
X143286577Y-112676451D01*
X143086512Y-112680115D01*
X142894232Y-112654306D01*
X142733891Y-112599224D01*
X142607543Y-112522636D01*
X142418418Y-112351372D01*
X142271025Y-112136875D01*
X142186875Y-111978125D01*
X142171000Y-110517625D01*
X142170621Y-110483228D01*
X142165858Y-110121316D01*
X142160226Y-109804367D01*
X142153821Y-109535471D01*
X142146745Y-109317716D01*
X142139095Y-109154194D01*
X142130970Y-109047991D01*
X142122470Y-109002199D01*
X142114021Y-108989955D01*
X142058032Y-108930947D01*
X141981364Y-108867262D01*
X141872914Y-108787250D01*
X141109145Y-108787368D01*
X140929865Y-108787564D01*
X140727806Y-108788693D01*
X140574633Y-108791371D01*
X140461828Y-108796208D01*
X140380871Y-108803814D01*
X140323246Y-108814800D01*
X140280432Y-108829776D01*
X140243913Y-108849352D01*
X140143137Y-108928100D01*
X140063317Y-109052918D01*
X140035925Y-109211137D01*
X140061571Y-109377039D01*
X140140103Y-109516053D01*
X140265505Y-109617096D01*
X140302897Y-109634769D01*
X140360286Y-109652548D01*
X140436246Y-109664518D01*
X140542005Y-109671747D01*
X140688790Y-109675302D01*
X140887830Y-109676250D01*
X140923610Y-109676317D01*
X141128541Y-109679558D01*
X141301054Y-109687210D01*
X141430804Y-109698656D01*
X141507450Y-109713277D01*
X141672144Y-109794370D01*
X141811758Y-109919791D01*
X141907007Y-110073254D01*
X141956478Y-110244359D01*
X141958756Y-110422707D01*
X141912431Y-110597899D01*
X141816087Y-110759535D01*
X141668314Y-110897215D01*
X141530752Y-110993875D01*
X140919080Y-111009750D01*
X140759959Y-111014037D01*
X140580233Y-111020394D01*
X140447055Y-111028987D01*
X140350469Y-111041985D01*
X140280521Y-111061555D01*
X140227253Y-111089865D01*
X140180712Y-111129082D01*
X140130941Y-111181376D01*
X140102265Y-111218335D01*
X140064362Y-111297808D01*
X140037907Y-111406783D01*
X140021704Y-111553672D01*
X140014556Y-111746886D01*
X140015268Y-111994837D01*
X140016931Y-112128145D01*
X140016900Y-112288956D01*
X140012967Y-112403760D01*
X140004300Y-112483155D01*
X139990067Y-112537739D01*
X139969434Y-112578110D01*
X139945335Y-112609144D01*
X139850686Y-112672897D01*
X139739843Y-112689160D01*
X139632207Y-112657889D01*
X139547178Y-112579042D01*
X139540558Y-112568203D01*
X139523586Y-112528170D01*
X139511564Y-112471308D01*
X139503861Y-112388287D01*
X139499843Y-112269779D01*
X139498876Y-112106455D01*
X139500327Y-111888984D01*
X139502640Y-111718721D01*
X139509354Y-111499195D01*
X139522012Y-111326416D01*
X139543058Y-111190196D01*
X139574938Y-111080350D01*
X139620097Y-110986692D01*
X139680981Y-110899035D01*
X139760035Y-110807193D01*
X139782671Y-110782706D01*
X139880671Y-110686065D01*
X139977056Y-110612708D01*
X140082668Y-110559228D01*
X140208350Y-110522220D01*
X140364942Y-110498276D01*
X140563287Y-110483990D01*
X140814227Y-110475954D01*
X140964555Y-110472505D01*
X141127942Y-110467504D01*
X141243544Y-110461289D01*
X141320544Y-110452714D01*
X141368123Y-110440635D01*
X141395461Y-110423904D01*
X141411742Y-110401376D01*
X141413550Y-110397960D01*
X141431299Y-110352150D01*
X141425888Y-110317025D01*
X141390594Y-110290725D01*
X141318693Y-110271389D01*
X141203463Y-110257157D01*
X141038181Y-110246169D01*
X140816124Y-110236565D01*
X140745624Y-110233844D01*
X140554616Y-110225284D01*
X140411729Y-110215896D01*
X140305222Y-110204102D01*
X140223351Y-110188323D01*
X140154375Y-110166982D01*
X140086552Y-110138500D01*
X139916577Y-110039043D01*
X139748890Y-109883445D01*
X139623470Y-109697841D01*
X139541734Y-109491684D01*
X139505103Y-109274425D01*
X139514996Y-109055516D01*
X139572832Y-108844409D01*
X139680031Y-108650554D01*
X139838011Y-108483405D01*
X139903680Y-108431305D01*
X139985327Y-108374809D01*
X140068840Y-108331176D01*
X140163021Y-108298763D01*
X140276675Y-108275927D01*
X140418603Y-108261026D01*
X140597608Y-108252416D01*
X140822493Y-108248455D01*
X141102060Y-108247499D01*
X141296669Y-108247853D01*
G37*
%TD*%
D12*
%TO.C,J5*%
X132955000Y-80970000D03*
D13*
X135495000Y-80970000D03*
X138035000Y-80970000D03*
%TD*%
D14*
%TO.C,C4*%
X146205000Y-100950000D03*
X146205000Y-105950000D03*
%TD*%
%TO.C,R12*%
X164805000Y-88870000D03*
D15*
X164805000Y-99030000D03*
%TD*%
D16*
%TO.C,U2*%
X146180000Y-90350000D03*
D17*
X146180000Y-92890000D03*
X146180000Y-95430000D03*
X146180000Y-97970000D03*
X153800000Y-97970000D03*
X153800000Y-95430000D03*
X153800000Y-92890000D03*
X153800000Y-90350000D03*
%TD*%
D14*
%TO.C,R13*%
X161180000Y-99030000D03*
D15*
X161180000Y-88870000D03*
%TD*%
D14*
%TO.C,R7*%
X170180000Y-110490000D03*
D15*
X170180000Y-120650000D03*
%TD*%
D14*
%TO.C,C5*%
X141680000Y-95870000D03*
X141680000Y-100870000D03*
%TD*%
%TO.C,R11*%
X168605000Y-99030000D03*
D15*
X168605000Y-88870000D03*
%TD*%
D14*
%TO.C,R1*%
X115260000Y-86170000D03*
D15*
X105100000Y-86170000D03*
%TD*%
D14*
%TO.C,C6*%
X138280000Y-100870000D03*
X138280000Y-95870000D03*
%TD*%
D18*
%TO.C,H2*%
X145980000Y-119570000D03*
%TD*%
D14*
%TO.C,R8*%
X133880000Y-95770000D03*
D15*
X133880000Y-105930000D03*
%TD*%
D19*
%TO.C,RV4*%
X177180000Y-120370000D03*
X182180000Y-120370000D03*
X187180000Y-120370000D03*
X177180000Y-115370000D03*
X182180000Y-115370000D03*
X187180000Y-115370000D03*
%TD*%
D16*
%TO.C,U1*%
X113155000Y-89570000D03*
D17*
X113155000Y-92110000D03*
X113155000Y-94650000D03*
X113155000Y-97190000D03*
X120775000Y-97190000D03*
X120775000Y-94650000D03*
X120775000Y-92110000D03*
X120775000Y-89570000D03*
%TD*%
D12*
%TO.C,J3*%
X112580000Y-80970000D03*
D13*
X115120000Y-80970000D03*
%TD*%
D14*
%TO.C,R4*%
X129580000Y-103570000D03*
D15*
X129580000Y-93410000D03*
%TD*%
D14*
%TO.C,R5*%
X122580000Y-112170000D03*
D15*
X132740000Y-112170000D03*
%TD*%
D19*
%TO.C,RV3*%
X153780000Y-120370000D03*
X158780000Y-120370000D03*
X163780000Y-120370000D03*
X153780000Y-115370000D03*
X158780000Y-115370000D03*
X163780000Y-115370000D03*
%TD*%
D14*
%TO.C,R2*%
X109380000Y-88890000D03*
D15*
X109380000Y-99050000D03*
%TD*%
D19*
%TO.C,RV2*%
X106780000Y-120370000D03*
X111780000Y-120370000D03*
X116780000Y-120370000D03*
X106780000Y-115370000D03*
X111780000Y-115370000D03*
X116780000Y-115370000D03*
%TD*%
D14*
%TO.C,C1*%
X106180000Y-93870000D03*
X106180000Y-98870000D03*
%TD*%
%TO.C,C10*%
X113780000Y-101770000D03*
X108780000Y-101770000D03*
%TD*%
%TO.C,R14*%
X157580000Y-88870000D03*
D15*
X157580000Y-99030000D03*
%TD*%
D14*
%TO.C,C8*%
X165280000Y-101670000D03*
X170280000Y-101670000D03*
%TD*%
D18*
%TO.C,H1*%
X104980000Y-80970000D03*
%TD*%
D12*
%TO.C,J1*%
X120580000Y-81970000D03*
D13*
X123120000Y-81970000D03*
X125660000Y-81970000D03*
%TD*%
D14*
%TO.C,C3*%
X157880000Y-86170000D03*
X152880000Y-86170000D03*
%TD*%
%TO.C,C9*%
X117880000Y-86070000D03*
X122880000Y-86070000D03*
%TD*%
%TO.C,C7*%
X157105000Y-101750000D03*
X162105000Y-101750000D03*
%TD*%
%TO.C,C2*%
X116380000Y-100370000D03*
X116380000Y-105370000D03*
%TD*%
%TO.C,R3*%
X125980000Y-103570000D03*
D15*
X125980000Y-93410000D03*
%TD*%
D14*
%TO.C,R10*%
X133125000Y-92550000D03*
D15*
X143285000Y-92550000D03*
%TD*%
D14*
%TO.C,R9*%
X143285000Y-89150000D03*
D15*
X133125000Y-89150000D03*
%TD*%
D19*
%TO.C,RV1*%
X127780000Y-120970000D03*
X132780000Y-120970000D03*
X137780000Y-120970000D03*
%TD*%
D12*
%TO.C,J4*%
X175180000Y-88370000D03*
D13*
X175180000Y-90910000D03*
X175180000Y-93450000D03*
X175180000Y-95990000D03*
%TD*%
D14*
%TO.C,R6*%
X103580000Y-105170000D03*
D15*
X113740000Y-105170000D03*
%TD*%
D20*
%TO.C,J2*%
X187380000Y-79620000D03*
X187380000Y-103920000D03*
D21*
X182630000Y-80770000D03*
X182630000Y-94770000D03*
D22*
X187480000Y-84770000D03*
X187380000Y-98770000D03*
%TD*%
M02*
