%TF.GenerationSoftware,KiCad,Pcbnew,(5.99.0-12960-gccd3a1e6a9)*%
%TF.CreationDate,2021-11-22T21:09:54-05:00*%
%TF.ProjectId,crossover_v1,63726f73-736f-4766-9572-5f76312e6b69,rev?*%
%TF.SameCoordinates,Original*%
%TF.FileFunction,Legend,Top*%
%TF.FilePolarity,Positive*%
%FSLAX46Y46*%
G04 Gerber Fmt 4.6, Leading zero omitted, Abs format (unit mm)*
G04 Created by KiCad (PCBNEW (5.99.0-12960-gccd3a1e6a9)) date 2021-11-22 21:09:54*
%MOMM*%
%LPD*%
G01*
G04 APERTURE LIST*
%ADD10C,0.150000*%
%ADD11C,0.200000*%
%ADD12C,0.300000*%
%ADD13C,0.120000*%
%ADD14C,0.010000*%
G04 APERTURE END LIST*
D10*
X36521428Y-5650000D02*
X36426190Y-5602380D01*
X36283333Y-5602380D01*
X36140476Y-5650000D01*
X36045238Y-5745238D01*
X35997619Y-5840476D01*
X35950000Y-6030952D01*
X35950000Y-6173809D01*
X35997619Y-6364285D01*
X36045238Y-6459523D01*
X36140476Y-6554761D01*
X36283333Y-6602380D01*
X36378571Y-6602380D01*
X36521428Y-6554761D01*
X36569047Y-6507142D01*
X36569047Y-6173809D01*
X36378571Y-6173809D01*
X37759523Y-6602380D02*
X37759523Y-5602380D01*
X38235714Y-6602380D02*
X38235714Y-5602380D01*
X38807142Y-6602380D01*
X38807142Y-5602380D01*
X39759523Y-6602380D02*
X39283333Y-6602380D01*
X39283333Y-5602380D01*
X40854761Y-6602380D02*
X40854761Y-5602380D01*
X41330952Y-6602380D02*
X41330952Y-5602380D01*
X41902380Y-6602380D01*
X41902380Y-5602380D01*
X42950000Y-6602380D02*
X42616666Y-6126190D01*
X42378571Y-6602380D02*
X42378571Y-5602380D01*
X42759523Y-5602380D01*
X42854761Y-5650000D01*
X42902380Y-5697619D01*
X42950000Y-5792857D01*
X42950000Y-5935714D01*
X42902380Y-6030952D01*
X42854761Y-6078571D01*
X42759523Y-6126190D01*
X42378571Y-6126190D01*
D11*
X64216666Y-12988095D02*
X64216666Y-11688095D01*
X64650000Y-12616666D01*
X65083333Y-11688095D01*
X65083333Y-12988095D01*
X65640476Y-12616666D02*
X66259523Y-12616666D01*
X65516666Y-12988095D02*
X65950000Y-11688095D01*
X66383333Y-12988095D01*
X67064285Y-12369047D02*
X67064285Y-12988095D01*
X66630952Y-11688095D02*
X67064285Y-12369047D01*
X67497619Y-11688095D01*
X67930952Y-12988095D02*
X67930952Y-11688095D01*
X68673809Y-12988095D02*
X68116666Y-12245238D01*
X68673809Y-11688095D02*
X67930952Y-12430952D01*
X69478571Y-11688095D02*
X69726190Y-11688095D01*
X69850000Y-11750000D01*
X69973809Y-11873809D01*
X70035714Y-12121428D01*
X70035714Y-12554761D01*
X69973809Y-12802380D01*
X69850000Y-12926190D01*
X69726190Y-12988095D01*
X69478571Y-12988095D01*
X69354761Y-12926190D01*
X69230952Y-12802380D01*
X69169047Y-12554761D01*
X69169047Y-12121428D01*
X69230952Y-11873809D01*
X69354761Y-11750000D01*
X69478571Y-11688095D01*
X71211904Y-12988095D02*
X70592857Y-12988095D01*
X70592857Y-11688095D01*
X72388095Y-12988095D02*
X71954761Y-12369047D01*
X71645238Y-12988095D02*
X71645238Y-11688095D01*
X72140476Y-11688095D01*
X72264285Y-11750000D01*
X72326190Y-11811904D01*
X72388095Y-11935714D01*
X72388095Y-12121428D01*
X72326190Y-12245238D01*
X72264285Y-12307142D01*
X72140476Y-12369047D01*
X71645238Y-12369047D01*
X72945238Y-12307142D02*
X73378571Y-12307142D01*
X73564285Y-12988095D02*
X72945238Y-12988095D01*
X72945238Y-11688095D01*
X73564285Y-11688095D01*
X74369047Y-12369047D02*
X74369047Y-12988095D01*
X73935714Y-11688095D02*
X74369047Y-12369047D01*
X74802380Y-11688095D01*
X75235714Y-12864285D02*
X75297619Y-12926190D01*
X75235714Y-12988095D01*
X75173809Y-12926190D01*
X75235714Y-12864285D01*
X75235714Y-12988095D01*
X76597619Y-12864285D02*
X76535714Y-12926190D01*
X76350000Y-12988095D01*
X76226190Y-12988095D01*
X76040476Y-12926190D01*
X75916666Y-12802380D01*
X75854761Y-12678571D01*
X75792857Y-12430952D01*
X75792857Y-12245238D01*
X75854761Y-11997619D01*
X75916666Y-11873809D01*
X76040476Y-11750000D01*
X76226190Y-11688095D01*
X76350000Y-11688095D01*
X76535714Y-11750000D01*
X76597619Y-11811904D01*
X77402380Y-11688095D02*
X77650000Y-11688095D01*
X77773809Y-11750000D01*
X77897619Y-11873809D01*
X77959523Y-12121428D01*
X77959523Y-12554761D01*
X77897619Y-12802380D01*
X77773809Y-12926190D01*
X77650000Y-12988095D01*
X77402380Y-12988095D01*
X77278571Y-12926190D01*
X77154761Y-12802380D01*
X77092857Y-12554761D01*
X77092857Y-12121428D01*
X77154761Y-11873809D01*
X77278571Y-11750000D01*
X77402380Y-11688095D01*
X78516666Y-12988095D02*
X78516666Y-11688095D01*
X78950000Y-12616666D01*
X79383333Y-11688095D01*
X79383333Y-12988095D01*
D10*
X24104761Y-6400000D02*
X24009523Y-6352380D01*
X23866666Y-6352380D01*
X23723809Y-6400000D01*
X23628571Y-6495238D01*
X23580952Y-6590476D01*
X23533333Y-6780952D01*
X23533333Y-6923809D01*
X23580952Y-7114285D01*
X23628571Y-7209523D01*
X23723809Y-7304761D01*
X23866666Y-7352380D01*
X23961904Y-7352380D01*
X24104761Y-7304761D01*
X24152380Y-7257142D01*
X24152380Y-6923809D01*
X23961904Y-6923809D01*
X25342857Y-6971428D02*
X26104761Y-6971428D01*
X26438095Y-6352380D02*
X26771428Y-7352380D01*
X27104761Y-6352380D01*
X28200000Y-6971428D02*
X28961904Y-6971428D01*
X28580952Y-7352380D02*
X28580952Y-6590476D01*
X29295238Y-6352380D02*
X29628571Y-7352380D01*
X29961904Y-6352380D01*
D12*
X37414047Y-37724285D02*
X37318809Y-37819523D01*
X37033095Y-37914761D01*
X36842619Y-37914761D01*
X36556904Y-37819523D01*
X36366428Y-37629047D01*
X36271190Y-37438571D01*
X36175952Y-37057619D01*
X36175952Y-36771904D01*
X36271190Y-36390952D01*
X36366428Y-36200476D01*
X36556904Y-36010000D01*
X36842619Y-35914761D01*
X37033095Y-35914761D01*
X37318809Y-36010000D01*
X37414047Y-36105238D01*
X38652142Y-35914761D02*
X39033095Y-35914761D01*
X39223571Y-36010000D01*
X39414047Y-36200476D01*
X39509285Y-36581428D01*
X39509285Y-37248095D01*
X39414047Y-37629047D01*
X39223571Y-37819523D01*
X39033095Y-37914761D01*
X38652142Y-37914761D01*
X38461666Y-37819523D01*
X38271190Y-37629047D01*
X38175952Y-37248095D01*
X38175952Y-36581428D01*
X38271190Y-36200476D01*
X38461666Y-36010000D01*
X38652142Y-35914761D01*
X40271190Y-36105238D02*
X40366428Y-36010000D01*
X40556904Y-35914761D01*
X41033095Y-35914761D01*
X41223571Y-36010000D01*
X41318809Y-36105238D01*
X41414047Y-36295714D01*
X41414047Y-36486190D01*
X41318809Y-36771904D01*
X40175952Y-37914761D01*
X41414047Y-37914761D01*
X41985476Y-35914761D02*
X42652142Y-37914761D01*
X43318809Y-35914761D01*
X43509285Y-38105238D02*
X45033095Y-38105238D01*
X45223571Y-35914761D02*
X45890238Y-37914761D01*
X46556904Y-35914761D01*
X47604523Y-35914761D02*
X47795000Y-35914761D01*
X47985476Y-36010000D01*
X48080714Y-36105238D01*
X48175952Y-36295714D01*
X48271190Y-36676666D01*
X48271190Y-37152857D01*
X48175952Y-37533809D01*
X48080714Y-37724285D01*
X47985476Y-37819523D01*
X47795000Y-37914761D01*
X47604523Y-37914761D01*
X47414047Y-37819523D01*
X47318809Y-37724285D01*
X47223571Y-37533809D01*
X47128333Y-37152857D01*
X47128333Y-36676666D01*
X47223571Y-36295714D01*
X47318809Y-36105238D01*
X47414047Y-36010000D01*
X47604523Y-35914761D01*
X49128333Y-37724285D02*
X49223571Y-37819523D01*
X49128333Y-37914761D01*
X49033095Y-37819523D01*
X49128333Y-37724285D01*
X49128333Y-37914761D01*
X50461666Y-35914761D02*
X50652142Y-35914761D01*
X50842619Y-36010000D01*
X50937857Y-36105238D01*
X51033095Y-36295714D01*
X51128333Y-36676666D01*
X51128333Y-37152857D01*
X51033095Y-37533809D01*
X50937857Y-37724285D01*
X50842619Y-37819523D01*
X50652142Y-37914761D01*
X50461666Y-37914761D01*
X50271190Y-37819523D01*
X50175952Y-37724285D01*
X50080714Y-37533809D01*
X49985476Y-37152857D01*
X49985476Y-36676666D01*
X50080714Y-36295714D01*
X50175952Y-36105238D01*
X50271190Y-36010000D01*
X50461666Y-35914761D01*
X51985476Y-37724285D02*
X52080714Y-37819523D01*
X51985476Y-37914761D01*
X51890238Y-37819523D01*
X51985476Y-37724285D01*
X51985476Y-37914761D01*
X52842619Y-36105238D02*
X52937857Y-36010000D01*
X53128333Y-35914761D01*
X53604523Y-35914761D01*
X53795000Y-36010000D01*
X53890238Y-36105238D01*
X53985476Y-36295714D01*
X53985476Y-36486190D01*
X53890238Y-36771904D01*
X52747380Y-37914761D01*
X53985476Y-37914761D01*
D10*
X74816785Y-14670000D02*
X74721547Y-14622380D01*
X74578690Y-14622380D01*
X74435833Y-14670000D01*
X74340595Y-14765238D01*
X74292976Y-14860476D01*
X74245357Y-15050952D01*
X74245357Y-15193809D01*
X74292976Y-15384285D01*
X74340595Y-15479523D01*
X74435833Y-15574761D01*
X74578690Y-15622380D01*
X74673928Y-15622380D01*
X74816785Y-15574761D01*
X74864404Y-15527142D01*
X74864404Y-15193809D01*
X74673928Y-15193809D01*
X75292976Y-15622380D02*
X75292976Y-14622380D01*
X75864404Y-15622380D01*
X75864404Y-14622380D01*
X76340595Y-15622380D02*
X76340595Y-14622380D01*
X76578690Y-14622380D01*
X76721547Y-14670000D01*
X76816785Y-14765238D01*
X76864404Y-14860476D01*
X76912023Y-15050952D01*
X76912023Y-15193809D01*
X76864404Y-15384285D01*
X76816785Y-15479523D01*
X76721547Y-15574761D01*
X76578690Y-15622380D01*
X76340595Y-15622380D01*
X74816785Y-17890000D02*
X74721547Y-17842380D01*
X74578690Y-17842380D01*
X74435833Y-17890000D01*
X74340595Y-17985238D01*
X74292976Y-18080476D01*
X74245357Y-18270952D01*
X74245357Y-18413809D01*
X74292976Y-18604285D01*
X74340595Y-18699523D01*
X74435833Y-18794761D01*
X74578690Y-18842380D01*
X74673928Y-18842380D01*
X74816785Y-18794761D01*
X74864404Y-18747142D01*
X74864404Y-18413809D01*
X74673928Y-18413809D01*
X75292976Y-18842380D02*
X75292976Y-17842380D01*
X75864404Y-18842380D01*
X75864404Y-17842380D01*
X76340595Y-18842380D02*
X76340595Y-17842380D01*
X76578690Y-17842380D01*
X76721547Y-17890000D01*
X76816785Y-17985238D01*
X76864404Y-18080476D01*
X76912023Y-18270952D01*
X76912023Y-18413809D01*
X76864404Y-18604285D01*
X76816785Y-18699523D01*
X76721547Y-18794761D01*
X76578690Y-18842380D01*
X76340595Y-18842380D01*
X75054880Y-22062380D02*
X74721547Y-21586190D01*
X74483452Y-22062380D02*
X74483452Y-21062380D01*
X74864404Y-21062380D01*
X74959642Y-21110000D01*
X75007261Y-21157619D01*
X75054880Y-21252857D01*
X75054880Y-21395714D01*
X75007261Y-21490952D01*
X74959642Y-21538571D01*
X74864404Y-21586190D01*
X74483452Y-21586190D01*
X75483452Y-22062380D02*
X75483452Y-21062380D01*
X75864404Y-21062380D01*
X75959642Y-21110000D01*
X76007261Y-21157619D01*
X76054880Y-21252857D01*
X76054880Y-21395714D01*
X76007261Y-21490952D01*
X75959642Y-21538571D01*
X75864404Y-21586190D01*
X75483452Y-21586190D01*
X76435833Y-21776666D02*
X76912023Y-21776666D01*
X76340595Y-22062380D02*
X76673928Y-21062380D01*
X77007261Y-22062380D01*
X75150119Y-25282380D02*
X74673928Y-25282380D01*
X74673928Y-24282380D01*
X75483452Y-25282380D02*
X75483452Y-24282380D01*
X75864404Y-24282380D01*
X75959642Y-24330000D01*
X76007261Y-24377619D01*
X76054880Y-24472857D01*
X76054880Y-24615714D01*
X76007261Y-24710952D01*
X75959642Y-24758571D01*
X75864404Y-24806190D01*
X75483452Y-24806190D01*
X76435833Y-24996666D02*
X76912023Y-24996666D01*
X76340595Y-25282380D02*
X76673928Y-24282380D01*
X77007261Y-25282380D01*
X16107142Y-5700000D02*
X16011904Y-5652380D01*
X15869047Y-5652380D01*
X15726190Y-5700000D01*
X15630952Y-5795238D01*
X15583333Y-5890476D01*
X15535714Y-6080952D01*
X15535714Y-6223809D01*
X15583333Y-6414285D01*
X15630952Y-6509523D01*
X15726190Y-6604761D01*
X15869047Y-6652380D01*
X15964285Y-6652380D01*
X16107142Y-6604761D01*
X16154761Y-6557142D01*
X16154761Y-6223809D01*
X15964285Y-6223809D01*
X17535714Y-5652380D02*
X17726190Y-5652380D01*
X17821428Y-5700000D01*
X17916666Y-5795238D01*
X17964285Y-5985714D01*
X17964285Y-6319047D01*
X17916666Y-6509523D01*
X17821428Y-6604761D01*
X17726190Y-6652380D01*
X17535714Y-6652380D01*
X17440476Y-6604761D01*
X17345238Y-6509523D01*
X17297619Y-6319047D01*
X17297619Y-5985714D01*
X17345238Y-5795238D01*
X17440476Y-5700000D01*
X17535714Y-5652380D01*
X18392857Y-6652380D02*
X18392857Y-5652380D01*
X18773809Y-5652380D01*
X18869047Y-5700000D01*
X18916666Y-5747619D01*
X18964285Y-5842857D01*
X18964285Y-5985714D01*
X18916666Y-6080952D01*
X18869047Y-6128571D01*
X18773809Y-6176190D01*
X18392857Y-6176190D01*
X19726190Y-6128571D02*
X19869047Y-6176190D01*
X19916666Y-6223809D01*
X19964285Y-6319047D01*
X19964285Y-6461904D01*
X19916666Y-6557142D01*
X19869047Y-6604761D01*
X19773809Y-6652380D01*
X19392857Y-6652380D01*
X19392857Y-5652380D01*
X19726190Y-5652380D01*
X19821428Y-5700000D01*
X19869047Y-5747619D01*
X19916666Y-5842857D01*
X19916666Y-5938095D01*
X19869047Y-6033333D01*
X19821428Y-6080952D01*
X19726190Y-6128571D01*
X19392857Y-6128571D01*
%TO.C,RV4*%
X90604761Y-38852380D02*
X90271428Y-38376190D01*
X90033333Y-38852380D02*
X90033333Y-37852380D01*
X90414285Y-37852380D01*
X90509523Y-37900000D01*
X90557142Y-37947619D01*
X90604761Y-38042857D01*
X90604761Y-38185714D01*
X90557142Y-38280952D01*
X90509523Y-38328571D01*
X90414285Y-38376190D01*
X90033333Y-38376190D01*
X90890476Y-37852380D02*
X91223809Y-38852380D01*
X91557142Y-37852380D01*
X92319047Y-38185714D02*
X92319047Y-38852380D01*
X92080952Y-37804761D02*
X91842857Y-38519047D01*
X92461904Y-38519047D01*
%TO.C,RV3*%
X59204761Y-38852380D02*
X58871428Y-38376190D01*
X58633333Y-38852380D02*
X58633333Y-37852380D01*
X59014285Y-37852380D01*
X59109523Y-37900000D01*
X59157142Y-37947619D01*
X59204761Y-38042857D01*
X59204761Y-38185714D01*
X59157142Y-38280952D01*
X59109523Y-38328571D01*
X59014285Y-38376190D01*
X58633333Y-38376190D01*
X59490476Y-37852380D02*
X59823809Y-38852380D01*
X60157142Y-37852380D01*
X60395238Y-37852380D02*
X61014285Y-37852380D01*
X60680952Y-38233333D01*
X60823809Y-38233333D01*
X60919047Y-38280952D01*
X60966666Y-38328571D01*
X61014285Y-38423809D01*
X61014285Y-38661904D01*
X60966666Y-38757142D01*
X60919047Y-38804761D01*
X60823809Y-38852380D01*
X60538095Y-38852380D01*
X60442857Y-38804761D01*
X60395238Y-38757142D01*
%TO.C,RV2*%
X21604761Y-39052380D02*
X21271428Y-38576190D01*
X21033333Y-39052380D02*
X21033333Y-38052380D01*
X21414285Y-38052380D01*
X21509523Y-38100000D01*
X21557142Y-38147619D01*
X21604761Y-38242857D01*
X21604761Y-38385714D01*
X21557142Y-38480952D01*
X21509523Y-38528571D01*
X21414285Y-38576190D01*
X21033333Y-38576190D01*
X21890476Y-38052380D02*
X22223809Y-39052380D01*
X22557142Y-38052380D01*
X22842857Y-38147619D02*
X22890476Y-38100000D01*
X22985714Y-38052380D01*
X23223809Y-38052380D01*
X23319047Y-38100000D01*
X23366666Y-38147619D01*
X23414285Y-38242857D01*
X23414285Y-38338095D01*
X23366666Y-38480952D01*
X22795238Y-39052380D01*
X23414285Y-39052380D01*
%TO.C,J5*%
X36216666Y-10652380D02*
X36216666Y-11366666D01*
X36169047Y-11509523D01*
X36073809Y-11604761D01*
X35930952Y-11652380D01*
X35835714Y-11652380D01*
X37169047Y-10652380D02*
X36692857Y-10652380D01*
X36645238Y-11128571D01*
X36692857Y-11080952D01*
X36788095Y-11033333D01*
X37026190Y-11033333D01*
X37121428Y-11080952D01*
X37169047Y-11128571D01*
X37216666Y-11223809D01*
X37216666Y-11461904D01*
X37169047Y-11557142D01*
X37121428Y-11604761D01*
X37026190Y-11652380D01*
X36788095Y-11652380D01*
X36692857Y-11604761D01*
X36645238Y-11557142D01*
%TO.C,C4*%
X50182142Y-31146666D02*
X50229761Y-31194285D01*
X50277380Y-31337142D01*
X50277380Y-31432380D01*
X50229761Y-31575238D01*
X50134523Y-31670476D01*
X50039285Y-31718095D01*
X49848809Y-31765714D01*
X49705952Y-31765714D01*
X49515476Y-31718095D01*
X49420238Y-31670476D01*
X49325000Y-31575238D01*
X49277380Y-31432380D01*
X49277380Y-31337142D01*
X49325000Y-31194285D01*
X49372619Y-31146666D01*
X49610714Y-30289523D02*
X50277380Y-30289523D01*
X49229761Y-30527619D02*
X49944047Y-30765714D01*
X49944047Y-30146666D01*
%TO.C,R12*%
X68877380Y-22222857D02*
X68401190Y-22556190D01*
X68877380Y-22794285D02*
X67877380Y-22794285D01*
X67877380Y-22413333D01*
X67925000Y-22318095D01*
X67972619Y-22270476D01*
X68067857Y-22222857D01*
X68210714Y-22222857D01*
X68305952Y-22270476D01*
X68353571Y-22318095D01*
X68401190Y-22413333D01*
X68401190Y-22794285D01*
X68877380Y-21270476D02*
X68877380Y-21841904D01*
X68877380Y-21556190D02*
X67877380Y-21556190D01*
X68020238Y-21651428D01*
X68115476Y-21746666D01*
X68163095Y-21841904D01*
X67972619Y-20889523D02*
X67925000Y-20841904D01*
X67877380Y-20746666D01*
X67877380Y-20508571D01*
X67925000Y-20413333D01*
X67972619Y-20365714D01*
X68067857Y-20318095D01*
X68163095Y-20318095D01*
X68305952Y-20365714D01*
X68877380Y-20937142D01*
X68877380Y-20318095D01*
%TO.C,U2*%
X49063095Y-14832380D02*
X49063095Y-15641904D01*
X49110714Y-15737142D01*
X49158333Y-15784761D01*
X49253571Y-15832380D01*
X49444047Y-15832380D01*
X49539285Y-15784761D01*
X49586904Y-15737142D01*
X49634523Y-15641904D01*
X49634523Y-14832380D01*
X50063095Y-14927619D02*
X50110714Y-14880000D01*
X50205952Y-14832380D01*
X50444047Y-14832380D01*
X50539285Y-14880000D01*
X50586904Y-14927619D01*
X50634523Y-15022857D01*
X50634523Y-15118095D01*
X50586904Y-15260952D01*
X50015476Y-15832380D01*
X50634523Y-15832380D01*
%TO.C,R13*%
X65277380Y-22222857D02*
X64801190Y-22556190D01*
X65277380Y-22794285D02*
X64277380Y-22794285D01*
X64277380Y-22413333D01*
X64325000Y-22318095D01*
X64372619Y-22270476D01*
X64467857Y-22222857D01*
X64610714Y-22222857D01*
X64705952Y-22270476D01*
X64753571Y-22318095D01*
X64801190Y-22413333D01*
X64801190Y-22794285D01*
X65277380Y-21270476D02*
X65277380Y-21841904D01*
X65277380Y-21556190D02*
X64277380Y-21556190D01*
X64420238Y-21651428D01*
X64515476Y-21746666D01*
X64563095Y-21841904D01*
X64277380Y-20937142D02*
X64277380Y-20318095D01*
X64658333Y-20651428D01*
X64658333Y-20508571D01*
X64705952Y-20413333D01*
X64753571Y-20365714D01*
X64848809Y-20318095D01*
X65086904Y-20318095D01*
X65182142Y-20365714D01*
X65229761Y-20413333D01*
X65277380Y-20508571D01*
X65277380Y-20794285D01*
X65229761Y-20889523D01*
X65182142Y-20937142D01*
%TO.C,R7*%
X74252380Y-43566666D02*
X73776190Y-43900000D01*
X74252380Y-44138095D02*
X73252380Y-44138095D01*
X73252380Y-43757142D01*
X73300000Y-43661904D01*
X73347619Y-43614285D01*
X73442857Y-43566666D01*
X73585714Y-43566666D01*
X73680952Y-43614285D01*
X73728571Y-43661904D01*
X73776190Y-43757142D01*
X73776190Y-44138095D01*
X73252380Y-43233333D02*
X73252380Y-42566666D01*
X74252380Y-42995238D01*
%TO.C,C5*%
X45682142Y-26166666D02*
X45729761Y-26214285D01*
X45777380Y-26357142D01*
X45777380Y-26452380D01*
X45729761Y-26595238D01*
X45634523Y-26690476D01*
X45539285Y-26738095D01*
X45348809Y-26785714D01*
X45205952Y-26785714D01*
X45015476Y-26738095D01*
X44920238Y-26690476D01*
X44825000Y-26595238D01*
X44777380Y-26452380D01*
X44777380Y-26357142D01*
X44825000Y-26214285D01*
X44872619Y-26166666D01*
X44777380Y-25261904D02*
X44777380Y-25738095D01*
X45253571Y-25785714D01*
X45205952Y-25738095D01*
X45158333Y-25642857D01*
X45158333Y-25404761D01*
X45205952Y-25309523D01*
X45253571Y-25261904D01*
X45348809Y-25214285D01*
X45586904Y-25214285D01*
X45682142Y-25261904D01*
X45729761Y-25309523D01*
X45777380Y-25404761D01*
X45777380Y-25642857D01*
X45729761Y-25738095D01*
X45682142Y-25785714D01*
%TO.C,R11*%
X72677380Y-22022857D02*
X72201190Y-22356190D01*
X72677380Y-22594285D02*
X71677380Y-22594285D01*
X71677380Y-22213333D01*
X71725000Y-22118095D01*
X71772619Y-22070476D01*
X71867857Y-22022857D01*
X72010714Y-22022857D01*
X72105952Y-22070476D01*
X72153571Y-22118095D01*
X72201190Y-22213333D01*
X72201190Y-22594285D01*
X72677380Y-21070476D02*
X72677380Y-21641904D01*
X72677380Y-21356190D02*
X71677380Y-21356190D01*
X71820238Y-21451428D01*
X71915476Y-21546666D01*
X71963095Y-21641904D01*
X72677380Y-20118095D02*
X72677380Y-20689523D01*
X72677380Y-20403809D02*
X71677380Y-20403809D01*
X71820238Y-20499047D01*
X71915476Y-20594285D01*
X71963095Y-20689523D01*
%TO.C,R1*%
X13433333Y-14252380D02*
X13100000Y-13776190D01*
X12861904Y-14252380D02*
X12861904Y-13252380D01*
X13242857Y-13252380D01*
X13338095Y-13300000D01*
X13385714Y-13347619D01*
X13433333Y-13442857D01*
X13433333Y-13585714D01*
X13385714Y-13680952D01*
X13338095Y-13728571D01*
X13242857Y-13776190D01*
X12861904Y-13776190D01*
X14385714Y-14252380D02*
X13814285Y-14252380D01*
X14100000Y-14252380D02*
X14100000Y-13252380D01*
X14004761Y-13395238D01*
X13909523Y-13490476D01*
X13814285Y-13538095D01*
%TO.C,C6*%
X42257142Y-26066666D02*
X42304761Y-26114285D01*
X42352380Y-26257142D01*
X42352380Y-26352380D01*
X42304761Y-26495238D01*
X42209523Y-26590476D01*
X42114285Y-26638095D01*
X41923809Y-26685714D01*
X41780952Y-26685714D01*
X41590476Y-26638095D01*
X41495238Y-26590476D01*
X41400000Y-26495238D01*
X41352380Y-26352380D01*
X41352380Y-26257142D01*
X41400000Y-26114285D01*
X41447619Y-26066666D01*
X41352380Y-25209523D02*
X41352380Y-25400000D01*
X41400000Y-25495238D01*
X41447619Y-25542857D01*
X41590476Y-25638095D01*
X41780952Y-25685714D01*
X42161904Y-25685714D01*
X42257142Y-25638095D01*
X42304761Y-25590476D01*
X42352380Y-25495238D01*
X42352380Y-25304761D01*
X42304761Y-25209523D01*
X42257142Y-25161904D01*
X42161904Y-25114285D01*
X41923809Y-25114285D01*
X41828571Y-25161904D01*
X41780952Y-25209523D01*
X41733333Y-25304761D01*
X41733333Y-25495238D01*
X41780952Y-25590476D01*
X41828571Y-25638095D01*
X41923809Y-25685714D01*
%TO.C,H2*%
X48838095Y-43852380D02*
X48838095Y-42852380D01*
X48838095Y-43328571D02*
X49409523Y-43328571D01*
X49409523Y-43852380D02*
X49409523Y-42852380D01*
X49838095Y-42947619D02*
X49885714Y-42900000D01*
X49980952Y-42852380D01*
X50219047Y-42852380D01*
X50314285Y-42900000D01*
X50361904Y-42947619D01*
X50409523Y-43042857D01*
X50409523Y-43138095D01*
X50361904Y-43280952D01*
X49790476Y-43852380D01*
X50409523Y-43852380D01*
%TO.C,R8*%
X37952380Y-28846666D02*
X37476190Y-29180000D01*
X37952380Y-29418095D02*
X36952380Y-29418095D01*
X36952380Y-29037142D01*
X37000000Y-28941904D01*
X37047619Y-28894285D01*
X37142857Y-28846666D01*
X37285714Y-28846666D01*
X37380952Y-28894285D01*
X37428571Y-28941904D01*
X37476190Y-29037142D01*
X37476190Y-29418095D01*
X37380952Y-28275238D02*
X37333333Y-28370476D01*
X37285714Y-28418095D01*
X37190476Y-28465714D01*
X37142857Y-28465714D01*
X37047619Y-28418095D01*
X37000000Y-28370476D01*
X36952380Y-28275238D01*
X36952380Y-28084761D01*
X37000000Y-27989523D01*
X37047619Y-27941904D01*
X37142857Y-27894285D01*
X37190476Y-27894285D01*
X37285714Y-27941904D01*
X37333333Y-27989523D01*
X37380952Y-28084761D01*
X37380952Y-28275238D01*
X37428571Y-28370476D01*
X37476190Y-28418095D01*
X37571428Y-28465714D01*
X37761904Y-28465714D01*
X37857142Y-28418095D01*
X37904761Y-28370476D01*
X37952380Y-28275238D01*
X37952380Y-28084761D01*
X37904761Y-27989523D01*
X37857142Y-27941904D01*
X37761904Y-27894285D01*
X37571428Y-27894285D01*
X37476190Y-27941904D01*
X37428571Y-27989523D01*
X37380952Y-28084761D01*
%TO.C,U1*%
X26738095Y-15952380D02*
X26738095Y-16761904D01*
X26785714Y-16857142D01*
X26833333Y-16904761D01*
X26928571Y-16952380D01*
X27119047Y-16952380D01*
X27214285Y-16904761D01*
X27261904Y-16857142D01*
X27309523Y-16761904D01*
X27309523Y-15952380D01*
X28309523Y-16952380D02*
X27738095Y-16952380D01*
X28023809Y-16952380D02*
X28023809Y-15952380D01*
X27928571Y-16095238D01*
X27833333Y-16190476D01*
X27738095Y-16238095D01*
%TO.C,J3*%
X13066666Y-8052380D02*
X13066666Y-8766666D01*
X13019047Y-8909523D01*
X12923809Y-9004761D01*
X12780952Y-9052380D01*
X12685714Y-9052380D01*
X13447619Y-8052380D02*
X14066666Y-8052380D01*
X13733333Y-8433333D01*
X13876190Y-8433333D01*
X13971428Y-8480952D01*
X14019047Y-8528571D01*
X14066666Y-8623809D01*
X14066666Y-8861904D01*
X14019047Y-8957142D01*
X13971428Y-9004761D01*
X13876190Y-9052380D01*
X13590476Y-9052380D01*
X13495238Y-9004761D01*
X13447619Y-8957142D01*
%TO.C,R4*%
X33652380Y-26166666D02*
X33176190Y-26500000D01*
X33652380Y-26738095D02*
X32652380Y-26738095D01*
X32652380Y-26357142D01*
X32700000Y-26261904D01*
X32747619Y-26214285D01*
X32842857Y-26166666D01*
X32985714Y-26166666D01*
X33080952Y-26214285D01*
X33128571Y-26261904D01*
X33176190Y-26357142D01*
X33176190Y-26738095D01*
X32985714Y-25309523D02*
X33652380Y-25309523D01*
X32604761Y-25547619D02*
X33319047Y-25785714D01*
X33319047Y-25166666D01*
%TO.C,R5*%
X31113333Y-40252380D02*
X30780000Y-39776190D01*
X30541904Y-40252380D02*
X30541904Y-39252380D01*
X30922857Y-39252380D01*
X31018095Y-39300000D01*
X31065714Y-39347619D01*
X31113333Y-39442857D01*
X31113333Y-39585714D01*
X31065714Y-39680952D01*
X31018095Y-39728571D01*
X30922857Y-39776190D01*
X30541904Y-39776190D01*
X32018095Y-39252380D02*
X31541904Y-39252380D01*
X31494285Y-39728571D01*
X31541904Y-39680952D01*
X31637142Y-39633333D01*
X31875238Y-39633333D01*
X31970476Y-39680952D01*
X32018095Y-39728571D01*
X32065714Y-39823809D01*
X32065714Y-40061904D01*
X32018095Y-40157142D01*
X31970476Y-40204761D01*
X31875238Y-40252380D01*
X31637142Y-40252380D01*
X31541904Y-40204761D01*
X31494285Y-40157142D01*
%TO.C,R2*%
X13452380Y-21566666D02*
X12976190Y-21900000D01*
X13452380Y-22138095D02*
X12452380Y-22138095D01*
X12452380Y-21757142D01*
X12500000Y-21661904D01*
X12547619Y-21614285D01*
X12642857Y-21566666D01*
X12785714Y-21566666D01*
X12880952Y-21614285D01*
X12928571Y-21661904D01*
X12976190Y-21757142D01*
X12976190Y-22138095D01*
X12547619Y-21185714D02*
X12500000Y-21138095D01*
X12452380Y-21042857D01*
X12452380Y-20804761D01*
X12500000Y-20709523D01*
X12547619Y-20661904D01*
X12642857Y-20614285D01*
X12738095Y-20614285D01*
X12880952Y-20661904D01*
X13452380Y-21233333D01*
X13452380Y-20614285D01*
%TO.C,C1*%
X8157142Y-24166666D02*
X8204761Y-24214285D01*
X8252380Y-24357142D01*
X8252380Y-24452380D01*
X8204761Y-24595238D01*
X8109523Y-24690476D01*
X8014285Y-24738095D01*
X7823809Y-24785714D01*
X7680952Y-24785714D01*
X7490476Y-24738095D01*
X7395238Y-24690476D01*
X7300000Y-24595238D01*
X7252380Y-24452380D01*
X7252380Y-24357142D01*
X7300000Y-24214285D01*
X7347619Y-24166666D01*
X8252380Y-23214285D02*
X8252380Y-23785714D01*
X8252380Y-23500000D02*
X7252380Y-23500000D01*
X7395238Y-23595238D01*
X7490476Y-23690476D01*
X7538095Y-23785714D01*
%TO.C,C10*%
X15957142Y-27757142D02*
X15909523Y-27804761D01*
X15766666Y-27852380D01*
X15671428Y-27852380D01*
X15528571Y-27804761D01*
X15433333Y-27709523D01*
X15385714Y-27614285D01*
X15338095Y-27423809D01*
X15338095Y-27280952D01*
X15385714Y-27090476D01*
X15433333Y-26995238D01*
X15528571Y-26900000D01*
X15671428Y-26852380D01*
X15766666Y-26852380D01*
X15909523Y-26900000D01*
X15957142Y-26947619D01*
X16909523Y-27852380D02*
X16338095Y-27852380D01*
X16623809Y-27852380D02*
X16623809Y-26852380D01*
X16528571Y-26995238D01*
X16433333Y-27090476D01*
X16338095Y-27138095D01*
X17528571Y-26852380D02*
X17623809Y-26852380D01*
X17719047Y-26900000D01*
X17766666Y-26947619D01*
X17814285Y-27042857D01*
X17861904Y-27233333D01*
X17861904Y-27471428D01*
X17814285Y-27661904D01*
X17766666Y-27757142D01*
X17719047Y-27804761D01*
X17623809Y-27852380D01*
X17528571Y-27852380D01*
X17433333Y-27804761D01*
X17385714Y-27757142D01*
X17338095Y-27661904D01*
X17290476Y-27471428D01*
X17290476Y-27233333D01*
X17338095Y-27042857D01*
X17385714Y-26947619D01*
X17433333Y-26900000D01*
X17528571Y-26852380D01*
%TO.C,R14*%
X61677380Y-22222857D02*
X61201190Y-22556190D01*
X61677380Y-22794285D02*
X60677380Y-22794285D01*
X60677380Y-22413333D01*
X60725000Y-22318095D01*
X60772619Y-22270476D01*
X60867857Y-22222857D01*
X61010714Y-22222857D01*
X61105952Y-22270476D01*
X61153571Y-22318095D01*
X61201190Y-22413333D01*
X61201190Y-22794285D01*
X61677380Y-21270476D02*
X61677380Y-21841904D01*
X61677380Y-21556190D02*
X60677380Y-21556190D01*
X60820238Y-21651428D01*
X60915476Y-21746666D01*
X60963095Y-21841904D01*
X61010714Y-20413333D02*
X61677380Y-20413333D01*
X60629761Y-20651428D02*
X61344047Y-20889523D01*
X61344047Y-20270476D01*
%TO.C,C8*%
X71233333Y-29657142D02*
X71185714Y-29704761D01*
X71042857Y-29752380D01*
X70947619Y-29752380D01*
X70804761Y-29704761D01*
X70709523Y-29609523D01*
X70661904Y-29514285D01*
X70614285Y-29323809D01*
X70614285Y-29180952D01*
X70661904Y-28990476D01*
X70709523Y-28895238D01*
X70804761Y-28800000D01*
X70947619Y-28752380D01*
X71042857Y-28752380D01*
X71185714Y-28800000D01*
X71233333Y-28847619D01*
X71804761Y-29180952D02*
X71709523Y-29133333D01*
X71661904Y-29085714D01*
X71614285Y-28990476D01*
X71614285Y-28942857D01*
X71661904Y-28847619D01*
X71709523Y-28800000D01*
X71804761Y-28752380D01*
X71995238Y-28752380D01*
X72090476Y-28800000D01*
X72138095Y-28847619D01*
X72185714Y-28942857D01*
X72185714Y-28990476D01*
X72138095Y-29085714D01*
X72090476Y-29133333D01*
X71995238Y-29180952D01*
X71804761Y-29180952D01*
X71709523Y-29228571D01*
X71661904Y-29276190D01*
X71614285Y-29371428D01*
X71614285Y-29561904D01*
X71661904Y-29657142D01*
X71709523Y-29704761D01*
X71804761Y-29752380D01*
X71995238Y-29752380D01*
X72090476Y-29704761D01*
X72138095Y-29657142D01*
X72185714Y-29561904D01*
X72185714Y-29371428D01*
X72138095Y-29276190D01*
X72090476Y-29228571D01*
X71995238Y-29180952D01*
%TO.C,H1*%
X5738095Y-12802380D02*
X5738095Y-11802380D01*
X5738095Y-12278571D02*
X6309523Y-12278571D01*
X6309523Y-12802380D02*
X6309523Y-11802380D01*
X7309523Y-12802380D02*
X6738095Y-12802380D01*
X7023809Y-12802380D02*
X7023809Y-11802380D01*
X6928571Y-11945238D01*
X6833333Y-12040476D01*
X6738095Y-12088095D01*
%TO.C,J1*%
X31766666Y-9002380D02*
X31766666Y-9716666D01*
X31719047Y-9859523D01*
X31623809Y-9954761D01*
X31480952Y-10002380D01*
X31385714Y-10002380D01*
X32766666Y-10002380D02*
X32195238Y-10002380D01*
X32480952Y-10002380D02*
X32480952Y-9002380D01*
X32385714Y-9145238D01*
X32290476Y-9240476D01*
X32195238Y-9288095D01*
%TO.C,C3*%
X58933333Y-14157142D02*
X58885714Y-14204761D01*
X58742857Y-14252380D01*
X58647619Y-14252380D01*
X58504761Y-14204761D01*
X58409523Y-14109523D01*
X58361904Y-14014285D01*
X58314285Y-13823809D01*
X58314285Y-13680952D01*
X58361904Y-13490476D01*
X58409523Y-13395238D01*
X58504761Y-13300000D01*
X58647619Y-13252380D01*
X58742857Y-13252380D01*
X58885714Y-13300000D01*
X58933333Y-13347619D01*
X59266666Y-13252380D02*
X59885714Y-13252380D01*
X59552380Y-13633333D01*
X59695238Y-13633333D01*
X59790476Y-13680952D01*
X59838095Y-13728571D01*
X59885714Y-13823809D01*
X59885714Y-14061904D01*
X59838095Y-14157142D01*
X59790476Y-14204761D01*
X59695238Y-14252380D01*
X59409523Y-14252380D01*
X59314285Y-14204761D01*
X59266666Y-14157142D01*
%TO.C,C9*%
X23733333Y-14157142D02*
X23685714Y-14204761D01*
X23542857Y-14252380D01*
X23447619Y-14252380D01*
X23304761Y-14204761D01*
X23209523Y-14109523D01*
X23161904Y-14014285D01*
X23114285Y-13823809D01*
X23114285Y-13680952D01*
X23161904Y-13490476D01*
X23209523Y-13395238D01*
X23304761Y-13300000D01*
X23447619Y-13252380D01*
X23542857Y-13252380D01*
X23685714Y-13300000D01*
X23733333Y-13347619D01*
X24209523Y-14252380D02*
X24400000Y-14252380D01*
X24495238Y-14204761D01*
X24542857Y-14157142D01*
X24638095Y-14014285D01*
X24685714Y-13823809D01*
X24685714Y-13442857D01*
X24638095Y-13347619D01*
X24590476Y-13300000D01*
X24495238Y-13252380D01*
X24304761Y-13252380D01*
X24209523Y-13300000D01*
X24161904Y-13347619D01*
X24114285Y-13442857D01*
X24114285Y-13680952D01*
X24161904Y-13776190D01*
X24209523Y-13823809D01*
X24304761Y-13871428D01*
X24495238Y-13871428D01*
X24590476Y-13823809D01*
X24638095Y-13776190D01*
X24685714Y-13680952D01*
%TO.C,C7*%
X63058333Y-31957142D02*
X63010714Y-32004761D01*
X62867857Y-32052380D01*
X62772619Y-32052380D01*
X62629761Y-32004761D01*
X62534523Y-31909523D01*
X62486904Y-31814285D01*
X62439285Y-31623809D01*
X62439285Y-31480952D01*
X62486904Y-31290476D01*
X62534523Y-31195238D01*
X62629761Y-31100000D01*
X62772619Y-31052380D01*
X62867857Y-31052380D01*
X63010714Y-31100000D01*
X63058333Y-31147619D01*
X63391666Y-31052380D02*
X64058333Y-31052380D01*
X63629761Y-32052380D01*
%TO.C,C2*%
X22557142Y-30666666D02*
X22604761Y-30714285D01*
X22652380Y-30857142D01*
X22652380Y-30952380D01*
X22604761Y-31095238D01*
X22509523Y-31190476D01*
X22414285Y-31238095D01*
X22223809Y-31285714D01*
X22080952Y-31285714D01*
X21890476Y-31238095D01*
X21795238Y-31190476D01*
X21700000Y-31095238D01*
X21652380Y-30952380D01*
X21652380Y-30857142D01*
X21700000Y-30714285D01*
X21747619Y-30666666D01*
X21747619Y-30285714D02*
X21700000Y-30238095D01*
X21652380Y-30142857D01*
X21652380Y-29904761D01*
X21700000Y-29809523D01*
X21747619Y-29761904D01*
X21842857Y-29714285D01*
X21938095Y-29714285D01*
X22080952Y-29761904D01*
X22652380Y-30333333D01*
X22652380Y-29714285D01*
%TO.C,R3*%
X30052380Y-26286666D02*
X29576190Y-26620000D01*
X30052380Y-26858095D02*
X29052380Y-26858095D01*
X29052380Y-26477142D01*
X29100000Y-26381904D01*
X29147619Y-26334285D01*
X29242857Y-26286666D01*
X29385714Y-26286666D01*
X29480952Y-26334285D01*
X29528571Y-26381904D01*
X29576190Y-26477142D01*
X29576190Y-26858095D01*
X29052380Y-25953333D02*
X29052380Y-25334285D01*
X29433333Y-25667619D01*
X29433333Y-25524761D01*
X29480952Y-25429523D01*
X29528571Y-25381904D01*
X29623809Y-25334285D01*
X29861904Y-25334285D01*
X29957142Y-25381904D01*
X30004761Y-25429523D01*
X30052380Y-25524761D01*
X30052380Y-25810476D01*
X30004761Y-25905714D01*
X29957142Y-25953333D01*
%TO.C,R10*%
X41382142Y-20632380D02*
X41048809Y-20156190D01*
X40810714Y-20632380D02*
X40810714Y-19632380D01*
X41191666Y-19632380D01*
X41286904Y-19680000D01*
X41334523Y-19727619D01*
X41382142Y-19822857D01*
X41382142Y-19965714D01*
X41334523Y-20060952D01*
X41286904Y-20108571D01*
X41191666Y-20156190D01*
X40810714Y-20156190D01*
X42334523Y-20632380D02*
X41763095Y-20632380D01*
X42048809Y-20632380D02*
X42048809Y-19632380D01*
X41953571Y-19775238D01*
X41858333Y-19870476D01*
X41763095Y-19918095D01*
X42953571Y-19632380D02*
X43048809Y-19632380D01*
X43144047Y-19680000D01*
X43191666Y-19727619D01*
X43239285Y-19822857D01*
X43286904Y-20013333D01*
X43286904Y-20251428D01*
X43239285Y-20441904D01*
X43191666Y-20537142D01*
X43144047Y-20584761D01*
X43048809Y-20632380D01*
X42953571Y-20632380D01*
X42858333Y-20584761D01*
X42810714Y-20537142D01*
X42763095Y-20441904D01*
X42715476Y-20251428D01*
X42715476Y-20013333D01*
X42763095Y-19822857D01*
X42810714Y-19727619D01*
X42858333Y-19680000D01*
X42953571Y-19632380D01*
%TO.C,R9*%
X41658333Y-17232380D02*
X41325000Y-16756190D01*
X41086904Y-17232380D02*
X41086904Y-16232380D01*
X41467857Y-16232380D01*
X41563095Y-16280000D01*
X41610714Y-16327619D01*
X41658333Y-16422857D01*
X41658333Y-16565714D01*
X41610714Y-16660952D01*
X41563095Y-16708571D01*
X41467857Y-16756190D01*
X41086904Y-16756190D01*
X42134523Y-17232380D02*
X42325000Y-17232380D01*
X42420238Y-17184761D01*
X42467857Y-17137142D01*
X42563095Y-16994285D01*
X42610714Y-16803809D01*
X42610714Y-16422857D01*
X42563095Y-16327619D01*
X42515476Y-16280000D01*
X42420238Y-16232380D01*
X42229761Y-16232380D01*
X42134523Y-16280000D01*
X42086904Y-16327619D01*
X42039285Y-16422857D01*
X42039285Y-16660952D01*
X42086904Y-16756190D01*
X42134523Y-16803809D01*
X42229761Y-16851428D01*
X42420238Y-16851428D01*
X42515476Y-16803809D01*
X42563095Y-16756190D01*
X42610714Y-16660952D01*
%TO.C,RV1*%
X27702380Y-44295238D02*
X27226190Y-44628571D01*
X27702380Y-44866666D02*
X26702380Y-44866666D01*
X26702380Y-44485714D01*
X26750000Y-44390476D01*
X26797619Y-44342857D01*
X26892857Y-44295238D01*
X27035714Y-44295238D01*
X27130952Y-44342857D01*
X27178571Y-44390476D01*
X27226190Y-44485714D01*
X27226190Y-44866666D01*
X26702380Y-44009523D02*
X27702380Y-43676190D01*
X26702380Y-43342857D01*
X27702380Y-42485714D02*
X27702380Y-43057142D01*
X27702380Y-42771428D02*
X26702380Y-42771428D01*
X26845238Y-42866666D01*
X26940476Y-42961904D01*
X26988095Y-43057142D01*
%TO.C,J4*%
X78666666Y-25852380D02*
X78666666Y-26566666D01*
X78619047Y-26709523D01*
X78523809Y-26804761D01*
X78380952Y-26852380D01*
X78285714Y-26852380D01*
X79571428Y-26185714D02*
X79571428Y-26852380D01*
X79333333Y-25804761D02*
X79095238Y-26519047D01*
X79714285Y-26519047D01*
%TO.C,R6*%
X7233333Y-30882380D02*
X6900000Y-30406190D01*
X6661904Y-30882380D02*
X6661904Y-29882380D01*
X7042857Y-29882380D01*
X7138095Y-29930000D01*
X7185714Y-29977619D01*
X7233333Y-30072857D01*
X7233333Y-30215714D01*
X7185714Y-30310952D01*
X7138095Y-30358571D01*
X7042857Y-30406190D01*
X6661904Y-30406190D01*
X8090476Y-29882380D02*
X7900000Y-29882380D01*
X7804761Y-29930000D01*
X7757142Y-29977619D01*
X7661904Y-30120476D01*
X7614285Y-30310952D01*
X7614285Y-30691904D01*
X7661904Y-30787142D01*
X7709523Y-30834761D01*
X7804761Y-30882380D01*
X7995238Y-30882380D01*
X8090476Y-30834761D01*
X8138095Y-30787142D01*
X8185714Y-30691904D01*
X8185714Y-30453809D01*
X8138095Y-30358571D01*
X8090476Y-30310952D01*
X7995238Y-30263333D01*
X7804761Y-30263333D01*
X7709523Y-30310952D01*
X7661904Y-30358571D01*
X7614285Y-30453809D01*
%TO.C,J2*%
X90252380Y-34883333D02*
X90966666Y-34883333D01*
X91109523Y-34930952D01*
X91204761Y-35026190D01*
X91252380Y-35169047D01*
X91252380Y-35264285D01*
X90347619Y-34454761D02*
X90300000Y-34407142D01*
X90252380Y-34311904D01*
X90252380Y-34073809D01*
X90300000Y-33978571D01*
X90347619Y-33930952D01*
X90442857Y-33883333D01*
X90538095Y-33883333D01*
X90680952Y-33930952D01*
X91252380Y-34502380D01*
X91252380Y-33883333D01*
D13*
%TO.C,RV4*%
X94870000Y-39580000D02*
X94870000Y-51920000D01*
X76730000Y-39580000D02*
X76730000Y-51920000D01*
X94870000Y-39580000D02*
X76730000Y-39580000D01*
X94870000Y-51920000D02*
X76730000Y-51920000D01*
X89420000Y-51920000D02*
X89420000Y-58920000D01*
X82180000Y-51920000D02*
X82180000Y-58920000D01*
X89420000Y-51920000D02*
X82180000Y-51920000D01*
X89420000Y-58920000D02*
X82180000Y-58920000D01*
X88920000Y-58920000D02*
X88920000Y-68920000D01*
X82679000Y-58920000D02*
X82679000Y-68920000D01*
X88920000Y-58920000D02*
X82679000Y-58920000D01*
X88920000Y-68920000D02*
X82679000Y-68920000D01*
%TO.C,RV3*%
X71470000Y-39580000D02*
X71470000Y-51920000D01*
X53330000Y-39580000D02*
X53330000Y-51920000D01*
X71470000Y-39580000D02*
X53330000Y-39580000D01*
X71470000Y-51920000D02*
X53330000Y-51920000D01*
X66020000Y-51920000D02*
X66020000Y-58920000D01*
X58780000Y-51920000D02*
X58780000Y-58920000D01*
X66020000Y-51920000D02*
X58780000Y-51920000D01*
X66020000Y-58920000D02*
X58780000Y-58920000D01*
X65520000Y-58920000D02*
X65520000Y-68920000D01*
X59279000Y-58920000D02*
X59279000Y-68920000D01*
X65520000Y-58920000D02*
X59279000Y-58920000D01*
X65520000Y-68920000D02*
X59279000Y-68920000D01*
%TO.C,RV2*%
X24470000Y-39580000D02*
X24470000Y-51920000D01*
X6330000Y-39580000D02*
X6330000Y-51920000D01*
X24470000Y-39580000D02*
X6330000Y-39580000D01*
X24470000Y-51920000D02*
X6330000Y-51920000D01*
X19020000Y-51920000D02*
X19020000Y-58920000D01*
X11780000Y-51920000D02*
X11780000Y-58920000D01*
X19020000Y-51920000D02*
X11780000Y-51920000D01*
X19020000Y-58920000D02*
X11780000Y-58920000D01*
X18520000Y-58920000D02*
X18520000Y-68920000D01*
X12279000Y-58920000D02*
X12279000Y-68920000D01*
X18520000Y-58920000D02*
X12279000Y-58920000D01*
X18520000Y-68920000D02*
X12279000Y-68920000D01*
%TO.C,J5*%
X37845000Y-7270000D02*
X42985000Y-7270000D01*
X36575000Y-9930000D02*
X35245000Y-9930000D01*
X35245000Y-9930000D02*
X35245000Y-8600000D01*
X42985000Y-9930000D02*
X42985000Y-7270000D01*
X37845000Y-9930000D02*
X37845000Y-7270000D01*
X37845000Y-9930000D02*
X42985000Y-9930000D01*
%TO.C,C4*%
X50895000Y-28810000D02*
X50880000Y-28810000D01*
X50895000Y-28810000D02*
X50895000Y-33350000D01*
X50895000Y-33350000D02*
X50880000Y-33350000D01*
X48770000Y-28810000D02*
X48755000Y-28810000D01*
X48770000Y-33350000D02*
X48755000Y-33350000D01*
X48755000Y-28810000D02*
X48755000Y-33350000D01*
%TO.C,R12*%
X69795000Y-24850000D02*
X69795000Y-18310000D01*
X69795000Y-18310000D02*
X67055000Y-18310000D01*
X68425000Y-25620000D02*
X68425000Y-24850000D01*
X68425000Y-17540000D02*
X68425000Y-18310000D01*
X67055000Y-24850000D02*
X69795000Y-24850000D01*
X67055000Y-18310000D02*
X67055000Y-24850000D01*
%TO.C,U2*%
X51360000Y-26930000D02*
X55860000Y-26930000D01*
X55860000Y-26930000D02*
X55860000Y-16650000D01*
X52610000Y-16650000D02*
X51360000Y-16650000D01*
X51360000Y-16650000D02*
X51360000Y-26930000D01*
X55860000Y-16650000D02*
X54610000Y-16650000D01*
X52610000Y-16650000D02*
G75*
G03*
X54610000Y-16650000I1000000J0D01*
G01*
D14*
%TO.C,G\u002A\u002A\u002A*%
X74707507Y-6378455D02*
X74932392Y-6382416D01*
X74932392Y-6382416D02*
X75111397Y-6391026D01*
X75111397Y-6391026D02*
X75253325Y-6405927D01*
X75253325Y-6405927D02*
X75366979Y-6428763D01*
X75366979Y-6428763D02*
X75461160Y-6461176D01*
X75461160Y-6461176D02*
X75544673Y-6504809D01*
X75544673Y-6504809D02*
X75626320Y-6561305D01*
X75626320Y-6561305D02*
X75691989Y-6613405D01*
X75691989Y-6613405D02*
X75849969Y-6780554D01*
X75849969Y-6780554D02*
X75957168Y-6974409D01*
X75957168Y-6974409D02*
X76015004Y-7185516D01*
X76015004Y-7185516D02*
X76024897Y-7404425D01*
X76024897Y-7404425D02*
X75988266Y-7621684D01*
X75988266Y-7621684D02*
X75906530Y-7827841D01*
X75906530Y-7827841D02*
X75781110Y-8013445D01*
X75781110Y-8013445D02*
X75613423Y-8169043D01*
X75613423Y-8169043D02*
X75443448Y-8268500D01*
X75443448Y-8268500D02*
X75375625Y-8296982D01*
X75375625Y-8296982D02*
X75306649Y-8318323D01*
X75306649Y-8318323D02*
X75224778Y-8334102D01*
X75224778Y-8334102D02*
X75118271Y-8345896D01*
X75118271Y-8345896D02*
X74975384Y-8355284D01*
X74975384Y-8355284D02*
X74784376Y-8363844D01*
X74784376Y-8363844D02*
X74713876Y-8366565D01*
X74713876Y-8366565D02*
X74491819Y-8376169D01*
X74491819Y-8376169D02*
X74326537Y-8387157D01*
X74326537Y-8387157D02*
X74211307Y-8401389D01*
X74211307Y-8401389D02*
X74139406Y-8420725D01*
X74139406Y-8420725D02*
X74104112Y-8447025D01*
X74104112Y-8447025D02*
X74098701Y-8482150D01*
X74098701Y-8482150D02*
X74116450Y-8527960D01*
X74116450Y-8527960D02*
X74118258Y-8531376D01*
X74118258Y-8531376D02*
X74134539Y-8553904D01*
X74134539Y-8553904D02*
X74161877Y-8570635D01*
X74161877Y-8570635D02*
X74209456Y-8582714D01*
X74209456Y-8582714D02*
X74286456Y-8591289D01*
X74286456Y-8591289D02*
X74402058Y-8597504D01*
X74402058Y-8597504D02*
X74565445Y-8602505D01*
X74565445Y-8602505D02*
X74715773Y-8605954D01*
X74715773Y-8605954D02*
X74966713Y-8613990D01*
X74966713Y-8613990D02*
X75165058Y-8628276D01*
X75165058Y-8628276D02*
X75321650Y-8652220D01*
X75321650Y-8652220D02*
X75447332Y-8689228D01*
X75447332Y-8689228D02*
X75552944Y-8742708D01*
X75552944Y-8742708D02*
X75649329Y-8816065D01*
X75649329Y-8816065D02*
X75747329Y-8912706D01*
X75747329Y-8912706D02*
X75769965Y-8937193D01*
X75769965Y-8937193D02*
X75849019Y-9029035D01*
X75849019Y-9029035D02*
X75909903Y-9116692D01*
X75909903Y-9116692D02*
X75955062Y-9210350D01*
X75955062Y-9210350D02*
X75986942Y-9320196D01*
X75986942Y-9320196D02*
X76007988Y-9456416D01*
X76007988Y-9456416D02*
X76020646Y-9629195D01*
X76020646Y-9629195D02*
X76027360Y-9848721D01*
X76027360Y-9848721D02*
X76029673Y-10018984D01*
X76029673Y-10018984D02*
X76031124Y-10236455D01*
X76031124Y-10236455D02*
X76030157Y-10399779D01*
X76030157Y-10399779D02*
X76026139Y-10518287D01*
X76026139Y-10518287D02*
X76018436Y-10601308D01*
X76018436Y-10601308D02*
X76006414Y-10658170D01*
X76006414Y-10658170D02*
X75989442Y-10698203D01*
X75989442Y-10698203D02*
X75982822Y-10709042D01*
X75982822Y-10709042D02*
X75897793Y-10787889D01*
X75897793Y-10787889D02*
X75790157Y-10819160D01*
X75790157Y-10819160D02*
X75679314Y-10802897D01*
X75679314Y-10802897D02*
X75584665Y-10739144D01*
X75584665Y-10739144D02*
X75560566Y-10708110D01*
X75560566Y-10708110D02*
X75539933Y-10667739D01*
X75539933Y-10667739D02*
X75525700Y-10613155D01*
X75525700Y-10613155D02*
X75517033Y-10533760D01*
X75517033Y-10533760D02*
X75513100Y-10418956D01*
X75513100Y-10418956D02*
X75513069Y-10258145D01*
X75513069Y-10258145D02*
X75514732Y-10124837D01*
X75514732Y-10124837D02*
X75515444Y-9876886D01*
X75515444Y-9876886D02*
X75508296Y-9683672D01*
X75508296Y-9683672D02*
X75492093Y-9536783D01*
X75492093Y-9536783D02*
X75465638Y-9427808D01*
X75465638Y-9427808D02*
X75427735Y-9348335D01*
X75427735Y-9348335D02*
X75399059Y-9311376D01*
X75399059Y-9311376D02*
X75349288Y-9259082D01*
X75349288Y-9259082D02*
X75302747Y-9219865D01*
X75302747Y-9219865D02*
X75249479Y-9191555D01*
X75249479Y-9191555D02*
X75179531Y-9171985D01*
X75179531Y-9171985D02*
X75082945Y-9158987D01*
X75082945Y-9158987D02*
X74949767Y-9150394D01*
X74949767Y-9150394D02*
X74770041Y-9144037D01*
X74770041Y-9144037D02*
X74610920Y-9139750D01*
X74610920Y-9139750D02*
X73999248Y-9123875D01*
X73999248Y-9123875D02*
X73861686Y-9027215D01*
X73861686Y-9027215D02*
X73713913Y-8889535D01*
X73713913Y-8889535D02*
X73617569Y-8727899D01*
X73617569Y-8727899D02*
X73571244Y-8552707D01*
X73571244Y-8552707D02*
X73573522Y-8374359D01*
X73573522Y-8374359D02*
X73622993Y-8203254D01*
X73622993Y-8203254D02*
X73718242Y-8049791D01*
X73718242Y-8049791D02*
X73857856Y-7924370D01*
X73857856Y-7924370D02*
X74022550Y-7843277D01*
X74022550Y-7843277D02*
X74099196Y-7828656D01*
X74099196Y-7828656D02*
X74228946Y-7817210D01*
X74228946Y-7817210D02*
X74401459Y-7809558D01*
X74401459Y-7809558D02*
X74606390Y-7806317D01*
X74606390Y-7806317D02*
X74642170Y-7806250D01*
X74642170Y-7806250D02*
X74841210Y-7805302D01*
X74841210Y-7805302D02*
X74987995Y-7801747D01*
X74987995Y-7801747D02*
X75093754Y-7794518D01*
X75093754Y-7794518D02*
X75169714Y-7782548D01*
X75169714Y-7782548D02*
X75227103Y-7764769D01*
X75227103Y-7764769D02*
X75264495Y-7747096D01*
X75264495Y-7747096D02*
X75389897Y-7646053D01*
X75389897Y-7646053D02*
X75468429Y-7507039D01*
X75468429Y-7507039D02*
X75494075Y-7341137D01*
X75494075Y-7341137D02*
X75466683Y-7182918D01*
X75466683Y-7182918D02*
X75386863Y-7058100D01*
X75386863Y-7058100D02*
X75286087Y-6979352D01*
X75286087Y-6979352D02*
X75249568Y-6959776D01*
X75249568Y-6959776D02*
X75206754Y-6944800D01*
X75206754Y-6944800D02*
X75149129Y-6933814D01*
X75149129Y-6933814D02*
X75068172Y-6926208D01*
X75068172Y-6926208D02*
X74955367Y-6921371D01*
X74955367Y-6921371D02*
X74802194Y-6918693D01*
X74802194Y-6918693D02*
X74600135Y-6917564D01*
X74600135Y-6917564D02*
X74420855Y-6917368D01*
X74420855Y-6917368D02*
X73657086Y-6917250D01*
X73657086Y-6917250D02*
X73548636Y-6997262D01*
X73548636Y-6997262D02*
X73471968Y-7060947D01*
X73471968Y-7060947D02*
X73415979Y-7119955D01*
X73415979Y-7119955D02*
X73407530Y-7132199D01*
X73407530Y-7132199D02*
X73399030Y-7177991D01*
X73399030Y-7177991D02*
X73390905Y-7284194D01*
X73390905Y-7284194D02*
X73383255Y-7447716D01*
X73383255Y-7447716D02*
X73376179Y-7665471D01*
X73376179Y-7665471D02*
X73369774Y-7934367D01*
X73369774Y-7934367D02*
X73364142Y-8251316D01*
X73364142Y-8251316D02*
X73359379Y-8613228D01*
X73359379Y-8613228D02*
X73359000Y-8647625D01*
X73359000Y-8647625D02*
X73343125Y-10108125D01*
X73343125Y-10108125D02*
X73258975Y-10266875D01*
X73258975Y-10266875D02*
X73111582Y-10481372D01*
X73111582Y-10481372D02*
X72922457Y-10652636D01*
X72922457Y-10652636D02*
X72796109Y-10729224D01*
X72796109Y-10729224D02*
X72635768Y-10784306D01*
X72635768Y-10784306D02*
X72443488Y-10810115D01*
X72443488Y-10810115D02*
X72243423Y-10806451D01*
X72243423Y-10806451D02*
X72059726Y-10773111D01*
X72059726Y-10773111D02*
X71962000Y-10736154D01*
X71962000Y-10736154D02*
X71768256Y-10608493D01*
X71768256Y-10608493D02*
X71599378Y-10434471D01*
X71599378Y-10434471D02*
X71491127Y-10268704D01*
X71491127Y-10268704D02*
X71406375Y-10108125D01*
X71406375Y-10108125D02*
X71390500Y-8647625D01*
X71390500Y-8647625D02*
X71386724Y-8296722D01*
X71386724Y-8296722D02*
X71383216Y-8003620D01*
X71383216Y-8003620D02*
X71379258Y-7762624D01*
X71379258Y-7762624D02*
X71374130Y-7568042D01*
X71374130Y-7568042D02*
X71367114Y-7414182D01*
X71367114Y-7414182D02*
X71357492Y-7295350D01*
X71357492Y-7295350D02*
X71344544Y-7205853D01*
X71344544Y-7205853D02*
X71327552Y-7139999D01*
X71327552Y-7139999D02*
X71305798Y-7092096D01*
X71305798Y-7092096D02*
X71278563Y-7056449D01*
X71278563Y-7056449D02*
X71245128Y-7027367D01*
X71245128Y-7027367D02*
X71204774Y-6999157D01*
X71204774Y-6999157D02*
X71180319Y-6982601D01*
X71180319Y-6982601D02*
X71102888Y-6938719D01*
X71102888Y-6938719D02*
X71023266Y-6920691D01*
X71023266Y-6920691D02*
X70913244Y-6922699D01*
X70913244Y-6922699D02*
X70896402Y-6924031D01*
X70896402Y-6924031D02*
X70779137Y-6940593D01*
X70779137Y-6940593D02*
X70696911Y-6974193D01*
X70696911Y-6974193D02*
X70621481Y-7036577D01*
X70621481Y-7036577D02*
X70618379Y-7039664D01*
X70618379Y-7039664D02*
X70517375Y-7140617D01*
X70517375Y-7140617D02*
X70500208Y-8592621D01*
X70500208Y-8592621D02*
X70496005Y-8936177D01*
X70496005Y-8936177D02*
X70492045Y-9222239D01*
X70492045Y-9222239D02*
X70488027Y-9456813D01*
X70488027Y-9456813D02*
X70483650Y-9645901D01*
X70483650Y-9645901D02*
X70478614Y-9795510D01*
X70478614Y-9795510D02*
X70472616Y-9911642D01*
X70472616Y-9911642D02*
X70465356Y-10000302D01*
X70465356Y-10000302D02*
X70456533Y-10067494D01*
X70456533Y-10067494D02*
X70445846Y-10119224D01*
X70445846Y-10119224D02*
X70432993Y-10161494D01*
X70432993Y-10161494D02*
X70419854Y-10195156D01*
X70419854Y-10195156D02*
X70298172Y-10408443D01*
X70298172Y-10408443D02*
X70130091Y-10590992D01*
X70130091Y-10590992D02*
X69958651Y-10711632D01*
X69958651Y-10711632D02*
X69868093Y-10758259D01*
X69868093Y-10758259D02*
X69788910Y-10786597D01*
X69788910Y-10786597D02*
X69699682Y-10801095D01*
X69699682Y-10801095D02*
X69578991Y-10806202D01*
X69578991Y-10806202D02*
X69501375Y-10806625D01*
X69501375Y-10806625D02*
X69357155Y-10804492D01*
X69357155Y-10804492D02*
X69255009Y-10795150D01*
X69255009Y-10795150D02*
X69173569Y-10774184D01*
X69173569Y-10774184D02*
X69091470Y-10737180D01*
X69091470Y-10737180D02*
X69045590Y-10712445D01*
X69045590Y-10712445D02*
X68861518Y-10582625D01*
X68861518Y-10582625D02*
X68706306Y-10418743D01*
X68706306Y-10418743D02*
X68595354Y-10237846D01*
X68595354Y-10237846D02*
X68576979Y-10193676D01*
X68576979Y-10193676D02*
X68563510Y-10152210D01*
X68563510Y-10152210D02*
X68552140Y-10101575D01*
X68552140Y-10101575D02*
X68542596Y-10035840D01*
X68542596Y-10035840D02*
X68534604Y-9949073D01*
X68534604Y-9949073D02*
X68527889Y-9835341D01*
X68527889Y-9835341D02*
X68522178Y-9688713D01*
X68522178Y-9688713D02*
X68517196Y-9503257D01*
X68517196Y-9503257D02*
X68512670Y-9273041D01*
X68512670Y-9273041D02*
X68508325Y-8992132D01*
X68508325Y-8992132D02*
X68503889Y-8654600D01*
X68503889Y-8654600D02*
X68503157Y-8595339D01*
X68503157Y-8595339D02*
X68498868Y-8253884D01*
X68498868Y-8253884D02*
X68494934Y-7970235D01*
X68494934Y-7970235D02*
X68491050Y-7738702D01*
X68491050Y-7738702D02*
X68486913Y-7553595D01*
X68486913Y-7553595D02*
X68482217Y-7409224D01*
X68482217Y-7409224D02*
X68476660Y-7299898D01*
X68476660Y-7299898D02*
X68469937Y-7219927D01*
X68469937Y-7219927D02*
X68461743Y-7163622D01*
X68461743Y-7163622D02*
X68451775Y-7125291D01*
X68451775Y-7125291D02*
X68439729Y-7099245D01*
X68439729Y-7099245D02*
X68425300Y-7079793D01*
X68425300Y-7079793D02*
X68421949Y-7076026D01*
X68421949Y-7076026D02*
X68292388Y-6975161D01*
X68292388Y-6975161D02*
X68142327Y-6924844D01*
X68142327Y-6924844D02*
X67986172Y-6924203D01*
X67986172Y-6924203D02*
X67838331Y-6972363D01*
X67838331Y-6972363D02*
X67713207Y-7068452D01*
X67713207Y-7068452D02*
X67671827Y-7121487D01*
X67671827Y-7121487D02*
X67661020Y-7149177D01*
X67661020Y-7149177D02*
X67651713Y-7200645D01*
X67651713Y-7200645D02*
X67643713Y-7280849D01*
X67643713Y-7280849D02*
X67636825Y-7394747D01*
X67636825Y-7394747D02*
X67630855Y-7547297D01*
X67630855Y-7547297D02*
X67625612Y-7743458D01*
X67625612Y-7743458D02*
X67620900Y-7988188D01*
X67620900Y-7988188D02*
X67616526Y-8286445D01*
X67616526Y-8286445D02*
X67612298Y-8643187D01*
X67612298Y-8643187D02*
X67612250Y-8647625D01*
X67612250Y-8647625D02*
X67608454Y-8990243D01*
X67608454Y-8990243D02*
X67604968Y-9275312D01*
X67604968Y-9275312D02*
X67601469Y-9508779D01*
X67601469Y-9508779D02*
X67597633Y-9696593D01*
X67597633Y-9696593D02*
X67593138Y-9844702D01*
X67593138Y-9844702D02*
X67587659Y-9959051D01*
X67587659Y-9959051D02*
X67580874Y-10045591D01*
X67580874Y-10045591D02*
X67572459Y-10110268D01*
X67572459Y-10110268D02*
X67562091Y-10159030D01*
X67562091Y-10159030D02*
X67549447Y-10197824D01*
X67549447Y-10197824D02*
X67534203Y-10232599D01*
X67534203Y-10232599D02*
X67525094Y-10251164D01*
X67525094Y-10251164D02*
X67391614Y-10455201D01*
X67391614Y-10455201D02*
X67218257Y-10620964D01*
X67218257Y-10620964D02*
X67015752Y-10740933D01*
X67015752Y-10740933D02*
X66794831Y-10807590D01*
X66794831Y-10807590D02*
X66717984Y-10816733D01*
X66717984Y-10816733D02*
X66609562Y-10820992D01*
X66609562Y-10820992D02*
X66540431Y-10810008D01*
X66540431Y-10810008D02*
X66487033Y-10777629D01*
X66487033Y-10777629D02*
X66455587Y-10748224D01*
X66455587Y-10748224D02*
X66386454Y-10643014D01*
X66386454Y-10643014D02*
X66373549Y-10533297D01*
X66373549Y-10533297D02*
X66411800Y-10431129D01*
X66411800Y-10431129D02*
X66496131Y-10348561D01*
X66496131Y-10348561D02*
X66621469Y-10297648D01*
X66621469Y-10297648D02*
X66647259Y-10292888D01*
X66647259Y-10292888D02*
X66828092Y-10242121D01*
X66828092Y-10242121D02*
X66958369Y-10153665D01*
X66958369Y-10153665D02*
X67000763Y-10101000D01*
X67000763Y-10101000D02*
X67014076Y-10076185D01*
X67014076Y-10076185D02*
X67025268Y-10042047D01*
X67025268Y-10042047D02*
X67034606Y-9992883D01*
X67034606Y-9992883D02*
X67042357Y-9922990D01*
X67042357Y-9922990D02*
X67048788Y-9826664D01*
X67048788Y-9826664D02*
X67054165Y-9698203D01*
X67054165Y-9698203D02*
X67058758Y-9531904D01*
X67058758Y-9531904D02*
X67062832Y-9322064D01*
X67062832Y-9322064D02*
X67066654Y-9062981D01*
X67066654Y-9062981D02*
X67070493Y-8748950D01*
X67070493Y-8748950D02*
X67072500Y-8569723D01*
X67072500Y-8569723D02*
X67076341Y-8228430D01*
X67076341Y-8228430D02*
X67079911Y-7944623D01*
X67079911Y-7944623D02*
X67083527Y-7712291D01*
X67083527Y-7712291D02*
X67087508Y-7525421D01*
X67087508Y-7525421D02*
X67092171Y-7378002D01*
X67092171Y-7378002D02*
X67097837Y-7264023D01*
X67097837Y-7264023D02*
X67104823Y-7177471D01*
X67104823Y-7177471D02*
X67113448Y-7112337D01*
X67113448Y-7112337D02*
X67124030Y-7062607D01*
X67124030Y-7062607D02*
X67136888Y-7022271D01*
X67136888Y-7022271D02*
X67152340Y-6985317D01*
X67152340Y-6985317D02*
X67156983Y-6975172D01*
X67156983Y-6975172D02*
X67289693Y-6757785D01*
X67289693Y-6757785D02*
X67463070Y-6585523D01*
X67463070Y-6585523D02*
X67670519Y-6463039D01*
X67670519Y-6463039D02*
X67905441Y-6394988D01*
X67905441Y-6394988D02*
X67993704Y-6384837D01*
X67993704Y-6384837D02*
X68241674Y-6397316D01*
X68241674Y-6397316D02*
X68472359Y-6468022D01*
X68472359Y-6468022D02*
X68677242Y-6592384D01*
X68677242Y-6592384D02*
X68847804Y-6765830D01*
X68847804Y-6765830D02*
X68926738Y-6885500D01*
X68926738Y-6885500D02*
X69025125Y-7060125D01*
X69025125Y-7060125D02*
X69041000Y-8520625D01*
X69041000Y-8520625D02*
X69045577Y-8895385D01*
X69045577Y-8895385D02*
X69050574Y-9210335D01*
X69050574Y-9210335D02*
X69056124Y-9469165D01*
X69056124Y-9469165D02*
X69062357Y-9675564D01*
X69062357Y-9675564D02*
X69069408Y-9833222D01*
X69069408Y-9833222D02*
X69077407Y-9945827D01*
X69077407Y-9945827D02*
X69086489Y-10017069D01*
X69086489Y-10017069D02*
X69095846Y-10049137D01*
X69095846Y-10049137D02*
X69145481Y-10113675D01*
X69145481Y-10113675D02*
X69219175Y-10187616D01*
X69219175Y-10187616D02*
X69237203Y-10203302D01*
X69237203Y-10203302D02*
X69304162Y-10252808D01*
X69304162Y-10252808D02*
X69368287Y-10276226D01*
X69368287Y-10276226D02*
X69455237Y-10280092D01*
X69455237Y-10280092D02*
X69523234Y-10276169D01*
X69523234Y-10276169D02*
X69688181Y-10243538D01*
X69688181Y-10243538D02*
X69813125Y-10167911D01*
X69813125Y-10167911D02*
X69909102Y-10044625D01*
X69909102Y-10044625D02*
X69919124Y-10002811D01*
X69919124Y-10002811D02*
X69928108Y-9912299D01*
X69928108Y-9912299D02*
X69936137Y-9770742D01*
X69936137Y-9770742D02*
X69943291Y-9575796D01*
X69943291Y-9575796D02*
X69949651Y-9325114D01*
X69949651Y-9325114D02*
X69955299Y-9016350D01*
X69955299Y-9016350D02*
X69960316Y-8647159D01*
X69960316Y-8647159D02*
X69961750Y-8520625D01*
X69961750Y-8520625D02*
X69965552Y-8177926D01*
X69965552Y-8177926D02*
X69969052Y-7892824D01*
X69969052Y-7892824D02*
X69972567Y-7659418D01*
X69972567Y-7659418D02*
X69976414Y-7471806D01*
X69976414Y-7471806D02*
X69980910Y-7324088D01*
X69980910Y-7324088D02*
X69986373Y-7210363D01*
X69986373Y-7210363D02*
X69993121Y-7124731D01*
X69993121Y-7124731D02*
X70001469Y-7061291D01*
X70001469Y-7061291D02*
X70011737Y-7014141D01*
X70011737Y-7014141D02*
X70024241Y-6977382D01*
X70024241Y-6977382D02*
X70039298Y-6945113D01*
X70039298Y-6945113D02*
X70047291Y-6929923D01*
X70047291Y-6929923D02*
X70189572Y-6723210D01*
X70189572Y-6723210D02*
X70363357Y-6565304D01*
X70363357Y-6565304D02*
X70560171Y-6455983D01*
X70560171Y-6455983D02*
X70771535Y-6395026D01*
X70771535Y-6395026D02*
X70988972Y-6382212D01*
X70988972Y-6382212D02*
X71204005Y-6417320D01*
X71204005Y-6417320D02*
X71408156Y-6500128D01*
X71408156Y-6500128D02*
X71592948Y-6630416D01*
X71592948Y-6630416D02*
X71749903Y-6807962D01*
X71749903Y-6807962D02*
X71846514Y-6976863D01*
X71846514Y-6976863D02*
X71862557Y-7013695D01*
X71862557Y-7013695D02*
X71875949Y-7052618D01*
X71875949Y-7052618D02*
X71887006Y-7099642D01*
X71887006Y-7099642D02*
X71896045Y-7160777D01*
X71896045Y-7160777D02*
X71903382Y-7242031D01*
X71903382Y-7242031D02*
X71909334Y-7349415D01*
X71909334Y-7349415D02*
X71914216Y-7488938D01*
X71914216Y-7488938D02*
X71918344Y-7666609D01*
X71918344Y-7666609D02*
X71922035Y-7888438D01*
X71922035Y-7888438D02*
X71925606Y-8160434D01*
X71925606Y-8160434D02*
X71929371Y-8488608D01*
X71929371Y-8488608D02*
X71930250Y-8568250D01*
X71930250Y-8568250D02*
X71934644Y-8930438D01*
X71934644Y-8930438D02*
X71939304Y-9233720D01*
X71939304Y-9233720D02*
X71944404Y-9482689D01*
X71944404Y-9482689D02*
X71950116Y-9681939D01*
X71950116Y-9681939D02*
X71956617Y-9836062D01*
X71956617Y-9836062D02*
X71964080Y-9949653D01*
X71964080Y-9949653D02*
X71972679Y-10027305D01*
X71972679Y-10027305D02*
X71982589Y-10073611D01*
X71982589Y-10073611D02*
X71987838Y-10086011D01*
X71987838Y-10086011D02*
X72080908Y-10189799D01*
X72080908Y-10189799D02*
X72209831Y-10256101D01*
X72209831Y-10256101D02*
X72357014Y-10281716D01*
X72357014Y-10281716D02*
X72504861Y-10263444D01*
X72504861Y-10263444D02*
X72629613Y-10202737D01*
X72629613Y-10202737D02*
X72706281Y-10139052D01*
X72706281Y-10139052D02*
X72762270Y-10080044D01*
X72762270Y-10080044D02*
X72770719Y-10067800D01*
X72770719Y-10067800D02*
X72779252Y-10021966D01*
X72779252Y-10021966D02*
X72787410Y-9915782D01*
X72787410Y-9915782D02*
X72795091Y-9752400D01*
X72795091Y-9752400D02*
X72802193Y-9534970D01*
X72802193Y-9534970D02*
X72808615Y-9266643D01*
X72808615Y-9266643D02*
X72814255Y-8950567D01*
X72814255Y-8950567D02*
X72819009Y-8589895D01*
X72819009Y-8589895D02*
X72819250Y-8568250D01*
X72819250Y-8568250D02*
X72823044Y-8227940D01*
X72823044Y-8227940D02*
X72826501Y-7945057D01*
X72826501Y-7945057D02*
X72829965Y-7713532D01*
X72829965Y-7713532D02*
X72833781Y-7527296D01*
X72833781Y-7527296D02*
X72838294Y-7380280D01*
X72838294Y-7380280D02*
X72843848Y-7266415D01*
X72843848Y-7266415D02*
X72850787Y-7179631D01*
X72850787Y-7179631D02*
X72859456Y-7113860D01*
X72859456Y-7113860D02*
X72870199Y-7063032D01*
X72870199Y-7063032D02*
X72883361Y-7021078D01*
X72883361Y-7021078D02*
X72899287Y-6981929D01*
X72899287Y-6981929D02*
X72910747Y-6956298D01*
X72910747Y-6956298D02*
X73003642Y-6803670D01*
X73003642Y-6803670D02*
X73135290Y-6655464D01*
X73135290Y-6655464D02*
X73287282Y-6528912D01*
X73287282Y-6528912D02*
X73441208Y-6441244D01*
X73441208Y-6441244D02*
X73474653Y-6428493D01*
X73474653Y-6428493D02*
X73534109Y-6412007D01*
X73534109Y-6412007D02*
X73609210Y-6399335D01*
X73609210Y-6399335D02*
X73708320Y-6390032D01*
X73708320Y-6390032D02*
X73839801Y-6383649D01*
X73839801Y-6383649D02*
X74012017Y-6379738D01*
X74012017Y-6379738D02*
X74233331Y-6377853D01*
X74233331Y-6377853D02*
X74427940Y-6377499D01*
X74427940Y-6377499D02*
X74707507Y-6378455D01*
X74707507Y-6378455D02*
X74707507Y-6378455D01*
G36*
X74707507Y-6378455D02*
G01*
X74932392Y-6382416D01*
X75111397Y-6391026D01*
X75253325Y-6405927D01*
X75366979Y-6428763D01*
X75461160Y-6461176D01*
X75544673Y-6504809D01*
X75626320Y-6561305D01*
X75691989Y-6613405D01*
X75849969Y-6780554D01*
X75957168Y-6974409D01*
X76015004Y-7185516D01*
X76024897Y-7404425D01*
X75988266Y-7621684D01*
X75906530Y-7827841D01*
X75781110Y-8013445D01*
X75613423Y-8169043D01*
X75443448Y-8268500D01*
X75375625Y-8296982D01*
X75306649Y-8318323D01*
X75224778Y-8334102D01*
X75118271Y-8345896D01*
X74975384Y-8355284D01*
X74784376Y-8363844D01*
X74713876Y-8366565D01*
X74491819Y-8376169D01*
X74326537Y-8387157D01*
X74211307Y-8401389D01*
X74139406Y-8420725D01*
X74104112Y-8447025D01*
X74098701Y-8482150D01*
X74116450Y-8527960D01*
X74118258Y-8531376D01*
X74134539Y-8553904D01*
X74161877Y-8570635D01*
X74209456Y-8582714D01*
X74286456Y-8591289D01*
X74402058Y-8597504D01*
X74565445Y-8602505D01*
X74715773Y-8605954D01*
X74966713Y-8613990D01*
X75165058Y-8628276D01*
X75321650Y-8652220D01*
X75447332Y-8689228D01*
X75552944Y-8742708D01*
X75649329Y-8816065D01*
X75747329Y-8912706D01*
X75769965Y-8937193D01*
X75849019Y-9029035D01*
X75909903Y-9116692D01*
X75955062Y-9210350D01*
X75986942Y-9320196D01*
X76007988Y-9456416D01*
X76020646Y-9629195D01*
X76027360Y-9848721D01*
X76029673Y-10018984D01*
X76031124Y-10236455D01*
X76030157Y-10399779D01*
X76026139Y-10518287D01*
X76018436Y-10601308D01*
X76006414Y-10658170D01*
X75989442Y-10698203D01*
X75982822Y-10709042D01*
X75897793Y-10787889D01*
X75790157Y-10819160D01*
X75679314Y-10802897D01*
X75584665Y-10739144D01*
X75560566Y-10708110D01*
X75539933Y-10667739D01*
X75525700Y-10613155D01*
X75517033Y-10533760D01*
X75513100Y-10418956D01*
X75513069Y-10258145D01*
X75514732Y-10124837D01*
X75515444Y-9876886D01*
X75508296Y-9683672D01*
X75492093Y-9536783D01*
X75465638Y-9427808D01*
X75427735Y-9348335D01*
X75399059Y-9311376D01*
X75349288Y-9259082D01*
X75302747Y-9219865D01*
X75249479Y-9191555D01*
X75179531Y-9171985D01*
X75082945Y-9158987D01*
X74949767Y-9150394D01*
X74770041Y-9144037D01*
X74610920Y-9139750D01*
X73999248Y-9123875D01*
X73861686Y-9027215D01*
X73713913Y-8889535D01*
X73617569Y-8727899D01*
X73571244Y-8552707D01*
X73573522Y-8374359D01*
X73622993Y-8203254D01*
X73718242Y-8049791D01*
X73857856Y-7924370D01*
X74022550Y-7843277D01*
X74099196Y-7828656D01*
X74228946Y-7817210D01*
X74401459Y-7809558D01*
X74606390Y-7806317D01*
X74642170Y-7806250D01*
X74841210Y-7805302D01*
X74987995Y-7801747D01*
X75093754Y-7794518D01*
X75169714Y-7782548D01*
X75227103Y-7764769D01*
X75264495Y-7747096D01*
X75389897Y-7646053D01*
X75468429Y-7507039D01*
X75494075Y-7341137D01*
X75466683Y-7182918D01*
X75386863Y-7058100D01*
X75286087Y-6979352D01*
X75249568Y-6959776D01*
X75206754Y-6944800D01*
X75149129Y-6933814D01*
X75068172Y-6926208D01*
X74955367Y-6921371D01*
X74802194Y-6918693D01*
X74600135Y-6917564D01*
X74420855Y-6917368D01*
X73657086Y-6917250D01*
X73548636Y-6997262D01*
X73471968Y-7060947D01*
X73415979Y-7119955D01*
X73407530Y-7132199D01*
X73399030Y-7177991D01*
X73390905Y-7284194D01*
X73383255Y-7447716D01*
X73376179Y-7665471D01*
X73369774Y-7934367D01*
X73364142Y-8251316D01*
X73359379Y-8613228D01*
X73359000Y-8647625D01*
X73343125Y-10108125D01*
X73258975Y-10266875D01*
X73111582Y-10481372D01*
X72922457Y-10652636D01*
X72796109Y-10729224D01*
X72635768Y-10784306D01*
X72443488Y-10810115D01*
X72243423Y-10806451D01*
X72059726Y-10773111D01*
X71962000Y-10736154D01*
X71768256Y-10608493D01*
X71599378Y-10434471D01*
X71491127Y-10268704D01*
X71406375Y-10108125D01*
X71390500Y-8647625D01*
X71386724Y-8296722D01*
X71383216Y-8003620D01*
X71379258Y-7762624D01*
X71374130Y-7568042D01*
X71367114Y-7414182D01*
X71357492Y-7295350D01*
X71344544Y-7205853D01*
X71327552Y-7139999D01*
X71305798Y-7092096D01*
X71278563Y-7056449D01*
X71245128Y-7027367D01*
X71204774Y-6999157D01*
X71180319Y-6982601D01*
X71102888Y-6938719D01*
X71023266Y-6920691D01*
X70913244Y-6922699D01*
X70896402Y-6924031D01*
X70779137Y-6940593D01*
X70696911Y-6974193D01*
X70621481Y-7036577D01*
X70618379Y-7039664D01*
X70517375Y-7140617D01*
X70500208Y-8592621D01*
X70496005Y-8936177D01*
X70492045Y-9222239D01*
X70488027Y-9456813D01*
X70483650Y-9645901D01*
X70478614Y-9795510D01*
X70472616Y-9911642D01*
X70465356Y-10000302D01*
X70456533Y-10067494D01*
X70445846Y-10119224D01*
X70432993Y-10161494D01*
X70419854Y-10195156D01*
X70298172Y-10408443D01*
X70130091Y-10590992D01*
X69958651Y-10711632D01*
X69868093Y-10758259D01*
X69788910Y-10786597D01*
X69699682Y-10801095D01*
X69578991Y-10806202D01*
X69501375Y-10806625D01*
X69357155Y-10804492D01*
X69255009Y-10795150D01*
X69173569Y-10774184D01*
X69091470Y-10737180D01*
X69045590Y-10712445D01*
X68861518Y-10582625D01*
X68706306Y-10418743D01*
X68595354Y-10237846D01*
X68576979Y-10193676D01*
X68563510Y-10152210D01*
X68552140Y-10101575D01*
X68542596Y-10035840D01*
X68534604Y-9949073D01*
X68527889Y-9835341D01*
X68522178Y-9688713D01*
X68517196Y-9503257D01*
X68512670Y-9273041D01*
X68508325Y-8992132D01*
X68503889Y-8654600D01*
X68503157Y-8595339D01*
X68498868Y-8253884D01*
X68494934Y-7970235D01*
X68491050Y-7738702D01*
X68486913Y-7553595D01*
X68482217Y-7409224D01*
X68476660Y-7299898D01*
X68469937Y-7219927D01*
X68461743Y-7163622D01*
X68451775Y-7125291D01*
X68439729Y-7099245D01*
X68425300Y-7079793D01*
X68421949Y-7076026D01*
X68292388Y-6975161D01*
X68142327Y-6924844D01*
X67986172Y-6924203D01*
X67838331Y-6972363D01*
X67713207Y-7068452D01*
X67671827Y-7121487D01*
X67661020Y-7149177D01*
X67651713Y-7200645D01*
X67643713Y-7280849D01*
X67636825Y-7394747D01*
X67630855Y-7547297D01*
X67625612Y-7743458D01*
X67620900Y-7988188D01*
X67616526Y-8286445D01*
X67612298Y-8643187D01*
X67612250Y-8647625D01*
X67608454Y-8990243D01*
X67604968Y-9275312D01*
X67601469Y-9508779D01*
X67597633Y-9696593D01*
X67593138Y-9844702D01*
X67587659Y-9959051D01*
X67580874Y-10045591D01*
X67572459Y-10110268D01*
X67562091Y-10159030D01*
X67549447Y-10197824D01*
X67534203Y-10232599D01*
X67525094Y-10251164D01*
X67391614Y-10455201D01*
X67218257Y-10620964D01*
X67015752Y-10740933D01*
X66794831Y-10807590D01*
X66717984Y-10816733D01*
X66609562Y-10820992D01*
X66540431Y-10810008D01*
X66487033Y-10777629D01*
X66455587Y-10748224D01*
X66386454Y-10643014D01*
X66373549Y-10533297D01*
X66411800Y-10431129D01*
X66496131Y-10348561D01*
X66621469Y-10297648D01*
X66647259Y-10292888D01*
X66828092Y-10242121D01*
X66958369Y-10153665D01*
X67000763Y-10101000D01*
X67014076Y-10076185D01*
X67025268Y-10042047D01*
X67034606Y-9992883D01*
X67042357Y-9922990D01*
X67048788Y-9826664D01*
X67054165Y-9698203D01*
X67058758Y-9531904D01*
X67062832Y-9322064D01*
X67066654Y-9062981D01*
X67070493Y-8748950D01*
X67072500Y-8569723D01*
X67076341Y-8228430D01*
X67079911Y-7944623D01*
X67083527Y-7712291D01*
X67087508Y-7525421D01*
X67092171Y-7378002D01*
X67097837Y-7264023D01*
X67104823Y-7177471D01*
X67113448Y-7112337D01*
X67124030Y-7062607D01*
X67136888Y-7022271D01*
X67152340Y-6985317D01*
X67156983Y-6975172D01*
X67289693Y-6757785D01*
X67463070Y-6585523D01*
X67670519Y-6463039D01*
X67905441Y-6394988D01*
X67993704Y-6384837D01*
X68241674Y-6397316D01*
X68472359Y-6468022D01*
X68677242Y-6592384D01*
X68847804Y-6765830D01*
X68926738Y-6885500D01*
X69025125Y-7060125D01*
X69041000Y-8520625D01*
X69045577Y-8895385D01*
X69050574Y-9210335D01*
X69056124Y-9469165D01*
X69062357Y-9675564D01*
X69069408Y-9833222D01*
X69077407Y-9945827D01*
X69086489Y-10017069D01*
X69095846Y-10049137D01*
X69145481Y-10113675D01*
X69219175Y-10187616D01*
X69237203Y-10203302D01*
X69304162Y-10252808D01*
X69368287Y-10276226D01*
X69455237Y-10280092D01*
X69523234Y-10276169D01*
X69688181Y-10243538D01*
X69813125Y-10167911D01*
X69909102Y-10044625D01*
X69919124Y-10002811D01*
X69928108Y-9912299D01*
X69936137Y-9770742D01*
X69943291Y-9575796D01*
X69949651Y-9325114D01*
X69955299Y-9016350D01*
X69960316Y-8647159D01*
X69961750Y-8520625D01*
X69965552Y-8177926D01*
X69969052Y-7892824D01*
X69972567Y-7659418D01*
X69976414Y-7471806D01*
X69980910Y-7324088D01*
X69986373Y-7210363D01*
X69993121Y-7124731D01*
X70001469Y-7061291D01*
X70011737Y-7014141D01*
X70024241Y-6977382D01*
X70039298Y-6945113D01*
X70047291Y-6929923D01*
X70189572Y-6723210D01*
X70363357Y-6565304D01*
X70560171Y-6455983D01*
X70771535Y-6395026D01*
X70988972Y-6382212D01*
X71204005Y-6417320D01*
X71408156Y-6500128D01*
X71592948Y-6630416D01*
X71749903Y-6807962D01*
X71846514Y-6976863D01*
X71862557Y-7013695D01*
X71875949Y-7052618D01*
X71887006Y-7099642D01*
X71896045Y-7160777D01*
X71903382Y-7242031D01*
X71909334Y-7349415D01*
X71914216Y-7488938D01*
X71918344Y-7666609D01*
X71922035Y-7888438D01*
X71925606Y-8160434D01*
X71929371Y-8488608D01*
X71930250Y-8568250D01*
X71934644Y-8930438D01*
X71939304Y-9233720D01*
X71944404Y-9482689D01*
X71950116Y-9681939D01*
X71956617Y-9836062D01*
X71964080Y-9949653D01*
X71972679Y-10027305D01*
X71982589Y-10073611D01*
X71987838Y-10086011D01*
X72080908Y-10189799D01*
X72209831Y-10256101D01*
X72357014Y-10281716D01*
X72504861Y-10263444D01*
X72629613Y-10202737D01*
X72706281Y-10139052D01*
X72762270Y-10080044D01*
X72770719Y-10067800D01*
X72779252Y-10021966D01*
X72787410Y-9915782D01*
X72795091Y-9752400D01*
X72802193Y-9534970D01*
X72808615Y-9266643D01*
X72814255Y-8950567D01*
X72819009Y-8589895D01*
X72819250Y-8568250D01*
X72823044Y-8227940D01*
X72826501Y-7945057D01*
X72829965Y-7713532D01*
X72833781Y-7527296D01*
X72838294Y-7380280D01*
X72843848Y-7266415D01*
X72850787Y-7179631D01*
X72859456Y-7113860D01*
X72870199Y-7063032D01*
X72883361Y-7021078D01*
X72899287Y-6981929D01*
X72910747Y-6956298D01*
X73003642Y-6803670D01*
X73135290Y-6655464D01*
X73287282Y-6528912D01*
X73441208Y-6441244D01*
X73474653Y-6428493D01*
X73534109Y-6412007D01*
X73609210Y-6399335D01*
X73708320Y-6390032D01*
X73839801Y-6383649D01*
X74012017Y-6379738D01*
X74233331Y-6377853D01*
X74427940Y-6377499D01*
X74707507Y-6378455D01*
G37*
X74707507Y-6378455D02*
X74932392Y-6382416D01*
X75111397Y-6391026D01*
X75253325Y-6405927D01*
X75366979Y-6428763D01*
X75461160Y-6461176D01*
X75544673Y-6504809D01*
X75626320Y-6561305D01*
X75691989Y-6613405D01*
X75849969Y-6780554D01*
X75957168Y-6974409D01*
X76015004Y-7185516D01*
X76024897Y-7404425D01*
X75988266Y-7621684D01*
X75906530Y-7827841D01*
X75781110Y-8013445D01*
X75613423Y-8169043D01*
X75443448Y-8268500D01*
X75375625Y-8296982D01*
X75306649Y-8318323D01*
X75224778Y-8334102D01*
X75118271Y-8345896D01*
X74975384Y-8355284D01*
X74784376Y-8363844D01*
X74713876Y-8366565D01*
X74491819Y-8376169D01*
X74326537Y-8387157D01*
X74211307Y-8401389D01*
X74139406Y-8420725D01*
X74104112Y-8447025D01*
X74098701Y-8482150D01*
X74116450Y-8527960D01*
X74118258Y-8531376D01*
X74134539Y-8553904D01*
X74161877Y-8570635D01*
X74209456Y-8582714D01*
X74286456Y-8591289D01*
X74402058Y-8597504D01*
X74565445Y-8602505D01*
X74715773Y-8605954D01*
X74966713Y-8613990D01*
X75165058Y-8628276D01*
X75321650Y-8652220D01*
X75447332Y-8689228D01*
X75552944Y-8742708D01*
X75649329Y-8816065D01*
X75747329Y-8912706D01*
X75769965Y-8937193D01*
X75849019Y-9029035D01*
X75909903Y-9116692D01*
X75955062Y-9210350D01*
X75986942Y-9320196D01*
X76007988Y-9456416D01*
X76020646Y-9629195D01*
X76027360Y-9848721D01*
X76029673Y-10018984D01*
X76031124Y-10236455D01*
X76030157Y-10399779D01*
X76026139Y-10518287D01*
X76018436Y-10601308D01*
X76006414Y-10658170D01*
X75989442Y-10698203D01*
X75982822Y-10709042D01*
X75897793Y-10787889D01*
X75790157Y-10819160D01*
X75679314Y-10802897D01*
X75584665Y-10739144D01*
X75560566Y-10708110D01*
X75539933Y-10667739D01*
X75525700Y-10613155D01*
X75517033Y-10533760D01*
X75513100Y-10418956D01*
X75513069Y-10258145D01*
X75514732Y-10124837D01*
X75515444Y-9876886D01*
X75508296Y-9683672D01*
X75492093Y-9536783D01*
X75465638Y-9427808D01*
X75427735Y-9348335D01*
X75399059Y-9311376D01*
X75349288Y-9259082D01*
X75302747Y-9219865D01*
X75249479Y-9191555D01*
X75179531Y-9171985D01*
X75082945Y-9158987D01*
X74949767Y-9150394D01*
X74770041Y-9144037D01*
X74610920Y-9139750D01*
X73999248Y-9123875D01*
X73861686Y-9027215D01*
X73713913Y-8889535D01*
X73617569Y-8727899D01*
X73571244Y-8552707D01*
X73573522Y-8374359D01*
X73622993Y-8203254D01*
X73718242Y-8049791D01*
X73857856Y-7924370D01*
X74022550Y-7843277D01*
X74099196Y-7828656D01*
X74228946Y-7817210D01*
X74401459Y-7809558D01*
X74606390Y-7806317D01*
X74642170Y-7806250D01*
X74841210Y-7805302D01*
X74987995Y-7801747D01*
X75093754Y-7794518D01*
X75169714Y-7782548D01*
X75227103Y-7764769D01*
X75264495Y-7747096D01*
X75389897Y-7646053D01*
X75468429Y-7507039D01*
X75494075Y-7341137D01*
X75466683Y-7182918D01*
X75386863Y-7058100D01*
X75286087Y-6979352D01*
X75249568Y-6959776D01*
X75206754Y-6944800D01*
X75149129Y-6933814D01*
X75068172Y-6926208D01*
X74955367Y-6921371D01*
X74802194Y-6918693D01*
X74600135Y-6917564D01*
X74420855Y-6917368D01*
X73657086Y-6917250D01*
X73548636Y-6997262D01*
X73471968Y-7060947D01*
X73415979Y-7119955D01*
X73407530Y-7132199D01*
X73399030Y-7177991D01*
X73390905Y-7284194D01*
X73383255Y-7447716D01*
X73376179Y-7665471D01*
X73369774Y-7934367D01*
X73364142Y-8251316D01*
X73359379Y-8613228D01*
X73359000Y-8647625D01*
X73343125Y-10108125D01*
X73258975Y-10266875D01*
X73111582Y-10481372D01*
X72922457Y-10652636D01*
X72796109Y-10729224D01*
X72635768Y-10784306D01*
X72443488Y-10810115D01*
X72243423Y-10806451D01*
X72059726Y-10773111D01*
X71962000Y-10736154D01*
X71768256Y-10608493D01*
X71599378Y-10434471D01*
X71491127Y-10268704D01*
X71406375Y-10108125D01*
X71390500Y-8647625D01*
X71386724Y-8296722D01*
X71383216Y-8003620D01*
X71379258Y-7762624D01*
X71374130Y-7568042D01*
X71367114Y-7414182D01*
X71357492Y-7295350D01*
X71344544Y-7205853D01*
X71327552Y-7139999D01*
X71305798Y-7092096D01*
X71278563Y-7056449D01*
X71245128Y-7027367D01*
X71204774Y-6999157D01*
X71180319Y-6982601D01*
X71102888Y-6938719D01*
X71023266Y-6920691D01*
X70913244Y-6922699D01*
X70896402Y-6924031D01*
X70779137Y-6940593D01*
X70696911Y-6974193D01*
X70621481Y-7036577D01*
X70618379Y-7039664D01*
X70517375Y-7140617D01*
X70500208Y-8592621D01*
X70496005Y-8936177D01*
X70492045Y-9222239D01*
X70488027Y-9456813D01*
X70483650Y-9645901D01*
X70478614Y-9795510D01*
X70472616Y-9911642D01*
X70465356Y-10000302D01*
X70456533Y-10067494D01*
X70445846Y-10119224D01*
X70432993Y-10161494D01*
X70419854Y-10195156D01*
X70298172Y-10408443D01*
X70130091Y-10590992D01*
X69958651Y-10711632D01*
X69868093Y-10758259D01*
X69788910Y-10786597D01*
X69699682Y-10801095D01*
X69578991Y-10806202D01*
X69501375Y-10806625D01*
X69357155Y-10804492D01*
X69255009Y-10795150D01*
X69173569Y-10774184D01*
X69091470Y-10737180D01*
X69045590Y-10712445D01*
X68861518Y-10582625D01*
X68706306Y-10418743D01*
X68595354Y-10237846D01*
X68576979Y-10193676D01*
X68563510Y-10152210D01*
X68552140Y-10101575D01*
X68542596Y-10035840D01*
X68534604Y-9949073D01*
X68527889Y-9835341D01*
X68522178Y-9688713D01*
X68517196Y-9503257D01*
X68512670Y-9273041D01*
X68508325Y-8992132D01*
X68503889Y-8654600D01*
X68503157Y-8595339D01*
X68498868Y-8253884D01*
X68494934Y-7970235D01*
X68491050Y-7738702D01*
X68486913Y-7553595D01*
X68482217Y-7409224D01*
X68476660Y-7299898D01*
X68469937Y-7219927D01*
X68461743Y-7163622D01*
X68451775Y-7125291D01*
X68439729Y-7099245D01*
X68425300Y-7079793D01*
X68421949Y-7076026D01*
X68292388Y-6975161D01*
X68142327Y-6924844D01*
X67986172Y-6924203D01*
X67838331Y-6972363D01*
X67713207Y-7068452D01*
X67671827Y-7121487D01*
X67661020Y-7149177D01*
X67651713Y-7200645D01*
X67643713Y-7280849D01*
X67636825Y-7394747D01*
X67630855Y-7547297D01*
X67625612Y-7743458D01*
X67620900Y-7988188D01*
X67616526Y-8286445D01*
X67612298Y-8643187D01*
X67612250Y-8647625D01*
X67608454Y-8990243D01*
X67604968Y-9275312D01*
X67601469Y-9508779D01*
X67597633Y-9696593D01*
X67593138Y-9844702D01*
X67587659Y-9959051D01*
X67580874Y-10045591D01*
X67572459Y-10110268D01*
X67562091Y-10159030D01*
X67549447Y-10197824D01*
X67534203Y-10232599D01*
X67525094Y-10251164D01*
X67391614Y-10455201D01*
X67218257Y-10620964D01*
X67015752Y-10740933D01*
X66794831Y-10807590D01*
X66717984Y-10816733D01*
X66609562Y-10820992D01*
X66540431Y-10810008D01*
X66487033Y-10777629D01*
X66455587Y-10748224D01*
X66386454Y-10643014D01*
X66373549Y-10533297D01*
X66411800Y-10431129D01*
X66496131Y-10348561D01*
X66621469Y-10297648D01*
X66647259Y-10292888D01*
X66828092Y-10242121D01*
X66958369Y-10153665D01*
X67000763Y-10101000D01*
X67014076Y-10076185D01*
X67025268Y-10042047D01*
X67034606Y-9992883D01*
X67042357Y-9922990D01*
X67048788Y-9826664D01*
X67054165Y-9698203D01*
X67058758Y-9531904D01*
X67062832Y-9322064D01*
X67066654Y-9062981D01*
X67070493Y-8748950D01*
X67072500Y-8569723D01*
X67076341Y-8228430D01*
X67079911Y-7944623D01*
X67083527Y-7712291D01*
X67087508Y-7525421D01*
X67092171Y-7378002D01*
X67097837Y-7264023D01*
X67104823Y-7177471D01*
X67113448Y-7112337D01*
X67124030Y-7062607D01*
X67136888Y-7022271D01*
X67152340Y-6985317D01*
X67156983Y-6975172D01*
X67289693Y-6757785D01*
X67463070Y-6585523D01*
X67670519Y-6463039D01*
X67905441Y-6394988D01*
X67993704Y-6384837D01*
X68241674Y-6397316D01*
X68472359Y-6468022D01*
X68677242Y-6592384D01*
X68847804Y-6765830D01*
X68926738Y-6885500D01*
X69025125Y-7060125D01*
X69041000Y-8520625D01*
X69045577Y-8895385D01*
X69050574Y-9210335D01*
X69056124Y-9469165D01*
X69062357Y-9675564D01*
X69069408Y-9833222D01*
X69077407Y-9945827D01*
X69086489Y-10017069D01*
X69095846Y-10049137D01*
X69145481Y-10113675D01*
X69219175Y-10187616D01*
X69237203Y-10203302D01*
X69304162Y-10252808D01*
X69368287Y-10276226D01*
X69455237Y-10280092D01*
X69523234Y-10276169D01*
X69688181Y-10243538D01*
X69813125Y-10167911D01*
X69909102Y-10044625D01*
X69919124Y-10002811D01*
X69928108Y-9912299D01*
X69936137Y-9770742D01*
X69943291Y-9575796D01*
X69949651Y-9325114D01*
X69955299Y-9016350D01*
X69960316Y-8647159D01*
X69961750Y-8520625D01*
X69965552Y-8177926D01*
X69969052Y-7892824D01*
X69972567Y-7659418D01*
X69976414Y-7471806D01*
X69980910Y-7324088D01*
X69986373Y-7210363D01*
X69993121Y-7124731D01*
X70001469Y-7061291D01*
X70011737Y-7014141D01*
X70024241Y-6977382D01*
X70039298Y-6945113D01*
X70047291Y-6929923D01*
X70189572Y-6723210D01*
X70363357Y-6565304D01*
X70560171Y-6455983D01*
X70771535Y-6395026D01*
X70988972Y-6382212D01*
X71204005Y-6417320D01*
X71408156Y-6500128D01*
X71592948Y-6630416D01*
X71749903Y-6807962D01*
X71846514Y-6976863D01*
X71862557Y-7013695D01*
X71875949Y-7052618D01*
X71887006Y-7099642D01*
X71896045Y-7160777D01*
X71903382Y-7242031D01*
X71909334Y-7349415D01*
X71914216Y-7488938D01*
X71918344Y-7666609D01*
X71922035Y-7888438D01*
X71925606Y-8160434D01*
X71929371Y-8488608D01*
X71930250Y-8568250D01*
X71934644Y-8930438D01*
X71939304Y-9233720D01*
X71944404Y-9482689D01*
X71950116Y-9681939D01*
X71956617Y-9836062D01*
X71964080Y-9949653D01*
X71972679Y-10027305D01*
X71982589Y-10073611D01*
X71987838Y-10086011D01*
X72080908Y-10189799D01*
X72209831Y-10256101D01*
X72357014Y-10281716D01*
X72504861Y-10263444D01*
X72629613Y-10202737D01*
X72706281Y-10139052D01*
X72762270Y-10080044D01*
X72770719Y-10067800D01*
X72779252Y-10021966D01*
X72787410Y-9915782D01*
X72795091Y-9752400D01*
X72802193Y-9534970D01*
X72808615Y-9266643D01*
X72814255Y-8950567D01*
X72819009Y-8589895D01*
X72819250Y-8568250D01*
X72823044Y-8227940D01*
X72826501Y-7945057D01*
X72829965Y-7713532D01*
X72833781Y-7527296D01*
X72838294Y-7380280D01*
X72843848Y-7266415D01*
X72850787Y-7179631D01*
X72859456Y-7113860D01*
X72870199Y-7063032D01*
X72883361Y-7021078D01*
X72899287Y-6981929D01*
X72910747Y-6956298D01*
X73003642Y-6803670D01*
X73135290Y-6655464D01*
X73287282Y-6528912D01*
X73441208Y-6441244D01*
X73474653Y-6428493D01*
X73534109Y-6412007D01*
X73609210Y-6399335D01*
X73708320Y-6390032D01*
X73839801Y-6383649D01*
X74012017Y-6379738D01*
X74233331Y-6377853D01*
X74427940Y-6377499D01*
X74707507Y-6378455D01*
D13*
%TO.C,R13*%
X64800000Y-17540000D02*
X64800000Y-18310000D01*
X63430000Y-24850000D02*
X66170000Y-24850000D01*
X66170000Y-18310000D02*
X63430000Y-18310000D01*
X64800000Y-25620000D02*
X64800000Y-24850000D01*
X63430000Y-18310000D02*
X63430000Y-24850000D01*
X66170000Y-24850000D02*
X66170000Y-18310000D01*
%TO.C,R7*%
X73800000Y-47240000D02*
X73800000Y-46470000D01*
X75170000Y-39930000D02*
X72430000Y-39930000D01*
X75170000Y-46470000D02*
X75170000Y-39930000D01*
X73800000Y-39160000D02*
X73800000Y-39930000D01*
X72430000Y-46470000D02*
X75170000Y-46470000D01*
X72430000Y-39930000D02*
X72430000Y-46470000D01*
%TO.C,C5*%
X44230000Y-23730000D02*
X44230000Y-28270000D01*
X46370000Y-23730000D02*
X46355000Y-23730000D01*
X44245000Y-28270000D02*
X44230000Y-28270000D01*
X46370000Y-23730000D02*
X46370000Y-28270000D01*
X44245000Y-23730000D02*
X44230000Y-23730000D01*
X46370000Y-28270000D02*
X46355000Y-28270000D01*
%TO.C,R11*%
X70855000Y-18310000D02*
X70855000Y-24850000D01*
X73595000Y-18310000D02*
X70855000Y-18310000D01*
X72225000Y-25620000D02*
X72225000Y-24850000D01*
X72225000Y-17540000D02*
X72225000Y-18310000D01*
X70855000Y-24850000D02*
X73595000Y-24850000D01*
X73595000Y-24850000D02*
X73595000Y-18310000D01*
%TO.C,R1*%
X17070000Y-12430000D02*
X10530000Y-12430000D01*
X10530000Y-12430000D02*
X10530000Y-15170000D01*
X17070000Y-15170000D02*
X17070000Y-12430000D01*
X17840000Y-13800000D02*
X17070000Y-13800000D01*
X10530000Y-15170000D02*
X17070000Y-15170000D01*
X9760000Y-13800000D02*
X10530000Y-13800000D01*
%TO.C,C6*%
X42970000Y-28270000D02*
X42970000Y-23730000D01*
X42955000Y-23730000D02*
X42970000Y-23730000D01*
X40830000Y-28270000D02*
X40830000Y-23730000D01*
X40830000Y-23730000D02*
X40845000Y-23730000D01*
X40830000Y-28270000D02*
X40845000Y-28270000D01*
X42955000Y-28270000D02*
X42970000Y-28270000D01*
%TO.C,R8*%
X38870000Y-25210000D02*
X36130000Y-25210000D01*
X37500000Y-24440000D02*
X37500000Y-25210000D01*
X38870000Y-31750000D02*
X38870000Y-25210000D01*
X37500000Y-32520000D02*
X37500000Y-31750000D01*
X36130000Y-25210000D02*
X36130000Y-31750000D01*
X36130000Y-31750000D02*
X38870000Y-31750000D01*
%TO.C,U1*%
X18335000Y-15870000D02*
X18335000Y-26150000D01*
X18335000Y-26150000D02*
X22835000Y-26150000D01*
X19585000Y-15870000D02*
X18335000Y-15870000D01*
X22835000Y-26150000D02*
X22835000Y-15870000D01*
X22835000Y-15870000D02*
X21585000Y-15870000D01*
X19585000Y-15870000D02*
G75*
G03*
X21585000Y-15870000I1000000J0D01*
G01*
%TO.C,J3*%
X17470000Y-7270000D02*
X20070000Y-7270000D01*
X16200000Y-9930000D02*
X14870000Y-9930000D01*
X17470000Y-9930000D02*
X17470000Y-7270000D01*
X14870000Y-9930000D02*
X14870000Y-8600000D01*
X17470000Y-9930000D02*
X20070000Y-9930000D01*
X20070000Y-9930000D02*
X20070000Y-7270000D01*
%TO.C,R4*%
X34570000Y-22850000D02*
X31830000Y-22850000D01*
X34570000Y-29390000D02*
X34570000Y-22850000D01*
X31830000Y-22850000D02*
X31830000Y-29390000D01*
X33200000Y-22080000D02*
X33200000Y-22850000D01*
X31830000Y-29390000D02*
X34570000Y-29390000D01*
X33200000Y-30160000D02*
X33200000Y-29390000D01*
%TO.C,R5*%
X34550000Y-41170000D02*
X34550000Y-38430000D01*
X28010000Y-41170000D02*
X34550000Y-41170000D01*
X35320000Y-39800000D02*
X34550000Y-39800000D01*
X34550000Y-38430000D02*
X28010000Y-38430000D01*
X27240000Y-39800000D02*
X28010000Y-39800000D01*
X28010000Y-38430000D02*
X28010000Y-41170000D01*
%TO.C,R2*%
X14370000Y-24870000D02*
X14370000Y-18330000D01*
X11630000Y-24870000D02*
X14370000Y-24870000D01*
X11630000Y-18330000D02*
X11630000Y-24870000D01*
X13000000Y-17560000D02*
X13000000Y-18330000D01*
X14370000Y-18330000D02*
X11630000Y-18330000D01*
X13000000Y-25640000D02*
X13000000Y-24870000D01*
%TO.C,C1*%
X10870000Y-21730000D02*
X10870000Y-26270000D01*
X8730000Y-21730000D02*
X8730000Y-26270000D01*
X10870000Y-26270000D02*
X10855000Y-26270000D01*
X8745000Y-21730000D02*
X8730000Y-21730000D01*
X10870000Y-21730000D02*
X10855000Y-21730000D01*
X8745000Y-26270000D02*
X8730000Y-26270000D01*
%TO.C,C10*%
X17170000Y-30470000D02*
X17170000Y-30455000D01*
X12630000Y-28345000D02*
X12630000Y-28330000D01*
X17170000Y-30470000D02*
X12630000Y-30470000D01*
X17170000Y-28330000D02*
X12630000Y-28330000D01*
X17170000Y-28345000D02*
X17170000Y-28330000D01*
X12630000Y-30470000D02*
X12630000Y-30455000D01*
%TO.C,R14*%
X59830000Y-18310000D02*
X59830000Y-24850000D01*
X61200000Y-25620000D02*
X61200000Y-24850000D01*
X62570000Y-24850000D02*
X62570000Y-18310000D01*
X59830000Y-24850000D02*
X62570000Y-24850000D01*
X62570000Y-18310000D02*
X59830000Y-18310000D01*
X61200000Y-17540000D02*
X61200000Y-18310000D01*
%TO.C,C8*%
X73670000Y-28230000D02*
X73670000Y-28245000D01*
X69130000Y-28230000D02*
X69130000Y-28245000D01*
X69130000Y-30355000D02*
X69130000Y-30370000D01*
X69130000Y-28230000D02*
X73670000Y-28230000D01*
X73670000Y-30355000D02*
X73670000Y-30370000D01*
X69130000Y-30370000D02*
X73670000Y-30370000D01*
%TO.C,J1*%
X30610000Y-10930000D02*
X30610000Y-8270000D01*
X25470000Y-8270000D02*
X30610000Y-8270000D01*
X22870000Y-10930000D02*
X22870000Y-9600000D01*
X25470000Y-10930000D02*
X30610000Y-10930000D01*
X24200000Y-10930000D02*
X22870000Y-10930000D01*
X25470000Y-10930000D02*
X25470000Y-8270000D01*
%TO.C,C3*%
X56730000Y-12745000D02*
X56730000Y-12730000D01*
X61270000Y-12730000D02*
X56730000Y-12730000D01*
X61270000Y-14870000D02*
X61270000Y-14855000D01*
X61270000Y-12745000D02*
X61270000Y-12730000D01*
X61270000Y-14870000D02*
X56730000Y-14870000D01*
X56730000Y-14870000D02*
X56730000Y-14855000D01*
%TO.C,C9*%
X26270000Y-12630000D02*
X26270000Y-12645000D01*
X21730000Y-14770000D02*
X26270000Y-14770000D01*
X21730000Y-12630000D02*
X21730000Y-12645000D01*
X26270000Y-14755000D02*
X26270000Y-14770000D01*
X21730000Y-14755000D02*
X21730000Y-14770000D01*
X21730000Y-12630000D02*
X26270000Y-12630000D01*
%TO.C,C7*%
X60955000Y-30435000D02*
X60955000Y-30450000D01*
X60955000Y-30450000D02*
X65495000Y-30450000D01*
X65495000Y-28310000D02*
X65495000Y-28325000D01*
X60955000Y-28310000D02*
X65495000Y-28310000D01*
X60955000Y-28310000D02*
X60955000Y-28325000D01*
X65495000Y-30435000D02*
X65495000Y-30450000D01*
%TO.C,C2*%
X21070000Y-28230000D02*
X21055000Y-28230000D01*
X21070000Y-32770000D02*
X21055000Y-32770000D01*
X18930000Y-28230000D02*
X18930000Y-32770000D01*
X18945000Y-28230000D02*
X18930000Y-28230000D01*
X18945000Y-32770000D02*
X18930000Y-32770000D01*
X21070000Y-28230000D02*
X21070000Y-32770000D01*
%TO.C,R3*%
X28230000Y-22850000D02*
X28230000Y-29390000D01*
X29600000Y-22080000D02*
X29600000Y-22850000D01*
X30970000Y-22850000D02*
X28230000Y-22850000D01*
X30970000Y-29390000D02*
X30970000Y-22850000D01*
X29600000Y-30160000D02*
X29600000Y-29390000D01*
X28230000Y-29390000D02*
X30970000Y-29390000D01*
%TO.C,R10*%
X45865000Y-20180000D02*
X45095000Y-20180000D01*
X38555000Y-21550000D02*
X45095000Y-21550000D01*
X38555000Y-18810000D02*
X38555000Y-21550000D01*
X37785000Y-20180000D02*
X38555000Y-20180000D01*
X45095000Y-18810000D02*
X38555000Y-18810000D01*
X45095000Y-21550000D02*
X45095000Y-18810000D01*
%TO.C,R9*%
X45095000Y-15410000D02*
X38555000Y-15410000D01*
X37785000Y-16780000D02*
X38555000Y-16780000D01*
X38555000Y-18150000D02*
X45095000Y-18150000D01*
X45095000Y-18150000D02*
X45095000Y-15410000D01*
X38555000Y-15410000D02*
X38555000Y-18150000D01*
X45865000Y-16780000D02*
X45095000Y-16780000D01*
%TO.C,RV1*%
X44520000Y-42480000D02*
X44520000Y-50220000D01*
X38520000Y-55220000D02*
X38520000Y-65220000D01*
X38520000Y-65220000D02*
X34280000Y-65220000D01*
X40020000Y-50220000D02*
X40020000Y-55220000D01*
X44520000Y-50220000D02*
X28280000Y-50220000D01*
X40020000Y-50220000D02*
X32780000Y-50220000D01*
X32780000Y-50220000D02*
X32780000Y-55220000D01*
X28280000Y-42480000D02*
X28280000Y-50220000D01*
X40020000Y-55220000D02*
X32780000Y-55220000D01*
X44520000Y-42480000D02*
X28280000Y-42480000D01*
X38520000Y-55220000D02*
X34280000Y-55220000D01*
X34280000Y-55220000D02*
X34280000Y-65220000D01*
%TO.C,J4*%
X77470000Y-24950000D02*
X80130000Y-24950000D01*
X77470000Y-17270000D02*
X80130000Y-17270000D01*
X77470000Y-16000000D02*
X77470000Y-14670000D01*
X77470000Y-17270000D02*
X77470000Y-24950000D01*
X80130000Y-17270000D02*
X80130000Y-24950000D01*
X77470000Y-14670000D02*
X78800000Y-14670000D01*
%TO.C,R6*%
X16320000Y-32800000D02*
X15550000Y-32800000D01*
X15550000Y-34170000D02*
X15550000Y-31430000D01*
X9010000Y-31430000D02*
X9010000Y-34170000D01*
X15550000Y-31430000D02*
X9010000Y-31430000D01*
X8240000Y-32800000D02*
X9010000Y-32800000D01*
X9010000Y-34170000D02*
X15550000Y-34170000D01*
%TO.C,J2*%
X96500000Y-7400000D02*
X96500000Y-31400000D01*
X96500000Y-31400000D02*
X94000000Y-31400000D01*
X96500000Y-7400000D02*
X94000000Y-7400000D01*
%TD*%
M02*
