%TF.GenerationSoftware,KiCad,Pcbnew,7.0.8-7.0.8~ubuntu22.04.1*%
%TF.CreationDate,2023-10-08T09:38:23-05:00*%
%TF.ProjectId,crossover_v1,63726f73-736f-4766-9572-5f76312e6b69,v1.0.0*%
%TF.SameCoordinates,Original*%
%TF.FileFunction,Other,Comment*%
%FSLAX46Y46*%
G04 Gerber Fmt 4.6, Leading zero omitted, Abs format (unit mm)*
G04 Created by KiCad (PCBNEW 7.0.8-7.0.8~ubuntu22.04.1) date 2023-10-08 09:38:23*
%MOMM*%
%LPD*%
G01*
G04 APERTURE LIST*
%ADD10C,0.150000*%
G04 APERTURE END LIST*
D10*
X143196191Y-73774819D02*
X143386667Y-73774819D01*
X143386667Y-73774819D02*
X143481905Y-73727200D01*
X143481905Y-73727200D02*
X143529524Y-73679580D01*
X143529524Y-73679580D02*
X143624762Y-73536723D01*
X143624762Y-73536723D02*
X143672381Y-73346247D01*
X143672381Y-73346247D02*
X143672381Y-72965295D01*
X143672381Y-72965295D02*
X143624762Y-72870057D01*
X143624762Y-72870057D02*
X143577143Y-72822438D01*
X143577143Y-72822438D02*
X143481905Y-72774819D01*
X143481905Y-72774819D02*
X143291429Y-72774819D01*
X143291429Y-72774819D02*
X143196191Y-72822438D01*
X143196191Y-72822438D02*
X143148572Y-72870057D01*
X143148572Y-72870057D02*
X143100953Y-72965295D01*
X143100953Y-72965295D02*
X143100953Y-73203390D01*
X143100953Y-73203390D02*
X143148572Y-73298628D01*
X143148572Y-73298628D02*
X143196191Y-73346247D01*
X143196191Y-73346247D02*
X143291429Y-73393866D01*
X143291429Y-73393866D02*
X143481905Y-73393866D01*
X143481905Y-73393866D02*
X143577143Y-73346247D01*
X143577143Y-73346247D02*
X143624762Y-73298628D01*
X143624762Y-73298628D02*
X143672381Y-73203390D01*
X144053334Y-72870057D02*
X144100953Y-72822438D01*
X144100953Y-72822438D02*
X144196191Y-72774819D01*
X144196191Y-72774819D02*
X144434286Y-72774819D01*
X144434286Y-72774819D02*
X144529524Y-72822438D01*
X144529524Y-72822438D02*
X144577143Y-72870057D01*
X144577143Y-72870057D02*
X144624762Y-72965295D01*
X144624762Y-72965295D02*
X144624762Y-73060533D01*
X144624762Y-73060533D02*
X144577143Y-73203390D01*
X144577143Y-73203390D02*
X144005715Y-73774819D01*
X144005715Y-73774819D02*
X144624762Y-73774819D01*
X145053334Y-73679580D02*
X145100953Y-73727200D01*
X145100953Y-73727200D02*
X145053334Y-73774819D01*
X145053334Y-73774819D02*
X145005715Y-73727200D01*
X145005715Y-73727200D02*
X145053334Y-73679580D01*
X145053334Y-73679580D02*
X145053334Y-73774819D01*
X145720000Y-72774819D02*
X145815238Y-72774819D01*
X145815238Y-72774819D02*
X145910476Y-72822438D01*
X145910476Y-72822438D02*
X145958095Y-72870057D01*
X145958095Y-72870057D02*
X146005714Y-72965295D01*
X146005714Y-72965295D02*
X146053333Y-73155771D01*
X146053333Y-73155771D02*
X146053333Y-73393866D01*
X146053333Y-73393866D02*
X146005714Y-73584342D01*
X146005714Y-73584342D02*
X145958095Y-73679580D01*
X145958095Y-73679580D02*
X145910476Y-73727200D01*
X145910476Y-73727200D02*
X145815238Y-73774819D01*
X145815238Y-73774819D02*
X145720000Y-73774819D01*
X145720000Y-73774819D02*
X145624762Y-73727200D01*
X145624762Y-73727200D02*
X145577143Y-73679580D01*
X145577143Y-73679580D02*
X145529524Y-73584342D01*
X145529524Y-73584342D02*
X145481905Y-73393866D01*
X145481905Y-73393866D02*
X145481905Y-73155771D01*
X145481905Y-73155771D02*
X145529524Y-72965295D01*
X145529524Y-72965295D02*
X145577143Y-72870057D01*
X145577143Y-72870057D02*
X145624762Y-72822438D01*
X145624762Y-72822438D02*
X145720000Y-72774819D01*
X146672381Y-72774819D02*
X146767619Y-72774819D01*
X146767619Y-72774819D02*
X146862857Y-72822438D01*
X146862857Y-72822438D02*
X146910476Y-72870057D01*
X146910476Y-72870057D02*
X146958095Y-72965295D01*
X146958095Y-72965295D02*
X147005714Y-73155771D01*
X147005714Y-73155771D02*
X147005714Y-73393866D01*
X147005714Y-73393866D02*
X146958095Y-73584342D01*
X146958095Y-73584342D02*
X146910476Y-73679580D01*
X146910476Y-73679580D02*
X146862857Y-73727200D01*
X146862857Y-73727200D02*
X146767619Y-73774819D01*
X146767619Y-73774819D02*
X146672381Y-73774819D01*
X146672381Y-73774819D02*
X146577143Y-73727200D01*
X146577143Y-73727200D02*
X146529524Y-73679580D01*
X146529524Y-73679580D02*
X146481905Y-73584342D01*
X146481905Y-73584342D02*
X146434286Y-73393866D01*
X146434286Y-73393866D02*
X146434286Y-73155771D01*
X146434286Y-73155771D02*
X146481905Y-72965295D01*
X146481905Y-72965295D02*
X146529524Y-72870057D01*
X146529524Y-72870057D02*
X146577143Y-72822438D01*
X146577143Y-72822438D02*
X146672381Y-72774819D01*
X147624762Y-72774819D02*
X147720000Y-72774819D01*
X147720000Y-72774819D02*
X147815238Y-72822438D01*
X147815238Y-72822438D02*
X147862857Y-72870057D01*
X147862857Y-72870057D02*
X147910476Y-72965295D01*
X147910476Y-72965295D02*
X147958095Y-73155771D01*
X147958095Y-73155771D02*
X147958095Y-73393866D01*
X147958095Y-73393866D02*
X147910476Y-73584342D01*
X147910476Y-73584342D02*
X147862857Y-73679580D01*
X147862857Y-73679580D02*
X147815238Y-73727200D01*
X147815238Y-73727200D02*
X147720000Y-73774819D01*
X147720000Y-73774819D02*
X147624762Y-73774819D01*
X147624762Y-73774819D02*
X147529524Y-73727200D01*
X147529524Y-73727200D02*
X147481905Y-73679580D01*
X147481905Y-73679580D02*
X147434286Y-73584342D01*
X147434286Y-73584342D02*
X147386667Y-73393866D01*
X147386667Y-73393866D02*
X147386667Y-73155771D01*
X147386667Y-73155771D02*
X147434286Y-72965295D01*
X147434286Y-72965295D02*
X147481905Y-72870057D01*
X147481905Y-72870057D02*
X147529524Y-72822438D01*
X147529524Y-72822438D02*
X147624762Y-72774819D01*
X148577143Y-72774819D02*
X148672381Y-72774819D01*
X148672381Y-72774819D02*
X148767619Y-72822438D01*
X148767619Y-72822438D02*
X148815238Y-72870057D01*
X148815238Y-72870057D02*
X148862857Y-72965295D01*
X148862857Y-72965295D02*
X148910476Y-73155771D01*
X148910476Y-73155771D02*
X148910476Y-73393866D01*
X148910476Y-73393866D02*
X148862857Y-73584342D01*
X148862857Y-73584342D02*
X148815238Y-73679580D01*
X148815238Y-73679580D02*
X148767619Y-73727200D01*
X148767619Y-73727200D02*
X148672381Y-73774819D01*
X148672381Y-73774819D02*
X148577143Y-73774819D01*
X148577143Y-73774819D02*
X148481905Y-73727200D01*
X148481905Y-73727200D02*
X148434286Y-73679580D01*
X148434286Y-73679580D02*
X148386667Y-73584342D01*
X148386667Y-73584342D02*
X148339048Y-73393866D01*
X148339048Y-73393866D02*
X148339048Y-73155771D01*
X148339048Y-73155771D02*
X148386667Y-72965295D01*
X148386667Y-72965295D02*
X148434286Y-72870057D01*
X148434286Y-72870057D02*
X148481905Y-72822438D01*
X148481905Y-72822438D02*
X148577143Y-72774819D01*
X150100953Y-73774819D02*
X150100953Y-73108152D01*
X150100953Y-73203390D02*
X150148572Y-73155771D01*
X150148572Y-73155771D02*
X150243810Y-73108152D01*
X150243810Y-73108152D02*
X150386667Y-73108152D01*
X150386667Y-73108152D02*
X150481905Y-73155771D01*
X150481905Y-73155771D02*
X150529524Y-73251009D01*
X150529524Y-73251009D02*
X150529524Y-73774819D01*
X150529524Y-73251009D02*
X150577143Y-73155771D01*
X150577143Y-73155771D02*
X150672381Y-73108152D01*
X150672381Y-73108152D02*
X150815238Y-73108152D01*
X150815238Y-73108152D02*
X150910477Y-73155771D01*
X150910477Y-73155771D02*
X150958096Y-73251009D01*
X150958096Y-73251009D02*
X150958096Y-73774819D01*
X151434286Y-73774819D02*
X151434286Y-73108152D01*
X151434286Y-73203390D02*
X151481905Y-73155771D01*
X151481905Y-73155771D02*
X151577143Y-73108152D01*
X151577143Y-73108152D02*
X151720000Y-73108152D01*
X151720000Y-73108152D02*
X151815238Y-73155771D01*
X151815238Y-73155771D02*
X151862857Y-73251009D01*
X151862857Y-73251009D02*
X151862857Y-73774819D01*
X151862857Y-73251009D02*
X151910476Y-73155771D01*
X151910476Y-73155771D02*
X152005714Y-73108152D01*
X152005714Y-73108152D02*
X152148571Y-73108152D01*
X152148571Y-73108152D02*
X152243810Y-73155771D01*
X152243810Y-73155771D02*
X152291429Y-73251009D01*
X152291429Y-73251009D02*
X152291429Y-73774819D01*
X101380000Y-76870000D02*
X101380000Y-72783580D01*
X193380000Y-76870000D02*
X193380000Y-72783580D01*
X101380000Y-73370000D02*
X142285477Y-73370000D01*
X153154524Y-73370000D02*
X193380000Y-73370000D01*
X101380000Y-73370000D02*
X102506504Y-72783579D01*
X101380000Y-73370000D02*
X102506504Y-73956421D01*
X193380000Y-73370000D02*
X192253496Y-73956421D01*
X193380000Y-73370000D02*
X192253496Y-72783579D01*
X195708152Y-105132856D02*
X196374819Y-105132856D01*
X195327200Y-105370951D02*
X196041485Y-105609046D01*
X196041485Y-105609046D02*
X196041485Y-104989999D01*
X195374819Y-104704284D02*
X195374819Y-104037618D01*
X195374819Y-104037618D02*
X196374819Y-104466189D01*
X196279580Y-103656665D02*
X196327200Y-103609046D01*
X196327200Y-103609046D02*
X196374819Y-103656665D01*
X196374819Y-103656665D02*
X196327200Y-103704284D01*
X196327200Y-103704284D02*
X196279580Y-103656665D01*
X196279580Y-103656665D02*
X196374819Y-103656665D01*
X195374819Y-102989999D02*
X195374819Y-102894761D01*
X195374819Y-102894761D02*
X195422438Y-102799523D01*
X195422438Y-102799523D02*
X195470057Y-102751904D01*
X195470057Y-102751904D02*
X195565295Y-102704285D01*
X195565295Y-102704285D02*
X195755771Y-102656666D01*
X195755771Y-102656666D02*
X195993866Y-102656666D01*
X195993866Y-102656666D02*
X196184342Y-102704285D01*
X196184342Y-102704285D02*
X196279580Y-102751904D01*
X196279580Y-102751904D02*
X196327200Y-102799523D01*
X196327200Y-102799523D02*
X196374819Y-102894761D01*
X196374819Y-102894761D02*
X196374819Y-102989999D01*
X196374819Y-102989999D02*
X196327200Y-103085237D01*
X196327200Y-103085237D02*
X196279580Y-103132856D01*
X196279580Y-103132856D02*
X196184342Y-103180475D01*
X196184342Y-103180475D02*
X195993866Y-103228094D01*
X195993866Y-103228094D02*
X195755771Y-103228094D01*
X195755771Y-103228094D02*
X195565295Y-103180475D01*
X195565295Y-103180475D02*
X195470057Y-103132856D01*
X195470057Y-103132856D02*
X195422438Y-103085237D01*
X195422438Y-103085237D02*
X195374819Y-102989999D01*
X195374819Y-102037618D02*
X195374819Y-101942380D01*
X195374819Y-101942380D02*
X195422438Y-101847142D01*
X195422438Y-101847142D02*
X195470057Y-101799523D01*
X195470057Y-101799523D02*
X195565295Y-101751904D01*
X195565295Y-101751904D02*
X195755771Y-101704285D01*
X195755771Y-101704285D02*
X195993866Y-101704285D01*
X195993866Y-101704285D02*
X196184342Y-101751904D01*
X196184342Y-101751904D02*
X196279580Y-101799523D01*
X196279580Y-101799523D02*
X196327200Y-101847142D01*
X196327200Y-101847142D02*
X196374819Y-101942380D01*
X196374819Y-101942380D02*
X196374819Y-102037618D01*
X196374819Y-102037618D02*
X196327200Y-102132856D01*
X196327200Y-102132856D02*
X196279580Y-102180475D01*
X196279580Y-102180475D02*
X196184342Y-102228094D01*
X196184342Y-102228094D02*
X195993866Y-102275713D01*
X195993866Y-102275713D02*
X195755771Y-102275713D01*
X195755771Y-102275713D02*
X195565295Y-102228094D01*
X195565295Y-102228094D02*
X195470057Y-102180475D01*
X195470057Y-102180475D02*
X195422438Y-102132856D01*
X195422438Y-102132856D02*
X195374819Y-102037618D01*
X195374819Y-101085237D02*
X195374819Y-100989999D01*
X195374819Y-100989999D02*
X195422438Y-100894761D01*
X195422438Y-100894761D02*
X195470057Y-100847142D01*
X195470057Y-100847142D02*
X195565295Y-100799523D01*
X195565295Y-100799523D02*
X195755771Y-100751904D01*
X195755771Y-100751904D02*
X195993866Y-100751904D01*
X195993866Y-100751904D02*
X196184342Y-100799523D01*
X196184342Y-100799523D02*
X196279580Y-100847142D01*
X196279580Y-100847142D02*
X196327200Y-100894761D01*
X196327200Y-100894761D02*
X196374819Y-100989999D01*
X196374819Y-100989999D02*
X196374819Y-101085237D01*
X196374819Y-101085237D02*
X196327200Y-101180475D01*
X196327200Y-101180475D02*
X196279580Y-101228094D01*
X196279580Y-101228094D02*
X196184342Y-101275713D01*
X196184342Y-101275713D02*
X195993866Y-101323332D01*
X195993866Y-101323332D02*
X195755771Y-101323332D01*
X195755771Y-101323332D02*
X195565295Y-101275713D01*
X195565295Y-101275713D02*
X195470057Y-101228094D01*
X195470057Y-101228094D02*
X195422438Y-101180475D01*
X195422438Y-101180475D02*
X195374819Y-101085237D01*
X195374819Y-100132856D02*
X195374819Y-100037618D01*
X195374819Y-100037618D02*
X195422438Y-99942380D01*
X195422438Y-99942380D02*
X195470057Y-99894761D01*
X195470057Y-99894761D02*
X195565295Y-99847142D01*
X195565295Y-99847142D02*
X195755771Y-99799523D01*
X195755771Y-99799523D02*
X195993866Y-99799523D01*
X195993866Y-99799523D02*
X196184342Y-99847142D01*
X196184342Y-99847142D02*
X196279580Y-99894761D01*
X196279580Y-99894761D02*
X196327200Y-99942380D01*
X196327200Y-99942380D02*
X196374819Y-100037618D01*
X196374819Y-100037618D02*
X196374819Y-100132856D01*
X196374819Y-100132856D02*
X196327200Y-100228094D01*
X196327200Y-100228094D02*
X196279580Y-100275713D01*
X196279580Y-100275713D02*
X196184342Y-100323332D01*
X196184342Y-100323332D02*
X195993866Y-100370951D01*
X195993866Y-100370951D02*
X195755771Y-100370951D01*
X195755771Y-100370951D02*
X195565295Y-100323332D01*
X195565295Y-100323332D02*
X195470057Y-100275713D01*
X195470057Y-100275713D02*
X195422438Y-100228094D01*
X195422438Y-100228094D02*
X195374819Y-100132856D01*
X196374819Y-98609046D02*
X195708152Y-98609046D01*
X195803390Y-98609046D02*
X195755771Y-98561427D01*
X195755771Y-98561427D02*
X195708152Y-98466189D01*
X195708152Y-98466189D02*
X195708152Y-98323332D01*
X195708152Y-98323332D02*
X195755771Y-98228094D01*
X195755771Y-98228094D02*
X195851009Y-98180475D01*
X195851009Y-98180475D02*
X196374819Y-98180475D01*
X195851009Y-98180475D02*
X195755771Y-98132856D01*
X195755771Y-98132856D02*
X195708152Y-98037618D01*
X195708152Y-98037618D02*
X195708152Y-97894761D01*
X195708152Y-97894761D02*
X195755771Y-97799522D01*
X195755771Y-97799522D02*
X195851009Y-97751903D01*
X195851009Y-97751903D02*
X196374819Y-97751903D01*
X196374819Y-97275713D02*
X195708152Y-97275713D01*
X195803390Y-97275713D02*
X195755771Y-97228094D01*
X195755771Y-97228094D02*
X195708152Y-97132856D01*
X195708152Y-97132856D02*
X195708152Y-96989999D01*
X195708152Y-96989999D02*
X195755771Y-96894761D01*
X195755771Y-96894761D02*
X195851009Y-96847142D01*
X195851009Y-96847142D02*
X196374819Y-96847142D01*
X195851009Y-96847142D02*
X195755771Y-96799523D01*
X195755771Y-96799523D02*
X195708152Y-96704285D01*
X195708152Y-96704285D02*
X195708152Y-96561428D01*
X195708152Y-96561428D02*
X195755771Y-96466189D01*
X195755771Y-96466189D02*
X195851009Y-96418570D01*
X195851009Y-96418570D02*
X196374819Y-96418570D01*
X193880000Y-77370000D02*
X196566420Y-77370000D01*
X193880000Y-124370000D02*
X196566420Y-124370000D01*
X195980000Y-77370000D02*
X195980000Y-95555476D01*
X195980000Y-106424523D02*
X195980000Y-124370000D01*
X195980000Y-77370000D02*
X196566421Y-78496504D01*
X195980000Y-77370000D02*
X195393579Y-78496504D01*
X195980000Y-124370000D02*
X195393579Y-123243496D01*
X195980000Y-124370000D02*
X196566421Y-123243496D01*
%TO.C,H2*%
X148780000Y-119570000D02*
G75*
G03*
X148780000Y-119570000I-2800000J0D01*
G01*
%TO.C,H1*%
X107780000Y-80970000D02*
G75*
G03*
X107780000Y-80970000I-2800000J0D01*
G01*
%TD*%
M02*
