%TF.GenerationSoftware,KiCad,Pcbnew,7.0.8-7.0.8~ubuntu22.04.1*%
%TF.CreationDate,2023-10-08T09:38:23-05:00*%
%TF.ProjectId,crossover_v1,63726f73-736f-4766-9572-5f76312e6b69,v1.0.0*%
%TF.SameCoordinates,Original*%
%TF.FileFunction,AssemblyDrawing,Top*%
%FSLAX46Y46*%
G04 Gerber Fmt 4.6, Leading zero omitted, Abs format (unit mm)*
G04 Created by KiCad (PCBNEW 7.0.8-7.0.8~ubuntu22.04.1) date 2023-10-08 09:38:23*
%MOMM*%
%LPD*%
G01*
G04 APERTURE LIST*
%ADD10C,0.150000*%
%ADD11C,0.129000*%
%ADD12C,0.100000*%
G04 APERTURE END LIST*
D10*
X135161666Y-80424819D02*
X135161666Y-81139104D01*
X135161666Y-81139104D02*
X135114047Y-81281961D01*
X135114047Y-81281961D02*
X135018809Y-81377200D01*
X135018809Y-81377200D02*
X134875952Y-81424819D01*
X134875952Y-81424819D02*
X134780714Y-81424819D01*
X136114047Y-80424819D02*
X135637857Y-80424819D01*
X135637857Y-80424819D02*
X135590238Y-80901009D01*
X135590238Y-80901009D02*
X135637857Y-80853390D01*
X135637857Y-80853390D02*
X135733095Y-80805771D01*
X135733095Y-80805771D02*
X135971190Y-80805771D01*
X135971190Y-80805771D02*
X136066428Y-80853390D01*
X136066428Y-80853390D02*
X136114047Y-80901009D01*
X136114047Y-80901009D02*
X136161666Y-80996247D01*
X136161666Y-80996247D02*
X136161666Y-81234342D01*
X136161666Y-81234342D02*
X136114047Y-81329580D01*
X136114047Y-81329580D02*
X136066428Y-81377200D01*
X136066428Y-81377200D02*
X135971190Y-81424819D01*
X135971190Y-81424819D02*
X135733095Y-81424819D01*
X135733095Y-81424819D02*
X135637857Y-81377200D01*
X135637857Y-81377200D02*
X135590238Y-81329580D01*
D11*
X146514240Y-103593333D02*
X146555193Y-103634285D01*
X146555193Y-103634285D02*
X146596145Y-103757143D01*
X146596145Y-103757143D02*
X146596145Y-103839047D01*
X146596145Y-103839047D02*
X146555193Y-103961904D01*
X146555193Y-103961904D02*
X146473288Y-104043809D01*
X146473288Y-104043809D02*
X146391383Y-104084762D01*
X146391383Y-104084762D02*
X146227573Y-104125714D01*
X146227573Y-104125714D02*
X146104716Y-104125714D01*
X146104716Y-104125714D02*
X145940907Y-104084762D01*
X145940907Y-104084762D02*
X145859002Y-104043809D01*
X145859002Y-104043809D02*
X145777097Y-103961904D01*
X145777097Y-103961904D02*
X145736145Y-103839047D01*
X145736145Y-103839047D02*
X145736145Y-103757143D01*
X145736145Y-103757143D02*
X145777097Y-103634285D01*
X145777097Y-103634285D02*
X145818050Y-103593333D01*
X146022812Y-102856190D02*
X146596145Y-102856190D01*
X145695193Y-103060952D02*
X146309478Y-103265714D01*
X146309478Y-103265714D02*
X146309478Y-102733333D01*
D10*
X165259819Y-94592857D02*
X164783628Y-94926190D01*
X165259819Y-95164285D02*
X164259819Y-95164285D01*
X164259819Y-95164285D02*
X164259819Y-94783333D01*
X164259819Y-94783333D02*
X164307438Y-94688095D01*
X164307438Y-94688095D02*
X164355057Y-94640476D01*
X164355057Y-94640476D02*
X164450295Y-94592857D01*
X164450295Y-94592857D02*
X164593152Y-94592857D01*
X164593152Y-94592857D02*
X164688390Y-94640476D01*
X164688390Y-94640476D02*
X164736009Y-94688095D01*
X164736009Y-94688095D02*
X164783628Y-94783333D01*
X164783628Y-94783333D02*
X164783628Y-95164285D01*
X165259819Y-93640476D02*
X165259819Y-94211904D01*
X165259819Y-93926190D02*
X164259819Y-93926190D01*
X164259819Y-93926190D02*
X164402676Y-94021428D01*
X164402676Y-94021428D02*
X164497914Y-94116666D01*
X164497914Y-94116666D02*
X164545533Y-94211904D01*
X164355057Y-93259523D02*
X164307438Y-93211904D01*
X164307438Y-93211904D02*
X164259819Y-93116666D01*
X164259819Y-93116666D02*
X164259819Y-92878571D01*
X164259819Y-92878571D02*
X164307438Y-92783333D01*
X164307438Y-92783333D02*
X164355057Y-92735714D01*
X164355057Y-92735714D02*
X164450295Y-92688095D01*
X164450295Y-92688095D02*
X164545533Y-92688095D01*
X164545533Y-92688095D02*
X164688390Y-92735714D01*
X164688390Y-92735714D02*
X165259819Y-93307142D01*
X165259819Y-93307142D02*
X165259819Y-92688095D01*
X149228095Y-93614819D02*
X149228095Y-94424342D01*
X149228095Y-94424342D02*
X149275714Y-94519580D01*
X149275714Y-94519580D02*
X149323333Y-94567200D01*
X149323333Y-94567200D02*
X149418571Y-94614819D01*
X149418571Y-94614819D02*
X149609047Y-94614819D01*
X149609047Y-94614819D02*
X149704285Y-94567200D01*
X149704285Y-94567200D02*
X149751904Y-94519580D01*
X149751904Y-94519580D02*
X149799523Y-94424342D01*
X149799523Y-94424342D02*
X149799523Y-93614819D01*
X150228095Y-93710057D02*
X150275714Y-93662438D01*
X150275714Y-93662438D02*
X150370952Y-93614819D01*
X150370952Y-93614819D02*
X150609047Y-93614819D01*
X150609047Y-93614819D02*
X150704285Y-93662438D01*
X150704285Y-93662438D02*
X150751904Y-93710057D01*
X150751904Y-93710057D02*
X150799523Y-93805295D01*
X150799523Y-93805295D02*
X150799523Y-93900533D01*
X150799523Y-93900533D02*
X150751904Y-94043390D01*
X150751904Y-94043390D02*
X150180476Y-94614819D01*
X150180476Y-94614819D02*
X150799523Y-94614819D01*
X161634819Y-94592857D02*
X161158628Y-94926190D01*
X161634819Y-95164285D02*
X160634819Y-95164285D01*
X160634819Y-95164285D02*
X160634819Y-94783333D01*
X160634819Y-94783333D02*
X160682438Y-94688095D01*
X160682438Y-94688095D02*
X160730057Y-94640476D01*
X160730057Y-94640476D02*
X160825295Y-94592857D01*
X160825295Y-94592857D02*
X160968152Y-94592857D01*
X160968152Y-94592857D02*
X161063390Y-94640476D01*
X161063390Y-94640476D02*
X161111009Y-94688095D01*
X161111009Y-94688095D02*
X161158628Y-94783333D01*
X161158628Y-94783333D02*
X161158628Y-95164285D01*
X161634819Y-93640476D02*
X161634819Y-94211904D01*
X161634819Y-93926190D02*
X160634819Y-93926190D01*
X160634819Y-93926190D02*
X160777676Y-94021428D01*
X160777676Y-94021428D02*
X160872914Y-94116666D01*
X160872914Y-94116666D02*
X160920533Y-94211904D01*
X160634819Y-93307142D02*
X160634819Y-92688095D01*
X160634819Y-92688095D02*
X161015771Y-93021428D01*
X161015771Y-93021428D02*
X161015771Y-92878571D01*
X161015771Y-92878571D02*
X161063390Y-92783333D01*
X161063390Y-92783333D02*
X161111009Y-92735714D01*
X161111009Y-92735714D02*
X161206247Y-92688095D01*
X161206247Y-92688095D02*
X161444342Y-92688095D01*
X161444342Y-92688095D02*
X161539580Y-92735714D01*
X161539580Y-92735714D02*
X161587200Y-92783333D01*
X161587200Y-92783333D02*
X161634819Y-92878571D01*
X161634819Y-92878571D02*
X161634819Y-93164285D01*
X161634819Y-93164285D02*
X161587200Y-93259523D01*
X161587200Y-93259523D02*
X161539580Y-93307142D01*
X170634819Y-115736666D02*
X170158628Y-116069999D01*
X170634819Y-116308094D02*
X169634819Y-116308094D01*
X169634819Y-116308094D02*
X169634819Y-115927142D01*
X169634819Y-115927142D02*
X169682438Y-115831904D01*
X169682438Y-115831904D02*
X169730057Y-115784285D01*
X169730057Y-115784285D02*
X169825295Y-115736666D01*
X169825295Y-115736666D02*
X169968152Y-115736666D01*
X169968152Y-115736666D02*
X170063390Y-115784285D01*
X170063390Y-115784285D02*
X170111009Y-115831904D01*
X170111009Y-115831904D02*
X170158628Y-115927142D01*
X170158628Y-115927142D02*
X170158628Y-116308094D01*
X169634819Y-115403332D02*
X169634819Y-114736666D01*
X169634819Y-114736666D02*
X170634819Y-115165237D01*
D11*
X141989240Y-98513333D02*
X142030193Y-98554285D01*
X142030193Y-98554285D02*
X142071145Y-98677143D01*
X142071145Y-98677143D02*
X142071145Y-98759047D01*
X142071145Y-98759047D02*
X142030193Y-98881904D01*
X142030193Y-98881904D02*
X141948288Y-98963809D01*
X141948288Y-98963809D02*
X141866383Y-99004762D01*
X141866383Y-99004762D02*
X141702573Y-99045714D01*
X141702573Y-99045714D02*
X141579716Y-99045714D01*
X141579716Y-99045714D02*
X141415907Y-99004762D01*
X141415907Y-99004762D02*
X141334002Y-98963809D01*
X141334002Y-98963809D02*
X141252097Y-98881904D01*
X141252097Y-98881904D02*
X141211145Y-98759047D01*
X141211145Y-98759047D02*
X141211145Y-98677143D01*
X141211145Y-98677143D02*
X141252097Y-98554285D01*
X141252097Y-98554285D02*
X141293050Y-98513333D01*
X141211145Y-97735238D02*
X141211145Y-98144762D01*
X141211145Y-98144762D02*
X141620669Y-98185714D01*
X141620669Y-98185714D02*
X141579716Y-98144762D01*
X141579716Y-98144762D02*
X141538764Y-98062857D01*
X141538764Y-98062857D02*
X141538764Y-97858095D01*
X141538764Y-97858095D02*
X141579716Y-97776190D01*
X141579716Y-97776190D02*
X141620669Y-97735238D01*
X141620669Y-97735238D02*
X141702573Y-97694285D01*
X141702573Y-97694285D02*
X141907335Y-97694285D01*
X141907335Y-97694285D02*
X141989240Y-97735238D01*
X141989240Y-97735238D02*
X142030193Y-97776190D01*
X142030193Y-97776190D02*
X142071145Y-97858095D01*
X142071145Y-97858095D02*
X142071145Y-98062857D01*
X142071145Y-98062857D02*
X142030193Y-98144762D01*
X142030193Y-98144762D02*
X141989240Y-98185714D01*
D10*
X169059819Y-94592857D02*
X168583628Y-94926190D01*
X169059819Y-95164285D02*
X168059819Y-95164285D01*
X168059819Y-95164285D02*
X168059819Y-94783333D01*
X168059819Y-94783333D02*
X168107438Y-94688095D01*
X168107438Y-94688095D02*
X168155057Y-94640476D01*
X168155057Y-94640476D02*
X168250295Y-94592857D01*
X168250295Y-94592857D02*
X168393152Y-94592857D01*
X168393152Y-94592857D02*
X168488390Y-94640476D01*
X168488390Y-94640476D02*
X168536009Y-94688095D01*
X168536009Y-94688095D02*
X168583628Y-94783333D01*
X168583628Y-94783333D02*
X168583628Y-95164285D01*
X169059819Y-93640476D02*
X169059819Y-94211904D01*
X169059819Y-93926190D02*
X168059819Y-93926190D01*
X168059819Y-93926190D02*
X168202676Y-94021428D01*
X168202676Y-94021428D02*
X168297914Y-94116666D01*
X168297914Y-94116666D02*
X168345533Y-94211904D01*
X169059819Y-92688095D02*
X169059819Y-93259523D01*
X169059819Y-92973809D02*
X168059819Y-92973809D01*
X168059819Y-92973809D02*
X168202676Y-93069047D01*
X168202676Y-93069047D02*
X168297914Y-93164285D01*
X168297914Y-93164285D02*
X168345533Y-93259523D01*
X110013333Y-86624819D02*
X109680000Y-86148628D01*
X109441905Y-86624819D02*
X109441905Y-85624819D01*
X109441905Y-85624819D02*
X109822857Y-85624819D01*
X109822857Y-85624819D02*
X109918095Y-85672438D01*
X109918095Y-85672438D02*
X109965714Y-85720057D01*
X109965714Y-85720057D02*
X110013333Y-85815295D01*
X110013333Y-85815295D02*
X110013333Y-85958152D01*
X110013333Y-85958152D02*
X109965714Y-86053390D01*
X109965714Y-86053390D02*
X109918095Y-86101009D01*
X109918095Y-86101009D02*
X109822857Y-86148628D01*
X109822857Y-86148628D02*
X109441905Y-86148628D01*
X110965714Y-86624819D02*
X110394286Y-86624819D01*
X110680000Y-86624819D02*
X110680000Y-85624819D01*
X110680000Y-85624819D02*
X110584762Y-85767676D01*
X110584762Y-85767676D02*
X110489524Y-85862914D01*
X110489524Y-85862914D02*
X110394286Y-85910533D01*
D11*
X138589240Y-98513333D02*
X138630193Y-98554285D01*
X138630193Y-98554285D02*
X138671145Y-98677143D01*
X138671145Y-98677143D02*
X138671145Y-98759047D01*
X138671145Y-98759047D02*
X138630193Y-98881904D01*
X138630193Y-98881904D02*
X138548288Y-98963809D01*
X138548288Y-98963809D02*
X138466383Y-99004762D01*
X138466383Y-99004762D02*
X138302573Y-99045714D01*
X138302573Y-99045714D02*
X138179716Y-99045714D01*
X138179716Y-99045714D02*
X138015907Y-99004762D01*
X138015907Y-99004762D02*
X137934002Y-98963809D01*
X137934002Y-98963809D02*
X137852097Y-98881904D01*
X137852097Y-98881904D02*
X137811145Y-98759047D01*
X137811145Y-98759047D02*
X137811145Y-98677143D01*
X137811145Y-98677143D02*
X137852097Y-98554285D01*
X137852097Y-98554285D02*
X137893050Y-98513333D01*
X137811145Y-97776190D02*
X137811145Y-97940000D01*
X137811145Y-97940000D02*
X137852097Y-98021904D01*
X137852097Y-98021904D02*
X137893050Y-98062857D01*
X137893050Y-98062857D02*
X138015907Y-98144762D01*
X138015907Y-98144762D02*
X138179716Y-98185714D01*
X138179716Y-98185714D02*
X138507335Y-98185714D01*
X138507335Y-98185714D02*
X138589240Y-98144762D01*
X138589240Y-98144762D02*
X138630193Y-98103809D01*
X138630193Y-98103809D02*
X138671145Y-98021904D01*
X138671145Y-98021904D02*
X138671145Y-97858095D01*
X138671145Y-97858095D02*
X138630193Y-97776190D01*
X138630193Y-97776190D02*
X138589240Y-97735238D01*
X138589240Y-97735238D02*
X138507335Y-97694285D01*
X138507335Y-97694285D02*
X138302573Y-97694285D01*
X138302573Y-97694285D02*
X138220669Y-97735238D01*
X138220669Y-97735238D02*
X138179716Y-97776190D01*
X138179716Y-97776190D02*
X138138764Y-97858095D01*
X138138764Y-97858095D02*
X138138764Y-98021904D01*
X138138764Y-98021904D02*
X138179716Y-98103809D01*
X138179716Y-98103809D02*
X138220669Y-98144762D01*
X138220669Y-98144762D02*
X138302573Y-98185714D01*
D10*
X145518095Y-120024819D02*
X145518095Y-119024819D01*
X145518095Y-119501009D02*
X146089523Y-119501009D01*
X146089523Y-120024819D02*
X146089523Y-119024819D01*
X146518095Y-119120057D02*
X146565714Y-119072438D01*
X146565714Y-119072438D02*
X146660952Y-119024819D01*
X146660952Y-119024819D02*
X146899047Y-119024819D01*
X146899047Y-119024819D02*
X146994285Y-119072438D01*
X146994285Y-119072438D02*
X147041904Y-119120057D01*
X147041904Y-119120057D02*
X147089523Y-119215295D01*
X147089523Y-119215295D02*
X147089523Y-119310533D01*
X147089523Y-119310533D02*
X147041904Y-119453390D01*
X147041904Y-119453390D02*
X146470476Y-120024819D01*
X146470476Y-120024819D02*
X147089523Y-120024819D01*
X134334819Y-101016666D02*
X133858628Y-101349999D01*
X134334819Y-101588094D02*
X133334819Y-101588094D01*
X133334819Y-101588094D02*
X133334819Y-101207142D01*
X133334819Y-101207142D02*
X133382438Y-101111904D01*
X133382438Y-101111904D02*
X133430057Y-101064285D01*
X133430057Y-101064285D02*
X133525295Y-101016666D01*
X133525295Y-101016666D02*
X133668152Y-101016666D01*
X133668152Y-101016666D02*
X133763390Y-101064285D01*
X133763390Y-101064285D02*
X133811009Y-101111904D01*
X133811009Y-101111904D02*
X133858628Y-101207142D01*
X133858628Y-101207142D02*
X133858628Y-101588094D01*
X133763390Y-100445237D02*
X133715771Y-100540475D01*
X133715771Y-100540475D02*
X133668152Y-100588094D01*
X133668152Y-100588094D02*
X133572914Y-100635713D01*
X133572914Y-100635713D02*
X133525295Y-100635713D01*
X133525295Y-100635713D02*
X133430057Y-100588094D01*
X133430057Y-100588094D02*
X133382438Y-100540475D01*
X133382438Y-100540475D02*
X133334819Y-100445237D01*
X133334819Y-100445237D02*
X133334819Y-100254761D01*
X133334819Y-100254761D02*
X133382438Y-100159523D01*
X133382438Y-100159523D02*
X133430057Y-100111904D01*
X133430057Y-100111904D02*
X133525295Y-100064285D01*
X133525295Y-100064285D02*
X133572914Y-100064285D01*
X133572914Y-100064285D02*
X133668152Y-100111904D01*
X133668152Y-100111904D02*
X133715771Y-100159523D01*
X133715771Y-100159523D02*
X133763390Y-100254761D01*
X133763390Y-100254761D02*
X133763390Y-100445237D01*
X133763390Y-100445237D02*
X133811009Y-100540475D01*
X133811009Y-100540475D02*
X133858628Y-100588094D01*
X133858628Y-100588094D02*
X133953866Y-100635713D01*
X133953866Y-100635713D02*
X134144342Y-100635713D01*
X134144342Y-100635713D02*
X134239580Y-100588094D01*
X134239580Y-100588094D02*
X134287200Y-100540475D01*
X134287200Y-100540475D02*
X134334819Y-100445237D01*
X134334819Y-100445237D02*
X134334819Y-100254761D01*
X134334819Y-100254761D02*
X134287200Y-100159523D01*
X134287200Y-100159523D02*
X134239580Y-100111904D01*
X134239580Y-100111904D02*
X134144342Y-100064285D01*
X134144342Y-100064285D02*
X133953866Y-100064285D01*
X133953866Y-100064285D02*
X133858628Y-100111904D01*
X133858628Y-100111904D02*
X133811009Y-100159523D01*
X133811009Y-100159523D02*
X133763390Y-100254761D01*
X182634819Y-118715238D02*
X182158628Y-119048571D01*
X182634819Y-119286666D02*
X181634819Y-119286666D01*
X181634819Y-119286666D02*
X181634819Y-118905714D01*
X181634819Y-118905714D02*
X181682438Y-118810476D01*
X181682438Y-118810476D02*
X181730057Y-118762857D01*
X181730057Y-118762857D02*
X181825295Y-118715238D01*
X181825295Y-118715238D02*
X181968152Y-118715238D01*
X181968152Y-118715238D02*
X182063390Y-118762857D01*
X182063390Y-118762857D02*
X182111009Y-118810476D01*
X182111009Y-118810476D02*
X182158628Y-118905714D01*
X182158628Y-118905714D02*
X182158628Y-119286666D01*
X181634819Y-118429523D02*
X182634819Y-118096190D01*
X182634819Y-118096190D02*
X181634819Y-117762857D01*
X181968152Y-117000952D02*
X182634819Y-117000952D01*
X181587200Y-117239047D02*
X182301485Y-117477142D01*
X182301485Y-117477142D02*
X182301485Y-116858095D01*
X116203095Y-92834819D02*
X116203095Y-93644342D01*
X116203095Y-93644342D02*
X116250714Y-93739580D01*
X116250714Y-93739580D02*
X116298333Y-93787200D01*
X116298333Y-93787200D02*
X116393571Y-93834819D01*
X116393571Y-93834819D02*
X116584047Y-93834819D01*
X116584047Y-93834819D02*
X116679285Y-93787200D01*
X116679285Y-93787200D02*
X116726904Y-93739580D01*
X116726904Y-93739580D02*
X116774523Y-93644342D01*
X116774523Y-93644342D02*
X116774523Y-92834819D01*
X117774523Y-93834819D02*
X117203095Y-93834819D01*
X117488809Y-93834819D02*
X117488809Y-92834819D01*
X117488809Y-92834819D02*
X117393571Y-92977676D01*
X117393571Y-92977676D02*
X117298333Y-93072914D01*
X117298333Y-93072914D02*
X117203095Y-93120533D01*
X113516666Y-80424819D02*
X113516666Y-81139104D01*
X113516666Y-81139104D02*
X113469047Y-81281961D01*
X113469047Y-81281961D02*
X113373809Y-81377200D01*
X113373809Y-81377200D02*
X113230952Y-81424819D01*
X113230952Y-81424819D02*
X113135714Y-81424819D01*
X113897619Y-80424819D02*
X114516666Y-80424819D01*
X114516666Y-80424819D02*
X114183333Y-80805771D01*
X114183333Y-80805771D02*
X114326190Y-80805771D01*
X114326190Y-80805771D02*
X114421428Y-80853390D01*
X114421428Y-80853390D02*
X114469047Y-80901009D01*
X114469047Y-80901009D02*
X114516666Y-80996247D01*
X114516666Y-80996247D02*
X114516666Y-81234342D01*
X114516666Y-81234342D02*
X114469047Y-81329580D01*
X114469047Y-81329580D02*
X114421428Y-81377200D01*
X114421428Y-81377200D02*
X114326190Y-81424819D01*
X114326190Y-81424819D02*
X114040476Y-81424819D01*
X114040476Y-81424819D02*
X113945238Y-81377200D01*
X113945238Y-81377200D02*
X113897619Y-81329580D01*
X130034819Y-98656666D02*
X129558628Y-98989999D01*
X130034819Y-99228094D02*
X129034819Y-99228094D01*
X129034819Y-99228094D02*
X129034819Y-98847142D01*
X129034819Y-98847142D02*
X129082438Y-98751904D01*
X129082438Y-98751904D02*
X129130057Y-98704285D01*
X129130057Y-98704285D02*
X129225295Y-98656666D01*
X129225295Y-98656666D02*
X129368152Y-98656666D01*
X129368152Y-98656666D02*
X129463390Y-98704285D01*
X129463390Y-98704285D02*
X129511009Y-98751904D01*
X129511009Y-98751904D02*
X129558628Y-98847142D01*
X129558628Y-98847142D02*
X129558628Y-99228094D01*
X129368152Y-97799523D02*
X130034819Y-97799523D01*
X128987200Y-98037618D02*
X129701485Y-98275713D01*
X129701485Y-98275713D02*
X129701485Y-97656666D01*
X127493333Y-112624819D02*
X127160000Y-112148628D01*
X126921905Y-112624819D02*
X126921905Y-111624819D01*
X126921905Y-111624819D02*
X127302857Y-111624819D01*
X127302857Y-111624819D02*
X127398095Y-111672438D01*
X127398095Y-111672438D02*
X127445714Y-111720057D01*
X127445714Y-111720057D02*
X127493333Y-111815295D01*
X127493333Y-111815295D02*
X127493333Y-111958152D01*
X127493333Y-111958152D02*
X127445714Y-112053390D01*
X127445714Y-112053390D02*
X127398095Y-112101009D01*
X127398095Y-112101009D02*
X127302857Y-112148628D01*
X127302857Y-112148628D02*
X126921905Y-112148628D01*
X128398095Y-111624819D02*
X127921905Y-111624819D01*
X127921905Y-111624819D02*
X127874286Y-112101009D01*
X127874286Y-112101009D02*
X127921905Y-112053390D01*
X127921905Y-112053390D02*
X128017143Y-112005771D01*
X128017143Y-112005771D02*
X128255238Y-112005771D01*
X128255238Y-112005771D02*
X128350476Y-112053390D01*
X128350476Y-112053390D02*
X128398095Y-112101009D01*
X128398095Y-112101009D02*
X128445714Y-112196247D01*
X128445714Y-112196247D02*
X128445714Y-112434342D01*
X128445714Y-112434342D02*
X128398095Y-112529580D01*
X128398095Y-112529580D02*
X128350476Y-112577200D01*
X128350476Y-112577200D02*
X128255238Y-112624819D01*
X128255238Y-112624819D02*
X128017143Y-112624819D01*
X128017143Y-112624819D02*
X127921905Y-112577200D01*
X127921905Y-112577200D02*
X127874286Y-112529580D01*
X159234819Y-118715238D02*
X158758628Y-119048571D01*
X159234819Y-119286666D02*
X158234819Y-119286666D01*
X158234819Y-119286666D02*
X158234819Y-118905714D01*
X158234819Y-118905714D02*
X158282438Y-118810476D01*
X158282438Y-118810476D02*
X158330057Y-118762857D01*
X158330057Y-118762857D02*
X158425295Y-118715238D01*
X158425295Y-118715238D02*
X158568152Y-118715238D01*
X158568152Y-118715238D02*
X158663390Y-118762857D01*
X158663390Y-118762857D02*
X158711009Y-118810476D01*
X158711009Y-118810476D02*
X158758628Y-118905714D01*
X158758628Y-118905714D02*
X158758628Y-119286666D01*
X158234819Y-118429523D02*
X159234819Y-118096190D01*
X159234819Y-118096190D02*
X158234819Y-117762857D01*
X158234819Y-117524761D02*
X158234819Y-116905714D01*
X158234819Y-116905714D02*
X158615771Y-117239047D01*
X158615771Y-117239047D02*
X158615771Y-117096190D01*
X158615771Y-117096190D02*
X158663390Y-117000952D01*
X158663390Y-117000952D02*
X158711009Y-116953333D01*
X158711009Y-116953333D02*
X158806247Y-116905714D01*
X158806247Y-116905714D02*
X159044342Y-116905714D01*
X159044342Y-116905714D02*
X159139580Y-116953333D01*
X159139580Y-116953333D02*
X159187200Y-117000952D01*
X159187200Y-117000952D02*
X159234819Y-117096190D01*
X159234819Y-117096190D02*
X159234819Y-117381904D01*
X159234819Y-117381904D02*
X159187200Y-117477142D01*
X159187200Y-117477142D02*
X159139580Y-117524761D01*
X109834819Y-94136666D02*
X109358628Y-94469999D01*
X109834819Y-94708094D02*
X108834819Y-94708094D01*
X108834819Y-94708094D02*
X108834819Y-94327142D01*
X108834819Y-94327142D02*
X108882438Y-94231904D01*
X108882438Y-94231904D02*
X108930057Y-94184285D01*
X108930057Y-94184285D02*
X109025295Y-94136666D01*
X109025295Y-94136666D02*
X109168152Y-94136666D01*
X109168152Y-94136666D02*
X109263390Y-94184285D01*
X109263390Y-94184285D02*
X109311009Y-94231904D01*
X109311009Y-94231904D02*
X109358628Y-94327142D01*
X109358628Y-94327142D02*
X109358628Y-94708094D01*
X108930057Y-93755713D02*
X108882438Y-93708094D01*
X108882438Y-93708094D02*
X108834819Y-93612856D01*
X108834819Y-93612856D02*
X108834819Y-93374761D01*
X108834819Y-93374761D02*
X108882438Y-93279523D01*
X108882438Y-93279523D02*
X108930057Y-93231904D01*
X108930057Y-93231904D02*
X109025295Y-93184285D01*
X109025295Y-93184285D02*
X109120533Y-93184285D01*
X109120533Y-93184285D02*
X109263390Y-93231904D01*
X109263390Y-93231904D02*
X109834819Y-93803332D01*
X109834819Y-93803332D02*
X109834819Y-93184285D01*
X112234819Y-118715238D02*
X111758628Y-119048571D01*
X112234819Y-119286666D02*
X111234819Y-119286666D01*
X111234819Y-119286666D02*
X111234819Y-118905714D01*
X111234819Y-118905714D02*
X111282438Y-118810476D01*
X111282438Y-118810476D02*
X111330057Y-118762857D01*
X111330057Y-118762857D02*
X111425295Y-118715238D01*
X111425295Y-118715238D02*
X111568152Y-118715238D01*
X111568152Y-118715238D02*
X111663390Y-118762857D01*
X111663390Y-118762857D02*
X111711009Y-118810476D01*
X111711009Y-118810476D02*
X111758628Y-118905714D01*
X111758628Y-118905714D02*
X111758628Y-119286666D01*
X111234819Y-118429523D02*
X112234819Y-118096190D01*
X112234819Y-118096190D02*
X111234819Y-117762857D01*
X111330057Y-117477142D02*
X111282438Y-117429523D01*
X111282438Y-117429523D02*
X111234819Y-117334285D01*
X111234819Y-117334285D02*
X111234819Y-117096190D01*
X111234819Y-117096190D02*
X111282438Y-117000952D01*
X111282438Y-117000952D02*
X111330057Y-116953333D01*
X111330057Y-116953333D02*
X111425295Y-116905714D01*
X111425295Y-116905714D02*
X111520533Y-116905714D01*
X111520533Y-116905714D02*
X111663390Y-116953333D01*
X111663390Y-116953333D02*
X112234819Y-117524761D01*
X112234819Y-117524761D02*
X112234819Y-116905714D01*
D11*
X106489240Y-96513333D02*
X106530193Y-96554285D01*
X106530193Y-96554285D02*
X106571145Y-96677143D01*
X106571145Y-96677143D02*
X106571145Y-96759047D01*
X106571145Y-96759047D02*
X106530193Y-96881904D01*
X106530193Y-96881904D02*
X106448288Y-96963809D01*
X106448288Y-96963809D02*
X106366383Y-97004762D01*
X106366383Y-97004762D02*
X106202573Y-97045714D01*
X106202573Y-97045714D02*
X106079716Y-97045714D01*
X106079716Y-97045714D02*
X105915907Y-97004762D01*
X105915907Y-97004762D02*
X105834002Y-96963809D01*
X105834002Y-96963809D02*
X105752097Y-96881904D01*
X105752097Y-96881904D02*
X105711145Y-96759047D01*
X105711145Y-96759047D02*
X105711145Y-96677143D01*
X105711145Y-96677143D02*
X105752097Y-96554285D01*
X105752097Y-96554285D02*
X105793050Y-96513333D01*
X106571145Y-95694285D02*
X106571145Y-96185714D01*
X106571145Y-95940000D02*
X105711145Y-95940000D01*
X105711145Y-95940000D02*
X105834002Y-96021904D01*
X105834002Y-96021904D02*
X105915907Y-96103809D01*
X105915907Y-96103809D02*
X105956859Y-96185714D01*
X110727142Y-102079240D02*
X110686190Y-102120193D01*
X110686190Y-102120193D02*
X110563332Y-102161145D01*
X110563332Y-102161145D02*
X110481428Y-102161145D01*
X110481428Y-102161145D02*
X110358571Y-102120193D01*
X110358571Y-102120193D02*
X110276666Y-102038288D01*
X110276666Y-102038288D02*
X110235713Y-101956383D01*
X110235713Y-101956383D02*
X110194761Y-101792573D01*
X110194761Y-101792573D02*
X110194761Y-101669716D01*
X110194761Y-101669716D02*
X110235713Y-101505907D01*
X110235713Y-101505907D02*
X110276666Y-101424002D01*
X110276666Y-101424002D02*
X110358571Y-101342097D01*
X110358571Y-101342097D02*
X110481428Y-101301145D01*
X110481428Y-101301145D02*
X110563332Y-101301145D01*
X110563332Y-101301145D02*
X110686190Y-101342097D01*
X110686190Y-101342097D02*
X110727142Y-101383050D01*
X111546190Y-102161145D02*
X111054761Y-102161145D01*
X111300475Y-102161145D02*
X111300475Y-101301145D01*
X111300475Y-101301145D02*
X111218571Y-101424002D01*
X111218571Y-101424002D02*
X111136666Y-101505907D01*
X111136666Y-101505907D02*
X111054761Y-101546859D01*
X112078571Y-101301145D02*
X112160476Y-101301145D01*
X112160476Y-101301145D02*
X112242380Y-101342097D01*
X112242380Y-101342097D02*
X112283333Y-101383050D01*
X112283333Y-101383050D02*
X112324285Y-101464954D01*
X112324285Y-101464954D02*
X112365238Y-101628764D01*
X112365238Y-101628764D02*
X112365238Y-101833526D01*
X112365238Y-101833526D02*
X112324285Y-101997335D01*
X112324285Y-101997335D02*
X112283333Y-102079240D01*
X112283333Y-102079240D02*
X112242380Y-102120193D01*
X112242380Y-102120193D02*
X112160476Y-102161145D01*
X112160476Y-102161145D02*
X112078571Y-102161145D01*
X112078571Y-102161145D02*
X111996666Y-102120193D01*
X111996666Y-102120193D02*
X111955714Y-102079240D01*
X111955714Y-102079240D02*
X111914761Y-101997335D01*
X111914761Y-101997335D02*
X111873809Y-101833526D01*
X111873809Y-101833526D02*
X111873809Y-101628764D01*
X111873809Y-101628764D02*
X111914761Y-101464954D01*
X111914761Y-101464954D02*
X111955714Y-101383050D01*
X111955714Y-101383050D02*
X111996666Y-101342097D01*
X111996666Y-101342097D02*
X112078571Y-101301145D01*
D10*
X158034819Y-94592857D02*
X157558628Y-94926190D01*
X158034819Y-95164285D02*
X157034819Y-95164285D01*
X157034819Y-95164285D02*
X157034819Y-94783333D01*
X157034819Y-94783333D02*
X157082438Y-94688095D01*
X157082438Y-94688095D02*
X157130057Y-94640476D01*
X157130057Y-94640476D02*
X157225295Y-94592857D01*
X157225295Y-94592857D02*
X157368152Y-94592857D01*
X157368152Y-94592857D02*
X157463390Y-94640476D01*
X157463390Y-94640476D02*
X157511009Y-94688095D01*
X157511009Y-94688095D02*
X157558628Y-94783333D01*
X157558628Y-94783333D02*
X157558628Y-95164285D01*
X158034819Y-93640476D02*
X158034819Y-94211904D01*
X158034819Y-93926190D02*
X157034819Y-93926190D01*
X157034819Y-93926190D02*
X157177676Y-94021428D01*
X157177676Y-94021428D02*
X157272914Y-94116666D01*
X157272914Y-94116666D02*
X157320533Y-94211904D01*
X157368152Y-92783333D02*
X158034819Y-92783333D01*
X156987200Y-93021428D02*
X157701485Y-93259523D01*
X157701485Y-93259523D02*
X157701485Y-92640476D01*
D11*
X167636666Y-101979240D02*
X167595714Y-102020193D01*
X167595714Y-102020193D02*
X167472856Y-102061145D01*
X167472856Y-102061145D02*
X167390952Y-102061145D01*
X167390952Y-102061145D02*
X167268095Y-102020193D01*
X167268095Y-102020193D02*
X167186190Y-101938288D01*
X167186190Y-101938288D02*
X167145237Y-101856383D01*
X167145237Y-101856383D02*
X167104285Y-101692573D01*
X167104285Y-101692573D02*
X167104285Y-101569716D01*
X167104285Y-101569716D02*
X167145237Y-101405907D01*
X167145237Y-101405907D02*
X167186190Y-101324002D01*
X167186190Y-101324002D02*
X167268095Y-101242097D01*
X167268095Y-101242097D02*
X167390952Y-101201145D01*
X167390952Y-101201145D02*
X167472856Y-101201145D01*
X167472856Y-101201145D02*
X167595714Y-101242097D01*
X167595714Y-101242097D02*
X167636666Y-101283050D01*
X168128095Y-101569716D02*
X168046190Y-101528764D01*
X168046190Y-101528764D02*
X168005237Y-101487812D01*
X168005237Y-101487812D02*
X167964285Y-101405907D01*
X167964285Y-101405907D02*
X167964285Y-101364954D01*
X167964285Y-101364954D02*
X168005237Y-101283050D01*
X168005237Y-101283050D02*
X168046190Y-101242097D01*
X168046190Y-101242097D02*
X168128095Y-101201145D01*
X168128095Y-101201145D02*
X168291904Y-101201145D01*
X168291904Y-101201145D02*
X168373809Y-101242097D01*
X168373809Y-101242097D02*
X168414761Y-101283050D01*
X168414761Y-101283050D02*
X168455714Y-101364954D01*
X168455714Y-101364954D02*
X168455714Y-101405907D01*
X168455714Y-101405907D02*
X168414761Y-101487812D01*
X168414761Y-101487812D02*
X168373809Y-101528764D01*
X168373809Y-101528764D02*
X168291904Y-101569716D01*
X168291904Y-101569716D02*
X168128095Y-101569716D01*
X168128095Y-101569716D02*
X168046190Y-101610669D01*
X168046190Y-101610669D02*
X168005237Y-101651621D01*
X168005237Y-101651621D02*
X167964285Y-101733526D01*
X167964285Y-101733526D02*
X167964285Y-101897335D01*
X167964285Y-101897335D02*
X168005237Y-101979240D01*
X168005237Y-101979240D02*
X168046190Y-102020193D01*
X168046190Y-102020193D02*
X168128095Y-102061145D01*
X168128095Y-102061145D02*
X168291904Y-102061145D01*
X168291904Y-102061145D02*
X168373809Y-102020193D01*
X168373809Y-102020193D02*
X168414761Y-101979240D01*
X168414761Y-101979240D02*
X168455714Y-101897335D01*
X168455714Y-101897335D02*
X168455714Y-101733526D01*
X168455714Y-101733526D02*
X168414761Y-101651621D01*
X168414761Y-101651621D02*
X168373809Y-101610669D01*
X168373809Y-101610669D02*
X168291904Y-101569716D01*
D10*
X104518095Y-81424819D02*
X104518095Y-80424819D01*
X104518095Y-80901009D02*
X105089523Y-80901009D01*
X105089523Y-81424819D02*
X105089523Y-80424819D01*
X106089523Y-81424819D02*
X105518095Y-81424819D01*
X105803809Y-81424819D02*
X105803809Y-80424819D01*
X105803809Y-80424819D02*
X105708571Y-80567676D01*
X105708571Y-80567676D02*
X105613333Y-80662914D01*
X105613333Y-80662914D02*
X105518095Y-80710533D01*
X122786666Y-81424819D02*
X122786666Y-82139104D01*
X122786666Y-82139104D02*
X122739047Y-82281961D01*
X122739047Y-82281961D02*
X122643809Y-82377200D01*
X122643809Y-82377200D02*
X122500952Y-82424819D01*
X122500952Y-82424819D02*
X122405714Y-82424819D01*
X123786666Y-82424819D02*
X123215238Y-82424819D01*
X123500952Y-82424819D02*
X123500952Y-81424819D01*
X123500952Y-81424819D02*
X123405714Y-81567676D01*
X123405714Y-81567676D02*
X123310476Y-81662914D01*
X123310476Y-81662914D02*
X123215238Y-81710533D01*
D11*
X155236666Y-86479240D02*
X155195714Y-86520193D01*
X155195714Y-86520193D02*
X155072856Y-86561145D01*
X155072856Y-86561145D02*
X154990952Y-86561145D01*
X154990952Y-86561145D02*
X154868095Y-86520193D01*
X154868095Y-86520193D02*
X154786190Y-86438288D01*
X154786190Y-86438288D02*
X154745237Y-86356383D01*
X154745237Y-86356383D02*
X154704285Y-86192573D01*
X154704285Y-86192573D02*
X154704285Y-86069716D01*
X154704285Y-86069716D02*
X154745237Y-85905907D01*
X154745237Y-85905907D02*
X154786190Y-85824002D01*
X154786190Y-85824002D02*
X154868095Y-85742097D01*
X154868095Y-85742097D02*
X154990952Y-85701145D01*
X154990952Y-85701145D02*
X155072856Y-85701145D01*
X155072856Y-85701145D02*
X155195714Y-85742097D01*
X155195714Y-85742097D02*
X155236666Y-85783050D01*
X155523333Y-85701145D02*
X156055714Y-85701145D01*
X156055714Y-85701145D02*
X155769047Y-86028764D01*
X155769047Y-86028764D02*
X155891904Y-86028764D01*
X155891904Y-86028764D02*
X155973809Y-86069716D01*
X155973809Y-86069716D02*
X156014761Y-86110669D01*
X156014761Y-86110669D02*
X156055714Y-86192573D01*
X156055714Y-86192573D02*
X156055714Y-86397335D01*
X156055714Y-86397335D02*
X156014761Y-86479240D01*
X156014761Y-86479240D02*
X155973809Y-86520193D01*
X155973809Y-86520193D02*
X155891904Y-86561145D01*
X155891904Y-86561145D02*
X155646190Y-86561145D01*
X155646190Y-86561145D02*
X155564285Y-86520193D01*
X155564285Y-86520193D02*
X155523333Y-86479240D01*
X120236666Y-86379240D02*
X120195714Y-86420193D01*
X120195714Y-86420193D02*
X120072856Y-86461145D01*
X120072856Y-86461145D02*
X119990952Y-86461145D01*
X119990952Y-86461145D02*
X119868095Y-86420193D01*
X119868095Y-86420193D02*
X119786190Y-86338288D01*
X119786190Y-86338288D02*
X119745237Y-86256383D01*
X119745237Y-86256383D02*
X119704285Y-86092573D01*
X119704285Y-86092573D02*
X119704285Y-85969716D01*
X119704285Y-85969716D02*
X119745237Y-85805907D01*
X119745237Y-85805907D02*
X119786190Y-85724002D01*
X119786190Y-85724002D02*
X119868095Y-85642097D01*
X119868095Y-85642097D02*
X119990952Y-85601145D01*
X119990952Y-85601145D02*
X120072856Y-85601145D01*
X120072856Y-85601145D02*
X120195714Y-85642097D01*
X120195714Y-85642097D02*
X120236666Y-85683050D01*
X120646190Y-86461145D02*
X120809999Y-86461145D01*
X120809999Y-86461145D02*
X120891904Y-86420193D01*
X120891904Y-86420193D02*
X120932856Y-86379240D01*
X120932856Y-86379240D02*
X121014761Y-86256383D01*
X121014761Y-86256383D02*
X121055714Y-86092573D01*
X121055714Y-86092573D02*
X121055714Y-85764954D01*
X121055714Y-85764954D02*
X121014761Y-85683050D01*
X121014761Y-85683050D02*
X120973809Y-85642097D01*
X120973809Y-85642097D02*
X120891904Y-85601145D01*
X120891904Y-85601145D02*
X120728095Y-85601145D01*
X120728095Y-85601145D02*
X120646190Y-85642097D01*
X120646190Y-85642097D02*
X120605237Y-85683050D01*
X120605237Y-85683050D02*
X120564285Y-85764954D01*
X120564285Y-85764954D02*
X120564285Y-85969716D01*
X120564285Y-85969716D02*
X120605237Y-86051621D01*
X120605237Y-86051621D02*
X120646190Y-86092573D01*
X120646190Y-86092573D02*
X120728095Y-86133526D01*
X120728095Y-86133526D02*
X120891904Y-86133526D01*
X120891904Y-86133526D02*
X120973809Y-86092573D01*
X120973809Y-86092573D02*
X121014761Y-86051621D01*
X121014761Y-86051621D02*
X121055714Y-85969716D01*
X159461666Y-102059240D02*
X159420714Y-102100193D01*
X159420714Y-102100193D02*
X159297856Y-102141145D01*
X159297856Y-102141145D02*
X159215952Y-102141145D01*
X159215952Y-102141145D02*
X159093095Y-102100193D01*
X159093095Y-102100193D02*
X159011190Y-102018288D01*
X159011190Y-102018288D02*
X158970237Y-101936383D01*
X158970237Y-101936383D02*
X158929285Y-101772573D01*
X158929285Y-101772573D02*
X158929285Y-101649716D01*
X158929285Y-101649716D02*
X158970237Y-101485907D01*
X158970237Y-101485907D02*
X159011190Y-101404002D01*
X159011190Y-101404002D02*
X159093095Y-101322097D01*
X159093095Y-101322097D02*
X159215952Y-101281145D01*
X159215952Y-101281145D02*
X159297856Y-101281145D01*
X159297856Y-101281145D02*
X159420714Y-101322097D01*
X159420714Y-101322097D02*
X159461666Y-101363050D01*
X159748333Y-101281145D02*
X160321666Y-101281145D01*
X160321666Y-101281145D02*
X159953095Y-102141145D01*
X116689240Y-103013333D02*
X116730193Y-103054285D01*
X116730193Y-103054285D02*
X116771145Y-103177143D01*
X116771145Y-103177143D02*
X116771145Y-103259047D01*
X116771145Y-103259047D02*
X116730193Y-103381904D01*
X116730193Y-103381904D02*
X116648288Y-103463809D01*
X116648288Y-103463809D02*
X116566383Y-103504762D01*
X116566383Y-103504762D02*
X116402573Y-103545714D01*
X116402573Y-103545714D02*
X116279716Y-103545714D01*
X116279716Y-103545714D02*
X116115907Y-103504762D01*
X116115907Y-103504762D02*
X116034002Y-103463809D01*
X116034002Y-103463809D02*
X115952097Y-103381904D01*
X115952097Y-103381904D02*
X115911145Y-103259047D01*
X115911145Y-103259047D02*
X115911145Y-103177143D01*
X115911145Y-103177143D02*
X115952097Y-103054285D01*
X115952097Y-103054285D02*
X115993050Y-103013333D01*
X115993050Y-102685714D02*
X115952097Y-102644762D01*
X115952097Y-102644762D02*
X115911145Y-102562857D01*
X115911145Y-102562857D02*
X115911145Y-102358095D01*
X115911145Y-102358095D02*
X115952097Y-102276190D01*
X115952097Y-102276190D02*
X115993050Y-102235238D01*
X115993050Y-102235238D02*
X116074954Y-102194285D01*
X116074954Y-102194285D02*
X116156859Y-102194285D01*
X116156859Y-102194285D02*
X116279716Y-102235238D01*
X116279716Y-102235238D02*
X116771145Y-102726666D01*
X116771145Y-102726666D02*
X116771145Y-102194285D01*
D10*
X126434819Y-98656666D02*
X125958628Y-98989999D01*
X126434819Y-99228094D02*
X125434819Y-99228094D01*
X125434819Y-99228094D02*
X125434819Y-98847142D01*
X125434819Y-98847142D02*
X125482438Y-98751904D01*
X125482438Y-98751904D02*
X125530057Y-98704285D01*
X125530057Y-98704285D02*
X125625295Y-98656666D01*
X125625295Y-98656666D02*
X125768152Y-98656666D01*
X125768152Y-98656666D02*
X125863390Y-98704285D01*
X125863390Y-98704285D02*
X125911009Y-98751904D01*
X125911009Y-98751904D02*
X125958628Y-98847142D01*
X125958628Y-98847142D02*
X125958628Y-99228094D01*
X125434819Y-98323332D02*
X125434819Y-97704285D01*
X125434819Y-97704285D02*
X125815771Y-98037618D01*
X125815771Y-98037618D02*
X125815771Y-97894761D01*
X125815771Y-97894761D02*
X125863390Y-97799523D01*
X125863390Y-97799523D02*
X125911009Y-97751904D01*
X125911009Y-97751904D02*
X126006247Y-97704285D01*
X126006247Y-97704285D02*
X126244342Y-97704285D01*
X126244342Y-97704285D02*
X126339580Y-97751904D01*
X126339580Y-97751904D02*
X126387200Y-97799523D01*
X126387200Y-97799523D02*
X126434819Y-97894761D01*
X126434819Y-97894761D02*
X126434819Y-98180475D01*
X126434819Y-98180475D02*
X126387200Y-98275713D01*
X126387200Y-98275713D02*
X126339580Y-98323332D01*
X137562142Y-93004819D02*
X137228809Y-92528628D01*
X136990714Y-93004819D02*
X136990714Y-92004819D01*
X136990714Y-92004819D02*
X137371666Y-92004819D01*
X137371666Y-92004819D02*
X137466904Y-92052438D01*
X137466904Y-92052438D02*
X137514523Y-92100057D01*
X137514523Y-92100057D02*
X137562142Y-92195295D01*
X137562142Y-92195295D02*
X137562142Y-92338152D01*
X137562142Y-92338152D02*
X137514523Y-92433390D01*
X137514523Y-92433390D02*
X137466904Y-92481009D01*
X137466904Y-92481009D02*
X137371666Y-92528628D01*
X137371666Y-92528628D02*
X136990714Y-92528628D01*
X138514523Y-93004819D02*
X137943095Y-93004819D01*
X138228809Y-93004819D02*
X138228809Y-92004819D01*
X138228809Y-92004819D02*
X138133571Y-92147676D01*
X138133571Y-92147676D02*
X138038333Y-92242914D01*
X138038333Y-92242914D02*
X137943095Y-92290533D01*
X139133571Y-92004819D02*
X139228809Y-92004819D01*
X139228809Y-92004819D02*
X139324047Y-92052438D01*
X139324047Y-92052438D02*
X139371666Y-92100057D01*
X139371666Y-92100057D02*
X139419285Y-92195295D01*
X139419285Y-92195295D02*
X139466904Y-92385771D01*
X139466904Y-92385771D02*
X139466904Y-92623866D01*
X139466904Y-92623866D02*
X139419285Y-92814342D01*
X139419285Y-92814342D02*
X139371666Y-92909580D01*
X139371666Y-92909580D02*
X139324047Y-92957200D01*
X139324047Y-92957200D02*
X139228809Y-93004819D01*
X139228809Y-93004819D02*
X139133571Y-93004819D01*
X139133571Y-93004819D02*
X139038333Y-92957200D01*
X139038333Y-92957200D02*
X138990714Y-92909580D01*
X138990714Y-92909580D02*
X138943095Y-92814342D01*
X138943095Y-92814342D02*
X138895476Y-92623866D01*
X138895476Y-92623866D02*
X138895476Y-92385771D01*
X138895476Y-92385771D02*
X138943095Y-92195295D01*
X138943095Y-92195295D02*
X138990714Y-92100057D01*
X138990714Y-92100057D02*
X139038333Y-92052438D01*
X139038333Y-92052438D02*
X139133571Y-92004819D01*
X138038333Y-89604819D02*
X137705000Y-89128628D01*
X137466905Y-89604819D02*
X137466905Y-88604819D01*
X137466905Y-88604819D02*
X137847857Y-88604819D01*
X137847857Y-88604819D02*
X137943095Y-88652438D01*
X137943095Y-88652438D02*
X137990714Y-88700057D01*
X137990714Y-88700057D02*
X138038333Y-88795295D01*
X138038333Y-88795295D02*
X138038333Y-88938152D01*
X138038333Y-88938152D02*
X137990714Y-89033390D01*
X137990714Y-89033390D02*
X137943095Y-89081009D01*
X137943095Y-89081009D02*
X137847857Y-89128628D01*
X137847857Y-89128628D02*
X137466905Y-89128628D01*
X138514524Y-89604819D02*
X138705000Y-89604819D01*
X138705000Y-89604819D02*
X138800238Y-89557200D01*
X138800238Y-89557200D02*
X138847857Y-89509580D01*
X138847857Y-89509580D02*
X138943095Y-89366723D01*
X138943095Y-89366723D02*
X138990714Y-89176247D01*
X138990714Y-89176247D02*
X138990714Y-88795295D01*
X138990714Y-88795295D02*
X138943095Y-88700057D01*
X138943095Y-88700057D02*
X138895476Y-88652438D01*
X138895476Y-88652438D02*
X138800238Y-88604819D01*
X138800238Y-88604819D02*
X138609762Y-88604819D01*
X138609762Y-88604819D02*
X138514524Y-88652438D01*
X138514524Y-88652438D02*
X138466905Y-88700057D01*
X138466905Y-88700057D02*
X138419286Y-88795295D01*
X138419286Y-88795295D02*
X138419286Y-89033390D01*
X138419286Y-89033390D02*
X138466905Y-89128628D01*
X138466905Y-89128628D02*
X138514524Y-89176247D01*
X138514524Y-89176247D02*
X138609762Y-89223866D01*
X138609762Y-89223866D02*
X138800238Y-89223866D01*
X138800238Y-89223866D02*
X138895476Y-89176247D01*
X138895476Y-89176247D02*
X138943095Y-89128628D01*
X138943095Y-89128628D02*
X138990714Y-89033390D01*
X133234819Y-119315238D02*
X132758628Y-119648571D01*
X133234819Y-119886666D02*
X132234819Y-119886666D01*
X132234819Y-119886666D02*
X132234819Y-119505714D01*
X132234819Y-119505714D02*
X132282438Y-119410476D01*
X132282438Y-119410476D02*
X132330057Y-119362857D01*
X132330057Y-119362857D02*
X132425295Y-119315238D01*
X132425295Y-119315238D02*
X132568152Y-119315238D01*
X132568152Y-119315238D02*
X132663390Y-119362857D01*
X132663390Y-119362857D02*
X132711009Y-119410476D01*
X132711009Y-119410476D02*
X132758628Y-119505714D01*
X132758628Y-119505714D02*
X132758628Y-119886666D01*
X132234819Y-119029523D02*
X133234819Y-118696190D01*
X133234819Y-118696190D02*
X132234819Y-118362857D01*
X133234819Y-117505714D02*
X133234819Y-118077142D01*
X133234819Y-117791428D02*
X132234819Y-117791428D01*
X132234819Y-117791428D02*
X132377676Y-117886666D01*
X132377676Y-117886666D02*
X132472914Y-117981904D01*
X132472914Y-117981904D02*
X132520533Y-118077142D01*
X174634819Y-92513333D02*
X175349104Y-92513333D01*
X175349104Y-92513333D02*
X175491961Y-92560952D01*
X175491961Y-92560952D02*
X175587200Y-92656190D01*
X175587200Y-92656190D02*
X175634819Y-92799047D01*
X175634819Y-92799047D02*
X175634819Y-92894285D01*
X174968152Y-91608571D02*
X175634819Y-91608571D01*
X174587200Y-91846666D02*
X175301485Y-92084761D01*
X175301485Y-92084761D02*
X175301485Y-91465714D01*
X108493333Y-105624819D02*
X108160000Y-105148628D01*
X107921905Y-105624819D02*
X107921905Y-104624819D01*
X107921905Y-104624819D02*
X108302857Y-104624819D01*
X108302857Y-104624819D02*
X108398095Y-104672438D01*
X108398095Y-104672438D02*
X108445714Y-104720057D01*
X108445714Y-104720057D02*
X108493333Y-104815295D01*
X108493333Y-104815295D02*
X108493333Y-104958152D01*
X108493333Y-104958152D02*
X108445714Y-105053390D01*
X108445714Y-105053390D02*
X108398095Y-105101009D01*
X108398095Y-105101009D02*
X108302857Y-105148628D01*
X108302857Y-105148628D02*
X107921905Y-105148628D01*
X109350476Y-104624819D02*
X109160000Y-104624819D01*
X109160000Y-104624819D02*
X109064762Y-104672438D01*
X109064762Y-104672438D02*
X109017143Y-104720057D01*
X109017143Y-104720057D02*
X108921905Y-104862914D01*
X108921905Y-104862914D02*
X108874286Y-105053390D01*
X108874286Y-105053390D02*
X108874286Y-105434342D01*
X108874286Y-105434342D02*
X108921905Y-105529580D01*
X108921905Y-105529580D02*
X108969524Y-105577200D01*
X108969524Y-105577200D02*
X109064762Y-105624819D01*
X109064762Y-105624819D02*
X109255238Y-105624819D01*
X109255238Y-105624819D02*
X109350476Y-105577200D01*
X109350476Y-105577200D02*
X109398095Y-105529580D01*
X109398095Y-105529580D02*
X109445714Y-105434342D01*
X109445714Y-105434342D02*
X109445714Y-105196247D01*
X109445714Y-105196247D02*
X109398095Y-105101009D01*
X109398095Y-105101009D02*
X109350476Y-105053390D01*
X109350476Y-105053390D02*
X109255238Y-105005771D01*
X109255238Y-105005771D02*
X109064762Y-105005771D01*
X109064762Y-105005771D02*
X108969524Y-105053390D01*
X108969524Y-105053390D02*
X108921905Y-105101009D01*
X108921905Y-105101009D02*
X108874286Y-105196247D01*
D12*
%TO.C,J5*%
X132320000Y-82240000D02*
X131685000Y-81605000D01*
X139305000Y-82240000D02*
X132320000Y-82240000D01*
X131685000Y-81605000D02*
X131685000Y-79700000D01*
X131685000Y-79700000D02*
X139305000Y-79700000D01*
X139305000Y-79700000D02*
X139305000Y-82240000D01*
%TO.C,C4*%
X147155000Y-101300000D02*
X145255000Y-101300000D01*
X145255000Y-101300000D02*
X145255000Y-105600000D01*
X147155000Y-105600000D02*
X147155000Y-101300000D01*
X145255000Y-105600000D02*
X147155000Y-105600000D01*
%TO.C,R12*%
X164805000Y-88870000D02*
X164805000Y-90800000D01*
X166055000Y-90800000D02*
X163555000Y-90800000D01*
X163555000Y-90800000D02*
X163555000Y-97100000D01*
X166055000Y-97100000D02*
X166055000Y-90800000D01*
X163555000Y-97100000D02*
X166055000Y-97100000D01*
X164805000Y-99030000D02*
X164805000Y-97100000D01*
%TO.C,U2*%
X146815000Y-90080000D02*
X147815000Y-89080000D01*
X146815000Y-99240000D02*
X146815000Y-90080000D01*
X147815000Y-89080000D02*
X153165000Y-89080000D01*
X153165000Y-89080000D02*
X153165000Y-99240000D01*
X153165000Y-99240000D02*
X146815000Y-99240000D01*
%TO.C,R13*%
X161180000Y-99030000D02*
X161180000Y-97100000D01*
X159930000Y-97100000D02*
X162430000Y-97100000D01*
X162430000Y-97100000D02*
X162430000Y-90800000D01*
X159930000Y-90800000D02*
X159930000Y-97100000D01*
X162430000Y-90800000D02*
X159930000Y-90800000D01*
X161180000Y-88870000D02*
X161180000Y-90800000D01*
%TO.C,R7*%
X170180000Y-110490000D02*
X170180000Y-112420000D01*
X171430000Y-112420000D02*
X168930000Y-112420000D01*
X168930000Y-112420000D02*
X168930000Y-118720000D01*
X171430000Y-118720000D02*
X171430000Y-112420000D01*
X168930000Y-118720000D02*
X171430000Y-118720000D01*
X170180000Y-120650000D02*
X170180000Y-118720000D01*
%TO.C,C5*%
X142630000Y-96220000D02*
X140730000Y-96220000D01*
X140730000Y-96220000D02*
X140730000Y-100520000D01*
X142630000Y-100520000D02*
X142630000Y-96220000D01*
X140730000Y-100520000D02*
X142630000Y-100520000D01*
%TO.C,R11*%
X168605000Y-99030000D02*
X168605000Y-97100000D01*
X167355000Y-97100000D02*
X169855000Y-97100000D01*
X169855000Y-97100000D02*
X169855000Y-90800000D01*
X167355000Y-90800000D02*
X167355000Y-97100000D01*
X169855000Y-90800000D02*
X167355000Y-90800000D01*
X168605000Y-88870000D02*
X168605000Y-90800000D01*
%TO.C,R1*%
X115260000Y-86170000D02*
X113330000Y-86170000D01*
X113330000Y-87420000D02*
X113330000Y-84920000D01*
X113330000Y-84920000D02*
X107030000Y-84920000D01*
X107030000Y-87420000D02*
X113330000Y-87420000D01*
X107030000Y-84920000D02*
X107030000Y-87420000D01*
X105100000Y-86170000D02*
X107030000Y-86170000D01*
%TO.C,C6*%
X137330000Y-100520000D02*
X139230000Y-100520000D01*
X139230000Y-100520000D02*
X139230000Y-96220000D01*
X137330000Y-96220000D02*
X137330000Y-100520000D01*
X139230000Y-96220000D02*
X137330000Y-96220000D01*
%TO.C,R8*%
X133880000Y-95770000D02*
X133880000Y-97700000D01*
X135130000Y-97700000D02*
X132630000Y-97700000D01*
X132630000Y-97700000D02*
X132630000Y-104000000D01*
X135130000Y-104000000D02*
X135130000Y-97700000D01*
X132630000Y-104000000D02*
X135130000Y-104000000D01*
X133880000Y-105930000D02*
X133880000Y-104000000D01*
%TO.C,RV4*%
X191130000Y-112070000D02*
X173230000Y-112070000D01*
X173230000Y-112070000D02*
X173230000Y-124170000D01*
X191130000Y-124170000D02*
X191130000Y-112070000D01*
X185680000Y-124170000D02*
X178680000Y-124170000D01*
X178680000Y-124170000D02*
X178680000Y-131170000D01*
X173230000Y-124170000D02*
X191130000Y-124170000D01*
X185680000Y-131170000D02*
X185680000Y-124170000D01*
X185180000Y-131170000D02*
X179180000Y-131170000D01*
X179180000Y-131170000D02*
X179180000Y-141170000D01*
X178680000Y-131170000D02*
X185680000Y-131170000D01*
X185180000Y-141170000D02*
X185180000Y-131170000D01*
X179180000Y-141170000D02*
X185180000Y-141170000D01*
%TO.C,U1*%
X113790000Y-89300000D02*
X114790000Y-88300000D01*
X113790000Y-98460000D02*
X113790000Y-89300000D01*
X114790000Y-88300000D02*
X120140000Y-88300000D01*
X120140000Y-88300000D02*
X120140000Y-98460000D01*
X120140000Y-98460000D02*
X113790000Y-98460000D01*
%TO.C,J3*%
X111945000Y-82240000D02*
X111310000Y-81605000D01*
X116390000Y-82240000D02*
X111945000Y-82240000D01*
X111310000Y-81605000D02*
X111310000Y-79700000D01*
X111310000Y-79700000D02*
X116390000Y-79700000D01*
X116390000Y-79700000D02*
X116390000Y-82240000D01*
%TO.C,R4*%
X129580000Y-103570000D02*
X129580000Y-101640000D01*
X128330000Y-101640000D02*
X130830000Y-101640000D01*
X130830000Y-101640000D02*
X130830000Y-95340000D01*
X128330000Y-95340000D02*
X128330000Y-101640000D01*
X130830000Y-95340000D02*
X128330000Y-95340000D01*
X129580000Y-93410000D02*
X129580000Y-95340000D01*
%TO.C,R5*%
X122580000Y-112170000D02*
X124510000Y-112170000D01*
X124510000Y-110920000D02*
X124510000Y-113420000D01*
X124510000Y-113420000D02*
X130810000Y-113420000D01*
X130810000Y-110920000D02*
X124510000Y-110920000D01*
X130810000Y-113420000D02*
X130810000Y-110920000D01*
X132740000Y-112170000D02*
X130810000Y-112170000D01*
%TO.C,RV3*%
X167730000Y-112070000D02*
X149830000Y-112070000D01*
X149830000Y-112070000D02*
X149830000Y-124170000D01*
X167730000Y-124170000D02*
X167730000Y-112070000D01*
X162280000Y-124170000D02*
X155280000Y-124170000D01*
X155280000Y-124170000D02*
X155280000Y-131170000D01*
X149830000Y-124170000D02*
X167730000Y-124170000D01*
X162280000Y-131170000D02*
X162280000Y-124170000D01*
X161780000Y-131170000D02*
X155780000Y-131170000D01*
X155780000Y-131170000D02*
X155780000Y-141170000D01*
X155280000Y-131170000D02*
X162280000Y-131170000D01*
X161780000Y-141170000D02*
X161780000Y-131170000D01*
X155780000Y-141170000D02*
X161780000Y-141170000D01*
%TO.C,R2*%
X109380000Y-88890000D02*
X109380000Y-90820000D01*
X110630000Y-90820000D02*
X108130000Y-90820000D01*
X108130000Y-90820000D02*
X108130000Y-97120000D01*
X110630000Y-97120000D02*
X110630000Y-90820000D01*
X108130000Y-97120000D02*
X110630000Y-97120000D01*
X109380000Y-99050000D02*
X109380000Y-97120000D01*
%TO.C,RV2*%
X120730000Y-112070000D02*
X102830000Y-112070000D01*
X102830000Y-112070000D02*
X102830000Y-124170000D01*
X120730000Y-124170000D02*
X120730000Y-112070000D01*
X115280000Y-124170000D02*
X108280000Y-124170000D01*
X108280000Y-124170000D02*
X108280000Y-131170000D01*
X102830000Y-124170000D02*
X120730000Y-124170000D01*
X115280000Y-131170000D02*
X115280000Y-124170000D01*
X114780000Y-131170000D02*
X108780000Y-131170000D01*
X108780000Y-131170000D02*
X108780000Y-141170000D01*
X108280000Y-131170000D02*
X115280000Y-131170000D01*
X114780000Y-141170000D02*
X114780000Y-131170000D01*
X108780000Y-141170000D02*
X114780000Y-141170000D01*
%TO.C,C1*%
X107130000Y-94220000D02*
X105230000Y-94220000D01*
X105230000Y-94220000D02*
X105230000Y-98520000D01*
X107130000Y-98520000D02*
X107130000Y-94220000D01*
X105230000Y-98520000D02*
X107130000Y-98520000D01*
%TO.C,C10*%
X113430000Y-102720000D02*
X113430000Y-100820000D01*
X113430000Y-100820000D02*
X109130000Y-100820000D01*
X109130000Y-102720000D02*
X113430000Y-102720000D01*
X109130000Y-100820000D02*
X109130000Y-102720000D01*
%TO.C,R14*%
X157580000Y-88870000D02*
X157580000Y-90800000D01*
X158830000Y-90800000D02*
X156330000Y-90800000D01*
X156330000Y-90800000D02*
X156330000Y-97100000D01*
X158830000Y-97100000D02*
X158830000Y-90800000D01*
X156330000Y-97100000D02*
X158830000Y-97100000D01*
X157580000Y-99030000D02*
X157580000Y-97100000D01*
%TO.C,C8*%
X165630000Y-100720000D02*
X165630000Y-102620000D01*
X165630000Y-102620000D02*
X169930000Y-102620000D01*
X169930000Y-100720000D02*
X165630000Y-100720000D01*
X169930000Y-102620000D02*
X169930000Y-100720000D01*
%TO.C,J1*%
X119945000Y-83240000D02*
X119310000Y-82605000D01*
X126930000Y-83240000D02*
X119945000Y-83240000D01*
X119310000Y-82605000D02*
X119310000Y-80700000D01*
X119310000Y-80700000D02*
X126930000Y-80700000D01*
X126930000Y-80700000D02*
X126930000Y-83240000D01*
%TO.C,C3*%
X157530000Y-87120000D02*
X157530000Y-85220000D01*
X157530000Y-85220000D02*
X153230000Y-85220000D01*
X153230000Y-87120000D02*
X157530000Y-87120000D01*
X153230000Y-85220000D02*
X153230000Y-87120000D01*
%TO.C,C9*%
X118230000Y-85120000D02*
X118230000Y-87020000D01*
X118230000Y-87020000D02*
X122530000Y-87020000D01*
X122530000Y-85120000D02*
X118230000Y-85120000D01*
X122530000Y-87020000D02*
X122530000Y-85120000D01*
%TO.C,C7*%
X157455000Y-100800000D02*
X157455000Y-102700000D01*
X157455000Y-102700000D02*
X161755000Y-102700000D01*
X161755000Y-100800000D02*
X157455000Y-100800000D01*
X161755000Y-102700000D02*
X161755000Y-100800000D01*
%TO.C,C2*%
X117330000Y-100720000D02*
X115430000Y-100720000D01*
X115430000Y-100720000D02*
X115430000Y-105020000D01*
X117330000Y-105020000D02*
X117330000Y-100720000D01*
X115430000Y-105020000D02*
X117330000Y-105020000D01*
%TO.C,R3*%
X125980000Y-103570000D02*
X125980000Y-101640000D01*
X124730000Y-101640000D02*
X127230000Y-101640000D01*
X127230000Y-101640000D02*
X127230000Y-95340000D01*
X124730000Y-95340000D02*
X124730000Y-101640000D01*
X127230000Y-95340000D02*
X124730000Y-95340000D01*
X125980000Y-93410000D02*
X125980000Y-95340000D01*
%TO.C,R10*%
X133125000Y-92550000D02*
X135055000Y-92550000D01*
X135055000Y-91300000D02*
X135055000Y-93800000D01*
X135055000Y-93800000D02*
X141355000Y-93800000D01*
X141355000Y-91300000D02*
X135055000Y-91300000D01*
X141355000Y-93800000D02*
X141355000Y-91300000D01*
X143285000Y-92550000D02*
X141355000Y-92550000D01*
%TO.C,R9*%
X143285000Y-89150000D02*
X141355000Y-89150000D01*
X141355000Y-90400000D02*
X141355000Y-87900000D01*
X141355000Y-87900000D02*
X135055000Y-87900000D01*
X135055000Y-90400000D02*
X141355000Y-90400000D01*
X135055000Y-87900000D02*
X135055000Y-90400000D01*
X133125000Y-89150000D02*
X135055000Y-89150000D01*
%TO.C,RV1*%
X140780000Y-114970000D02*
X124780000Y-114970000D01*
X124780000Y-114970000D02*
X124780000Y-122470000D01*
X140780000Y-122470000D02*
X140780000Y-114970000D01*
X136280000Y-122470000D02*
X129280000Y-122470000D01*
X129280000Y-122470000D02*
X129280000Y-127470000D01*
X124780000Y-122470000D02*
X140780000Y-122470000D01*
X136280000Y-127470000D02*
X136280000Y-122470000D01*
X134780000Y-127470000D02*
X130780000Y-127470000D01*
X130780000Y-127470000D02*
X130780000Y-137470000D01*
X129280000Y-127470000D02*
X136280000Y-127470000D01*
X134780000Y-137470000D02*
X134780000Y-127470000D01*
X130780000Y-137470000D02*
X134780000Y-137470000D01*
%TO.C,J4*%
X173910000Y-87735000D02*
X174545000Y-87100000D01*
X173910000Y-97260000D02*
X173910000Y-87735000D01*
X174545000Y-87100000D02*
X176450000Y-87100000D01*
X176450000Y-87100000D02*
X176450000Y-97260000D01*
X176450000Y-97260000D02*
X173910000Y-97260000D01*
%TO.C,R6*%
X103580000Y-105170000D02*
X105510000Y-105170000D01*
X105510000Y-103920000D02*
X105510000Y-106420000D01*
X105510000Y-106420000D02*
X111810000Y-106420000D01*
X111810000Y-103920000D02*
X105510000Y-103920000D01*
X111810000Y-106420000D02*
X111810000Y-103920000D01*
X113740000Y-105170000D02*
X111810000Y-105170000D01*
%TD*%
M02*
