%TF.GenerationSoftware,KiCad,Pcbnew,7.0.8-7.0.8~ubuntu22.04.1*%
%TF.CreationDate,2023-10-08T09:38:23-05:00*%
%TF.ProjectId,crossover_v1,63726f73-736f-4766-9572-5f76312e6b69,v1.0.0*%
%TF.SameCoordinates,Original*%
%TF.FileFunction,Legend,Top*%
%TF.FilePolarity,Positive*%
%FSLAX46Y46*%
G04 Gerber Fmt 4.6, Leading zero omitted, Abs format (unit mm)*
G04 Created by KiCad (PCBNEW 7.0.8-7.0.8~ubuntu22.04.1) date 2023-10-08 09:38:23*
%MOMM*%
%LPD*%
G01*
G04 APERTURE LIST*
%ADD10C,0.150000*%
%ADD11C,0.200000*%
%ADD12C,0.300000*%
%ADD13C,0.120000*%
%ADD14C,0.010000*%
G04 APERTURE END LIST*
D10*
X132901428Y-78022438D02*
X132806190Y-77974819D01*
X132806190Y-77974819D02*
X132663333Y-77974819D01*
X132663333Y-77974819D02*
X132520476Y-78022438D01*
X132520476Y-78022438D02*
X132425238Y-78117676D01*
X132425238Y-78117676D02*
X132377619Y-78212914D01*
X132377619Y-78212914D02*
X132330000Y-78403390D01*
X132330000Y-78403390D02*
X132330000Y-78546247D01*
X132330000Y-78546247D02*
X132377619Y-78736723D01*
X132377619Y-78736723D02*
X132425238Y-78831961D01*
X132425238Y-78831961D02*
X132520476Y-78927200D01*
X132520476Y-78927200D02*
X132663333Y-78974819D01*
X132663333Y-78974819D02*
X132758571Y-78974819D01*
X132758571Y-78974819D02*
X132901428Y-78927200D01*
X132901428Y-78927200D02*
X132949047Y-78879580D01*
X132949047Y-78879580D02*
X132949047Y-78546247D01*
X132949047Y-78546247D02*
X132758571Y-78546247D01*
X134139524Y-78974819D02*
X134139524Y-77974819D01*
X134615714Y-78974819D02*
X134615714Y-77974819D01*
X134615714Y-77974819D02*
X135187142Y-78974819D01*
X135187142Y-78974819D02*
X135187142Y-77974819D01*
X136139523Y-78974819D02*
X135663333Y-78974819D01*
X135663333Y-78974819D02*
X135663333Y-77974819D01*
X137234762Y-78974819D02*
X137234762Y-77974819D01*
X137710952Y-78974819D02*
X137710952Y-77974819D01*
X137710952Y-77974819D02*
X138282380Y-78974819D01*
X138282380Y-78974819D02*
X138282380Y-77974819D01*
X139329999Y-78974819D02*
X138996666Y-78498628D01*
X138758571Y-78974819D02*
X138758571Y-77974819D01*
X138758571Y-77974819D02*
X139139523Y-77974819D01*
X139139523Y-77974819D02*
X139234761Y-78022438D01*
X139234761Y-78022438D02*
X139282380Y-78070057D01*
X139282380Y-78070057D02*
X139329999Y-78165295D01*
X139329999Y-78165295D02*
X139329999Y-78308152D01*
X139329999Y-78308152D02*
X139282380Y-78403390D01*
X139282380Y-78403390D02*
X139234761Y-78451009D01*
X139234761Y-78451009D02*
X139139523Y-78498628D01*
X139139523Y-78498628D02*
X138758571Y-78498628D01*
D11*
X160596666Y-85361004D02*
X160596666Y-84061004D01*
X160596666Y-84061004D02*
X161030000Y-84989576D01*
X161030000Y-84989576D02*
X161463333Y-84061004D01*
X161463333Y-84061004D02*
X161463333Y-85361004D01*
X162020476Y-84989576D02*
X162639523Y-84989576D01*
X161896666Y-85361004D02*
X162329999Y-84061004D01*
X162329999Y-84061004D02*
X162763333Y-85361004D01*
X163444285Y-84741957D02*
X163444285Y-85361004D01*
X163010952Y-84061004D02*
X163444285Y-84741957D01*
X163444285Y-84741957D02*
X163877619Y-84061004D01*
X164310952Y-85361004D02*
X164310952Y-84061004D01*
X165053809Y-85361004D02*
X164496667Y-84618147D01*
X165053809Y-84061004D02*
X164310952Y-84803861D01*
X165858571Y-84061004D02*
X166106190Y-84061004D01*
X166106190Y-84061004D02*
X166230000Y-84122909D01*
X166230000Y-84122909D02*
X166353809Y-84246719D01*
X166353809Y-84246719D02*
X166415714Y-84494338D01*
X166415714Y-84494338D02*
X166415714Y-84927671D01*
X166415714Y-84927671D02*
X166353809Y-85175290D01*
X166353809Y-85175290D02*
X166230000Y-85299100D01*
X166230000Y-85299100D02*
X166106190Y-85361004D01*
X166106190Y-85361004D02*
X165858571Y-85361004D01*
X165858571Y-85361004D02*
X165734762Y-85299100D01*
X165734762Y-85299100D02*
X165610952Y-85175290D01*
X165610952Y-85175290D02*
X165549048Y-84927671D01*
X165549048Y-84927671D02*
X165549048Y-84494338D01*
X165549048Y-84494338D02*
X165610952Y-84246719D01*
X165610952Y-84246719D02*
X165734762Y-84122909D01*
X165734762Y-84122909D02*
X165858571Y-84061004D01*
X167591905Y-85361004D02*
X166972857Y-85361004D01*
X166972857Y-85361004D02*
X166972857Y-84061004D01*
X168768095Y-85361004D02*
X168334762Y-84741957D01*
X168025238Y-85361004D02*
X168025238Y-84061004D01*
X168025238Y-84061004D02*
X168520476Y-84061004D01*
X168520476Y-84061004D02*
X168644286Y-84122909D01*
X168644286Y-84122909D02*
X168706191Y-84184814D01*
X168706191Y-84184814D02*
X168768095Y-84308623D01*
X168768095Y-84308623D02*
X168768095Y-84494338D01*
X168768095Y-84494338D02*
X168706191Y-84618147D01*
X168706191Y-84618147D02*
X168644286Y-84680052D01*
X168644286Y-84680052D02*
X168520476Y-84741957D01*
X168520476Y-84741957D02*
X168025238Y-84741957D01*
X169325238Y-84680052D02*
X169758572Y-84680052D01*
X169944286Y-85361004D02*
X169325238Y-85361004D01*
X169325238Y-85361004D02*
X169325238Y-84061004D01*
X169325238Y-84061004D02*
X169944286Y-84061004D01*
X170749047Y-84741957D02*
X170749047Y-85361004D01*
X170315714Y-84061004D02*
X170749047Y-84741957D01*
X170749047Y-84741957D02*
X171182381Y-84061004D01*
X171615714Y-85237195D02*
X171677619Y-85299100D01*
X171677619Y-85299100D02*
X171615714Y-85361004D01*
X171615714Y-85361004D02*
X171553810Y-85299100D01*
X171553810Y-85299100D02*
X171615714Y-85237195D01*
X171615714Y-85237195D02*
X171615714Y-85361004D01*
X172977619Y-85237195D02*
X172915715Y-85299100D01*
X172915715Y-85299100D02*
X172730000Y-85361004D01*
X172730000Y-85361004D02*
X172606191Y-85361004D01*
X172606191Y-85361004D02*
X172420477Y-85299100D01*
X172420477Y-85299100D02*
X172296667Y-85175290D01*
X172296667Y-85175290D02*
X172234762Y-85051480D01*
X172234762Y-85051480D02*
X172172858Y-84803861D01*
X172172858Y-84803861D02*
X172172858Y-84618147D01*
X172172858Y-84618147D02*
X172234762Y-84370528D01*
X172234762Y-84370528D02*
X172296667Y-84246719D01*
X172296667Y-84246719D02*
X172420477Y-84122909D01*
X172420477Y-84122909D02*
X172606191Y-84061004D01*
X172606191Y-84061004D02*
X172730000Y-84061004D01*
X172730000Y-84061004D02*
X172915715Y-84122909D01*
X172915715Y-84122909D02*
X172977619Y-84184814D01*
X173782381Y-84061004D02*
X174030000Y-84061004D01*
X174030000Y-84061004D02*
X174153810Y-84122909D01*
X174153810Y-84122909D02*
X174277619Y-84246719D01*
X174277619Y-84246719D02*
X174339524Y-84494338D01*
X174339524Y-84494338D02*
X174339524Y-84927671D01*
X174339524Y-84927671D02*
X174277619Y-85175290D01*
X174277619Y-85175290D02*
X174153810Y-85299100D01*
X174153810Y-85299100D02*
X174030000Y-85361004D01*
X174030000Y-85361004D02*
X173782381Y-85361004D01*
X173782381Y-85361004D02*
X173658572Y-85299100D01*
X173658572Y-85299100D02*
X173534762Y-85175290D01*
X173534762Y-85175290D02*
X173472858Y-84927671D01*
X173472858Y-84927671D02*
X173472858Y-84494338D01*
X173472858Y-84494338D02*
X173534762Y-84246719D01*
X173534762Y-84246719D02*
X173658572Y-84122909D01*
X173658572Y-84122909D02*
X173782381Y-84061004D01*
X174896667Y-85361004D02*
X174896667Y-84061004D01*
X174896667Y-84061004D02*
X175330001Y-84989576D01*
X175330001Y-84989576D02*
X175763334Y-84061004D01*
X175763334Y-84061004D02*
X175763334Y-85361004D01*
D10*
X120484761Y-78772438D02*
X120389523Y-78724819D01*
X120389523Y-78724819D02*
X120246666Y-78724819D01*
X120246666Y-78724819D02*
X120103809Y-78772438D01*
X120103809Y-78772438D02*
X120008571Y-78867676D01*
X120008571Y-78867676D02*
X119960952Y-78962914D01*
X119960952Y-78962914D02*
X119913333Y-79153390D01*
X119913333Y-79153390D02*
X119913333Y-79296247D01*
X119913333Y-79296247D02*
X119960952Y-79486723D01*
X119960952Y-79486723D02*
X120008571Y-79581961D01*
X120008571Y-79581961D02*
X120103809Y-79677200D01*
X120103809Y-79677200D02*
X120246666Y-79724819D01*
X120246666Y-79724819D02*
X120341904Y-79724819D01*
X120341904Y-79724819D02*
X120484761Y-79677200D01*
X120484761Y-79677200D02*
X120532380Y-79629580D01*
X120532380Y-79629580D02*
X120532380Y-79296247D01*
X120532380Y-79296247D02*
X120341904Y-79296247D01*
X121722857Y-79343866D02*
X122484762Y-79343866D01*
X122818095Y-78724819D02*
X123151428Y-79724819D01*
X123151428Y-79724819D02*
X123484761Y-78724819D01*
X124580000Y-79343866D02*
X125341905Y-79343866D01*
X124960952Y-79724819D02*
X124960952Y-78962914D01*
X125675238Y-78724819D02*
X126008571Y-79724819D01*
X126008571Y-79724819D02*
X126341904Y-78724819D01*
D12*
X137243332Y-109279161D02*
X137148094Y-109374400D01*
X137148094Y-109374400D02*
X136862380Y-109469638D01*
X136862380Y-109469638D02*
X136671904Y-109469638D01*
X136671904Y-109469638D02*
X136386189Y-109374400D01*
X136386189Y-109374400D02*
X136195713Y-109183923D01*
X136195713Y-109183923D02*
X136100475Y-108993447D01*
X136100475Y-108993447D02*
X136005237Y-108612495D01*
X136005237Y-108612495D02*
X136005237Y-108326780D01*
X136005237Y-108326780D02*
X136100475Y-107945828D01*
X136100475Y-107945828D02*
X136195713Y-107755352D01*
X136195713Y-107755352D02*
X136386189Y-107564876D01*
X136386189Y-107564876D02*
X136671904Y-107469638D01*
X136671904Y-107469638D02*
X136862380Y-107469638D01*
X136862380Y-107469638D02*
X137148094Y-107564876D01*
X137148094Y-107564876D02*
X137243332Y-107660114D01*
X138100475Y-109469638D02*
X138100475Y-108136304D01*
X138100475Y-108517257D02*
X138195713Y-108326780D01*
X138195713Y-108326780D02*
X138290951Y-108231542D01*
X138290951Y-108231542D02*
X138481427Y-108136304D01*
X138481427Y-108136304D02*
X138671904Y-108136304D01*
X139624284Y-109469638D02*
X139433808Y-109374400D01*
X139433808Y-109374400D02*
X139338570Y-109279161D01*
X139338570Y-109279161D02*
X139243332Y-109088685D01*
X139243332Y-109088685D02*
X139243332Y-108517257D01*
X139243332Y-108517257D02*
X139338570Y-108326780D01*
X139338570Y-108326780D02*
X139433808Y-108231542D01*
X139433808Y-108231542D02*
X139624284Y-108136304D01*
X139624284Y-108136304D02*
X139909999Y-108136304D01*
X139909999Y-108136304D02*
X140100475Y-108231542D01*
X140100475Y-108231542D02*
X140195713Y-108326780D01*
X140195713Y-108326780D02*
X140290951Y-108517257D01*
X140290951Y-108517257D02*
X140290951Y-109088685D01*
X140290951Y-109088685D02*
X140195713Y-109279161D01*
X140195713Y-109279161D02*
X140100475Y-109374400D01*
X140100475Y-109374400D02*
X139909999Y-109469638D01*
X139909999Y-109469638D02*
X139624284Y-109469638D01*
X141052856Y-109374400D02*
X141243332Y-109469638D01*
X141243332Y-109469638D02*
X141624284Y-109469638D01*
X141624284Y-109469638D02*
X141814761Y-109374400D01*
X141814761Y-109374400D02*
X141909999Y-109183923D01*
X141909999Y-109183923D02*
X141909999Y-109088685D01*
X141909999Y-109088685D02*
X141814761Y-108898209D01*
X141814761Y-108898209D02*
X141624284Y-108802971D01*
X141624284Y-108802971D02*
X141338570Y-108802971D01*
X141338570Y-108802971D02*
X141148094Y-108707733D01*
X141148094Y-108707733D02*
X141052856Y-108517257D01*
X141052856Y-108517257D02*
X141052856Y-108422019D01*
X141052856Y-108422019D02*
X141148094Y-108231542D01*
X141148094Y-108231542D02*
X141338570Y-108136304D01*
X141338570Y-108136304D02*
X141624284Y-108136304D01*
X141624284Y-108136304D02*
X141814761Y-108231542D01*
X142671904Y-109374400D02*
X142862380Y-109469638D01*
X142862380Y-109469638D02*
X143243332Y-109469638D01*
X143243332Y-109469638D02*
X143433809Y-109374400D01*
X143433809Y-109374400D02*
X143529047Y-109183923D01*
X143529047Y-109183923D02*
X143529047Y-109088685D01*
X143529047Y-109088685D02*
X143433809Y-108898209D01*
X143433809Y-108898209D02*
X143243332Y-108802971D01*
X143243332Y-108802971D02*
X142957618Y-108802971D01*
X142957618Y-108802971D02*
X142767142Y-108707733D01*
X142767142Y-108707733D02*
X142671904Y-108517257D01*
X142671904Y-108517257D02*
X142671904Y-108422019D01*
X142671904Y-108422019D02*
X142767142Y-108231542D01*
X142767142Y-108231542D02*
X142957618Y-108136304D01*
X142957618Y-108136304D02*
X143243332Y-108136304D01*
X143243332Y-108136304D02*
X143433809Y-108231542D01*
X144671904Y-109469638D02*
X144481428Y-109374400D01*
X144481428Y-109374400D02*
X144386190Y-109279161D01*
X144386190Y-109279161D02*
X144290952Y-109088685D01*
X144290952Y-109088685D02*
X144290952Y-108517257D01*
X144290952Y-108517257D02*
X144386190Y-108326780D01*
X144386190Y-108326780D02*
X144481428Y-108231542D01*
X144481428Y-108231542D02*
X144671904Y-108136304D01*
X144671904Y-108136304D02*
X144957619Y-108136304D01*
X144957619Y-108136304D02*
X145148095Y-108231542D01*
X145148095Y-108231542D02*
X145243333Y-108326780D01*
X145243333Y-108326780D02*
X145338571Y-108517257D01*
X145338571Y-108517257D02*
X145338571Y-109088685D01*
X145338571Y-109088685D02*
X145243333Y-109279161D01*
X145243333Y-109279161D02*
X145148095Y-109374400D01*
X145148095Y-109374400D02*
X144957619Y-109469638D01*
X144957619Y-109469638D02*
X144671904Y-109469638D01*
X146005238Y-108136304D02*
X146481428Y-109469638D01*
X146481428Y-109469638D02*
X146957619Y-108136304D01*
X148481429Y-109374400D02*
X148290953Y-109469638D01*
X148290953Y-109469638D02*
X147910000Y-109469638D01*
X147910000Y-109469638D02*
X147719524Y-109374400D01*
X147719524Y-109374400D02*
X147624286Y-109183923D01*
X147624286Y-109183923D02*
X147624286Y-108422019D01*
X147624286Y-108422019D02*
X147719524Y-108231542D01*
X147719524Y-108231542D02*
X147910000Y-108136304D01*
X147910000Y-108136304D02*
X148290953Y-108136304D01*
X148290953Y-108136304D02*
X148481429Y-108231542D01*
X148481429Y-108231542D02*
X148576667Y-108422019D01*
X148576667Y-108422019D02*
X148576667Y-108612495D01*
X148576667Y-108612495D02*
X147624286Y-108802971D01*
X149433810Y-109469638D02*
X149433810Y-108136304D01*
X149433810Y-108517257D02*
X149529048Y-108326780D01*
X149529048Y-108326780D02*
X149624286Y-108231542D01*
X149624286Y-108231542D02*
X149814762Y-108136304D01*
X149814762Y-108136304D02*
X150005239Y-108136304D01*
X138624285Y-111356304D02*
X139100475Y-112689638D01*
X139100475Y-112689638D02*
X139576666Y-111356304D01*
X141386190Y-112689638D02*
X140243333Y-112689638D01*
X140814761Y-112689638D02*
X140814761Y-110689638D01*
X140814761Y-110689638D02*
X140624285Y-110975352D01*
X140624285Y-110975352D02*
X140433809Y-111165828D01*
X140433809Y-111165828D02*
X140243333Y-111261066D01*
X142243333Y-112499161D02*
X142338571Y-112594400D01*
X142338571Y-112594400D02*
X142243333Y-112689638D01*
X142243333Y-112689638D02*
X142148095Y-112594400D01*
X142148095Y-112594400D02*
X142243333Y-112499161D01*
X142243333Y-112499161D02*
X142243333Y-112689638D01*
X143576666Y-110689638D02*
X143767143Y-110689638D01*
X143767143Y-110689638D02*
X143957619Y-110784876D01*
X143957619Y-110784876D02*
X144052857Y-110880114D01*
X144052857Y-110880114D02*
X144148095Y-111070590D01*
X144148095Y-111070590D02*
X144243333Y-111451542D01*
X144243333Y-111451542D02*
X144243333Y-111927733D01*
X144243333Y-111927733D02*
X144148095Y-112308685D01*
X144148095Y-112308685D02*
X144052857Y-112499161D01*
X144052857Y-112499161D02*
X143957619Y-112594400D01*
X143957619Y-112594400D02*
X143767143Y-112689638D01*
X143767143Y-112689638D02*
X143576666Y-112689638D01*
X143576666Y-112689638D02*
X143386190Y-112594400D01*
X143386190Y-112594400D02*
X143290952Y-112499161D01*
X143290952Y-112499161D02*
X143195714Y-112308685D01*
X143195714Y-112308685D02*
X143100476Y-111927733D01*
X143100476Y-111927733D02*
X143100476Y-111451542D01*
X143100476Y-111451542D02*
X143195714Y-111070590D01*
X143195714Y-111070590D02*
X143290952Y-110880114D01*
X143290952Y-110880114D02*
X143386190Y-110784876D01*
X143386190Y-110784876D02*
X143576666Y-110689638D01*
X145100476Y-112499161D02*
X145195714Y-112594400D01*
X145195714Y-112594400D02*
X145100476Y-112689638D01*
X145100476Y-112689638D02*
X145005238Y-112594400D01*
X145005238Y-112594400D02*
X145100476Y-112499161D01*
X145100476Y-112499161D02*
X145100476Y-112689638D01*
X146433809Y-110689638D02*
X146624286Y-110689638D01*
X146624286Y-110689638D02*
X146814762Y-110784876D01*
X146814762Y-110784876D02*
X146910000Y-110880114D01*
X146910000Y-110880114D02*
X147005238Y-111070590D01*
X147005238Y-111070590D02*
X147100476Y-111451542D01*
X147100476Y-111451542D02*
X147100476Y-111927733D01*
X147100476Y-111927733D02*
X147005238Y-112308685D01*
X147005238Y-112308685D02*
X146910000Y-112499161D01*
X146910000Y-112499161D02*
X146814762Y-112594400D01*
X146814762Y-112594400D02*
X146624286Y-112689638D01*
X146624286Y-112689638D02*
X146433809Y-112689638D01*
X146433809Y-112689638D02*
X146243333Y-112594400D01*
X146243333Y-112594400D02*
X146148095Y-112499161D01*
X146148095Y-112499161D02*
X146052857Y-112308685D01*
X146052857Y-112308685D02*
X145957619Y-111927733D01*
X145957619Y-111927733D02*
X145957619Y-111451542D01*
X145957619Y-111451542D02*
X146052857Y-111070590D01*
X146052857Y-111070590D02*
X146148095Y-110880114D01*
X146148095Y-110880114D02*
X146243333Y-110784876D01*
X146243333Y-110784876D02*
X146433809Y-110689638D01*
D10*
X171195601Y-87042438D02*
X171100363Y-86994819D01*
X171100363Y-86994819D02*
X170957506Y-86994819D01*
X170957506Y-86994819D02*
X170814649Y-87042438D01*
X170814649Y-87042438D02*
X170719411Y-87137676D01*
X170719411Y-87137676D02*
X170671792Y-87232914D01*
X170671792Y-87232914D02*
X170624173Y-87423390D01*
X170624173Y-87423390D02*
X170624173Y-87566247D01*
X170624173Y-87566247D02*
X170671792Y-87756723D01*
X170671792Y-87756723D02*
X170719411Y-87851961D01*
X170719411Y-87851961D02*
X170814649Y-87947200D01*
X170814649Y-87947200D02*
X170957506Y-87994819D01*
X170957506Y-87994819D02*
X171052744Y-87994819D01*
X171052744Y-87994819D02*
X171195601Y-87947200D01*
X171195601Y-87947200D02*
X171243220Y-87899580D01*
X171243220Y-87899580D02*
X171243220Y-87566247D01*
X171243220Y-87566247D02*
X171052744Y-87566247D01*
X171671792Y-87994819D02*
X171671792Y-86994819D01*
X171671792Y-86994819D02*
X172243220Y-87994819D01*
X172243220Y-87994819D02*
X172243220Y-86994819D01*
X172719411Y-87994819D02*
X172719411Y-86994819D01*
X172719411Y-86994819D02*
X172957506Y-86994819D01*
X172957506Y-86994819D02*
X173100363Y-87042438D01*
X173100363Y-87042438D02*
X173195601Y-87137676D01*
X173195601Y-87137676D02*
X173243220Y-87232914D01*
X173243220Y-87232914D02*
X173290839Y-87423390D01*
X173290839Y-87423390D02*
X173290839Y-87566247D01*
X173290839Y-87566247D02*
X173243220Y-87756723D01*
X173243220Y-87756723D02*
X173195601Y-87851961D01*
X173195601Y-87851961D02*
X173100363Y-87947200D01*
X173100363Y-87947200D02*
X172957506Y-87994819D01*
X172957506Y-87994819D02*
X172719411Y-87994819D01*
X171195601Y-90262438D02*
X171100363Y-90214819D01*
X171100363Y-90214819D02*
X170957506Y-90214819D01*
X170957506Y-90214819D02*
X170814649Y-90262438D01*
X170814649Y-90262438D02*
X170719411Y-90357676D01*
X170719411Y-90357676D02*
X170671792Y-90452914D01*
X170671792Y-90452914D02*
X170624173Y-90643390D01*
X170624173Y-90643390D02*
X170624173Y-90786247D01*
X170624173Y-90786247D02*
X170671792Y-90976723D01*
X170671792Y-90976723D02*
X170719411Y-91071961D01*
X170719411Y-91071961D02*
X170814649Y-91167200D01*
X170814649Y-91167200D02*
X170957506Y-91214819D01*
X170957506Y-91214819D02*
X171052744Y-91214819D01*
X171052744Y-91214819D02*
X171195601Y-91167200D01*
X171195601Y-91167200D02*
X171243220Y-91119580D01*
X171243220Y-91119580D02*
X171243220Y-90786247D01*
X171243220Y-90786247D02*
X171052744Y-90786247D01*
X171671792Y-91214819D02*
X171671792Y-90214819D01*
X171671792Y-90214819D02*
X172243220Y-91214819D01*
X172243220Y-91214819D02*
X172243220Y-90214819D01*
X172719411Y-91214819D02*
X172719411Y-90214819D01*
X172719411Y-90214819D02*
X172957506Y-90214819D01*
X172957506Y-90214819D02*
X173100363Y-90262438D01*
X173100363Y-90262438D02*
X173195601Y-90357676D01*
X173195601Y-90357676D02*
X173243220Y-90452914D01*
X173243220Y-90452914D02*
X173290839Y-90643390D01*
X173290839Y-90643390D02*
X173290839Y-90786247D01*
X173290839Y-90786247D02*
X173243220Y-90976723D01*
X173243220Y-90976723D02*
X173195601Y-91071961D01*
X173195601Y-91071961D02*
X173100363Y-91167200D01*
X173100363Y-91167200D02*
X172957506Y-91214819D01*
X172957506Y-91214819D02*
X172719411Y-91214819D01*
X171433696Y-94434819D02*
X171100363Y-93958628D01*
X170862268Y-94434819D02*
X170862268Y-93434819D01*
X170862268Y-93434819D02*
X171243220Y-93434819D01*
X171243220Y-93434819D02*
X171338458Y-93482438D01*
X171338458Y-93482438D02*
X171386077Y-93530057D01*
X171386077Y-93530057D02*
X171433696Y-93625295D01*
X171433696Y-93625295D02*
X171433696Y-93768152D01*
X171433696Y-93768152D02*
X171386077Y-93863390D01*
X171386077Y-93863390D02*
X171338458Y-93911009D01*
X171338458Y-93911009D02*
X171243220Y-93958628D01*
X171243220Y-93958628D02*
X170862268Y-93958628D01*
X171862268Y-94434819D02*
X171862268Y-93434819D01*
X171862268Y-93434819D02*
X172243220Y-93434819D01*
X172243220Y-93434819D02*
X172338458Y-93482438D01*
X172338458Y-93482438D02*
X172386077Y-93530057D01*
X172386077Y-93530057D02*
X172433696Y-93625295D01*
X172433696Y-93625295D02*
X172433696Y-93768152D01*
X172433696Y-93768152D02*
X172386077Y-93863390D01*
X172386077Y-93863390D02*
X172338458Y-93911009D01*
X172338458Y-93911009D02*
X172243220Y-93958628D01*
X172243220Y-93958628D02*
X171862268Y-93958628D01*
X172814649Y-94149104D02*
X173290839Y-94149104D01*
X172719411Y-94434819D02*
X173052744Y-93434819D01*
X173052744Y-93434819D02*
X173386077Y-94434819D01*
X171528934Y-97654819D02*
X171052744Y-97654819D01*
X171052744Y-97654819D02*
X171052744Y-96654819D01*
X171862268Y-97654819D02*
X171862268Y-96654819D01*
X171862268Y-96654819D02*
X172243220Y-96654819D01*
X172243220Y-96654819D02*
X172338458Y-96702438D01*
X172338458Y-96702438D02*
X172386077Y-96750057D01*
X172386077Y-96750057D02*
X172433696Y-96845295D01*
X172433696Y-96845295D02*
X172433696Y-96988152D01*
X172433696Y-96988152D02*
X172386077Y-97083390D01*
X172386077Y-97083390D02*
X172338458Y-97131009D01*
X172338458Y-97131009D02*
X172243220Y-97178628D01*
X172243220Y-97178628D02*
X171862268Y-97178628D01*
X172814649Y-97369104D02*
X173290839Y-97369104D01*
X172719411Y-97654819D02*
X173052744Y-96654819D01*
X173052744Y-96654819D02*
X173386077Y-97654819D01*
X112487142Y-78072438D02*
X112391904Y-78024819D01*
X112391904Y-78024819D02*
X112249047Y-78024819D01*
X112249047Y-78024819D02*
X112106190Y-78072438D01*
X112106190Y-78072438D02*
X112010952Y-78167676D01*
X112010952Y-78167676D02*
X111963333Y-78262914D01*
X111963333Y-78262914D02*
X111915714Y-78453390D01*
X111915714Y-78453390D02*
X111915714Y-78596247D01*
X111915714Y-78596247D02*
X111963333Y-78786723D01*
X111963333Y-78786723D02*
X112010952Y-78881961D01*
X112010952Y-78881961D02*
X112106190Y-78977200D01*
X112106190Y-78977200D02*
X112249047Y-79024819D01*
X112249047Y-79024819D02*
X112344285Y-79024819D01*
X112344285Y-79024819D02*
X112487142Y-78977200D01*
X112487142Y-78977200D02*
X112534761Y-78929580D01*
X112534761Y-78929580D02*
X112534761Y-78596247D01*
X112534761Y-78596247D02*
X112344285Y-78596247D01*
X113915714Y-78024819D02*
X114106190Y-78024819D01*
X114106190Y-78024819D02*
X114201428Y-78072438D01*
X114201428Y-78072438D02*
X114296666Y-78167676D01*
X114296666Y-78167676D02*
X114344285Y-78358152D01*
X114344285Y-78358152D02*
X114344285Y-78691485D01*
X114344285Y-78691485D02*
X114296666Y-78881961D01*
X114296666Y-78881961D02*
X114201428Y-78977200D01*
X114201428Y-78977200D02*
X114106190Y-79024819D01*
X114106190Y-79024819D02*
X113915714Y-79024819D01*
X113915714Y-79024819D02*
X113820476Y-78977200D01*
X113820476Y-78977200D02*
X113725238Y-78881961D01*
X113725238Y-78881961D02*
X113677619Y-78691485D01*
X113677619Y-78691485D02*
X113677619Y-78358152D01*
X113677619Y-78358152D02*
X113725238Y-78167676D01*
X113725238Y-78167676D02*
X113820476Y-78072438D01*
X113820476Y-78072438D02*
X113915714Y-78024819D01*
X114772857Y-79024819D02*
X114772857Y-78024819D01*
X114772857Y-78024819D02*
X115153809Y-78024819D01*
X115153809Y-78024819D02*
X115249047Y-78072438D01*
X115249047Y-78072438D02*
X115296666Y-78120057D01*
X115296666Y-78120057D02*
X115344285Y-78215295D01*
X115344285Y-78215295D02*
X115344285Y-78358152D01*
X115344285Y-78358152D02*
X115296666Y-78453390D01*
X115296666Y-78453390D02*
X115249047Y-78501009D01*
X115249047Y-78501009D02*
X115153809Y-78548628D01*
X115153809Y-78548628D02*
X114772857Y-78548628D01*
X116106190Y-78501009D02*
X116249047Y-78548628D01*
X116249047Y-78548628D02*
X116296666Y-78596247D01*
X116296666Y-78596247D02*
X116344285Y-78691485D01*
X116344285Y-78691485D02*
X116344285Y-78834342D01*
X116344285Y-78834342D02*
X116296666Y-78929580D01*
X116296666Y-78929580D02*
X116249047Y-78977200D01*
X116249047Y-78977200D02*
X116153809Y-79024819D01*
X116153809Y-79024819D02*
X115772857Y-79024819D01*
X115772857Y-79024819D02*
X115772857Y-78024819D01*
X115772857Y-78024819D02*
X116106190Y-78024819D01*
X116106190Y-78024819D02*
X116201428Y-78072438D01*
X116201428Y-78072438D02*
X116249047Y-78120057D01*
X116249047Y-78120057D02*
X116296666Y-78215295D01*
X116296666Y-78215295D02*
X116296666Y-78310533D01*
X116296666Y-78310533D02*
X116249047Y-78405771D01*
X116249047Y-78405771D02*
X116201428Y-78453390D01*
X116201428Y-78453390D02*
X116106190Y-78501009D01*
X116106190Y-78501009D02*
X115772857Y-78501009D01*
X132596666Y-83024819D02*
X132596666Y-83739104D01*
X132596666Y-83739104D02*
X132549047Y-83881961D01*
X132549047Y-83881961D02*
X132453809Y-83977200D01*
X132453809Y-83977200D02*
X132310952Y-84024819D01*
X132310952Y-84024819D02*
X132215714Y-84024819D01*
X133549047Y-83024819D02*
X133072857Y-83024819D01*
X133072857Y-83024819D02*
X133025238Y-83501009D01*
X133025238Y-83501009D02*
X133072857Y-83453390D01*
X133072857Y-83453390D02*
X133168095Y-83405771D01*
X133168095Y-83405771D02*
X133406190Y-83405771D01*
X133406190Y-83405771D02*
X133501428Y-83453390D01*
X133501428Y-83453390D02*
X133549047Y-83501009D01*
X133549047Y-83501009D02*
X133596666Y-83596247D01*
X133596666Y-83596247D02*
X133596666Y-83834342D01*
X133596666Y-83834342D02*
X133549047Y-83929580D01*
X133549047Y-83929580D02*
X133501428Y-83977200D01*
X133501428Y-83977200D02*
X133406190Y-84024819D01*
X133406190Y-84024819D02*
X133168095Y-84024819D01*
X133168095Y-84024819D02*
X133072857Y-83977200D01*
X133072857Y-83977200D02*
X133025238Y-83929580D01*
X146564580Y-103516666D02*
X146612200Y-103564285D01*
X146612200Y-103564285D02*
X146659819Y-103707142D01*
X146659819Y-103707142D02*
X146659819Y-103802380D01*
X146659819Y-103802380D02*
X146612200Y-103945237D01*
X146612200Y-103945237D02*
X146516961Y-104040475D01*
X146516961Y-104040475D02*
X146421723Y-104088094D01*
X146421723Y-104088094D02*
X146231247Y-104135713D01*
X146231247Y-104135713D02*
X146088390Y-104135713D01*
X146088390Y-104135713D02*
X145897914Y-104088094D01*
X145897914Y-104088094D02*
X145802676Y-104040475D01*
X145802676Y-104040475D02*
X145707438Y-103945237D01*
X145707438Y-103945237D02*
X145659819Y-103802380D01*
X145659819Y-103802380D02*
X145659819Y-103707142D01*
X145659819Y-103707142D02*
X145707438Y-103564285D01*
X145707438Y-103564285D02*
X145755057Y-103516666D01*
X145993152Y-102659523D02*
X146659819Y-102659523D01*
X145612200Y-102897618D02*
X146326485Y-103135713D01*
X146326485Y-103135713D02*
X146326485Y-102516666D01*
X165259819Y-94592857D02*
X164783628Y-94926190D01*
X165259819Y-95164285D02*
X164259819Y-95164285D01*
X164259819Y-95164285D02*
X164259819Y-94783333D01*
X164259819Y-94783333D02*
X164307438Y-94688095D01*
X164307438Y-94688095D02*
X164355057Y-94640476D01*
X164355057Y-94640476D02*
X164450295Y-94592857D01*
X164450295Y-94592857D02*
X164593152Y-94592857D01*
X164593152Y-94592857D02*
X164688390Y-94640476D01*
X164688390Y-94640476D02*
X164736009Y-94688095D01*
X164736009Y-94688095D02*
X164783628Y-94783333D01*
X164783628Y-94783333D02*
X164783628Y-95164285D01*
X165259819Y-93640476D02*
X165259819Y-94211904D01*
X165259819Y-93926190D02*
X164259819Y-93926190D01*
X164259819Y-93926190D02*
X164402676Y-94021428D01*
X164402676Y-94021428D02*
X164497914Y-94116666D01*
X164497914Y-94116666D02*
X164545533Y-94211904D01*
X164355057Y-93259523D02*
X164307438Y-93211904D01*
X164307438Y-93211904D02*
X164259819Y-93116666D01*
X164259819Y-93116666D02*
X164259819Y-92878571D01*
X164259819Y-92878571D02*
X164307438Y-92783333D01*
X164307438Y-92783333D02*
X164355057Y-92735714D01*
X164355057Y-92735714D02*
X164450295Y-92688095D01*
X164450295Y-92688095D02*
X164545533Y-92688095D01*
X164545533Y-92688095D02*
X164688390Y-92735714D01*
X164688390Y-92735714D02*
X165259819Y-93307142D01*
X165259819Y-93307142D02*
X165259819Y-92688095D01*
X145443095Y-87204819D02*
X145443095Y-88014342D01*
X145443095Y-88014342D02*
X145490714Y-88109580D01*
X145490714Y-88109580D02*
X145538333Y-88157200D01*
X145538333Y-88157200D02*
X145633571Y-88204819D01*
X145633571Y-88204819D02*
X145824047Y-88204819D01*
X145824047Y-88204819D02*
X145919285Y-88157200D01*
X145919285Y-88157200D02*
X145966904Y-88109580D01*
X145966904Y-88109580D02*
X146014523Y-88014342D01*
X146014523Y-88014342D02*
X146014523Y-87204819D01*
X146443095Y-87300057D02*
X146490714Y-87252438D01*
X146490714Y-87252438D02*
X146585952Y-87204819D01*
X146585952Y-87204819D02*
X146824047Y-87204819D01*
X146824047Y-87204819D02*
X146919285Y-87252438D01*
X146919285Y-87252438D02*
X146966904Y-87300057D01*
X146966904Y-87300057D02*
X147014523Y-87395295D01*
X147014523Y-87395295D02*
X147014523Y-87490533D01*
X147014523Y-87490533D02*
X146966904Y-87633390D01*
X146966904Y-87633390D02*
X146395476Y-88204819D01*
X146395476Y-88204819D02*
X147014523Y-88204819D01*
X161659819Y-94592857D02*
X161183628Y-94926190D01*
X161659819Y-95164285D02*
X160659819Y-95164285D01*
X160659819Y-95164285D02*
X160659819Y-94783333D01*
X160659819Y-94783333D02*
X160707438Y-94688095D01*
X160707438Y-94688095D02*
X160755057Y-94640476D01*
X160755057Y-94640476D02*
X160850295Y-94592857D01*
X160850295Y-94592857D02*
X160993152Y-94592857D01*
X160993152Y-94592857D02*
X161088390Y-94640476D01*
X161088390Y-94640476D02*
X161136009Y-94688095D01*
X161136009Y-94688095D02*
X161183628Y-94783333D01*
X161183628Y-94783333D02*
X161183628Y-95164285D01*
X161659819Y-93640476D02*
X161659819Y-94211904D01*
X161659819Y-93926190D02*
X160659819Y-93926190D01*
X160659819Y-93926190D02*
X160802676Y-94021428D01*
X160802676Y-94021428D02*
X160897914Y-94116666D01*
X160897914Y-94116666D02*
X160945533Y-94211904D01*
X160659819Y-93307142D02*
X160659819Y-92688095D01*
X160659819Y-92688095D02*
X161040771Y-93021428D01*
X161040771Y-93021428D02*
X161040771Y-92878571D01*
X161040771Y-92878571D02*
X161088390Y-92783333D01*
X161088390Y-92783333D02*
X161136009Y-92735714D01*
X161136009Y-92735714D02*
X161231247Y-92688095D01*
X161231247Y-92688095D02*
X161469342Y-92688095D01*
X161469342Y-92688095D02*
X161564580Y-92735714D01*
X161564580Y-92735714D02*
X161612200Y-92783333D01*
X161612200Y-92783333D02*
X161659819Y-92878571D01*
X161659819Y-92878571D02*
X161659819Y-93164285D01*
X161659819Y-93164285D02*
X161612200Y-93259523D01*
X161612200Y-93259523D02*
X161564580Y-93307142D01*
X170634819Y-115936666D02*
X170158628Y-116269999D01*
X170634819Y-116508094D02*
X169634819Y-116508094D01*
X169634819Y-116508094D02*
X169634819Y-116127142D01*
X169634819Y-116127142D02*
X169682438Y-116031904D01*
X169682438Y-116031904D02*
X169730057Y-115984285D01*
X169730057Y-115984285D02*
X169825295Y-115936666D01*
X169825295Y-115936666D02*
X169968152Y-115936666D01*
X169968152Y-115936666D02*
X170063390Y-115984285D01*
X170063390Y-115984285D02*
X170111009Y-116031904D01*
X170111009Y-116031904D02*
X170158628Y-116127142D01*
X170158628Y-116127142D02*
X170158628Y-116508094D01*
X169634819Y-115603332D02*
X169634819Y-114936666D01*
X169634819Y-114936666D02*
X170634819Y-115365237D01*
X142064580Y-98536666D02*
X142112200Y-98584285D01*
X142112200Y-98584285D02*
X142159819Y-98727142D01*
X142159819Y-98727142D02*
X142159819Y-98822380D01*
X142159819Y-98822380D02*
X142112200Y-98965237D01*
X142112200Y-98965237D02*
X142016961Y-99060475D01*
X142016961Y-99060475D02*
X141921723Y-99108094D01*
X141921723Y-99108094D02*
X141731247Y-99155713D01*
X141731247Y-99155713D02*
X141588390Y-99155713D01*
X141588390Y-99155713D02*
X141397914Y-99108094D01*
X141397914Y-99108094D02*
X141302676Y-99060475D01*
X141302676Y-99060475D02*
X141207438Y-98965237D01*
X141207438Y-98965237D02*
X141159819Y-98822380D01*
X141159819Y-98822380D02*
X141159819Y-98727142D01*
X141159819Y-98727142D02*
X141207438Y-98584285D01*
X141207438Y-98584285D02*
X141255057Y-98536666D01*
X141159819Y-97631904D02*
X141159819Y-98108094D01*
X141159819Y-98108094D02*
X141636009Y-98155713D01*
X141636009Y-98155713D02*
X141588390Y-98108094D01*
X141588390Y-98108094D02*
X141540771Y-98012856D01*
X141540771Y-98012856D02*
X141540771Y-97774761D01*
X141540771Y-97774761D02*
X141588390Y-97679523D01*
X141588390Y-97679523D02*
X141636009Y-97631904D01*
X141636009Y-97631904D02*
X141731247Y-97584285D01*
X141731247Y-97584285D02*
X141969342Y-97584285D01*
X141969342Y-97584285D02*
X142064580Y-97631904D01*
X142064580Y-97631904D02*
X142112200Y-97679523D01*
X142112200Y-97679523D02*
X142159819Y-97774761D01*
X142159819Y-97774761D02*
X142159819Y-98012856D01*
X142159819Y-98012856D02*
X142112200Y-98108094D01*
X142112200Y-98108094D02*
X142064580Y-98155713D01*
X169059819Y-94392857D02*
X168583628Y-94726190D01*
X169059819Y-94964285D02*
X168059819Y-94964285D01*
X168059819Y-94964285D02*
X168059819Y-94583333D01*
X168059819Y-94583333D02*
X168107438Y-94488095D01*
X168107438Y-94488095D02*
X168155057Y-94440476D01*
X168155057Y-94440476D02*
X168250295Y-94392857D01*
X168250295Y-94392857D02*
X168393152Y-94392857D01*
X168393152Y-94392857D02*
X168488390Y-94440476D01*
X168488390Y-94440476D02*
X168536009Y-94488095D01*
X168536009Y-94488095D02*
X168583628Y-94583333D01*
X168583628Y-94583333D02*
X168583628Y-94964285D01*
X169059819Y-93440476D02*
X169059819Y-94011904D01*
X169059819Y-93726190D02*
X168059819Y-93726190D01*
X168059819Y-93726190D02*
X168202676Y-93821428D01*
X168202676Y-93821428D02*
X168297914Y-93916666D01*
X168297914Y-93916666D02*
X168345533Y-94011904D01*
X169059819Y-92488095D02*
X169059819Y-93059523D01*
X169059819Y-92773809D02*
X168059819Y-92773809D01*
X168059819Y-92773809D02*
X168202676Y-92869047D01*
X168202676Y-92869047D02*
X168297914Y-92964285D01*
X168297914Y-92964285D02*
X168345533Y-93059523D01*
X109813333Y-86624819D02*
X109480000Y-86148628D01*
X109241905Y-86624819D02*
X109241905Y-85624819D01*
X109241905Y-85624819D02*
X109622857Y-85624819D01*
X109622857Y-85624819D02*
X109718095Y-85672438D01*
X109718095Y-85672438D02*
X109765714Y-85720057D01*
X109765714Y-85720057D02*
X109813333Y-85815295D01*
X109813333Y-85815295D02*
X109813333Y-85958152D01*
X109813333Y-85958152D02*
X109765714Y-86053390D01*
X109765714Y-86053390D02*
X109718095Y-86101009D01*
X109718095Y-86101009D02*
X109622857Y-86148628D01*
X109622857Y-86148628D02*
X109241905Y-86148628D01*
X110765714Y-86624819D02*
X110194286Y-86624819D01*
X110480000Y-86624819D02*
X110480000Y-85624819D01*
X110480000Y-85624819D02*
X110384762Y-85767676D01*
X110384762Y-85767676D02*
X110289524Y-85862914D01*
X110289524Y-85862914D02*
X110194286Y-85910533D01*
X138639580Y-98436666D02*
X138687200Y-98484285D01*
X138687200Y-98484285D02*
X138734819Y-98627142D01*
X138734819Y-98627142D02*
X138734819Y-98722380D01*
X138734819Y-98722380D02*
X138687200Y-98865237D01*
X138687200Y-98865237D02*
X138591961Y-98960475D01*
X138591961Y-98960475D02*
X138496723Y-99008094D01*
X138496723Y-99008094D02*
X138306247Y-99055713D01*
X138306247Y-99055713D02*
X138163390Y-99055713D01*
X138163390Y-99055713D02*
X137972914Y-99008094D01*
X137972914Y-99008094D02*
X137877676Y-98960475D01*
X137877676Y-98960475D02*
X137782438Y-98865237D01*
X137782438Y-98865237D02*
X137734819Y-98722380D01*
X137734819Y-98722380D02*
X137734819Y-98627142D01*
X137734819Y-98627142D02*
X137782438Y-98484285D01*
X137782438Y-98484285D02*
X137830057Y-98436666D01*
X137734819Y-97579523D02*
X137734819Y-97769999D01*
X137734819Y-97769999D02*
X137782438Y-97865237D01*
X137782438Y-97865237D02*
X137830057Y-97912856D01*
X137830057Y-97912856D02*
X137972914Y-98008094D01*
X137972914Y-98008094D02*
X138163390Y-98055713D01*
X138163390Y-98055713D02*
X138544342Y-98055713D01*
X138544342Y-98055713D02*
X138639580Y-98008094D01*
X138639580Y-98008094D02*
X138687200Y-97960475D01*
X138687200Y-97960475D02*
X138734819Y-97865237D01*
X138734819Y-97865237D02*
X138734819Y-97674761D01*
X138734819Y-97674761D02*
X138687200Y-97579523D01*
X138687200Y-97579523D02*
X138639580Y-97531904D01*
X138639580Y-97531904D02*
X138544342Y-97484285D01*
X138544342Y-97484285D02*
X138306247Y-97484285D01*
X138306247Y-97484285D02*
X138211009Y-97531904D01*
X138211009Y-97531904D02*
X138163390Y-97579523D01*
X138163390Y-97579523D02*
X138115771Y-97674761D01*
X138115771Y-97674761D02*
X138115771Y-97865237D01*
X138115771Y-97865237D02*
X138163390Y-97960475D01*
X138163390Y-97960475D02*
X138211009Y-98008094D01*
X138211009Y-98008094D02*
X138306247Y-98055713D01*
X134334819Y-101216666D02*
X133858628Y-101549999D01*
X134334819Y-101788094D02*
X133334819Y-101788094D01*
X133334819Y-101788094D02*
X133334819Y-101407142D01*
X133334819Y-101407142D02*
X133382438Y-101311904D01*
X133382438Y-101311904D02*
X133430057Y-101264285D01*
X133430057Y-101264285D02*
X133525295Y-101216666D01*
X133525295Y-101216666D02*
X133668152Y-101216666D01*
X133668152Y-101216666D02*
X133763390Y-101264285D01*
X133763390Y-101264285D02*
X133811009Y-101311904D01*
X133811009Y-101311904D02*
X133858628Y-101407142D01*
X133858628Y-101407142D02*
X133858628Y-101788094D01*
X133763390Y-100645237D02*
X133715771Y-100740475D01*
X133715771Y-100740475D02*
X133668152Y-100788094D01*
X133668152Y-100788094D02*
X133572914Y-100835713D01*
X133572914Y-100835713D02*
X133525295Y-100835713D01*
X133525295Y-100835713D02*
X133430057Y-100788094D01*
X133430057Y-100788094D02*
X133382438Y-100740475D01*
X133382438Y-100740475D02*
X133334819Y-100645237D01*
X133334819Y-100645237D02*
X133334819Y-100454761D01*
X133334819Y-100454761D02*
X133382438Y-100359523D01*
X133382438Y-100359523D02*
X133430057Y-100311904D01*
X133430057Y-100311904D02*
X133525295Y-100264285D01*
X133525295Y-100264285D02*
X133572914Y-100264285D01*
X133572914Y-100264285D02*
X133668152Y-100311904D01*
X133668152Y-100311904D02*
X133715771Y-100359523D01*
X133715771Y-100359523D02*
X133763390Y-100454761D01*
X133763390Y-100454761D02*
X133763390Y-100645237D01*
X133763390Y-100645237D02*
X133811009Y-100740475D01*
X133811009Y-100740475D02*
X133858628Y-100788094D01*
X133858628Y-100788094D02*
X133953866Y-100835713D01*
X133953866Y-100835713D02*
X134144342Y-100835713D01*
X134144342Y-100835713D02*
X134239580Y-100788094D01*
X134239580Y-100788094D02*
X134287200Y-100740475D01*
X134287200Y-100740475D02*
X134334819Y-100645237D01*
X134334819Y-100645237D02*
X134334819Y-100454761D01*
X134334819Y-100454761D02*
X134287200Y-100359523D01*
X134287200Y-100359523D02*
X134239580Y-100311904D01*
X134239580Y-100311904D02*
X134144342Y-100264285D01*
X134144342Y-100264285D02*
X133953866Y-100264285D01*
X133953866Y-100264285D02*
X133858628Y-100311904D01*
X133858628Y-100311904D02*
X133811009Y-100359523D01*
X133811009Y-100359523D02*
X133763390Y-100454761D01*
X186984761Y-111224819D02*
X186651428Y-110748628D01*
X186413333Y-111224819D02*
X186413333Y-110224819D01*
X186413333Y-110224819D02*
X186794285Y-110224819D01*
X186794285Y-110224819D02*
X186889523Y-110272438D01*
X186889523Y-110272438D02*
X186937142Y-110320057D01*
X186937142Y-110320057D02*
X186984761Y-110415295D01*
X186984761Y-110415295D02*
X186984761Y-110558152D01*
X186984761Y-110558152D02*
X186937142Y-110653390D01*
X186937142Y-110653390D02*
X186889523Y-110701009D01*
X186889523Y-110701009D02*
X186794285Y-110748628D01*
X186794285Y-110748628D02*
X186413333Y-110748628D01*
X187270476Y-110224819D02*
X187603809Y-111224819D01*
X187603809Y-111224819D02*
X187937142Y-110224819D01*
X188699047Y-110558152D02*
X188699047Y-111224819D01*
X188460952Y-110177200D02*
X188222857Y-110891485D01*
X188222857Y-110891485D02*
X188841904Y-110891485D01*
X123118095Y-88324819D02*
X123118095Y-89134342D01*
X123118095Y-89134342D02*
X123165714Y-89229580D01*
X123165714Y-89229580D02*
X123213333Y-89277200D01*
X123213333Y-89277200D02*
X123308571Y-89324819D01*
X123308571Y-89324819D02*
X123499047Y-89324819D01*
X123499047Y-89324819D02*
X123594285Y-89277200D01*
X123594285Y-89277200D02*
X123641904Y-89229580D01*
X123641904Y-89229580D02*
X123689523Y-89134342D01*
X123689523Y-89134342D02*
X123689523Y-88324819D01*
X124689523Y-89324819D02*
X124118095Y-89324819D01*
X124403809Y-89324819D02*
X124403809Y-88324819D01*
X124403809Y-88324819D02*
X124308571Y-88467676D01*
X124308571Y-88467676D02*
X124213333Y-88562914D01*
X124213333Y-88562914D02*
X124118095Y-88610533D01*
X109446666Y-80424819D02*
X109446666Y-81139104D01*
X109446666Y-81139104D02*
X109399047Y-81281961D01*
X109399047Y-81281961D02*
X109303809Y-81377200D01*
X109303809Y-81377200D02*
X109160952Y-81424819D01*
X109160952Y-81424819D02*
X109065714Y-81424819D01*
X109827619Y-80424819D02*
X110446666Y-80424819D01*
X110446666Y-80424819D02*
X110113333Y-80805771D01*
X110113333Y-80805771D02*
X110256190Y-80805771D01*
X110256190Y-80805771D02*
X110351428Y-80853390D01*
X110351428Y-80853390D02*
X110399047Y-80901009D01*
X110399047Y-80901009D02*
X110446666Y-80996247D01*
X110446666Y-80996247D02*
X110446666Y-81234342D01*
X110446666Y-81234342D02*
X110399047Y-81329580D01*
X110399047Y-81329580D02*
X110351428Y-81377200D01*
X110351428Y-81377200D02*
X110256190Y-81424819D01*
X110256190Y-81424819D02*
X109970476Y-81424819D01*
X109970476Y-81424819D02*
X109875238Y-81377200D01*
X109875238Y-81377200D02*
X109827619Y-81329580D01*
X130034819Y-98536666D02*
X129558628Y-98869999D01*
X130034819Y-99108094D02*
X129034819Y-99108094D01*
X129034819Y-99108094D02*
X129034819Y-98727142D01*
X129034819Y-98727142D02*
X129082438Y-98631904D01*
X129082438Y-98631904D02*
X129130057Y-98584285D01*
X129130057Y-98584285D02*
X129225295Y-98536666D01*
X129225295Y-98536666D02*
X129368152Y-98536666D01*
X129368152Y-98536666D02*
X129463390Y-98584285D01*
X129463390Y-98584285D02*
X129511009Y-98631904D01*
X129511009Y-98631904D02*
X129558628Y-98727142D01*
X129558628Y-98727142D02*
X129558628Y-99108094D01*
X129368152Y-97679523D02*
X130034819Y-97679523D01*
X128987200Y-97917618D02*
X129701485Y-98155713D01*
X129701485Y-98155713D02*
X129701485Y-97536666D01*
X127493333Y-112624819D02*
X127160000Y-112148628D01*
X126921905Y-112624819D02*
X126921905Y-111624819D01*
X126921905Y-111624819D02*
X127302857Y-111624819D01*
X127302857Y-111624819D02*
X127398095Y-111672438D01*
X127398095Y-111672438D02*
X127445714Y-111720057D01*
X127445714Y-111720057D02*
X127493333Y-111815295D01*
X127493333Y-111815295D02*
X127493333Y-111958152D01*
X127493333Y-111958152D02*
X127445714Y-112053390D01*
X127445714Y-112053390D02*
X127398095Y-112101009D01*
X127398095Y-112101009D02*
X127302857Y-112148628D01*
X127302857Y-112148628D02*
X126921905Y-112148628D01*
X128398095Y-111624819D02*
X127921905Y-111624819D01*
X127921905Y-111624819D02*
X127874286Y-112101009D01*
X127874286Y-112101009D02*
X127921905Y-112053390D01*
X127921905Y-112053390D02*
X128017143Y-112005771D01*
X128017143Y-112005771D02*
X128255238Y-112005771D01*
X128255238Y-112005771D02*
X128350476Y-112053390D01*
X128350476Y-112053390D02*
X128398095Y-112101009D01*
X128398095Y-112101009D02*
X128445714Y-112196247D01*
X128445714Y-112196247D02*
X128445714Y-112434342D01*
X128445714Y-112434342D02*
X128398095Y-112529580D01*
X128398095Y-112529580D02*
X128350476Y-112577200D01*
X128350476Y-112577200D02*
X128255238Y-112624819D01*
X128255238Y-112624819D02*
X128017143Y-112624819D01*
X128017143Y-112624819D02*
X127921905Y-112577200D01*
X127921905Y-112577200D02*
X127874286Y-112529580D01*
X155584761Y-111224819D02*
X155251428Y-110748628D01*
X155013333Y-111224819D02*
X155013333Y-110224819D01*
X155013333Y-110224819D02*
X155394285Y-110224819D01*
X155394285Y-110224819D02*
X155489523Y-110272438D01*
X155489523Y-110272438D02*
X155537142Y-110320057D01*
X155537142Y-110320057D02*
X155584761Y-110415295D01*
X155584761Y-110415295D02*
X155584761Y-110558152D01*
X155584761Y-110558152D02*
X155537142Y-110653390D01*
X155537142Y-110653390D02*
X155489523Y-110701009D01*
X155489523Y-110701009D02*
X155394285Y-110748628D01*
X155394285Y-110748628D02*
X155013333Y-110748628D01*
X155870476Y-110224819D02*
X156203809Y-111224819D01*
X156203809Y-111224819D02*
X156537142Y-110224819D01*
X156775238Y-110224819D02*
X157394285Y-110224819D01*
X157394285Y-110224819D02*
X157060952Y-110605771D01*
X157060952Y-110605771D02*
X157203809Y-110605771D01*
X157203809Y-110605771D02*
X157299047Y-110653390D01*
X157299047Y-110653390D02*
X157346666Y-110701009D01*
X157346666Y-110701009D02*
X157394285Y-110796247D01*
X157394285Y-110796247D02*
X157394285Y-111034342D01*
X157394285Y-111034342D02*
X157346666Y-111129580D01*
X157346666Y-111129580D02*
X157299047Y-111177200D01*
X157299047Y-111177200D02*
X157203809Y-111224819D01*
X157203809Y-111224819D02*
X156918095Y-111224819D01*
X156918095Y-111224819D02*
X156822857Y-111177200D01*
X156822857Y-111177200D02*
X156775238Y-111129580D01*
X109834819Y-93936666D02*
X109358628Y-94269999D01*
X109834819Y-94508094D02*
X108834819Y-94508094D01*
X108834819Y-94508094D02*
X108834819Y-94127142D01*
X108834819Y-94127142D02*
X108882438Y-94031904D01*
X108882438Y-94031904D02*
X108930057Y-93984285D01*
X108930057Y-93984285D02*
X109025295Y-93936666D01*
X109025295Y-93936666D02*
X109168152Y-93936666D01*
X109168152Y-93936666D02*
X109263390Y-93984285D01*
X109263390Y-93984285D02*
X109311009Y-94031904D01*
X109311009Y-94031904D02*
X109358628Y-94127142D01*
X109358628Y-94127142D02*
X109358628Y-94508094D01*
X108930057Y-93555713D02*
X108882438Y-93508094D01*
X108882438Y-93508094D02*
X108834819Y-93412856D01*
X108834819Y-93412856D02*
X108834819Y-93174761D01*
X108834819Y-93174761D02*
X108882438Y-93079523D01*
X108882438Y-93079523D02*
X108930057Y-93031904D01*
X108930057Y-93031904D02*
X109025295Y-92984285D01*
X109025295Y-92984285D02*
X109120533Y-92984285D01*
X109120533Y-92984285D02*
X109263390Y-93031904D01*
X109263390Y-93031904D02*
X109834819Y-93603332D01*
X109834819Y-93603332D02*
X109834819Y-92984285D01*
X117984761Y-111424819D02*
X117651428Y-110948628D01*
X117413333Y-111424819D02*
X117413333Y-110424819D01*
X117413333Y-110424819D02*
X117794285Y-110424819D01*
X117794285Y-110424819D02*
X117889523Y-110472438D01*
X117889523Y-110472438D02*
X117937142Y-110520057D01*
X117937142Y-110520057D02*
X117984761Y-110615295D01*
X117984761Y-110615295D02*
X117984761Y-110758152D01*
X117984761Y-110758152D02*
X117937142Y-110853390D01*
X117937142Y-110853390D02*
X117889523Y-110901009D01*
X117889523Y-110901009D02*
X117794285Y-110948628D01*
X117794285Y-110948628D02*
X117413333Y-110948628D01*
X118270476Y-110424819D02*
X118603809Y-111424819D01*
X118603809Y-111424819D02*
X118937142Y-110424819D01*
X119222857Y-110520057D02*
X119270476Y-110472438D01*
X119270476Y-110472438D02*
X119365714Y-110424819D01*
X119365714Y-110424819D02*
X119603809Y-110424819D01*
X119603809Y-110424819D02*
X119699047Y-110472438D01*
X119699047Y-110472438D02*
X119746666Y-110520057D01*
X119746666Y-110520057D02*
X119794285Y-110615295D01*
X119794285Y-110615295D02*
X119794285Y-110710533D01*
X119794285Y-110710533D02*
X119746666Y-110853390D01*
X119746666Y-110853390D02*
X119175238Y-111424819D01*
X119175238Y-111424819D02*
X119794285Y-111424819D01*
X104539580Y-96536666D02*
X104587200Y-96584285D01*
X104587200Y-96584285D02*
X104634819Y-96727142D01*
X104634819Y-96727142D02*
X104634819Y-96822380D01*
X104634819Y-96822380D02*
X104587200Y-96965237D01*
X104587200Y-96965237D02*
X104491961Y-97060475D01*
X104491961Y-97060475D02*
X104396723Y-97108094D01*
X104396723Y-97108094D02*
X104206247Y-97155713D01*
X104206247Y-97155713D02*
X104063390Y-97155713D01*
X104063390Y-97155713D02*
X103872914Y-97108094D01*
X103872914Y-97108094D02*
X103777676Y-97060475D01*
X103777676Y-97060475D02*
X103682438Y-96965237D01*
X103682438Y-96965237D02*
X103634819Y-96822380D01*
X103634819Y-96822380D02*
X103634819Y-96727142D01*
X103634819Y-96727142D02*
X103682438Y-96584285D01*
X103682438Y-96584285D02*
X103730057Y-96536666D01*
X104634819Y-95584285D02*
X104634819Y-96155713D01*
X104634819Y-95869999D02*
X103634819Y-95869999D01*
X103634819Y-95869999D02*
X103777676Y-95965237D01*
X103777676Y-95965237D02*
X103872914Y-96060475D01*
X103872914Y-96060475D02*
X103920533Y-96155713D01*
X112337142Y-100129580D02*
X112289523Y-100177200D01*
X112289523Y-100177200D02*
X112146666Y-100224819D01*
X112146666Y-100224819D02*
X112051428Y-100224819D01*
X112051428Y-100224819D02*
X111908571Y-100177200D01*
X111908571Y-100177200D02*
X111813333Y-100081961D01*
X111813333Y-100081961D02*
X111765714Y-99986723D01*
X111765714Y-99986723D02*
X111718095Y-99796247D01*
X111718095Y-99796247D02*
X111718095Y-99653390D01*
X111718095Y-99653390D02*
X111765714Y-99462914D01*
X111765714Y-99462914D02*
X111813333Y-99367676D01*
X111813333Y-99367676D02*
X111908571Y-99272438D01*
X111908571Y-99272438D02*
X112051428Y-99224819D01*
X112051428Y-99224819D02*
X112146666Y-99224819D01*
X112146666Y-99224819D02*
X112289523Y-99272438D01*
X112289523Y-99272438D02*
X112337142Y-99320057D01*
X113289523Y-100224819D02*
X112718095Y-100224819D01*
X113003809Y-100224819D02*
X113003809Y-99224819D01*
X113003809Y-99224819D02*
X112908571Y-99367676D01*
X112908571Y-99367676D02*
X112813333Y-99462914D01*
X112813333Y-99462914D02*
X112718095Y-99510533D01*
X113908571Y-99224819D02*
X114003809Y-99224819D01*
X114003809Y-99224819D02*
X114099047Y-99272438D01*
X114099047Y-99272438D02*
X114146666Y-99320057D01*
X114146666Y-99320057D02*
X114194285Y-99415295D01*
X114194285Y-99415295D02*
X114241904Y-99605771D01*
X114241904Y-99605771D02*
X114241904Y-99843866D01*
X114241904Y-99843866D02*
X114194285Y-100034342D01*
X114194285Y-100034342D02*
X114146666Y-100129580D01*
X114146666Y-100129580D02*
X114099047Y-100177200D01*
X114099047Y-100177200D02*
X114003809Y-100224819D01*
X114003809Y-100224819D02*
X113908571Y-100224819D01*
X113908571Y-100224819D02*
X113813333Y-100177200D01*
X113813333Y-100177200D02*
X113765714Y-100129580D01*
X113765714Y-100129580D02*
X113718095Y-100034342D01*
X113718095Y-100034342D02*
X113670476Y-99843866D01*
X113670476Y-99843866D02*
X113670476Y-99605771D01*
X113670476Y-99605771D02*
X113718095Y-99415295D01*
X113718095Y-99415295D02*
X113765714Y-99320057D01*
X113765714Y-99320057D02*
X113813333Y-99272438D01*
X113813333Y-99272438D02*
X113908571Y-99224819D01*
X158059819Y-94592857D02*
X157583628Y-94926190D01*
X158059819Y-95164285D02*
X157059819Y-95164285D01*
X157059819Y-95164285D02*
X157059819Y-94783333D01*
X157059819Y-94783333D02*
X157107438Y-94688095D01*
X157107438Y-94688095D02*
X157155057Y-94640476D01*
X157155057Y-94640476D02*
X157250295Y-94592857D01*
X157250295Y-94592857D02*
X157393152Y-94592857D01*
X157393152Y-94592857D02*
X157488390Y-94640476D01*
X157488390Y-94640476D02*
X157536009Y-94688095D01*
X157536009Y-94688095D02*
X157583628Y-94783333D01*
X157583628Y-94783333D02*
X157583628Y-95164285D01*
X158059819Y-93640476D02*
X158059819Y-94211904D01*
X158059819Y-93926190D02*
X157059819Y-93926190D01*
X157059819Y-93926190D02*
X157202676Y-94021428D01*
X157202676Y-94021428D02*
X157297914Y-94116666D01*
X157297914Y-94116666D02*
X157345533Y-94211904D01*
X157393152Y-92783333D02*
X158059819Y-92783333D01*
X157012200Y-93021428D02*
X157726485Y-93259523D01*
X157726485Y-93259523D02*
X157726485Y-92640476D01*
X167613333Y-102029580D02*
X167565714Y-102077200D01*
X167565714Y-102077200D02*
X167422857Y-102124819D01*
X167422857Y-102124819D02*
X167327619Y-102124819D01*
X167327619Y-102124819D02*
X167184762Y-102077200D01*
X167184762Y-102077200D02*
X167089524Y-101981961D01*
X167089524Y-101981961D02*
X167041905Y-101886723D01*
X167041905Y-101886723D02*
X166994286Y-101696247D01*
X166994286Y-101696247D02*
X166994286Y-101553390D01*
X166994286Y-101553390D02*
X167041905Y-101362914D01*
X167041905Y-101362914D02*
X167089524Y-101267676D01*
X167089524Y-101267676D02*
X167184762Y-101172438D01*
X167184762Y-101172438D02*
X167327619Y-101124819D01*
X167327619Y-101124819D02*
X167422857Y-101124819D01*
X167422857Y-101124819D02*
X167565714Y-101172438D01*
X167565714Y-101172438D02*
X167613333Y-101220057D01*
X168184762Y-101553390D02*
X168089524Y-101505771D01*
X168089524Y-101505771D02*
X168041905Y-101458152D01*
X168041905Y-101458152D02*
X167994286Y-101362914D01*
X167994286Y-101362914D02*
X167994286Y-101315295D01*
X167994286Y-101315295D02*
X168041905Y-101220057D01*
X168041905Y-101220057D02*
X168089524Y-101172438D01*
X168089524Y-101172438D02*
X168184762Y-101124819D01*
X168184762Y-101124819D02*
X168375238Y-101124819D01*
X168375238Y-101124819D02*
X168470476Y-101172438D01*
X168470476Y-101172438D02*
X168518095Y-101220057D01*
X168518095Y-101220057D02*
X168565714Y-101315295D01*
X168565714Y-101315295D02*
X168565714Y-101362914D01*
X168565714Y-101362914D02*
X168518095Y-101458152D01*
X168518095Y-101458152D02*
X168470476Y-101505771D01*
X168470476Y-101505771D02*
X168375238Y-101553390D01*
X168375238Y-101553390D02*
X168184762Y-101553390D01*
X168184762Y-101553390D02*
X168089524Y-101601009D01*
X168089524Y-101601009D02*
X168041905Y-101648628D01*
X168041905Y-101648628D02*
X167994286Y-101743866D01*
X167994286Y-101743866D02*
X167994286Y-101934342D01*
X167994286Y-101934342D02*
X168041905Y-102029580D01*
X168041905Y-102029580D02*
X168089524Y-102077200D01*
X168089524Y-102077200D02*
X168184762Y-102124819D01*
X168184762Y-102124819D02*
X168375238Y-102124819D01*
X168375238Y-102124819D02*
X168470476Y-102077200D01*
X168470476Y-102077200D02*
X168518095Y-102029580D01*
X168518095Y-102029580D02*
X168565714Y-101934342D01*
X168565714Y-101934342D02*
X168565714Y-101743866D01*
X168565714Y-101743866D02*
X168518095Y-101648628D01*
X168518095Y-101648628D02*
X168470476Y-101601009D01*
X168470476Y-101601009D02*
X168375238Y-101553390D01*
X128146666Y-81374819D02*
X128146666Y-82089104D01*
X128146666Y-82089104D02*
X128099047Y-82231961D01*
X128099047Y-82231961D02*
X128003809Y-82327200D01*
X128003809Y-82327200D02*
X127860952Y-82374819D01*
X127860952Y-82374819D02*
X127765714Y-82374819D01*
X129146666Y-82374819D02*
X128575238Y-82374819D01*
X128860952Y-82374819D02*
X128860952Y-81374819D01*
X128860952Y-81374819D02*
X128765714Y-81517676D01*
X128765714Y-81517676D02*
X128670476Y-81612914D01*
X128670476Y-81612914D02*
X128575238Y-81660533D01*
X155313333Y-86529580D02*
X155265714Y-86577200D01*
X155265714Y-86577200D02*
X155122857Y-86624819D01*
X155122857Y-86624819D02*
X155027619Y-86624819D01*
X155027619Y-86624819D02*
X154884762Y-86577200D01*
X154884762Y-86577200D02*
X154789524Y-86481961D01*
X154789524Y-86481961D02*
X154741905Y-86386723D01*
X154741905Y-86386723D02*
X154694286Y-86196247D01*
X154694286Y-86196247D02*
X154694286Y-86053390D01*
X154694286Y-86053390D02*
X154741905Y-85862914D01*
X154741905Y-85862914D02*
X154789524Y-85767676D01*
X154789524Y-85767676D02*
X154884762Y-85672438D01*
X154884762Y-85672438D02*
X155027619Y-85624819D01*
X155027619Y-85624819D02*
X155122857Y-85624819D01*
X155122857Y-85624819D02*
X155265714Y-85672438D01*
X155265714Y-85672438D02*
X155313333Y-85720057D01*
X155646667Y-85624819D02*
X156265714Y-85624819D01*
X156265714Y-85624819D02*
X155932381Y-86005771D01*
X155932381Y-86005771D02*
X156075238Y-86005771D01*
X156075238Y-86005771D02*
X156170476Y-86053390D01*
X156170476Y-86053390D02*
X156218095Y-86101009D01*
X156218095Y-86101009D02*
X156265714Y-86196247D01*
X156265714Y-86196247D02*
X156265714Y-86434342D01*
X156265714Y-86434342D02*
X156218095Y-86529580D01*
X156218095Y-86529580D02*
X156170476Y-86577200D01*
X156170476Y-86577200D02*
X156075238Y-86624819D01*
X156075238Y-86624819D02*
X155789524Y-86624819D01*
X155789524Y-86624819D02*
X155694286Y-86577200D01*
X155694286Y-86577200D02*
X155646667Y-86529580D01*
X120113333Y-86529580D02*
X120065714Y-86577200D01*
X120065714Y-86577200D02*
X119922857Y-86624819D01*
X119922857Y-86624819D02*
X119827619Y-86624819D01*
X119827619Y-86624819D02*
X119684762Y-86577200D01*
X119684762Y-86577200D02*
X119589524Y-86481961D01*
X119589524Y-86481961D02*
X119541905Y-86386723D01*
X119541905Y-86386723D02*
X119494286Y-86196247D01*
X119494286Y-86196247D02*
X119494286Y-86053390D01*
X119494286Y-86053390D02*
X119541905Y-85862914D01*
X119541905Y-85862914D02*
X119589524Y-85767676D01*
X119589524Y-85767676D02*
X119684762Y-85672438D01*
X119684762Y-85672438D02*
X119827619Y-85624819D01*
X119827619Y-85624819D02*
X119922857Y-85624819D01*
X119922857Y-85624819D02*
X120065714Y-85672438D01*
X120065714Y-85672438D02*
X120113333Y-85720057D01*
X120589524Y-86624819D02*
X120780000Y-86624819D01*
X120780000Y-86624819D02*
X120875238Y-86577200D01*
X120875238Y-86577200D02*
X120922857Y-86529580D01*
X120922857Y-86529580D02*
X121018095Y-86386723D01*
X121018095Y-86386723D02*
X121065714Y-86196247D01*
X121065714Y-86196247D02*
X121065714Y-85815295D01*
X121065714Y-85815295D02*
X121018095Y-85720057D01*
X121018095Y-85720057D02*
X120970476Y-85672438D01*
X120970476Y-85672438D02*
X120875238Y-85624819D01*
X120875238Y-85624819D02*
X120684762Y-85624819D01*
X120684762Y-85624819D02*
X120589524Y-85672438D01*
X120589524Y-85672438D02*
X120541905Y-85720057D01*
X120541905Y-85720057D02*
X120494286Y-85815295D01*
X120494286Y-85815295D02*
X120494286Y-86053390D01*
X120494286Y-86053390D02*
X120541905Y-86148628D01*
X120541905Y-86148628D02*
X120589524Y-86196247D01*
X120589524Y-86196247D02*
X120684762Y-86243866D01*
X120684762Y-86243866D02*
X120875238Y-86243866D01*
X120875238Y-86243866D02*
X120970476Y-86196247D01*
X120970476Y-86196247D02*
X121018095Y-86148628D01*
X121018095Y-86148628D02*
X121065714Y-86053390D01*
X159438333Y-104329580D02*
X159390714Y-104377200D01*
X159390714Y-104377200D02*
X159247857Y-104424819D01*
X159247857Y-104424819D02*
X159152619Y-104424819D01*
X159152619Y-104424819D02*
X159009762Y-104377200D01*
X159009762Y-104377200D02*
X158914524Y-104281961D01*
X158914524Y-104281961D02*
X158866905Y-104186723D01*
X158866905Y-104186723D02*
X158819286Y-103996247D01*
X158819286Y-103996247D02*
X158819286Y-103853390D01*
X158819286Y-103853390D02*
X158866905Y-103662914D01*
X158866905Y-103662914D02*
X158914524Y-103567676D01*
X158914524Y-103567676D02*
X159009762Y-103472438D01*
X159009762Y-103472438D02*
X159152619Y-103424819D01*
X159152619Y-103424819D02*
X159247857Y-103424819D01*
X159247857Y-103424819D02*
X159390714Y-103472438D01*
X159390714Y-103472438D02*
X159438333Y-103520057D01*
X159771667Y-103424819D02*
X160438333Y-103424819D01*
X160438333Y-103424819D02*
X160009762Y-104424819D01*
X118939580Y-103036666D02*
X118987200Y-103084285D01*
X118987200Y-103084285D02*
X119034819Y-103227142D01*
X119034819Y-103227142D02*
X119034819Y-103322380D01*
X119034819Y-103322380D02*
X118987200Y-103465237D01*
X118987200Y-103465237D02*
X118891961Y-103560475D01*
X118891961Y-103560475D02*
X118796723Y-103608094D01*
X118796723Y-103608094D02*
X118606247Y-103655713D01*
X118606247Y-103655713D02*
X118463390Y-103655713D01*
X118463390Y-103655713D02*
X118272914Y-103608094D01*
X118272914Y-103608094D02*
X118177676Y-103560475D01*
X118177676Y-103560475D02*
X118082438Y-103465237D01*
X118082438Y-103465237D02*
X118034819Y-103322380D01*
X118034819Y-103322380D02*
X118034819Y-103227142D01*
X118034819Y-103227142D02*
X118082438Y-103084285D01*
X118082438Y-103084285D02*
X118130057Y-103036666D01*
X118130057Y-102655713D02*
X118082438Y-102608094D01*
X118082438Y-102608094D02*
X118034819Y-102512856D01*
X118034819Y-102512856D02*
X118034819Y-102274761D01*
X118034819Y-102274761D02*
X118082438Y-102179523D01*
X118082438Y-102179523D02*
X118130057Y-102131904D01*
X118130057Y-102131904D02*
X118225295Y-102084285D01*
X118225295Y-102084285D02*
X118320533Y-102084285D01*
X118320533Y-102084285D02*
X118463390Y-102131904D01*
X118463390Y-102131904D02*
X119034819Y-102703332D01*
X119034819Y-102703332D02*
X119034819Y-102084285D01*
X126434819Y-98656666D02*
X125958628Y-98989999D01*
X126434819Y-99228094D02*
X125434819Y-99228094D01*
X125434819Y-99228094D02*
X125434819Y-98847142D01*
X125434819Y-98847142D02*
X125482438Y-98751904D01*
X125482438Y-98751904D02*
X125530057Y-98704285D01*
X125530057Y-98704285D02*
X125625295Y-98656666D01*
X125625295Y-98656666D02*
X125768152Y-98656666D01*
X125768152Y-98656666D02*
X125863390Y-98704285D01*
X125863390Y-98704285D02*
X125911009Y-98751904D01*
X125911009Y-98751904D02*
X125958628Y-98847142D01*
X125958628Y-98847142D02*
X125958628Y-99228094D01*
X125434819Y-98323332D02*
X125434819Y-97704285D01*
X125434819Y-97704285D02*
X125815771Y-98037618D01*
X125815771Y-98037618D02*
X125815771Y-97894761D01*
X125815771Y-97894761D02*
X125863390Y-97799523D01*
X125863390Y-97799523D02*
X125911009Y-97751904D01*
X125911009Y-97751904D02*
X126006247Y-97704285D01*
X126006247Y-97704285D02*
X126244342Y-97704285D01*
X126244342Y-97704285D02*
X126339580Y-97751904D01*
X126339580Y-97751904D02*
X126387200Y-97799523D01*
X126387200Y-97799523D02*
X126434819Y-97894761D01*
X126434819Y-97894761D02*
X126434819Y-98180475D01*
X126434819Y-98180475D02*
X126387200Y-98275713D01*
X126387200Y-98275713D02*
X126339580Y-98323332D01*
X137762142Y-93004819D02*
X137428809Y-92528628D01*
X137190714Y-93004819D02*
X137190714Y-92004819D01*
X137190714Y-92004819D02*
X137571666Y-92004819D01*
X137571666Y-92004819D02*
X137666904Y-92052438D01*
X137666904Y-92052438D02*
X137714523Y-92100057D01*
X137714523Y-92100057D02*
X137762142Y-92195295D01*
X137762142Y-92195295D02*
X137762142Y-92338152D01*
X137762142Y-92338152D02*
X137714523Y-92433390D01*
X137714523Y-92433390D02*
X137666904Y-92481009D01*
X137666904Y-92481009D02*
X137571666Y-92528628D01*
X137571666Y-92528628D02*
X137190714Y-92528628D01*
X138714523Y-93004819D02*
X138143095Y-93004819D01*
X138428809Y-93004819D02*
X138428809Y-92004819D01*
X138428809Y-92004819D02*
X138333571Y-92147676D01*
X138333571Y-92147676D02*
X138238333Y-92242914D01*
X138238333Y-92242914D02*
X138143095Y-92290533D01*
X139333571Y-92004819D02*
X139428809Y-92004819D01*
X139428809Y-92004819D02*
X139524047Y-92052438D01*
X139524047Y-92052438D02*
X139571666Y-92100057D01*
X139571666Y-92100057D02*
X139619285Y-92195295D01*
X139619285Y-92195295D02*
X139666904Y-92385771D01*
X139666904Y-92385771D02*
X139666904Y-92623866D01*
X139666904Y-92623866D02*
X139619285Y-92814342D01*
X139619285Y-92814342D02*
X139571666Y-92909580D01*
X139571666Y-92909580D02*
X139524047Y-92957200D01*
X139524047Y-92957200D02*
X139428809Y-93004819D01*
X139428809Y-93004819D02*
X139333571Y-93004819D01*
X139333571Y-93004819D02*
X139238333Y-92957200D01*
X139238333Y-92957200D02*
X139190714Y-92909580D01*
X139190714Y-92909580D02*
X139143095Y-92814342D01*
X139143095Y-92814342D02*
X139095476Y-92623866D01*
X139095476Y-92623866D02*
X139095476Y-92385771D01*
X139095476Y-92385771D02*
X139143095Y-92195295D01*
X139143095Y-92195295D02*
X139190714Y-92100057D01*
X139190714Y-92100057D02*
X139238333Y-92052438D01*
X139238333Y-92052438D02*
X139333571Y-92004819D01*
X138038333Y-89604819D02*
X137705000Y-89128628D01*
X137466905Y-89604819D02*
X137466905Y-88604819D01*
X137466905Y-88604819D02*
X137847857Y-88604819D01*
X137847857Y-88604819D02*
X137943095Y-88652438D01*
X137943095Y-88652438D02*
X137990714Y-88700057D01*
X137990714Y-88700057D02*
X138038333Y-88795295D01*
X138038333Y-88795295D02*
X138038333Y-88938152D01*
X138038333Y-88938152D02*
X137990714Y-89033390D01*
X137990714Y-89033390D02*
X137943095Y-89081009D01*
X137943095Y-89081009D02*
X137847857Y-89128628D01*
X137847857Y-89128628D02*
X137466905Y-89128628D01*
X138514524Y-89604819D02*
X138705000Y-89604819D01*
X138705000Y-89604819D02*
X138800238Y-89557200D01*
X138800238Y-89557200D02*
X138847857Y-89509580D01*
X138847857Y-89509580D02*
X138943095Y-89366723D01*
X138943095Y-89366723D02*
X138990714Y-89176247D01*
X138990714Y-89176247D02*
X138990714Y-88795295D01*
X138990714Y-88795295D02*
X138943095Y-88700057D01*
X138943095Y-88700057D02*
X138895476Y-88652438D01*
X138895476Y-88652438D02*
X138800238Y-88604819D01*
X138800238Y-88604819D02*
X138609762Y-88604819D01*
X138609762Y-88604819D02*
X138514524Y-88652438D01*
X138514524Y-88652438D02*
X138466905Y-88700057D01*
X138466905Y-88700057D02*
X138419286Y-88795295D01*
X138419286Y-88795295D02*
X138419286Y-89033390D01*
X138419286Y-89033390D02*
X138466905Y-89128628D01*
X138466905Y-89128628D02*
X138514524Y-89176247D01*
X138514524Y-89176247D02*
X138609762Y-89223866D01*
X138609762Y-89223866D02*
X138800238Y-89223866D01*
X138800238Y-89223866D02*
X138895476Y-89176247D01*
X138895476Y-89176247D02*
X138943095Y-89128628D01*
X138943095Y-89128628D02*
X138990714Y-89033390D01*
X124084819Y-116665238D02*
X123608628Y-116998571D01*
X124084819Y-117236666D02*
X123084819Y-117236666D01*
X123084819Y-117236666D02*
X123084819Y-116855714D01*
X123084819Y-116855714D02*
X123132438Y-116760476D01*
X123132438Y-116760476D02*
X123180057Y-116712857D01*
X123180057Y-116712857D02*
X123275295Y-116665238D01*
X123275295Y-116665238D02*
X123418152Y-116665238D01*
X123418152Y-116665238D02*
X123513390Y-116712857D01*
X123513390Y-116712857D02*
X123561009Y-116760476D01*
X123561009Y-116760476D02*
X123608628Y-116855714D01*
X123608628Y-116855714D02*
X123608628Y-117236666D01*
X123084819Y-116379523D02*
X124084819Y-116046190D01*
X124084819Y-116046190D02*
X123084819Y-115712857D01*
X124084819Y-114855714D02*
X124084819Y-115427142D01*
X124084819Y-115141428D02*
X123084819Y-115141428D01*
X123084819Y-115141428D02*
X123227676Y-115236666D01*
X123227676Y-115236666D02*
X123322914Y-115331904D01*
X123322914Y-115331904D02*
X123370533Y-115427142D01*
X175046666Y-98224819D02*
X175046666Y-98939104D01*
X175046666Y-98939104D02*
X174999047Y-99081961D01*
X174999047Y-99081961D02*
X174903809Y-99177200D01*
X174903809Y-99177200D02*
X174760952Y-99224819D01*
X174760952Y-99224819D02*
X174665714Y-99224819D01*
X175951428Y-98558152D02*
X175951428Y-99224819D01*
X175713333Y-98177200D02*
X175475238Y-98891485D01*
X175475238Y-98891485D02*
X176094285Y-98891485D01*
X103613333Y-103254819D02*
X103280000Y-102778628D01*
X103041905Y-103254819D02*
X103041905Y-102254819D01*
X103041905Y-102254819D02*
X103422857Y-102254819D01*
X103422857Y-102254819D02*
X103518095Y-102302438D01*
X103518095Y-102302438D02*
X103565714Y-102350057D01*
X103565714Y-102350057D02*
X103613333Y-102445295D01*
X103613333Y-102445295D02*
X103613333Y-102588152D01*
X103613333Y-102588152D02*
X103565714Y-102683390D01*
X103565714Y-102683390D02*
X103518095Y-102731009D01*
X103518095Y-102731009D02*
X103422857Y-102778628D01*
X103422857Y-102778628D02*
X103041905Y-102778628D01*
X104470476Y-102254819D02*
X104280000Y-102254819D01*
X104280000Y-102254819D02*
X104184762Y-102302438D01*
X104184762Y-102302438D02*
X104137143Y-102350057D01*
X104137143Y-102350057D02*
X104041905Y-102492914D01*
X104041905Y-102492914D02*
X103994286Y-102683390D01*
X103994286Y-102683390D02*
X103994286Y-103064342D01*
X103994286Y-103064342D02*
X104041905Y-103159580D01*
X104041905Y-103159580D02*
X104089524Y-103207200D01*
X104089524Y-103207200D02*
X104184762Y-103254819D01*
X104184762Y-103254819D02*
X104375238Y-103254819D01*
X104375238Y-103254819D02*
X104470476Y-103207200D01*
X104470476Y-103207200D02*
X104518095Y-103159580D01*
X104518095Y-103159580D02*
X104565714Y-103064342D01*
X104565714Y-103064342D02*
X104565714Y-102826247D01*
X104565714Y-102826247D02*
X104518095Y-102731009D01*
X104518095Y-102731009D02*
X104470476Y-102683390D01*
X104470476Y-102683390D02*
X104375238Y-102635771D01*
X104375238Y-102635771D02*
X104184762Y-102635771D01*
X104184762Y-102635771D02*
X104089524Y-102683390D01*
X104089524Y-102683390D02*
X104041905Y-102731009D01*
X104041905Y-102731009D02*
X103994286Y-102826247D01*
X186634819Y-107253333D02*
X187349104Y-107253333D01*
X187349104Y-107253333D02*
X187491961Y-107300952D01*
X187491961Y-107300952D02*
X187587200Y-107396190D01*
X187587200Y-107396190D02*
X187634819Y-107539047D01*
X187634819Y-107539047D02*
X187634819Y-107634285D01*
X186730057Y-106824761D02*
X186682438Y-106777142D01*
X186682438Y-106777142D02*
X186634819Y-106681904D01*
X186634819Y-106681904D02*
X186634819Y-106443809D01*
X186634819Y-106443809D02*
X186682438Y-106348571D01*
X186682438Y-106348571D02*
X186730057Y-106300952D01*
X186730057Y-106300952D02*
X186825295Y-106253333D01*
X186825295Y-106253333D02*
X186920533Y-106253333D01*
X186920533Y-106253333D02*
X187063390Y-106300952D01*
X187063390Y-106300952D02*
X187634819Y-106872380D01*
X187634819Y-106872380D02*
X187634819Y-106253333D01*
D13*
%TO.C,J5*%
X131625000Y-82300000D02*
X131625000Y-80970000D01*
X132955000Y-82300000D02*
X131625000Y-82300000D01*
X134225000Y-82300000D02*
X139365000Y-82300000D01*
X134225000Y-82300000D02*
X134225000Y-79640000D01*
X139365000Y-82300000D02*
X139365000Y-79640000D01*
X134225000Y-79640000D02*
X139365000Y-79640000D01*
%TO.C,C4*%
X147275000Y-101180000D02*
X147260000Y-101180000D01*
X147275000Y-101180000D02*
X147275000Y-105720000D01*
X145150000Y-101180000D02*
X145135000Y-101180000D01*
X145135000Y-101180000D02*
X145135000Y-105720000D01*
X147275000Y-105720000D02*
X147260000Y-105720000D01*
X145150000Y-105720000D02*
X145135000Y-105720000D01*
%TO.C,R12*%
X164805000Y-89910000D02*
X164805000Y-90680000D01*
X166175000Y-90680000D02*
X163435000Y-90680000D01*
X163435000Y-90680000D02*
X163435000Y-97220000D01*
X166175000Y-97220000D02*
X166175000Y-90680000D01*
X163435000Y-97220000D02*
X166175000Y-97220000D01*
X164805000Y-97990000D02*
X164805000Y-97220000D01*
%TO.C,U2*%
X147740000Y-89020000D02*
X147740000Y-99300000D01*
X147740000Y-99300000D02*
X152240000Y-99300000D01*
X148990000Y-89020000D02*
X147740000Y-89020000D01*
X152240000Y-89020000D02*
X150990000Y-89020000D01*
X152240000Y-99300000D02*
X152240000Y-89020000D01*
X148990000Y-89020000D02*
G75*
G03*
X150990000Y-89020000I1000000J0D01*
G01*
%TO.C,G\u002A\u002A\u002A*%
D14*
X171087507Y-78748455D02*
X171312392Y-78752416D01*
X171491397Y-78761026D01*
X171633325Y-78775927D01*
X171746979Y-78798763D01*
X171841160Y-78831176D01*
X171924673Y-78874809D01*
X172006320Y-78931305D01*
X172071989Y-78983405D01*
X172229969Y-79150554D01*
X172337168Y-79344409D01*
X172395004Y-79555516D01*
X172404897Y-79774425D01*
X172368266Y-79991684D01*
X172286530Y-80197841D01*
X172161110Y-80383445D01*
X171993423Y-80539043D01*
X171823448Y-80638500D01*
X171755625Y-80666982D01*
X171686649Y-80688323D01*
X171604778Y-80704102D01*
X171498271Y-80715896D01*
X171355384Y-80725284D01*
X171164376Y-80733844D01*
X171093876Y-80736565D01*
X170871819Y-80746169D01*
X170706537Y-80757157D01*
X170591307Y-80771389D01*
X170519406Y-80790725D01*
X170484112Y-80817025D01*
X170478701Y-80852150D01*
X170496450Y-80897960D01*
X170498258Y-80901376D01*
X170514539Y-80923904D01*
X170541877Y-80940635D01*
X170589456Y-80952714D01*
X170666456Y-80961289D01*
X170782058Y-80967504D01*
X170945445Y-80972505D01*
X171095773Y-80975954D01*
X171346713Y-80983990D01*
X171545058Y-80998276D01*
X171701650Y-81022220D01*
X171827332Y-81059228D01*
X171932944Y-81112708D01*
X172029329Y-81186065D01*
X172127329Y-81282706D01*
X172149965Y-81307193D01*
X172229019Y-81399035D01*
X172289903Y-81486692D01*
X172335062Y-81580350D01*
X172366942Y-81690196D01*
X172387988Y-81826416D01*
X172400646Y-81999195D01*
X172407360Y-82218721D01*
X172409673Y-82388984D01*
X172411124Y-82606455D01*
X172410157Y-82769779D01*
X172406139Y-82888287D01*
X172398436Y-82971308D01*
X172386414Y-83028170D01*
X172369442Y-83068203D01*
X172362822Y-83079042D01*
X172277793Y-83157889D01*
X172170157Y-83189160D01*
X172059314Y-83172897D01*
X171964665Y-83109144D01*
X171940566Y-83078110D01*
X171919933Y-83037739D01*
X171905700Y-82983155D01*
X171897033Y-82903760D01*
X171893100Y-82788956D01*
X171893069Y-82628145D01*
X171894732Y-82494837D01*
X171895444Y-82246886D01*
X171888296Y-82053672D01*
X171872093Y-81906783D01*
X171845638Y-81797808D01*
X171807735Y-81718335D01*
X171779059Y-81681376D01*
X171729288Y-81629082D01*
X171682747Y-81589865D01*
X171629479Y-81561555D01*
X171559531Y-81541985D01*
X171462945Y-81528987D01*
X171329767Y-81520394D01*
X171150041Y-81514037D01*
X170990920Y-81509750D01*
X170379248Y-81493875D01*
X170241686Y-81397215D01*
X170093913Y-81259535D01*
X169997569Y-81097899D01*
X169951244Y-80922707D01*
X169953522Y-80744359D01*
X170002993Y-80573254D01*
X170098242Y-80419791D01*
X170237856Y-80294370D01*
X170402550Y-80213277D01*
X170479196Y-80198656D01*
X170608946Y-80187210D01*
X170781459Y-80179558D01*
X170986390Y-80176317D01*
X171022170Y-80176250D01*
X171221210Y-80175302D01*
X171367995Y-80171747D01*
X171473754Y-80164518D01*
X171549714Y-80152548D01*
X171607103Y-80134769D01*
X171644495Y-80117096D01*
X171769897Y-80016053D01*
X171848429Y-79877039D01*
X171874075Y-79711137D01*
X171846683Y-79552918D01*
X171766863Y-79428100D01*
X171666087Y-79349352D01*
X171629568Y-79329776D01*
X171586754Y-79314800D01*
X171529129Y-79303814D01*
X171448172Y-79296208D01*
X171335367Y-79291371D01*
X171182194Y-79288693D01*
X170980135Y-79287564D01*
X170800855Y-79287368D01*
X170037086Y-79287250D01*
X169928636Y-79367262D01*
X169851968Y-79430947D01*
X169795979Y-79489955D01*
X169787530Y-79502199D01*
X169779030Y-79547991D01*
X169770905Y-79654194D01*
X169763255Y-79817716D01*
X169756179Y-80035471D01*
X169749774Y-80304367D01*
X169744142Y-80621316D01*
X169739379Y-80983228D01*
X169739000Y-81017625D01*
X169723125Y-82478125D01*
X169638975Y-82636875D01*
X169491582Y-82851372D01*
X169302457Y-83022636D01*
X169176109Y-83099224D01*
X169015768Y-83154306D01*
X168823488Y-83180115D01*
X168623423Y-83176451D01*
X168439726Y-83143111D01*
X168342000Y-83106154D01*
X168148256Y-82978493D01*
X167979378Y-82804471D01*
X167871127Y-82638704D01*
X167786375Y-82478125D01*
X167770500Y-81017625D01*
X167766724Y-80666722D01*
X167763216Y-80373620D01*
X167759258Y-80132624D01*
X167754130Y-79938042D01*
X167747114Y-79784182D01*
X167737492Y-79665350D01*
X167724544Y-79575853D01*
X167707552Y-79509999D01*
X167685798Y-79462096D01*
X167658563Y-79426449D01*
X167625128Y-79397367D01*
X167584774Y-79369157D01*
X167560319Y-79352601D01*
X167482888Y-79308719D01*
X167403266Y-79290691D01*
X167293244Y-79292699D01*
X167276402Y-79294031D01*
X167159137Y-79310593D01*
X167076911Y-79344193D01*
X167001481Y-79406577D01*
X166998379Y-79409664D01*
X166897375Y-79510617D01*
X166880208Y-80962621D01*
X166876005Y-81306177D01*
X166872045Y-81592239D01*
X166868027Y-81826813D01*
X166863650Y-82015901D01*
X166858614Y-82165510D01*
X166852616Y-82281642D01*
X166845356Y-82370302D01*
X166836533Y-82437494D01*
X166825846Y-82489224D01*
X166812993Y-82531494D01*
X166799854Y-82565156D01*
X166678172Y-82778443D01*
X166510091Y-82960992D01*
X166338651Y-83081632D01*
X166248093Y-83128259D01*
X166168910Y-83156597D01*
X166079682Y-83171095D01*
X165958991Y-83176202D01*
X165881375Y-83176625D01*
X165737155Y-83174492D01*
X165635009Y-83165150D01*
X165553569Y-83144184D01*
X165471470Y-83107180D01*
X165425590Y-83082445D01*
X165241518Y-82952625D01*
X165086306Y-82788743D01*
X164975354Y-82607846D01*
X164956979Y-82563676D01*
X164943510Y-82522210D01*
X164932140Y-82471575D01*
X164922596Y-82405840D01*
X164914604Y-82319073D01*
X164907889Y-82205341D01*
X164902178Y-82058713D01*
X164897196Y-81873257D01*
X164892670Y-81643041D01*
X164888325Y-81362132D01*
X164883889Y-81024600D01*
X164883157Y-80965339D01*
X164878868Y-80623884D01*
X164874934Y-80340235D01*
X164871050Y-80108702D01*
X164866913Y-79923595D01*
X164862217Y-79779224D01*
X164856660Y-79669898D01*
X164849937Y-79589927D01*
X164841743Y-79533622D01*
X164831775Y-79495291D01*
X164819729Y-79469245D01*
X164805300Y-79449793D01*
X164801949Y-79446026D01*
X164672388Y-79345161D01*
X164522327Y-79294844D01*
X164366172Y-79294203D01*
X164218331Y-79342363D01*
X164093207Y-79438452D01*
X164051827Y-79491487D01*
X164041020Y-79519177D01*
X164031713Y-79570645D01*
X164023713Y-79650849D01*
X164016825Y-79764747D01*
X164010855Y-79917297D01*
X164005612Y-80113458D01*
X164000900Y-80358188D01*
X163996526Y-80656445D01*
X163992298Y-81013187D01*
X163992250Y-81017625D01*
X163988454Y-81360243D01*
X163984968Y-81645312D01*
X163981469Y-81878779D01*
X163977633Y-82066593D01*
X163973138Y-82214702D01*
X163967659Y-82329051D01*
X163960874Y-82415591D01*
X163952459Y-82480268D01*
X163942091Y-82529030D01*
X163929447Y-82567824D01*
X163914203Y-82602599D01*
X163905094Y-82621164D01*
X163771614Y-82825201D01*
X163598257Y-82990964D01*
X163395752Y-83110933D01*
X163174831Y-83177590D01*
X163097984Y-83186733D01*
X162989562Y-83190992D01*
X162920431Y-83180008D01*
X162867033Y-83147629D01*
X162835587Y-83118224D01*
X162766454Y-83013014D01*
X162753549Y-82903297D01*
X162791800Y-82801129D01*
X162876131Y-82718561D01*
X163001469Y-82667648D01*
X163027259Y-82662888D01*
X163208092Y-82612121D01*
X163338369Y-82523665D01*
X163380763Y-82471000D01*
X163394076Y-82446185D01*
X163405268Y-82412047D01*
X163414606Y-82362883D01*
X163422357Y-82292990D01*
X163428788Y-82196664D01*
X163434165Y-82068203D01*
X163438758Y-81901904D01*
X163442832Y-81692064D01*
X163446654Y-81432981D01*
X163450493Y-81118950D01*
X163452500Y-80939723D01*
X163456341Y-80598430D01*
X163459911Y-80314623D01*
X163463527Y-80082291D01*
X163467508Y-79895421D01*
X163472171Y-79748002D01*
X163477837Y-79634023D01*
X163484823Y-79547471D01*
X163493448Y-79482337D01*
X163504030Y-79432607D01*
X163516888Y-79392271D01*
X163532340Y-79355317D01*
X163536983Y-79345172D01*
X163669693Y-79127785D01*
X163843070Y-78955523D01*
X164050519Y-78833039D01*
X164285441Y-78764988D01*
X164373704Y-78754837D01*
X164621674Y-78767316D01*
X164852359Y-78838022D01*
X165057242Y-78962384D01*
X165227804Y-79135830D01*
X165306738Y-79255500D01*
X165405125Y-79430125D01*
X165421000Y-80890625D01*
X165425577Y-81265385D01*
X165430574Y-81580335D01*
X165436124Y-81839165D01*
X165442357Y-82045564D01*
X165449408Y-82203222D01*
X165457407Y-82315827D01*
X165466489Y-82387069D01*
X165475846Y-82419137D01*
X165525481Y-82483675D01*
X165599175Y-82557616D01*
X165617203Y-82573302D01*
X165684162Y-82622808D01*
X165748287Y-82646226D01*
X165835237Y-82650092D01*
X165903234Y-82646169D01*
X166068181Y-82613538D01*
X166193125Y-82537911D01*
X166289102Y-82414625D01*
X166299124Y-82372811D01*
X166308108Y-82282299D01*
X166316137Y-82140742D01*
X166323291Y-81945796D01*
X166329651Y-81695114D01*
X166335299Y-81386350D01*
X166340316Y-81017159D01*
X166341750Y-80890625D01*
X166345552Y-80547926D01*
X166349052Y-80262824D01*
X166352567Y-80029418D01*
X166356414Y-79841806D01*
X166360910Y-79694088D01*
X166366373Y-79580363D01*
X166373121Y-79494731D01*
X166381469Y-79431291D01*
X166391737Y-79384141D01*
X166404241Y-79347382D01*
X166419298Y-79315113D01*
X166427291Y-79299923D01*
X166569572Y-79093210D01*
X166743357Y-78935304D01*
X166940171Y-78825983D01*
X167151535Y-78765026D01*
X167368972Y-78752212D01*
X167584005Y-78787320D01*
X167788156Y-78870128D01*
X167972948Y-79000416D01*
X168129903Y-79177962D01*
X168226514Y-79346863D01*
X168242557Y-79383695D01*
X168255949Y-79422618D01*
X168267006Y-79469642D01*
X168276045Y-79530777D01*
X168283382Y-79612031D01*
X168289334Y-79719415D01*
X168294216Y-79858938D01*
X168298344Y-80036609D01*
X168302035Y-80258438D01*
X168305606Y-80530434D01*
X168309371Y-80858608D01*
X168310250Y-80938250D01*
X168314644Y-81300438D01*
X168319304Y-81603720D01*
X168324404Y-81852689D01*
X168330116Y-82051939D01*
X168336617Y-82206062D01*
X168344080Y-82319653D01*
X168352679Y-82397305D01*
X168362589Y-82443611D01*
X168367838Y-82456011D01*
X168460908Y-82559799D01*
X168589831Y-82626101D01*
X168737014Y-82651716D01*
X168884861Y-82633444D01*
X169009613Y-82572737D01*
X169086281Y-82509052D01*
X169142270Y-82450044D01*
X169150719Y-82437800D01*
X169159252Y-82391966D01*
X169167410Y-82285782D01*
X169175091Y-82122400D01*
X169182193Y-81904970D01*
X169188615Y-81636643D01*
X169194255Y-81320567D01*
X169199009Y-80959895D01*
X169199250Y-80938250D01*
X169203044Y-80597940D01*
X169206501Y-80315057D01*
X169209965Y-80083532D01*
X169213781Y-79897296D01*
X169218294Y-79750280D01*
X169223848Y-79636415D01*
X169230787Y-79549631D01*
X169239456Y-79483860D01*
X169250199Y-79433032D01*
X169263361Y-79391078D01*
X169279287Y-79351929D01*
X169290747Y-79326298D01*
X169383642Y-79173670D01*
X169515290Y-79025464D01*
X169667282Y-78898912D01*
X169821208Y-78811244D01*
X169854653Y-78798493D01*
X169914109Y-78782007D01*
X169989210Y-78769335D01*
X170088320Y-78760032D01*
X170219801Y-78753649D01*
X170392017Y-78749738D01*
X170613331Y-78747853D01*
X170807940Y-78747499D01*
X171087507Y-78748455D01*
G36*
X171087507Y-78748455D02*
G01*
X171312392Y-78752416D01*
X171491397Y-78761026D01*
X171633325Y-78775927D01*
X171746979Y-78798763D01*
X171841160Y-78831176D01*
X171924673Y-78874809D01*
X172006320Y-78931305D01*
X172071989Y-78983405D01*
X172229969Y-79150554D01*
X172337168Y-79344409D01*
X172395004Y-79555516D01*
X172404897Y-79774425D01*
X172368266Y-79991684D01*
X172286530Y-80197841D01*
X172161110Y-80383445D01*
X171993423Y-80539043D01*
X171823448Y-80638500D01*
X171755625Y-80666982D01*
X171686649Y-80688323D01*
X171604778Y-80704102D01*
X171498271Y-80715896D01*
X171355384Y-80725284D01*
X171164376Y-80733844D01*
X171093876Y-80736565D01*
X170871819Y-80746169D01*
X170706537Y-80757157D01*
X170591307Y-80771389D01*
X170519406Y-80790725D01*
X170484112Y-80817025D01*
X170478701Y-80852150D01*
X170496450Y-80897960D01*
X170498258Y-80901376D01*
X170514539Y-80923904D01*
X170541877Y-80940635D01*
X170589456Y-80952714D01*
X170666456Y-80961289D01*
X170782058Y-80967504D01*
X170945445Y-80972505D01*
X171095773Y-80975954D01*
X171346713Y-80983990D01*
X171545058Y-80998276D01*
X171701650Y-81022220D01*
X171827332Y-81059228D01*
X171932944Y-81112708D01*
X172029329Y-81186065D01*
X172127329Y-81282706D01*
X172149965Y-81307193D01*
X172229019Y-81399035D01*
X172289903Y-81486692D01*
X172335062Y-81580350D01*
X172366942Y-81690196D01*
X172387988Y-81826416D01*
X172400646Y-81999195D01*
X172407360Y-82218721D01*
X172409673Y-82388984D01*
X172411124Y-82606455D01*
X172410157Y-82769779D01*
X172406139Y-82888287D01*
X172398436Y-82971308D01*
X172386414Y-83028170D01*
X172369442Y-83068203D01*
X172362822Y-83079042D01*
X172277793Y-83157889D01*
X172170157Y-83189160D01*
X172059314Y-83172897D01*
X171964665Y-83109144D01*
X171940566Y-83078110D01*
X171919933Y-83037739D01*
X171905700Y-82983155D01*
X171897033Y-82903760D01*
X171893100Y-82788956D01*
X171893069Y-82628145D01*
X171894732Y-82494837D01*
X171895444Y-82246886D01*
X171888296Y-82053672D01*
X171872093Y-81906783D01*
X171845638Y-81797808D01*
X171807735Y-81718335D01*
X171779059Y-81681376D01*
X171729288Y-81629082D01*
X171682747Y-81589865D01*
X171629479Y-81561555D01*
X171559531Y-81541985D01*
X171462945Y-81528987D01*
X171329767Y-81520394D01*
X171150041Y-81514037D01*
X170990920Y-81509750D01*
X170379248Y-81493875D01*
X170241686Y-81397215D01*
X170093913Y-81259535D01*
X169997569Y-81097899D01*
X169951244Y-80922707D01*
X169953522Y-80744359D01*
X170002993Y-80573254D01*
X170098242Y-80419791D01*
X170237856Y-80294370D01*
X170402550Y-80213277D01*
X170479196Y-80198656D01*
X170608946Y-80187210D01*
X170781459Y-80179558D01*
X170986390Y-80176317D01*
X171022170Y-80176250D01*
X171221210Y-80175302D01*
X171367995Y-80171747D01*
X171473754Y-80164518D01*
X171549714Y-80152548D01*
X171607103Y-80134769D01*
X171644495Y-80117096D01*
X171769897Y-80016053D01*
X171848429Y-79877039D01*
X171874075Y-79711137D01*
X171846683Y-79552918D01*
X171766863Y-79428100D01*
X171666087Y-79349352D01*
X171629568Y-79329776D01*
X171586754Y-79314800D01*
X171529129Y-79303814D01*
X171448172Y-79296208D01*
X171335367Y-79291371D01*
X171182194Y-79288693D01*
X170980135Y-79287564D01*
X170800855Y-79287368D01*
X170037086Y-79287250D01*
X169928636Y-79367262D01*
X169851968Y-79430947D01*
X169795979Y-79489955D01*
X169787530Y-79502199D01*
X169779030Y-79547991D01*
X169770905Y-79654194D01*
X169763255Y-79817716D01*
X169756179Y-80035471D01*
X169749774Y-80304367D01*
X169744142Y-80621316D01*
X169739379Y-80983228D01*
X169739000Y-81017625D01*
X169723125Y-82478125D01*
X169638975Y-82636875D01*
X169491582Y-82851372D01*
X169302457Y-83022636D01*
X169176109Y-83099224D01*
X169015768Y-83154306D01*
X168823488Y-83180115D01*
X168623423Y-83176451D01*
X168439726Y-83143111D01*
X168342000Y-83106154D01*
X168148256Y-82978493D01*
X167979378Y-82804471D01*
X167871127Y-82638704D01*
X167786375Y-82478125D01*
X167770500Y-81017625D01*
X167766724Y-80666722D01*
X167763216Y-80373620D01*
X167759258Y-80132624D01*
X167754130Y-79938042D01*
X167747114Y-79784182D01*
X167737492Y-79665350D01*
X167724544Y-79575853D01*
X167707552Y-79509999D01*
X167685798Y-79462096D01*
X167658563Y-79426449D01*
X167625128Y-79397367D01*
X167584774Y-79369157D01*
X167560319Y-79352601D01*
X167482888Y-79308719D01*
X167403266Y-79290691D01*
X167293244Y-79292699D01*
X167276402Y-79294031D01*
X167159137Y-79310593D01*
X167076911Y-79344193D01*
X167001481Y-79406577D01*
X166998379Y-79409664D01*
X166897375Y-79510617D01*
X166880208Y-80962621D01*
X166876005Y-81306177D01*
X166872045Y-81592239D01*
X166868027Y-81826813D01*
X166863650Y-82015901D01*
X166858614Y-82165510D01*
X166852616Y-82281642D01*
X166845356Y-82370302D01*
X166836533Y-82437494D01*
X166825846Y-82489224D01*
X166812993Y-82531494D01*
X166799854Y-82565156D01*
X166678172Y-82778443D01*
X166510091Y-82960992D01*
X166338651Y-83081632D01*
X166248093Y-83128259D01*
X166168910Y-83156597D01*
X166079682Y-83171095D01*
X165958991Y-83176202D01*
X165881375Y-83176625D01*
X165737155Y-83174492D01*
X165635009Y-83165150D01*
X165553569Y-83144184D01*
X165471470Y-83107180D01*
X165425590Y-83082445D01*
X165241518Y-82952625D01*
X165086306Y-82788743D01*
X164975354Y-82607846D01*
X164956979Y-82563676D01*
X164943510Y-82522210D01*
X164932140Y-82471575D01*
X164922596Y-82405840D01*
X164914604Y-82319073D01*
X164907889Y-82205341D01*
X164902178Y-82058713D01*
X164897196Y-81873257D01*
X164892670Y-81643041D01*
X164888325Y-81362132D01*
X164883889Y-81024600D01*
X164883157Y-80965339D01*
X164878868Y-80623884D01*
X164874934Y-80340235D01*
X164871050Y-80108702D01*
X164866913Y-79923595D01*
X164862217Y-79779224D01*
X164856660Y-79669898D01*
X164849937Y-79589927D01*
X164841743Y-79533622D01*
X164831775Y-79495291D01*
X164819729Y-79469245D01*
X164805300Y-79449793D01*
X164801949Y-79446026D01*
X164672388Y-79345161D01*
X164522327Y-79294844D01*
X164366172Y-79294203D01*
X164218331Y-79342363D01*
X164093207Y-79438452D01*
X164051827Y-79491487D01*
X164041020Y-79519177D01*
X164031713Y-79570645D01*
X164023713Y-79650849D01*
X164016825Y-79764747D01*
X164010855Y-79917297D01*
X164005612Y-80113458D01*
X164000900Y-80358188D01*
X163996526Y-80656445D01*
X163992298Y-81013187D01*
X163992250Y-81017625D01*
X163988454Y-81360243D01*
X163984968Y-81645312D01*
X163981469Y-81878779D01*
X163977633Y-82066593D01*
X163973138Y-82214702D01*
X163967659Y-82329051D01*
X163960874Y-82415591D01*
X163952459Y-82480268D01*
X163942091Y-82529030D01*
X163929447Y-82567824D01*
X163914203Y-82602599D01*
X163905094Y-82621164D01*
X163771614Y-82825201D01*
X163598257Y-82990964D01*
X163395752Y-83110933D01*
X163174831Y-83177590D01*
X163097984Y-83186733D01*
X162989562Y-83190992D01*
X162920431Y-83180008D01*
X162867033Y-83147629D01*
X162835587Y-83118224D01*
X162766454Y-83013014D01*
X162753549Y-82903297D01*
X162791800Y-82801129D01*
X162876131Y-82718561D01*
X163001469Y-82667648D01*
X163027259Y-82662888D01*
X163208092Y-82612121D01*
X163338369Y-82523665D01*
X163380763Y-82471000D01*
X163394076Y-82446185D01*
X163405268Y-82412047D01*
X163414606Y-82362883D01*
X163422357Y-82292990D01*
X163428788Y-82196664D01*
X163434165Y-82068203D01*
X163438758Y-81901904D01*
X163442832Y-81692064D01*
X163446654Y-81432981D01*
X163450493Y-81118950D01*
X163452500Y-80939723D01*
X163456341Y-80598430D01*
X163459911Y-80314623D01*
X163463527Y-80082291D01*
X163467508Y-79895421D01*
X163472171Y-79748002D01*
X163477837Y-79634023D01*
X163484823Y-79547471D01*
X163493448Y-79482337D01*
X163504030Y-79432607D01*
X163516888Y-79392271D01*
X163532340Y-79355317D01*
X163536983Y-79345172D01*
X163669693Y-79127785D01*
X163843070Y-78955523D01*
X164050519Y-78833039D01*
X164285441Y-78764988D01*
X164373704Y-78754837D01*
X164621674Y-78767316D01*
X164852359Y-78838022D01*
X165057242Y-78962384D01*
X165227804Y-79135830D01*
X165306738Y-79255500D01*
X165405125Y-79430125D01*
X165421000Y-80890625D01*
X165425577Y-81265385D01*
X165430574Y-81580335D01*
X165436124Y-81839165D01*
X165442357Y-82045564D01*
X165449408Y-82203222D01*
X165457407Y-82315827D01*
X165466489Y-82387069D01*
X165475846Y-82419137D01*
X165525481Y-82483675D01*
X165599175Y-82557616D01*
X165617203Y-82573302D01*
X165684162Y-82622808D01*
X165748287Y-82646226D01*
X165835237Y-82650092D01*
X165903234Y-82646169D01*
X166068181Y-82613538D01*
X166193125Y-82537911D01*
X166289102Y-82414625D01*
X166299124Y-82372811D01*
X166308108Y-82282299D01*
X166316137Y-82140742D01*
X166323291Y-81945796D01*
X166329651Y-81695114D01*
X166335299Y-81386350D01*
X166340316Y-81017159D01*
X166341750Y-80890625D01*
X166345552Y-80547926D01*
X166349052Y-80262824D01*
X166352567Y-80029418D01*
X166356414Y-79841806D01*
X166360910Y-79694088D01*
X166366373Y-79580363D01*
X166373121Y-79494731D01*
X166381469Y-79431291D01*
X166391737Y-79384141D01*
X166404241Y-79347382D01*
X166419298Y-79315113D01*
X166427291Y-79299923D01*
X166569572Y-79093210D01*
X166743357Y-78935304D01*
X166940171Y-78825983D01*
X167151535Y-78765026D01*
X167368972Y-78752212D01*
X167584005Y-78787320D01*
X167788156Y-78870128D01*
X167972948Y-79000416D01*
X168129903Y-79177962D01*
X168226514Y-79346863D01*
X168242557Y-79383695D01*
X168255949Y-79422618D01*
X168267006Y-79469642D01*
X168276045Y-79530777D01*
X168283382Y-79612031D01*
X168289334Y-79719415D01*
X168294216Y-79858938D01*
X168298344Y-80036609D01*
X168302035Y-80258438D01*
X168305606Y-80530434D01*
X168309371Y-80858608D01*
X168310250Y-80938250D01*
X168314644Y-81300438D01*
X168319304Y-81603720D01*
X168324404Y-81852689D01*
X168330116Y-82051939D01*
X168336617Y-82206062D01*
X168344080Y-82319653D01*
X168352679Y-82397305D01*
X168362589Y-82443611D01*
X168367838Y-82456011D01*
X168460908Y-82559799D01*
X168589831Y-82626101D01*
X168737014Y-82651716D01*
X168884861Y-82633444D01*
X169009613Y-82572737D01*
X169086281Y-82509052D01*
X169142270Y-82450044D01*
X169150719Y-82437800D01*
X169159252Y-82391966D01*
X169167410Y-82285782D01*
X169175091Y-82122400D01*
X169182193Y-81904970D01*
X169188615Y-81636643D01*
X169194255Y-81320567D01*
X169199009Y-80959895D01*
X169199250Y-80938250D01*
X169203044Y-80597940D01*
X169206501Y-80315057D01*
X169209965Y-80083532D01*
X169213781Y-79897296D01*
X169218294Y-79750280D01*
X169223848Y-79636415D01*
X169230787Y-79549631D01*
X169239456Y-79483860D01*
X169250199Y-79433032D01*
X169263361Y-79391078D01*
X169279287Y-79351929D01*
X169290747Y-79326298D01*
X169383642Y-79173670D01*
X169515290Y-79025464D01*
X169667282Y-78898912D01*
X169821208Y-78811244D01*
X169854653Y-78798493D01*
X169914109Y-78782007D01*
X169989210Y-78769335D01*
X170088320Y-78760032D01*
X170219801Y-78753649D01*
X170392017Y-78749738D01*
X170613331Y-78747853D01*
X170807940Y-78747499D01*
X171087507Y-78748455D01*
G37*
D13*
%TO.C,R13*%
X161180000Y-97990000D02*
X161180000Y-97220000D01*
X159810000Y-97220000D02*
X162550000Y-97220000D01*
X162550000Y-97220000D02*
X162550000Y-90680000D01*
X159810000Y-90680000D02*
X159810000Y-97220000D01*
X162550000Y-90680000D02*
X159810000Y-90680000D01*
X161180000Y-89910000D02*
X161180000Y-90680000D01*
%TO.C,R7*%
X170180000Y-111530000D02*
X170180000Y-112300000D01*
X171550000Y-112300000D02*
X168810000Y-112300000D01*
X168810000Y-112300000D02*
X168810000Y-118840000D01*
X171550000Y-118840000D02*
X171550000Y-112300000D01*
X168810000Y-118840000D02*
X171550000Y-118840000D01*
X170180000Y-119610000D02*
X170180000Y-118840000D01*
%TO.C,C5*%
X142750000Y-96100000D02*
X142735000Y-96100000D01*
X142750000Y-96100000D02*
X142750000Y-100640000D01*
X140625000Y-96100000D02*
X140610000Y-96100000D01*
X140610000Y-96100000D02*
X140610000Y-100640000D01*
X142750000Y-100640000D02*
X142735000Y-100640000D01*
X140625000Y-100640000D02*
X140610000Y-100640000D01*
%TO.C,R11*%
X168605000Y-97990000D02*
X168605000Y-97220000D01*
X167235000Y-97220000D02*
X169975000Y-97220000D01*
X169975000Y-97220000D02*
X169975000Y-90680000D01*
X167235000Y-90680000D02*
X167235000Y-97220000D01*
X169975000Y-90680000D02*
X167235000Y-90680000D01*
X168605000Y-89910000D02*
X168605000Y-90680000D01*
%TO.C,R1*%
X114220000Y-86170000D02*
X113450000Y-86170000D01*
X113450000Y-87540000D02*
X113450000Y-84800000D01*
X113450000Y-84800000D02*
X106910000Y-84800000D01*
X106910000Y-87540000D02*
X113450000Y-87540000D01*
X106910000Y-84800000D02*
X106910000Y-87540000D01*
X106140000Y-86170000D02*
X106910000Y-86170000D01*
%TO.C,C6*%
X137210000Y-100640000D02*
X137225000Y-100640000D01*
X137210000Y-100640000D02*
X137210000Y-96100000D01*
X139335000Y-100640000D02*
X139350000Y-100640000D01*
X139350000Y-100640000D02*
X139350000Y-96100000D01*
X137210000Y-96100000D02*
X137225000Y-96100000D01*
X139335000Y-96100000D02*
X139350000Y-96100000D01*
%TO.C,R8*%
X133880000Y-96810000D02*
X133880000Y-97580000D01*
X135250000Y-97580000D02*
X132510000Y-97580000D01*
X132510000Y-97580000D02*
X132510000Y-104120000D01*
X135250000Y-104120000D02*
X135250000Y-97580000D01*
X132510000Y-104120000D02*
X135250000Y-104120000D01*
X133880000Y-104890000D02*
X133880000Y-104120000D01*
%TO.C,RV4*%
X191250000Y-111950000D02*
X173110000Y-111950000D01*
X191250000Y-111950000D02*
X191250000Y-124290000D01*
X173110000Y-111950000D02*
X173110000Y-124290000D01*
X191250000Y-124290000D02*
X173110000Y-124290000D01*
X185800000Y-124290000D02*
X178560000Y-124290000D01*
X185800000Y-124290000D02*
X185800000Y-131290000D01*
X178560000Y-124290000D02*
X178560000Y-131290000D01*
X185800000Y-131290000D02*
X178560000Y-131290000D01*
X185300000Y-131290000D02*
X179059000Y-131290000D01*
X185300000Y-131290000D02*
X185300000Y-141290000D01*
X179059000Y-131290000D02*
X179059000Y-141290000D01*
X185300000Y-141290000D02*
X179059000Y-141290000D01*
%TO.C,U1*%
X114715000Y-88240000D02*
X114715000Y-98520000D01*
X114715000Y-98520000D02*
X119215000Y-98520000D01*
X115965000Y-88240000D02*
X114715000Y-88240000D01*
X119215000Y-88240000D02*
X117965000Y-88240000D01*
X119215000Y-98520000D02*
X119215000Y-88240000D01*
X115965000Y-88240000D02*
G75*
G03*
X117965000Y-88240000I1000000J0D01*
G01*
%TO.C,J3*%
X111250000Y-82300000D02*
X111250000Y-80970000D01*
X112580000Y-82300000D02*
X111250000Y-82300000D01*
X113850000Y-82300000D02*
X116450000Y-82300000D01*
X113850000Y-82300000D02*
X113850000Y-79640000D01*
X116450000Y-82300000D02*
X116450000Y-79640000D01*
X113850000Y-79640000D02*
X116450000Y-79640000D01*
%TO.C,R4*%
X129580000Y-102530000D02*
X129580000Y-101760000D01*
X128210000Y-101760000D02*
X130950000Y-101760000D01*
X130950000Y-101760000D02*
X130950000Y-95220000D01*
X128210000Y-95220000D02*
X128210000Y-101760000D01*
X130950000Y-95220000D02*
X128210000Y-95220000D01*
X129580000Y-94450000D02*
X129580000Y-95220000D01*
%TO.C,R5*%
X123620000Y-112170000D02*
X124390000Y-112170000D01*
X124390000Y-110800000D02*
X124390000Y-113540000D01*
X124390000Y-113540000D02*
X130930000Y-113540000D01*
X130930000Y-110800000D02*
X124390000Y-110800000D01*
X130930000Y-113540000D02*
X130930000Y-110800000D01*
X131700000Y-112170000D02*
X130930000Y-112170000D01*
%TO.C,RV3*%
X167850000Y-111950000D02*
X149710000Y-111950000D01*
X167850000Y-111950000D02*
X167850000Y-124290000D01*
X149710000Y-111950000D02*
X149710000Y-124290000D01*
X167850000Y-124290000D02*
X149710000Y-124290000D01*
X162400000Y-124290000D02*
X155160000Y-124290000D01*
X162400000Y-124290000D02*
X162400000Y-131290000D01*
X155160000Y-124290000D02*
X155160000Y-131290000D01*
X162400000Y-131290000D02*
X155160000Y-131290000D01*
X161900000Y-131290000D02*
X155659000Y-131290000D01*
X161900000Y-131290000D02*
X161900000Y-141290000D01*
X155659000Y-131290000D02*
X155659000Y-141290000D01*
X161900000Y-141290000D02*
X155659000Y-141290000D01*
%TO.C,R2*%
X109380000Y-89930000D02*
X109380000Y-90700000D01*
X110750000Y-90700000D02*
X108010000Y-90700000D01*
X108010000Y-90700000D02*
X108010000Y-97240000D01*
X110750000Y-97240000D02*
X110750000Y-90700000D01*
X108010000Y-97240000D02*
X110750000Y-97240000D01*
X109380000Y-98010000D02*
X109380000Y-97240000D01*
%TO.C,RV2*%
X120850000Y-111950000D02*
X102710000Y-111950000D01*
X120850000Y-111950000D02*
X120850000Y-124290000D01*
X102710000Y-111950000D02*
X102710000Y-124290000D01*
X120850000Y-124290000D02*
X102710000Y-124290000D01*
X115400000Y-124290000D02*
X108160000Y-124290000D01*
X115400000Y-124290000D02*
X115400000Y-131290000D01*
X108160000Y-124290000D02*
X108160000Y-131290000D01*
X115400000Y-131290000D02*
X108160000Y-131290000D01*
X114900000Y-131290000D02*
X108659000Y-131290000D01*
X114900000Y-131290000D02*
X114900000Y-141290000D01*
X108659000Y-131290000D02*
X108659000Y-141290000D01*
X114900000Y-141290000D02*
X108659000Y-141290000D01*
%TO.C,C1*%
X107250000Y-94100000D02*
X107235000Y-94100000D01*
X107250000Y-94100000D02*
X107250000Y-98640000D01*
X105125000Y-94100000D02*
X105110000Y-94100000D01*
X105110000Y-94100000D02*
X105110000Y-98640000D01*
X107250000Y-98640000D02*
X107235000Y-98640000D01*
X105125000Y-98640000D02*
X105110000Y-98640000D01*
%TO.C,C10*%
X113550000Y-102840000D02*
X113550000Y-102825000D01*
X113550000Y-102840000D02*
X109010000Y-102840000D01*
X113550000Y-100715000D02*
X113550000Y-100700000D01*
X113550000Y-100700000D02*
X109010000Y-100700000D01*
X109010000Y-102840000D02*
X109010000Y-102825000D01*
X109010000Y-100715000D02*
X109010000Y-100700000D01*
%TO.C,R14*%
X157580000Y-89910000D02*
X157580000Y-90680000D01*
X158950000Y-90680000D02*
X156210000Y-90680000D01*
X156210000Y-90680000D02*
X156210000Y-97220000D01*
X158950000Y-97220000D02*
X158950000Y-90680000D01*
X156210000Y-97220000D02*
X158950000Y-97220000D01*
X157580000Y-97990000D02*
X157580000Y-97220000D01*
%TO.C,C8*%
X165510000Y-100600000D02*
X165510000Y-100615000D01*
X165510000Y-100600000D02*
X170050000Y-100600000D01*
X165510000Y-102725000D02*
X165510000Y-102740000D01*
X165510000Y-102740000D02*
X170050000Y-102740000D01*
X170050000Y-100600000D02*
X170050000Y-100615000D01*
X170050000Y-102725000D02*
X170050000Y-102740000D01*
%TO.C,J1*%
X119250000Y-83300000D02*
X119250000Y-81970000D01*
X120580000Y-83300000D02*
X119250000Y-83300000D01*
X121850000Y-83300000D02*
X126990000Y-83300000D01*
X121850000Y-83300000D02*
X121850000Y-80640000D01*
X126990000Y-83300000D02*
X126990000Y-80640000D01*
X121850000Y-80640000D02*
X126990000Y-80640000D01*
%TO.C,C3*%
X157650000Y-87240000D02*
X157650000Y-87225000D01*
X157650000Y-87240000D02*
X153110000Y-87240000D01*
X157650000Y-85115000D02*
X157650000Y-85100000D01*
X157650000Y-85100000D02*
X153110000Y-85100000D01*
X153110000Y-87240000D02*
X153110000Y-87225000D01*
X153110000Y-85115000D02*
X153110000Y-85100000D01*
%TO.C,C9*%
X118110000Y-85000000D02*
X118110000Y-85015000D01*
X118110000Y-85000000D02*
X122650000Y-85000000D01*
X118110000Y-87125000D02*
X118110000Y-87140000D01*
X118110000Y-87140000D02*
X122650000Y-87140000D01*
X122650000Y-85000000D02*
X122650000Y-85015000D01*
X122650000Y-87125000D02*
X122650000Y-87140000D01*
%TO.C,C7*%
X157335000Y-100680000D02*
X157335000Y-100695000D01*
X157335000Y-100680000D02*
X161875000Y-100680000D01*
X157335000Y-102805000D02*
X157335000Y-102820000D01*
X157335000Y-102820000D02*
X161875000Y-102820000D01*
X161875000Y-100680000D02*
X161875000Y-100695000D01*
X161875000Y-102805000D02*
X161875000Y-102820000D01*
%TO.C,C2*%
X117450000Y-100600000D02*
X117435000Y-100600000D01*
X117450000Y-100600000D02*
X117450000Y-105140000D01*
X115325000Y-100600000D02*
X115310000Y-100600000D01*
X115310000Y-100600000D02*
X115310000Y-105140000D01*
X117450000Y-105140000D02*
X117435000Y-105140000D01*
X115325000Y-105140000D02*
X115310000Y-105140000D01*
%TO.C,R3*%
X125980000Y-102530000D02*
X125980000Y-101760000D01*
X124610000Y-101760000D02*
X127350000Y-101760000D01*
X127350000Y-101760000D02*
X127350000Y-95220000D01*
X124610000Y-95220000D02*
X124610000Y-101760000D01*
X127350000Y-95220000D02*
X124610000Y-95220000D01*
X125980000Y-94450000D02*
X125980000Y-95220000D01*
%TO.C,R10*%
X134165000Y-92550000D02*
X134935000Y-92550000D01*
X134935000Y-91180000D02*
X134935000Y-93920000D01*
X134935000Y-93920000D02*
X141475000Y-93920000D01*
X141475000Y-91180000D02*
X134935000Y-91180000D01*
X141475000Y-93920000D02*
X141475000Y-91180000D01*
X142245000Y-92550000D02*
X141475000Y-92550000D01*
%TO.C,R9*%
X142245000Y-89150000D02*
X141475000Y-89150000D01*
X141475000Y-90520000D02*
X141475000Y-87780000D01*
X141475000Y-87780000D02*
X134935000Y-87780000D01*
X134935000Y-90520000D02*
X141475000Y-90520000D01*
X134935000Y-87780000D02*
X134935000Y-90520000D01*
X134165000Y-89150000D02*
X134935000Y-89150000D01*
%TO.C,RV1*%
X140900000Y-114850000D02*
X124660000Y-114850000D01*
X140900000Y-114850000D02*
X140900000Y-122590000D01*
X124660000Y-114850000D02*
X124660000Y-122590000D01*
X140900000Y-122590000D02*
X124660000Y-122590000D01*
X136400000Y-122590000D02*
X129160000Y-122590000D01*
X136400000Y-122590000D02*
X136400000Y-127590000D01*
X129160000Y-122590000D02*
X129160000Y-127590000D01*
X136400000Y-127590000D02*
X129160000Y-127590000D01*
X134900000Y-127590000D02*
X130660000Y-127590000D01*
X134900000Y-127590000D02*
X134900000Y-137590000D01*
X130660000Y-127590000D02*
X130660000Y-137590000D01*
X134900000Y-137590000D02*
X130660000Y-137590000D01*
%TO.C,J4*%
X173850000Y-87040000D02*
X175180000Y-87040000D01*
X173850000Y-88370000D02*
X173850000Y-87040000D01*
X173850000Y-89640000D02*
X173850000Y-97320000D01*
X173850000Y-89640000D02*
X176510000Y-89640000D01*
X173850000Y-97320000D02*
X176510000Y-97320000D01*
X176510000Y-89640000D02*
X176510000Y-97320000D01*
%TO.C,R6*%
X104620000Y-105170000D02*
X105390000Y-105170000D01*
X105390000Y-103800000D02*
X105390000Y-106540000D01*
X105390000Y-106540000D02*
X111930000Y-106540000D01*
X111930000Y-103800000D02*
X105390000Y-103800000D01*
X111930000Y-106540000D02*
X111930000Y-103800000D01*
X112700000Y-105170000D02*
X111930000Y-105170000D01*
%TO.C,J2*%
X192880000Y-79770000D02*
X190380000Y-79770000D01*
X192880000Y-79770000D02*
X192880000Y-103770000D01*
X192880000Y-103770000D02*
X190380000Y-103770000D01*
%TD*%
M02*
