<?xml version="1.0" standalone="no"?>
 <!DOCTYPE svg PUBLIC "-//W3C//DTD SVG 1.1//EN" 
 "http://www.w3.org/Graphics/SVG/1.1/DTD/svg11.dtd"> 
<svg
  xmlns:svg="http://www.w3.org/2000/svg"
  xmlns="http://www.w3.org/2000/svg"
  xmlns:xlink="http://www.w3.org/1999/xlink"
  version="1.1"
  width="29.700220cm" height="21.000720cm" viewBox="0 0 297002200 210007200">
<title>SVG Picture created as crossover_v1-B_Mask.svg date 2021/11/11 20:27:31 </title>
  <desc>Picture generated by PCBNEW </desc>
<g style="fill:#000000; fill-opacity:1.000000;stroke:#000000; stroke-opacity:1.000000;
stroke-linecap:round; stroke-linejoin:round;"
 transform="translate(0 0) scale(1 1)">
</g>
<g style="fill:#000000; fill-opacity:0.0; 
stroke:#000000; stroke-width:0.000000; stroke-opacity:1; 
stroke-linecap:round; stroke-linejoin:round;">
</g>
<g style="fill:#000000; fill-opacity:1.0; 
stroke:#000000; stroke-width:1.000000; stroke-opacity:1; 
stroke-linecap:round; stroke-linejoin:round;">
<circle cx="29300000.000000" cy="12793303.000000" r="818303.000000" /> 
<circle cx="71000000.000000" cy="32593303.000000" r="818303.000000" /> 
<circle cx="56000000.000000" cy="32593303.000000" r="818303.000000" /> 
<circle cx="51900000.000000" cy="11400000.000000" r="818303.000000" /> 
<circle cx="32400000.000000" cy="11393303.000000" r="818303.000000" /> 
<circle cx="53506697.000000" cy="13000000.000000" r="818303.000000" /> 
</g>
<g style="fill:#000000; fill-opacity:1.0; 
stroke:#000000; stroke-width:10000.000000; stroke-opacity:1; 
stroke-linecap:round; stroke-linejoin:round;">
</g>
<g style="fill:#000000; fill-opacity:0.0; 
stroke:#000000; stroke-width:10000.000000; stroke-opacity:1; 
stroke-linecap:round; stroke-linejoin:round;">
<path d="M44442493 35878455
L44217608 35882416
" />
<path d="M44217608 35882416
L44038603 35891026
" />
<path d="M44038603 35891026
L43896675 35905927
" />
<path d="M43896675 35905927
L43783021 35928763
" />
<path d="M43783021 35928763
L43688840 35961176
" />
<path d="M43688840 35961176
L43605327 36004809
" />
<path d="M43605327 36004809
L43523680 36061305
" />
<path d="M43523680 36061305
L43458011 36113405
" />
<path d="M43458011 36113405
L43300031 36280554
" />
<path d="M43300031 36280554
L43192832 36474409
" />
<path d="M43192832 36474409
L43134996 36685516
" />
<path d="M43134996 36685516
L43125103 36904425
" />
<path d="M43125103 36904425
L43161734 37121684
" />
<path d="M43161734 37121684
L43243470 37327841
" />
<path d="M43243470 37327841
L43368890 37513445
" />
<path d="M43368890 37513445
L43536577 37669043
" />
<path d="M43536577 37669043
L43706552 37768500
" />
<path d="M43706552 37768500
L43774375 37796982
" />
<path d="M43774375 37796982
L43843351 37818323
" />
<path d="M43843351 37818323
L43925222 37834102
" />
<path d="M43925222 37834102
L44031729 37845896
" />
<path d="M44031729 37845896
L44174616 37855284
" />
<path d="M44174616 37855284
L44365624 37863844
" />
<path d="M44365624 37863844
L44436124 37866565
" />
<path d="M44436124 37866565
L44658181 37876169
" />
<path d="M44658181 37876169
L44823463 37887157
" />
<path d="M44823463 37887157
L44938693 37901389
" />
<path d="M44938693 37901389
L45010594 37920725
" />
<path d="M45010594 37920725
L45045888 37947025
" />
<path d="M45045888 37947025
L45051299 37982150
" />
<path d="M45051299 37982150
L45033550 38027960
" />
<path d="M45033550 38027960
L45031742 38031376
" />
<path d="M45031742 38031376
L45015461 38053904
" />
<path d="M45015461 38053904
L44988123 38070635
" />
<path d="M44988123 38070635
L44940544 38082714
" />
<path d="M44940544 38082714
L44863544 38091289
" />
<path d="M44863544 38091289
L44747942 38097504
" />
<path d="M44747942 38097504
L44584555 38102505
" />
<path d="M44584555 38102505
L44434227 38105954
" />
<path d="M44434227 38105954
L44183287 38113990
" />
<path d="M44183287 38113990
L43984942 38128276
" />
<path d="M43984942 38128276
L43828350 38152220
" />
<path d="M43828350 38152220
L43702668 38189228
" />
<path d="M43702668 38189228
L43597056 38242708
" />
<path d="M43597056 38242708
L43500671 38316065
" />
<path d="M43500671 38316065
L43402671 38412706
" />
<path d="M43402671 38412706
L43380035 38437193
" />
<path d="M43380035 38437193
L43300981 38529035
" />
<path d="M43300981 38529035
L43240097 38616692
" />
<path d="M43240097 38616692
L43194938 38710350
" />
<path d="M43194938 38710350
L43163058 38820196
" />
<path d="M43163058 38820196
L43142012 38956416
" />
<path d="M43142012 38956416
L43129354 39129195
" />
<path d="M43129354 39129195
L43122640 39348721
" />
<path d="M43122640 39348721
L43120327 39518984
" />
<path d="M43120327 39518984
L43118876 39736455
" />
<path d="M43118876 39736455
L43119843 39899779
" />
<path d="M43119843 39899779
L43123861 40018287
" />
<path d="M43123861 40018287
L43131564 40101308
" />
<path d="M43131564 40101308
L43143586 40158170
" />
<path d="M43143586 40158170
L43160558 40198203
" />
<path d="M43160558 40198203
L43167178 40209042
" />
<path d="M43167178 40209042
L43252207 40287889
" />
<path d="M43252207 40287889
L43359843 40319160
" />
<path d="M43359843 40319160
L43470686 40302897
" />
<path d="M43470686 40302897
L43565335 40239144
" />
<path d="M43565335 40239144
L43589434 40208110
" />
<path d="M43589434 40208110
L43610067 40167739
" />
<path d="M43610067 40167739
L43624300 40113155
" />
<path d="M43624300 40113155
L43632967 40033760
" />
<path d="M43632967 40033760
L43636900 39918956
" />
<path d="M43636900 39918956
L43636931 39758145
" />
<path d="M43636931 39758145
L43635268 39624837
" />
<path d="M43635268 39624837
L43634556 39376886
" />
<path d="M43634556 39376886
L43641704 39183672
" />
<path d="M43641704 39183672
L43657907 39036783
" />
<path d="M43657907 39036783
L43684362 38927808
" />
<path d="M43684362 38927808
L43722265 38848335
" />
<path d="M43722265 38848335
L43750941 38811376
" />
<path d="M43750941 38811376
L43800712 38759082
" />
<path d="M43800712 38759082
L43847253 38719865
" />
<path d="M43847253 38719865
L43900521 38691555
" />
<path d="M43900521 38691555
L43970469 38671985
" />
<path d="M43970469 38671985
L44067055 38658987
" />
<path d="M44067055 38658987
L44200233 38650394
" />
<path d="M44200233 38650394
L44379959 38644037
" />
<path d="M44379959 38644037
L44539080 38639750
" />
<path d="M44539080 38639750
L45150752 38623875
" />
<path d="M45150752 38623875
L45288314 38527215
" />
<path d="M45288314 38527215
L45436087 38389535
" />
<path d="M45436087 38389535
L45532431 38227899
" />
<path d="M45532431 38227899
L45578756 38052707
" />
<path d="M45578756 38052707
L45576478 37874359
" />
<path d="M45576478 37874359
L45527007 37703254
" />
<path d="M45527007 37703254
L45431758 37549791
" />
<path d="M45431758 37549791
L45292144 37424370
" />
<path d="M45292144 37424370
L45127450 37343277
" />
<path d="M45127450 37343277
L45050804 37328656
" />
<path d="M45050804 37328656
L44921054 37317210
" />
<path d="M44921054 37317210
L44748541 37309558
" />
<path d="M44748541 37309558
L44543610 37306317
" />
<path d="M44543610 37306317
L44507830 37306250
" />
<path d="M44507830 37306250
L44308790 37305302
" />
<path d="M44308790 37305302
L44162005 37301747
" />
<path d="M44162005 37301747
L44056246 37294518
" />
<path d="M44056246 37294518
L43980286 37282548
" />
<path d="M43980286 37282548
L43922897 37264769
" />
<path d="M43922897 37264769
L43885505 37247096
" />
<path d="M43885505 37247096
L43760103 37146053
" />
<path d="M43760103 37146053
L43681571 37007039
" />
<path d="M43681571 37007039
L43655925 36841137
" />
<path d="M43655925 36841137
L43683317 36682918
" />
<path d="M43683317 36682918
L43763137 36558100
" />
<path d="M43763137 36558100
L43863913 36479352
" />
<path d="M43863913 36479352
L43900432 36459776
" />
<path d="M43900432 36459776
L43943246 36444800
" />
<path d="M43943246 36444800
L44000871 36433814
" />
<path d="M44000871 36433814
L44081828 36426208
" />
<path d="M44081828 36426208
L44194633 36421371
" />
<path d="M44194633 36421371
L44347806 36418693
" />
<path d="M44347806 36418693
L44549865 36417564
" />
<path d="M44549865 36417564
L44729145 36417368
" />
<path d="M44729145 36417368
L45492914 36417250
" />
<path d="M45492914 36417250
L45601364 36497262
" />
<path d="M45601364 36497262
L45678032 36560947
" />
<path d="M45678032 36560947
L45734021 36619955
" />
<path d="M45734021 36619955
L45742470 36632199
" />
<path d="M45742470 36632199
L45750970 36677991
" />
<path d="M45750970 36677991
L45759095 36784194
" />
<path d="M45759095 36784194
L45766745 36947716
" />
<path d="M45766745 36947716
L45773821 37165471
" />
<path d="M45773821 37165471
L45780226 37434367
" />
<path d="M45780226 37434367
L45785858 37751316
" />
<path d="M45785858 37751316
L45790621 38113228
" />
<path d="M45790621 38113228
L45791000 38147625
" />
<path d="M45791000 38147625
L45806875 39608125
" />
<path d="M45806875 39608125
L45891025 39766875
" />
<path d="M45891025 39766875
L46038418 39981372
" />
<path d="M46038418 39981372
L46227543 40152636
" />
<path d="M46227543 40152636
L46353891 40229224
" />
<path d="M46353891 40229224
L46514232 40284306
" />
<path d="M46514232 40284306
L46706512 40310115
" />
<path d="M46706512 40310115
L46906577 40306451
" />
<path d="M46906577 40306451
L47090274 40273111
" />
<path d="M47090274 40273111
L47188000 40236154
" />
<path d="M47188000 40236154
L47381744 40108493
" />
<path d="M47381744 40108493
L47550622 39934471
" />
<path d="M47550622 39934471
L47658873 39768704
" />
<path d="M47658873 39768704
L47743625 39608125
" />
<path d="M47743625 39608125
L47759500 38147625
" />
<path d="M47759500 38147625
L47763276 37796722
" />
<path d="M47763276 37796722
L47766784 37503620
" />
<path d="M47766784 37503620
L47770742 37262624
" />
<path d="M47770742 37262624
L47775870 37068042
" />
<path d="M47775870 37068042
L47782886 36914182
" />
<path d="M47782886 36914182
L47792508 36795350
" />
<path d="M47792508 36795350
L47805456 36705853
" />
<path d="M47805456 36705853
L47822448 36639999
" />
<path d="M47822448 36639999
L47844202 36592096
" />
<path d="M47844202 36592096
L47871437 36556449
" />
<path d="M47871437 36556449
L47904872 36527367
" />
<path d="M47904872 36527367
L47945226 36499157
" />
<path d="M47945226 36499157
L47969681 36482601
" />
<path d="M47969681 36482601
L48047112 36438719
" />
<path d="M48047112 36438719
L48126734 36420691
" />
<path d="M48126734 36420691
L48236756 36422699
" />
<path d="M48236756 36422699
L48253598 36424031
" />
<path d="M48253598 36424031
L48370863 36440593
" />
<path d="M48370863 36440593
L48453089 36474193
" />
<path d="M48453089 36474193
L48528519 36536577
" />
<path d="M48528519 36536577
L48531621 36539664
" />
<path d="M48531621 36539664
L48632625 36640617
" />
<path d="M48632625 36640617
L48649792 38092621
" />
<path d="M48649792 38092621
L48653995 38436177
" />
<path d="M48653995 38436177
L48657955 38722239
" />
<path d="M48657955 38722239
L48661973 38956813
" />
<path d="M48661973 38956813
L48666350 39145901
" />
<path d="M48666350 39145901
L48671386 39295510
" />
<path d="M48671386 39295510
L48677384 39411642
" />
<path d="M48677384 39411642
L48684644 39500302
" />
<path d="M48684644 39500302
L48693467 39567494
" />
<path d="M48693467 39567494
L48704154 39619224
" />
<path d="M48704154 39619224
L48717007 39661494
" />
<path d="M48717007 39661494
L48730146 39695156
" />
<path d="M48730146 39695156
L48851828 39908443
" />
<path d="M48851828 39908443
L49019909 40090992
" />
<path d="M49019909 40090992
L49191349 40211632
" />
<path d="M49191349 40211632
L49281907 40258259
" />
<path d="M49281907 40258259
L49361090 40286597
" />
<path d="M49361090 40286597
L49450318 40301095
" />
<path d="M49450318 40301095
L49571009 40306202
" />
<path d="M49571009 40306202
L49648625 40306625
" />
<path d="M49648625 40306625
L49792845 40304492
" />
<path d="M49792845 40304492
L49894991 40295150
" />
<path d="M49894991 40295150
L49976431 40274184
" />
<path d="M49976431 40274184
L50058530 40237180
" />
<path d="M50058530 40237180
L50104410 40212445
" />
<path d="M50104410 40212445
L50288482 40082625
" />
<path d="M50288482 40082625
L50443694 39918743
" />
<path d="M50443694 39918743
L50554646 39737846
" />
<path d="M50554646 39737846
L50573021 39693676
" />
<path d="M50573021 39693676
L50586490 39652210
" />
<path d="M50586490 39652210
L50597860 39601575
" />
<path d="M50597860 39601575
L50607404 39535840
" />
<path d="M50607404 39535840
L50615396 39449073
" />
<path d="M50615396 39449073
L50622111 39335341
" />
<path d="M50622111 39335341
L50627822 39188713
" />
<path d="M50627822 39188713
L50632804 39003257
" />
<path d="M50632804 39003257
L50637330 38773041
" />
<path d="M50637330 38773041
L50641675 38492132
" />
<path d="M50641675 38492132
L50646111 38154600
" />
<path d="M50646111 38154600
L50646843 38095339
" />
<path d="M50646843 38095339
L50651132 37753884
" />
<path d="M50651132 37753884
L50655066 37470235
" />
<path d="M50655066 37470235
L50658950 37238702
" />
<path d="M50658950 37238702
L50663087 37053595
" />
<path d="M50663087 37053595
L50667783 36909224
" />
<path d="M50667783 36909224
L50673340 36799898
" />
<path d="M50673340 36799898
L50680063 36719927
" />
<path d="M50680063 36719927
L50688257 36663622
" />
<path d="M50688257 36663622
L50698225 36625291
" />
<path d="M50698225 36625291
L50710271 36599245
" />
<path d="M50710271 36599245
L50724700 36579793
" />
<path d="M50724700 36579793
L50728051 36576026
" />
<path d="M50728051 36576026
L50857612 36475161
" />
<path d="M50857612 36475161
L51007673 36424844
" />
<path d="M51007673 36424844
L51163828 36424203
" />
<path d="M51163828 36424203
L51311669 36472363
" />
<path d="M51311669 36472363
L51436793 36568452
" />
<path d="M51436793 36568452
L51478173 36621487
" />
<path d="M51478173 36621487
L51488980 36649177
" />
<path d="M51488980 36649177
L51498287 36700645
" />
<path d="M51498287 36700645
L51506287 36780849
" />
<path d="M51506287 36780849
L51513175 36894747
" />
<path d="M51513175 36894747
L51519145 37047297
" />
<path d="M51519145 37047297
L51524388 37243458
" />
<path d="M51524388 37243458
L51529100 37488188
" />
<path d="M51529100 37488188
L51533474 37786445
" />
<path d="M51533474 37786445
L51537702 38143187
" />
<path d="M51537702 38143187
L51537750 38147625
" />
<path d="M51537750 38147625
L51541546 38490243
" />
<path d="M51541546 38490243
L51545032 38775312
" />
<path d="M51545032 38775312
L51548531 39008779
" />
<path d="M51548531 39008779
L51552367 39196593
" />
<path d="M51552367 39196593
L51556862 39344702
" />
<path d="M51556862 39344702
L51562341 39459051
" />
<path d="M51562341 39459051
L51569126 39545591
" />
<path d="M51569126 39545591
L51577541 39610268
" />
<path d="M51577541 39610268
L51587909 39659030
" />
<path d="M51587909 39659030
L51600553 39697824
" />
<path d="M51600553 39697824
L51615797 39732599
" />
<path d="M51615797 39732599
L51624906 39751164
" />
<path d="M51624906 39751164
L51758386 39955201
" />
<path d="M51758386 39955201
L51931743 40120964
" />
<path d="M51931743 40120964
L52134248 40240933
" />
<path d="M52134248 40240933
L52355169 40307590
" />
<path d="M52355169 40307590
L52432016 40316733
" />
<path d="M52432016 40316733
L52540438 40320992
" />
<path d="M52540438 40320992
L52609569 40310008
" />
<path d="M52609569 40310008
L52662967 40277629
" />
<path d="M52662967 40277629
L52694413 40248224
" />
<path d="M52694413 40248224
L52763546 40143014
" />
<path d="M52763546 40143014
L52776451 40033297
" />
<path d="M52776451 40033297
L52738200 39931129
" />
<path d="M52738200 39931129
L52653869 39848561
" />
<path d="M52653869 39848561
L52528531 39797648
" />
<path d="M52528531 39797648
L52502741 39792888
" />
<path d="M52502741 39792888
L52321908 39742121
" />
<path d="M52321908 39742121
L52191631 39653665
" />
<path d="M52191631 39653665
L52149237 39601000
" />
<path d="M52149237 39601000
L52135924 39576185
" />
<path d="M52135924 39576185
L52124732 39542047
" />
<path d="M52124732 39542047
L52115394 39492883
" />
<path d="M52115394 39492883
L52107643 39422990
" />
<path d="M52107643 39422990
L52101212 39326664
" />
<path d="M52101212 39326664
L52095835 39198203
" />
<path d="M52095835 39198203
L52091242 39031904
" />
<path d="M52091242 39031904
L52087168 38822064
" />
<path d="M52087168 38822064
L52083346 38562981
" />
<path d="M52083346 38562981
L52079507 38248950
" />
<path d="M52079507 38248950
L52077500 38069723
" />
<path d="M52077500 38069723
L52073659 37728430
" />
<path d="M52073659 37728430
L52070089 37444623
" />
<path d="M52070089 37444623
L52066473 37212291
" />
<path d="M52066473 37212291
L52062492 37025421
" />
<path d="M52062492 37025421
L52057829 36878002
" />
<path d="M52057829 36878002
L52052163 36764023
" />
<path d="M52052163 36764023
L52045177 36677471
" />
<path d="M52045177 36677471
L52036552 36612337
" />
<path d="M52036552 36612337
L52025970 36562607
" />
<path d="M52025970 36562607
L52013112 36522271
" />
<path d="M52013112 36522271
L51997660 36485317
" />
<path d="M51997660 36485317
L51993017 36475172
" />
<path d="M51993017 36475172
L51860307 36257785
" />
<path d="M51860307 36257785
L51686930 36085523
" />
<path d="M51686930 36085523
L51479481 35963039
" />
<path d="M51479481 35963039
L51244559 35894988
" />
<path d="M51244559 35894988
L51156296 35884837
" />
<path d="M51156296 35884837
L50908326 35897316
" />
<path d="M50908326 35897316
L50677641 35968022
" />
<path d="M50677641 35968022
L50472758 36092384
" />
<path d="M50472758 36092384
L50302196 36265830
" />
<path d="M50302196 36265830
L50223262 36385500
" />
<path d="M50223262 36385500
L50124875 36560125
" />
<path d="M50124875 36560125
L50109000 38020625
" />
<path d="M50109000 38020625
L50104423 38395385
" />
<path d="M50104423 38395385
L50099426 38710335
" />
<path d="M50099426 38710335
L50093876 38969165
" />
<path d="M50093876 38969165
L50087643 39175564
" />
<path d="M50087643 39175564
L50080592 39333222
" />
<path d="M50080592 39333222
L50072593 39445827
" />
<path d="M50072593 39445827
L50063511 39517069
" />
<path d="M50063511 39517069
L50054154 39549137
" />
<path d="M50054154 39549137
L50004519 39613675
" />
<path d="M50004519 39613675
L49930825 39687616
" />
<path d="M49930825 39687616
L49912797 39703302
" />
<path d="M49912797 39703302
L49845838 39752808
" />
<path d="M49845838 39752808
L49781713 39776226
" />
<path d="M49781713 39776226
L49694763 39780092
" />
<path d="M49694763 39780092
L49626766 39776169
" />
<path d="M49626766 39776169
L49461819 39743538
" />
<path d="M49461819 39743538
L49336875 39667911
" />
<path d="M49336875 39667911
L49240898 39544625
" />
<path d="M49240898 39544625
L49230876 39502811
" />
<path d="M49230876 39502811
L49221892 39412299
" />
<path d="M49221892 39412299
L49213863 39270742
" />
<path d="M49213863 39270742
L49206709 39075796
" />
<path d="M49206709 39075796
L49200349 38825114
" />
<path d="M49200349 38825114
L49194701 38516350
" />
<path d="M49194701 38516350
L49189684 38147159
" />
<path d="M49189684 38147159
L49188250 38020625
" />
<path d="M49188250 38020625
L49184448 37677926
" />
<path d="M49184448 37677926
L49180948 37392824
" />
<path d="M49180948 37392824
L49177433 37159418
" />
<path d="M49177433 37159418
L49173586 36971806
" />
<path d="M49173586 36971806
L49169090 36824088
" />
<path d="M49169090 36824088
L49163627 36710363
" />
<path d="M49163627 36710363
L49156879 36624731
" />
<path d="M49156879 36624731
L49148531 36561291
" />
<path d="M49148531 36561291
L49138263 36514141
" />
<path d="M49138263 36514141
L49125759 36477382
" />
<path d="M49125759 36477382
L49110702 36445113
" />
<path d="M49110702 36445113
L49102709 36429923
" />
<path d="M49102709 36429923
L48960428 36223210
" />
<path d="M48960428 36223210
L48786643 36065304
" />
<path d="M48786643 36065304
L48589829 35955983
" />
<path d="M48589829 35955983
L48378465 35895026
" />
<path d="M48378465 35895026
L48161028 35882212
" />
<path d="M48161028 35882212
L47945995 35917320
" />
<path d="M47945995 35917320
L47741844 36000128
" />
<path d="M47741844 36000128
L47557052 36130416
" />
<path d="M47557052 36130416
L47400097 36307962
" />
<path d="M47400097 36307962
L47303486 36476863
" />
<path d="M47303486 36476863
L47287443 36513695
" />
<path d="M47287443 36513695
L47274051 36552618
" />
<path d="M47274051 36552618
L47262994 36599642
" />
<path d="M47262994 36599642
L47253955 36660777
" />
<path d="M47253955 36660777
L47246618 36742031
" />
<path d="M47246618 36742031
L47240666 36849415
" />
<path d="M47240666 36849415
L47235784 36988938
" />
<path d="M47235784 36988938
L47231656 37166609
" />
<path d="M47231656 37166609
L47227965 37388438
" />
<path d="M47227965 37388438
L47224394 37660434
" />
<path d="M47224394 37660434
L47220629 37988608
" />
<path d="M47220629 37988608
L47219750 38068250
" />
<path d="M47219750 38068250
L47215356 38430438
" />
<path d="M47215356 38430438
L47210696 38733720
" />
<path d="M47210696 38733720
L47205596 38982689
" />
<path d="M47205596 38982689
L47199884 39181939
" />
<path d="M47199884 39181939
L47193383 39336062
" />
<path d="M47193383 39336062
L47185920 39449653
" />
<path d="M47185920 39449653
L47177321 39527305
" />
<path d="M47177321 39527305
L47167411 39573611
" />
<path d="M47167411 39573611
L47162162 39586011
" />
<path d="M47162162 39586011
L47069092 39689799
" />
<path d="M47069092 39689799
L46940169 39756101
" />
<path d="M46940169 39756101
L46792986 39781716
" />
<path d="M46792986 39781716
L46645139 39763444
" />
<path d="M46645139 39763444
L46520387 39702737
" />
<path d="M46520387 39702737
L46443719 39639052
" />
<path d="M46443719 39639052
L46387730 39580044
" />
<path d="M46387730 39580044
L46379281 39567800
" />
<path d="M46379281 39567800
L46370748 39521966
" />
<path d="M46370748 39521966
L46362590 39415782
" />
<path d="M46362590 39415782
L46354909 39252400
" />
<path d="M46354909 39252400
L46347807 39034970
" />
<path d="M46347807 39034970
L46341385 38766643
" />
<path d="M46341385 38766643
L46335745 38450567
" />
<path d="M46335745 38450567
L46330991 38089895
" />
<path d="M46330991 38089895
L46330750 38068250
" />
<path d="M46330750 38068250
L46326956 37727940
" />
<path d="M46326956 37727940
L46323499 37445057
" />
<path d="M46323499 37445057
L46320035 37213532
" />
<path d="M46320035 37213532
L46316219 37027296
" />
<path d="M46316219 37027296
L46311706 36880280
" />
<path d="M46311706 36880280
L46306152 36766415
" />
<path d="M46306152 36766415
L46299213 36679631
" />
<path d="M46299213 36679631
L46290544 36613860
" />
<path d="M46290544 36613860
L46279801 36563032
" />
<path d="M46279801 36563032
L46266639 36521078
" />
<path d="M46266639 36521078
L46250713 36481929
" />
<path d="M46250713 36481929
L46239253 36456298
" />
<path d="M46239253 36456298
L46146358 36303670
" />
<path d="M46146358 36303670
L46014710 36155464
" />
<path d="M46014710 36155464
L45862718 36028912
" />
<path d="M45862718 36028912
L45708792 35941244
" />
<path d="M45708792 35941244
L45675347 35928493
" />
<path d="M45675347 35928493
L45615891 35912007
" />
<path d="M45615891 35912007
L45540790 35899335
" />
<path d="M45540790 35899335
L45441680 35890032
" />
<path d="M45441680 35890032
L45310199 35883649
" />
<path d="M45310199 35883649
L45137983 35879738
" />
<path d="M45137983 35879738
L44916669 35877853
" />
<path d="M44916669 35877853
L44722060 35877499
" />
<path d="M44722060 35877499
L44442493 35878455
" />
</g>
<g style="fill:#000000; fill-opacity:1.0; 
stroke:#000000; stroke-width:1.000000; stroke-opacity:1; 
stroke-linecap:round; stroke-linejoin:round;">
<circle cx="44442493.000000" cy="35878455.000000" r="5000.000000" /> 
</g>
<g style="fill:#000000; fill-opacity:1.0; 
stroke:#000000; stroke-width:10000.000000; stroke-opacity:1; 
stroke-linecap:round; stroke-linejoin:round;">
<path style="fill:#000000; fill-opacity:1.0; 
stroke:#000000; stroke-width:10000.000000; stroke-opacity:1; 
stroke-linecap:round; stroke-linejoin:round;fill-rule:evenodd;"
d="M 44916669.000000,35877853.000000
45137983.000000,35879738.000000
45310199.000000,35883649.000000
45441680.000000,35890032.000000
45540790.000000,35899335.000000
45615891.000000,35912007.000000
45675347.000000,35928493.000000
45708792.000000,35941244.000000
45862718.000000,36028912.000000
46014710.000000,36155464.000000
46146358.000000,36303670.000000
46239253.000000,36456298.000000
46250713.000000,36481929.000000
46266639.000000,36521078.000000
46279801.000000,36563032.000000
46290544.000000,36613860.000000
46299213.000000,36679631.000000
46306152.000000,36766415.000000
46311706.000000,36880280.000000
46316219.000000,37027296.000000
46320035.000000,37213532.000000
46323499.000000,37445057.000000
46326956.000000,37727940.000000
46330750.000000,38068250.000000
46330991.000000,38089895.000000
46335745.000000,38450567.000000
46341385.000000,38766643.000000
46347807.000000,39034970.000000
46354909.000000,39252400.000000
46362590.000000,39415782.000000
46370748.000000,39521966.000000
46379281.000000,39567800.000000
46387730.000000,39580044.000000
46443719.000000,39639052.000000
46520387.000000,39702737.000000
46645139.000000,39763444.000000
46792986.000000,39781716.000000
46940169.000000,39756101.000000
47069092.000000,39689799.000000
47162162.000000,39586011.000000
47167411.000000,39573611.000000
47177321.000000,39527305.000000
47185920.000000,39449653.000000
47193383.000000,39336062.000000
47199884.000000,39181939.000000
47205596.000000,38982689.000000
47210696.000000,38733720.000000
47215356.000000,38430438.000000
47219750.000000,38068250.000000
47220629.000000,37988608.000000
47224394.000000,37660434.000000
47227965.000000,37388438.000000
47231656.000000,37166609.000000
47235784.000000,36988938.000000
47240666.000000,36849415.000000
47246618.000000,36742031.000000
47253955.000000,36660777.000000
47262994.000000,36599642.000000
47274051.000000,36552618.000000
47287443.000000,36513695.000000
47303486.000000,36476863.000000
47400097.000000,36307962.000000
47557052.000000,36130416.000000
47741844.000000,36000128.000000
47945995.000000,35917320.000000
48161028.000000,35882212.000000
48378465.000000,35895026.000000
48589829.000000,35955983.000000
48786643.000000,36065304.000000
48960428.000000,36223210.000000
49102709.000000,36429923.000000
49110702.000000,36445113.000000
49125759.000000,36477382.000000
49138263.000000,36514141.000000
49148531.000000,36561291.000000
49156879.000000,36624731.000000
49163627.000000,36710363.000000
49169090.000000,36824088.000000
49173586.000000,36971806.000000
49177433.000000,37159418.000000
49180948.000000,37392824.000000
49184448.000000,37677926.000000
49188250.000000,38020625.000000
49189684.000000,38147159.000000
49194701.000000,38516350.000000
49200349.000000,38825114.000000
49206709.000000,39075796.000000
49213863.000000,39270742.000000
49221892.000000,39412299.000000
49230876.000000,39502811.000000
49240898.000000,39544625.000000
49336875.000000,39667911.000000
49461819.000000,39743538.000000
49626766.000000,39776169.000000
49694763.000000,39780092.000000
49781713.000000,39776226.000000
49845838.000000,39752808.000000
49912797.000000,39703302.000000
49930825.000000,39687616.000000
50004519.000000,39613675.000000
50054154.000000,39549137.000000
50063511.000000,39517069.000000
50072593.000000,39445827.000000
50080592.000000,39333222.000000
50087643.000000,39175564.000000
50093876.000000,38969165.000000
50099426.000000,38710335.000000
50104423.000000,38395385.000000
50109000.000000,38020625.000000
50124875.000000,36560125.000000
50223262.000000,36385500.000000
50302196.000000,36265830.000000
50472758.000000,36092384.000000
50677641.000000,35968022.000000
50908326.000000,35897316.000000
51156296.000000,35884837.000000
51244559.000000,35894988.000000
51479481.000000,35963039.000000
51686930.000000,36085523.000000
51860307.000000,36257785.000000
51993017.000000,36475172.000000
51997660.000000,36485317.000000
52013112.000000,36522271.000000
52025970.000000,36562607.000000
52036552.000000,36612337.000000
52045177.000000,36677471.000000
52052163.000000,36764023.000000
52057829.000000,36878002.000000
52062492.000000,37025421.000000
52066473.000000,37212291.000000
52070089.000000,37444623.000000
52073659.000000,37728430.000000
52077500.000000,38069723.000000
52079507.000000,38248950.000000
52083346.000000,38562981.000000
52087168.000000,38822064.000000
52091242.000000,39031904.000000
52095835.000000,39198203.000000
52101212.000000,39326664.000000
52107643.000000,39422990.000000
52115394.000000,39492883.000000
52124732.000000,39542047.000000
52135924.000000,39576185.000000
52149237.000000,39601000.000000
52191631.000000,39653665.000000
52321908.000000,39742121.000000
52502741.000000,39792888.000000
52528531.000000,39797648.000000
52653869.000000,39848561.000000
52738200.000000,39931129.000000
52776451.000000,40033297.000000
52763546.000000,40143014.000000
52694413.000000,40248224.000000
52662967.000000,40277629.000000
52609569.000000,40310008.000000
52540438.000000,40320992.000000
52432016.000000,40316733.000000
52355169.000000,40307590.000000
52134248.000000,40240933.000000
51931743.000000,40120964.000000
51758386.000000,39955201.000000
51624906.000000,39751164.000000
51615797.000000,39732599.000000
51600553.000000,39697824.000000
51587909.000000,39659030.000000
51577541.000000,39610268.000000
51569126.000000,39545591.000000
51562341.000000,39459051.000000
51556862.000000,39344702.000000
51552367.000000,39196593.000000
51548531.000000,39008779.000000
51545032.000000,38775312.000000
51541546.000000,38490243.000000
51537750.000000,38147625.000000
51537702.000000,38143187.000000
51533474.000000,37786445.000000
51529100.000000,37488188.000000
51524388.000000,37243458.000000
51519145.000000,37047297.000000
51513175.000000,36894747.000000
51506287.000000,36780849.000000
51498287.000000,36700645.000000
51488980.000000,36649177.000000
51478173.000000,36621487.000000
51436793.000000,36568452.000000
51311669.000000,36472363.000000
51163828.000000,36424203.000000
51007673.000000,36424844.000000
50857612.000000,36475161.000000
50728051.000000,36576026.000000
50724700.000000,36579793.000000
50710271.000000,36599245.000000
50698225.000000,36625291.000000
50688257.000000,36663622.000000
50680063.000000,36719927.000000
50673340.000000,36799898.000000
50667783.000000,36909224.000000
50663087.000000,37053595.000000
50658950.000000,37238702.000000
50655066.000000,37470235.000000
50651132.000000,37753884.000000
50646843.000000,38095339.000000
50646111.000000,38154600.000000
50641675.000000,38492132.000000
50637330.000000,38773041.000000
50632804.000000,39003257.000000
50627822.000000,39188713.000000
50622111.000000,39335341.000000
50615396.000000,39449073.000000
50607404.000000,39535840.000000
50597860.000000,39601575.000000
50586490.000000,39652210.000000
50573021.000000,39693676.000000
50554646.000000,39737846.000000
50443694.000000,39918743.000000
50288482.000000,40082625.000000
50104410.000000,40212445.000000
50058530.000000,40237180.000000
49976431.000000,40274184.000000
49894991.000000,40295150.000000
49792845.000000,40304492.000000
49648625.000000,40306625.000000
49571009.000000,40306202.000000
49450318.000000,40301095.000000
49361090.000000,40286597.000000
49281907.000000,40258259.000000
49191349.000000,40211632.000000
49019909.000000,40090992.000000
48851828.000000,39908443.000000
48730146.000000,39695156.000000
48717007.000000,39661494.000000
48704154.000000,39619224.000000
48693467.000000,39567494.000000
48684644.000000,39500302.000000
48677384.000000,39411642.000000
48671386.000000,39295510.000000
48666350.000000,39145901.000000
48661973.000000,38956813.000000
48657955.000000,38722239.000000
48653995.000000,38436177.000000
48649792.000000,38092621.000000
48632625.000000,36640617.000000
48531621.000000,36539664.000000
48528519.000000,36536577.000000
48453089.000000,36474193.000000
48370863.000000,36440593.000000
48253598.000000,36424031.000000
48236756.000000,36422699.000000
48126734.000000,36420691.000000
48047112.000000,36438719.000000
47969681.000000,36482601.000000
47945226.000000,36499157.000000
47904872.000000,36527367.000000
47871437.000000,36556449.000000
47844202.000000,36592096.000000
47822448.000000,36639999.000000
47805456.000000,36705853.000000
47792508.000000,36795350.000000
47782886.000000,36914182.000000
47775870.000000,37068042.000000
47770742.000000,37262624.000000
47766784.000000,37503620.000000
47763276.000000,37796722.000000
47759500.000000,38147625.000000
47743625.000000,39608125.000000
47658873.000000,39768704.000000
47550622.000000,39934471.000000
47381744.000000,40108493.000000
47188000.000000,40236154.000000
47090274.000000,40273111.000000
46906577.000000,40306451.000000
46706512.000000,40310115.000000
46514232.000000,40284306.000000
46353891.000000,40229224.000000
46227543.000000,40152636.000000
46038418.000000,39981372.000000
45891025.000000,39766875.000000
45806875.000000,39608125.000000
45791000.000000,38147625.000000
45790621.000000,38113228.000000
45785858.000000,37751316.000000
45780226.000000,37434367.000000
45773821.000000,37165471.000000
45766745.000000,36947716.000000
45759095.000000,36784194.000000
45750970.000000,36677991.000000
45742470.000000,36632199.000000
45734021.000000,36619955.000000
45678032.000000,36560947.000000
45601364.000000,36497262.000000
45492914.000000,36417250.000000
44729145.000000,36417368.000000
44549865.000000,36417564.000000
44347806.000000,36418693.000000
44194633.000000,36421371.000000
44081828.000000,36426208.000000
44000871.000000,36433814.000000
43943246.000000,36444800.000000
43900432.000000,36459776.000000
43863913.000000,36479352.000000
43763137.000000,36558100.000000
43683317.000000,36682918.000000
43655925.000000,36841137.000000
43681571.000000,37007039.000000
43760103.000000,37146053.000000
43885505.000000,37247096.000000
43922897.000000,37264769.000000
43980286.000000,37282548.000000
44056246.000000,37294518.000000
44162005.000000,37301747.000000
44308790.000000,37305302.000000
44507830.000000,37306250.000000
44543610.000000,37306317.000000
44748541.000000,37309558.000000
44921054.000000,37317210.000000
45050804.000000,37328656.000000
45127450.000000,37343277.000000
45292144.000000,37424370.000000
45431758.000000,37549791.000000
45527007.000000,37703254.000000
45576478.000000,37874359.000000
45578756.000000,38052707.000000
45532431.000000,38227899.000000
45436087.000000,38389535.000000
45288314.000000,38527215.000000
45150752.000000,38623875.000000
44539080.000000,38639750.000000
44379959.000000,38644037.000000
44200233.000000,38650394.000000
44067055.000000,38658987.000000
43970469.000000,38671985.000000
43900521.000000,38691555.000000
43847253.000000,38719865.000000
43800712.000000,38759082.000000
43750941.000000,38811376.000000
43722265.000000,38848335.000000
43684362.000000,38927808.000000
43657907.000000,39036783.000000
43641704.000000,39183672.000000
43634556.000000,39376886.000000
43635268.000000,39624837.000000
43636931.000000,39758145.000000
43636900.000000,39918956.000000
43632967.000000,40033760.000000
43624300.000000,40113155.000000
43610067.000000,40167739.000000
43589434.000000,40208110.000000
43565335.000000,40239144.000000
43470686.000000,40302897.000000
43359843.000000,40319160.000000
43252207.000000,40287889.000000
43167178.000000,40209042.000000
43160558.000000,40198203.000000
43143586.000000,40158170.000000
43131564.000000,40101308.000000
43123861.000000,40018287.000000
43119843.000000,39899779.000000
43118876.000000,39736455.000000
43120327.000000,39518984.000000
43122640.000000,39348721.000000
43129354.000000,39129195.000000
43142012.000000,38956416.000000
43163058.000000,38820196.000000
43194938.000000,38710350.000000
43240097.000000,38616692.000000
43300981.000000,38529035.000000
43380035.000000,38437193.000000
43402671.000000,38412706.000000
43500671.000000,38316065.000000
43597056.000000,38242708.000000
43702668.000000,38189228.000000
43828350.000000,38152220.000000
43984942.000000,38128276.000000
44183287.000000,38113990.000000
44434227.000000,38105954.000000
44584555.000000,38102505.000000
44747942.000000,38097504.000000
44863544.000000,38091289.000000
44940544.000000,38082714.000000
44988123.000000,38070635.000000
45015461.000000,38053904.000000
45031742.000000,38031376.000000
45033550.000000,38027960.000000
45051299.000000,37982150.000000
45045888.000000,37947025.000000
45010594.000000,37920725.000000
44938693.000000,37901389.000000
44823463.000000,37887157.000000
44658181.000000,37876169.000000
44436124.000000,37866565.000000
44365624.000000,37863844.000000
44174616.000000,37855284.000000
44031729.000000,37845896.000000
43925222.000000,37834102.000000
43843351.000000,37818323.000000
43774375.000000,37796982.000000
43706552.000000,37768500.000000
43536577.000000,37669043.000000
43368890.000000,37513445.000000
43243470.000000,37327841.000000
43161734.000000,37121684.000000
43125103.000000,36904425.000000
43134996.000000,36685516.000000
43192832.000000,36474409.000000
43300031.000000,36280554.000000
43458011.000000,36113405.000000
43523680.000000,36061305.000000
43605327.000000,36004809.000000
43688840.000000,35961176.000000
43783021.000000,35928763.000000
43896675.000000,35905927.000000
44038603.000000,35891026.000000
44217608.000000,35882416.000000
44442493.000000,35878455.000000
44722060.000000,35877499.000000
Z" /> 
<g >
</g>
<g style="fill:#000000; fill-opacity:1.0; 
stroke:#000000; stroke-width:1.000000; stroke-opacity:1; 
stroke-linecap:round; stroke-linejoin:round;">
<circle cx="41655000.000000" cy="8600000.000000" r="850000.000000" /> 
<circle cx="39115000.000000" cy="8600000.000000" r="850000.000000" /> 
<path style="fill:#000000; fill-opacity:1.0; 
stroke:#000000; stroke-width:1.000000; stroke-opacity:1; 
stroke-linecap:round; stroke-linejoin:round;fill-rule:evenodd;"
d="M 37424999.000000,9449999.000000
35725001.000000,9449999.000000
35725001.000000,7750001.000000
37424999.000000,7750001.000000
Z" /> 
</g>
<g >
</g>
<g style="fill:#000000; fill-opacity:1.0; 
stroke:#000000; stroke-width:1.000000; stroke-opacity:1; 
stroke-linecap:round; stroke-linejoin:round;">
<circle cx="49825000.000000" cy="33580000.000000" r="800000.000000" /> 
</g>
<g style="fill:#000000; fill-opacity:1.0; 
stroke:#000000; stroke-width:21200.000000; stroke-opacity:1; 
stroke-linecap:round; stroke-linejoin:round;">
</g>
<g style="fill:#000000; fill-opacity:1.0; 
stroke:#000000; stroke-width:1.000000; stroke-opacity:1; 
stroke-linecap:round; stroke-linejoin:round;">
<circle cx="49825000.000000" cy="28580000.000000" r="800000.000000" /> 
</g>
<g style="fill:#000000; fill-opacity:1.0; 
stroke:#000000; stroke-width:21200.000000; stroke-opacity:1; 
stroke-linecap:round; stroke-linejoin:round;">
</g>
<g >
</g>
<g style="fill:#000000; fill-opacity:1.0; 
stroke:#000000; stroke-width:21200.000000; stroke-opacity:1; 
stroke-linecap:round; stroke-linejoin:round;">
</g>
<g style="fill:#000000; fill-opacity:1.0; 
stroke:#000000; stroke-width:1.000000; stroke-opacity:1; 
stroke-linecap:round; stroke-linejoin:round;">
<circle cx="68425000.000000" cy="26660000.000000" r="800000.000000" /> 
<circle cx="68425000.000000" cy="16500000.000000" r="800000.000000" /> 
</g>
<g style="fill:#000000; fill-opacity:1.0; 
stroke:#000000; stroke-width:21200.000000; stroke-opacity:1; 
stroke-linecap:round; stroke-linejoin:round;">
</g>
<g >
</g>
<g style="fill:#000000; fill-opacity:1.0; 
stroke:#000000; stroke-width:21200.000000; stroke-opacity:1; 
stroke-linecap:round; stroke-linejoin:round;">
</g>
<g style="fill:#000000; fill-opacity:1.0; 
stroke:#000000; stroke-width:1600000.000000; stroke-opacity:1; 
stroke-linecap:round; stroke-linejoin:round;">
</g>
<g style="fill:#000000; fill-opacity:0.0; 
stroke:#000000; stroke-width:1600000.000000; stroke-opacity:1; 
stroke-linecap:round; stroke-linejoin:round;">
<path d="M57020000 17980000
L57820000 17980000
" />
<path d="M57020000 20520000
L57820000 20520000
" />
<path d="M57020000 23060000
L57820000 23060000
" />
<path d="M57020000 25600000
L57820000 25600000
" />
<path d="M49400000 25600000
L50200000 25600000
" />
<path d="M49400000 23060000
L50200000 23060000
" />
<path d="M49400000 20520000
L50200000 20520000
" />
</g>
<g style="fill:#000000; fill-opacity:0.0; 
stroke:#000000; stroke-width:1.000000; stroke-opacity:1; 
stroke-linecap:round; stroke-linejoin:round;">
</g>
<g style="fill:#000000; fill-opacity:1.0; 
stroke:#000000; stroke-width:1.000000; stroke-opacity:1; 
stroke-linecap:round; stroke-linejoin:round;">
<path style="fill:#000000; fill-opacity:1.0; 
stroke:#000000; stroke-width:1.000000; stroke-opacity:1; 
stroke-linecap:round; stroke-linejoin:round;fill-rule:evenodd;"
d="M 48600001.000000,18779999.000000
48600001.000000,17180001.000000
50999999.000000,17180001.000000
50999999.000000,18779999.000000
Z" /> 
</g>
<g >
</g>
<g >
</g>
<g style="fill:#000000; fill-opacity:1.0; 
stroke:#000000; stroke-width:1.000000; stroke-opacity:1; 
stroke-linecap:round; stroke-linejoin:round;">
<circle cx="64800000.000000" cy="16500000.000000" r="800000.000000" /> 
<circle cx="64800000.000000" cy="26660000.000000" r="800000.000000" /> 
</g>
<g style="fill:#000000; fill-opacity:1.0; 
stroke:#000000; stroke-width:21200.000000; stroke-opacity:1; 
stroke-linecap:round; stroke-linejoin:round;">
</g>
<g >
</g>
<g style="fill:#000000; fill-opacity:1.0; 
stroke:#000000; stroke-width:21200.000000; stroke-opacity:1; 
stroke-linecap:round; stroke-linejoin:round;">
</g>
<g style="fill:#000000; fill-opacity:1.0; 
stroke:#000000; stroke-width:1.000000; stroke-opacity:1; 
stroke-linecap:round; stroke-linejoin:round;">
<circle cx="73800000.000000" cy="48280000.000000" r="800000.000000" /> 
<circle cx="73800000.000000" cy="38120000.000000" r="800000.000000" /> 
</g>
<g style="fill:#000000; fill-opacity:1.0; 
stroke:#000000; stroke-width:21200.000000; stroke-opacity:1; 
stroke-linecap:round; stroke-linejoin:round;">
</g>
<g >
</g>
<g style="fill:#000000; fill-opacity:1.0; 
stroke:#000000; stroke-width:21200.000000; stroke-opacity:1; 
stroke-linecap:round; stroke-linejoin:round;">
</g>
<g style="fill:#000000; fill-opacity:1.0; 
stroke:#000000; stroke-width:1.000000; stroke-opacity:1; 
stroke-linecap:round; stroke-linejoin:round;">
<circle cx="45300000.000000" cy="28500000.000000" r="800000.000000" /> 
</g>
<g style="fill:#000000; fill-opacity:1.0; 
stroke:#000000; stroke-width:21200.000000; stroke-opacity:1; 
stroke-linecap:round; stroke-linejoin:round;">
</g>
<g style="fill:#000000; fill-opacity:1.0; 
stroke:#000000; stroke-width:1.000000; stroke-opacity:1; 
stroke-linecap:round; stroke-linejoin:round;">
<circle cx="45300000.000000" cy="23500000.000000" r="800000.000000" /> 
</g>
<g style="fill:#000000; fill-opacity:1.0; 
stroke:#000000; stroke-width:21200.000000; stroke-opacity:1; 
stroke-linecap:round; stroke-linejoin:round;">
</g>
<g >
</g>
<g style="fill:#000000; fill-opacity:1.0; 
stroke:#000000; stroke-width:21200.000000; stroke-opacity:1; 
stroke-linecap:round; stroke-linejoin:round;">
</g>
<g style="fill:#000000; fill-opacity:1.0; 
stroke:#000000; stroke-width:1.000000; stroke-opacity:1; 
stroke-linecap:round; stroke-linejoin:round;">
<circle cx="72225000.000000" cy="16500000.000000" r="800000.000000" /> 
<circle cx="72225000.000000" cy="26660000.000000" r="800000.000000" /> 
</g>
<g style="fill:#000000; fill-opacity:1.0; 
stroke:#000000; stroke-width:21200.000000; stroke-opacity:1; 
stroke-linecap:round; stroke-linejoin:round;">
</g>
<g >
</g>
<g style="fill:#000000; fill-opacity:1.0; 
stroke:#000000; stroke-width:21200.000000; stroke-opacity:1; 
stroke-linecap:round; stroke-linejoin:round;">
</g>
<g style="fill:#000000; fill-opacity:1.0; 
stroke:#000000; stroke-width:1.000000; stroke-opacity:1; 
stroke-linecap:round; stroke-linejoin:round;">
<circle cx="8720000.000000" cy="13800000.000000" r="800000.000000" /> 
<circle cx="18880000.000000" cy="13800000.000000" r="800000.000000" /> 
</g>
<g style="fill:#000000; fill-opacity:1.0; 
stroke:#000000; stroke-width:21200.000000; stroke-opacity:1; 
stroke-linecap:round; stroke-linejoin:round;">
</g>
<g >
</g>
<g style="fill:#000000; fill-opacity:1.0; 
stroke:#000000; stroke-width:21200.000000; stroke-opacity:1; 
stroke-linecap:round; stroke-linejoin:round;">
</g>
<g style="fill:#000000; fill-opacity:1.0; 
stroke:#000000; stroke-width:1.000000; stroke-opacity:1; 
stroke-linecap:round; stroke-linejoin:round;">
<circle cx="41900000.000000" cy="23500000.000000" r="800000.000000" /> 
</g>
<g style="fill:#000000; fill-opacity:1.0; 
stroke:#000000; stroke-width:21200.000000; stroke-opacity:1; 
stroke-linecap:round; stroke-linejoin:round;">
</g>
<g style="fill:#000000; fill-opacity:1.0; 
stroke:#000000; stroke-width:1.000000; stroke-opacity:1; 
stroke-linecap:round; stroke-linejoin:round;">
<circle cx="41900000.000000" cy="28500000.000000" r="800000.000000" /> 
</g>
<g style="fill:#000000; fill-opacity:1.0; 
stroke:#000000; stroke-width:21200.000000; stroke-opacity:1; 
stroke-linecap:round; stroke-linejoin:round;">
</g>
<g >
</g>
<g style="fill:#000000; fill-opacity:1.0; 
stroke:#000000; stroke-width:21200.000000; stroke-opacity:1; 
stroke-linecap:round; stroke-linejoin:round;">
</g>
<g style="fill:#000000; fill-opacity:1.0; 
stroke:#000000; stroke-width:1.000000; stroke-opacity:1; 
stroke-linecap:round; stroke-linejoin:round;">
<circle cx="49600000.000000" cy="47200000.000000" r="2800000.000000" /> 
</g>
<g style="fill:#000000; fill-opacity:1.0; 
stroke:#000000; stroke-width:21200.000000; stroke-opacity:1; 
stroke-linecap:round; stroke-linejoin:round;">
</g>
<g >
</g>
<g style="fill:#000000; fill-opacity:1.0; 
stroke:#000000; stroke-width:21200.000000; stroke-opacity:1; 
stroke-linecap:round; stroke-linejoin:round;">
</g>
<g style="fill:#000000; fill-opacity:1.0; 
stroke:#000000; stroke-width:1.000000; stroke-opacity:1; 
stroke-linecap:round; stroke-linejoin:round;">
<circle cx="82000000.000000" cy="48000000.000000" r="2800000.000000" /> 
</g>
<g style="fill:#000000; fill-opacity:1.0; 
stroke:#000000; stroke-width:21200.000000; stroke-opacity:1; 
stroke-linecap:round; stroke-linejoin:round;">
</g>
<g >
</g>
<g style="fill:#000000; fill-opacity:1.0; 
stroke:#000000; stroke-width:21200.000000; stroke-opacity:1; 
stroke-linecap:round; stroke-linejoin:round;">
</g>
<g style="fill:#000000; fill-opacity:1.0; 
stroke:#000000; stroke-width:1.000000; stroke-opacity:1; 
stroke-linecap:round; stroke-linejoin:round;">
<circle cx="37500000.000000" cy="33560000.000000" r="800000.000000" /> 
<circle cx="37500000.000000" cy="23400000.000000" r="800000.000000" /> 
</g>
<g style="fill:#000000; fill-opacity:1.0; 
stroke:#000000; stroke-width:21200.000000; stroke-opacity:1; 
stroke-linecap:round; stroke-linejoin:round;">
</g>
<g >
</g>
<g style="fill:#000000; fill-opacity:1.0; 
stroke:#000000; stroke-width:21200.000000; stroke-opacity:1; 
stroke-linecap:round; stroke-linejoin:round;">
</g>
<g style="fill:#000000; fill-opacity:1.0; 
stroke:#000000; stroke-width:1600000.000000; stroke-opacity:1; 
stroke-linecap:round; stroke-linejoin:round;">
</g>
<g style="fill:#000000; fill-opacity:0.0; 
stroke:#000000; stroke-width:1600000.000000; stroke-opacity:1; 
stroke-linecap:round; stroke-linejoin:round;">
<path d="M23995000 17200000
L24795000 17200000
" />
<path d="M23995000 19740000
L24795000 19740000
" />
<path d="M23995000 22280000
L24795000 22280000
" />
<path d="M23995000 24820000
L24795000 24820000
" />
<path d="M16375000 24820000
L17175000 24820000
" />
<path d="M16375000 22280000
L17175000 22280000
" />
<path d="M16375000 19740000
L17175000 19740000
" />
</g>
<g style="fill:#000000; fill-opacity:0.0; 
stroke:#000000; stroke-width:1.000000; stroke-opacity:1; 
stroke-linecap:round; stroke-linejoin:round;">
</g>
<g style="fill:#000000; fill-opacity:1.0; 
stroke:#000000; stroke-width:1.000000; stroke-opacity:1; 
stroke-linecap:round; stroke-linejoin:round;">
<path style="fill:#000000; fill-opacity:1.0; 
stroke:#000000; stroke-width:1.000000; stroke-opacity:1; 
stroke-linecap:round; stroke-linejoin:round;fill-rule:evenodd;"
d="M 15575001.000000,17999999.000000
15575001.000000,16400001.000000
17974999.000000,16400001.000000
17974999.000000,17999999.000000
Z" /> 
</g>
<g >
</g>
<g style="fill:#000000; fill-opacity:1.0; 
stroke:#000000; stroke-width:1.000000; stroke-opacity:1; 
stroke-linecap:round; stroke-linejoin:round;">
<circle cx="18740000.000000" cy="8600000.000000" r="850000.000000" /> 
<path style="fill:#000000; fill-opacity:1.0; 
stroke:#000000; stroke-width:1.000000; stroke-opacity:1; 
stroke-linecap:round; stroke-linejoin:round;fill-rule:evenodd;"
d="M 17049999.000000,9449999.000000
15350001.000000,9449999.000000
15350001.000000,7750001.000000
17049999.000000,7750001.000000
Z" /> 
</g>
<g >
</g>
<g style="fill:#000000; fill-opacity:1.0; 
stroke:#000000; stroke-width:1.000000; stroke-opacity:1; 
stroke-linecap:round; stroke-linejoin:round;">
<circle cx="33200000.000000" cy="21040000.000000" r="800000.000000" /> 
<circle cx="33200000.000000" cy="31200000.000000" r="800000.000000" /> 
</g>
<g style="fill:#000000; fill-opacity:1.0; 
stroke:#000000; stroke-width:21200.000000; stroke-opacity:1; 
stroke-linecap:round; stroke-linejoin:round;">
</g>
<g >
</g>
<g style="fill:#000000; fill-opacity:1.0; 
stroke:#000000; stroke-width:21200.000000; stroke-opacity:1; 
stroke-linecap:round; stroke-linejoin:round;">
</g>
<g style="fill:#000000; fill-opacity:1.0; 
stroke:#000000; stroke-width:1.000000; stroke-opacity:1; 
stroke-linecap:round; stroke-linejoin:round;">
<circle cx="36360000.000000" cy="39800000.000000" r="800000.000000" /> 
<circle cx="26200000.000000" cy="39800000.000000" r="800000.000000" /> 
</g>
<g style="fill:#000000; fill-opacity:1.0; 
stroke:#000000; stroke-width:21200.000000; stroke-opacity:1; 
stroke-linecap:round; stroke-linejoin:round;">
</g>
<g >
</g>
<g style="fill:#000000; fill-opacity:1.0; 
stroke:#000000; stroke-width:21200.000000; stroke-opacity:1; 
stroke-linecap:round; stroke-linejoin:round;">
</g>
<g style="fill:#000000; fill-opacity:1.0; 
stroke:#000000; stroke-width:1.000000; stroke-opacity:1; 
stroke-linecap:round; stroke-linejoin:round;">
<circle cx="68400000.000000" cy="41100000.000000" r="1170000.000000" /> 
</g>
<g style="fill:#000000; fill-opacity:1.0; 
stroke:#000000; stroke-width:21200.000000; stroke-opacity:1; 
stroke-linecap:round; stroke-linejoin:round;">
</g>
<g style="fill:#000000; fill-opacity:1.0; 
stroke:#000000; stroke-width:1.000000; stroke-opacity:1; 
stroke-linecap:round; stroke-linejoin:round;">
<circle cx="63400000.000000" cy="41100000.000000" r="1170000.000000" /> 
</g>
<g style="fill:#000000; fill-opacity:1.0; 
stroke:#000000; stroke-width:21200.000000; stroke-opacity:1; 
stroke-linecap:round; stroke-linejoin:round;">
</g>
<g style="fill:#000000; fill-opacity:1.0; 
stroke:#000000; stroke-width:1.000000; stroke-opacity:1; 
stroke-linecap:round; stroke-linejoin:round;">
<circle cx="58400000.000000" cy="41100000.000000" r="1170000.000000" /> 
</g>
<g style="fill:#000000; fill-opacity:1.0; 
stroke:#000000; stroke-width:21200.000000; stroke-opacity:1; 
stroke-linecap:round; stroke-linejoin:round;">
</g>
<g style="fill:#000000; fill-opacity:1.0; 
stroke:#000000; stroke-width:1.000000; stroke-opacity:1; 
stroke-linecap:round; stroke-linejoin:round;">
<circle cx="68400000.000000" cy="48600000.000000" r="1170000.000000" /> 
</g>
<g style="fill:#000000; fill-opacity:1.0; 
stroke:#000000; stroke-width:21200.000000; stroke-opacity:1; 
stroke-linecap:round; stroke-linejoin:round;">
</g>
<g style="fill:#000000; fill-opacity:1.0; 
stroke:#000000; stroke-width:1.000000; stroke-opacity:1; 
stroke-linecap:round; stroke-linejoin:round;">
<circle cx="63400000.000000" cy="48600000.000000" r="1170000.000000" /> 
</g>
<g style="fill:#000000; fill-opacity:1.0; 
stroke:#000000; stroke-width:21200.000000; stroke-opacity:1; 
stroke-linecap:round; stroke-linejoin:round;">
</g>
<g style="fill:#000000; fill-opacity:1.0; 
stroke:#000000; stroke-width:1.000000; stroke-opacity:1; 
stroke-linecap:round; stroke-linejoin:round;">
<circle cx="58400000.000000" cy="48600000.000000" r="1170000.000000" /> 
</g>
<g style="fill:#000000; fill-opacity:1.0; 
stroke:#000000; stroke-width:21200.000000; stroke-opacity:1; 
stroke-linecap:round; stroke-linejoin:round;">
</g>
<g >
</g>
<g style="fill:#000000; fill-opacity:1.0; 
stroke:#000000; stroke-width:21200.000000; stroke-opacity:1; 
stroke-linecap:round; stroke-linejoin:round;">
</g>
<g style="fill:#000000; fill-opacity:1.0; 
stroke:#000000; stroke-width:1.000000; stroke-opacity:1; 
stroke-linecap:round; stroke-linejoin:round;">
<circle cx="13000000.000000" cy="26680000.000000" r="800000.000000" /> 
<circle cx="13000000.000000" cy="16520000.000000" r="800000.000000" /> 
</g>
<g style="fill:#000000; fill-opacity:1.0; 
stroke:#000000; stroke-width:21200.000000; stroke-opacity:1; 
stroke-linecap:round; stroke-linejoin:round;">
</g>
<g >
</g>
<g style="fill:#000000; fill-opacity:1.0; 
stroke:#000000; stroke-width:21200.000000; stroke-opacity:1; 
stroke-linecap:round; stroke-linejoin:round;">
</g>
<g style="fill:#000000; fill-opacity:1.0; 
stroke:#000000; stroke-width:1.000000; stroke-opacity:1; 
stroke-linecap:round; stroke-linejoin:round;">
<circle cx="20400000.000000" cy="41000000.000000" r="1170000.000000" /> 
</g>
<g style="fill:#000000; fill-opacity:1.0; 
stroke:#000000; stroke-width:21200.000000; stroke-opacity:1; 
stroke-linecap:round; stroke-linejoin:round;">
</g>
<g style="fill:#000000; fill-opacity:1.0; 
stroke:#000000; stroke-width:1.000000; stroke-opacity:1; 
stroke-linecap:round; stroke-linejoin:round;">
<circle cx="15400000.000000" cy="41000000.000000" r="1170000.000000" /> 
</g>
<g style="fill:#000000; fill-opacity:1.0; 
stroke:#000000; stroke-width:21200.000000; stroke-opacity:1; 
stroke-linecap:round; stroke-linejoin:round;">
</g>
<g style="fill:#000000; fill-opacity:1.0; 
stroke:#000000; stroke-width:1.000000; stroke-opacity:1; 
stroke-linecap:round; stroke-linejoin:round;">
<circle cx="10400000.000000" cy="41000000.000000" r="1170000.000000" /> 
</g>
<g style="fill:#000000; fill-opacity:1.0; 
stroke:#000000; stroke-width:21200.000000; stroke-opacity:1; 
stroke-linecap:round; stroke-linejoin:round;">
</g>
<g style="fill:#000000; fill-opacity:1.0; 
stroke:#000000; stroke-width:1.000000; stroke-opacity:1; 
stroke-linecap:round; stroke-linejoin:round;">
<circle cx="20400000.000000" cy="48500000.000000" r="1170000.000000" /> 
</g>
<g style="fill:#000000; fill-opacity:1.0; 
stroke:#000000; stroke-width:21200.000000; stroke-opacity:1; 
stroke-linecap:round; stroke-linejoin:round;">
</g>
<g style="fill:#000000; fill-opacity:1.0; 
stroke:#000000; stroke-width:1.000000; stroke-opacity:1; 
stroke-linecap:round; stroke-linejoin:round;">
<circle cx="15400000.000000" cy="48500000.000000" r="1170000.000000" /> 
</g>
<g style="fill:#000000; fill-opacity:1.0; 
stroke:#000000; stroke-width:21200.000000; stroke-opacity:1; 
stroke-linecap:round; stroke-linejoin:round;">
</g>
<g style="fill:#000000; fill-opacity:1.0; 
stroke:#000000; stroke-width:1.000000; stroke-opacity:1; 
stroke-linecap:round; stroke-linejoin:round;">
<circle cx="10400000.000000" cy="48500000.000000" r="1170000.000000" /> 
</g>
<g style="fill:#000000; fill-opacity:1.0; 
stroke:#000000; stroke-width:21200.000000; stroke-opacity:1; 
stroke-linecap:round; stroke-linejoin:round;">
</g>
<g >
</g>
<g style="fill:#000000; fill-opacity:1.0; 
stroke:#000000; stroke-width:21200.000000; stroke-opacity:1; 
stroke-linecap:round; stroke-linejoin:round;">
</g>
<g style="fill:#000000; fill-opacity:1.0; 
stroke:#000000; stroke-width:1.000000; stroke-opacity:1; 
stroke-linecap:round; stroke-linejoin:round;">
<circle cx="9800000.000000" cy="26500000.000000" r="800000.000000" /> 
</g>
<g style="fill:#000000; fill-opacity:1.0; 
stroke:#000000; stroke-width:21200.000000; stroke-opacity:1; 
stroke-linecap:round; stroke-linejoin:round;">
</g>
<g style="fill:#000000; fill-opacity:1.0; 
stroke:#000000; stroke-width:1.000000; stroke-opacity:1; 
stroke-linecap:round; stroke-linejoin:round;">
<circle cx="9800000.000000" cy="21500000.000000" r="800000.000000" /> 
</g>
<g style="fill:#000000; fill-opacity:1.0; 
stroke:#000000; stroke-width:21200.000000; stroke-opacity:1; 
stroke-linecap:round; stroke-linejoin:round;">
</g>
<g >
</g>
<g style="fill:#000000; fill-opacity:1.0; 
stroke:#000000; stroke-width:21200.000000; stroke-opacity:1; 
stroke-linecap:round; stroke-linejoin:round;">
</g>
<g style="fill:#000000; fill-opacity:1.0; 
stroke:#000000; stroke-width:1.000000; stroke-opacity:1; 
stroke-linecap:round; stroke-linejoin:round;">
<circle cx="12400000.000000" cy="29400000.000000" r="800000.000000" /> 
</g>
<g style="fill:#000000; fill-opacity:1.0; 
stroke:#000000; stroke-width:21200.000000; stroke-opacity:1; 
stroke-linecap:round; stroke-linejoin:round;">
</g>
<g style="fill:#000000; fill-opacity:1.0; 
stroke:#000000; stroke-width:1.000000; stroke-opacity:1; 
stroke-linecap:round; stroke-linejoin:round;">
<circle cx="17400000.000000" cy="29400000.000000" r="800000.000000" /> 
</g>
<g style="fill:#000000; fill-opacity:1.0; 
stroke:#000000; stroke-width:21200.000000; stroke-opacity:1; 
stroke-linecap:round; stroke-linejoin:round;">
</g>
<g >
</g>
<g style="fill:#000000; fill-opacity:1.0; 
stroke:#000000; stroke-width:21200.000000; stroke-opacity:1; 
stroke-linecap:round; stroke-linejoin:round;">
</g>
<g style="fill:#000000; fill-opacity:1.0; 
stroke:#000000; stroke-width:1.000000; stroke-opacity:1; 
stroke-linecap:round; stroke-linejoin:round;">
<circle cx="61200000.000000" cy="26660000.000000" r="800000.000000" /> 
<circle cx="61200000.000000" cy="16500000.000000" r="800000.000000" /> 
</g>
<g style="fill:#000000; fill-opacity:1.0; 
stroke:#000000; stroke-width:21200.000000; stroke-opacity:1; 
stroke-linecap:round; stroke-linejoin:round;">
</g>
<g >
</g>
<g style="fill:#000000; fill-opacity:1.0; 
stroke:#000000; stroke-width:21200.000000; stroke-opacity:1; 
stroke-linecap:round; stroke-linejoin:round;">
</g>
<g style="fill:#000000; fill-opacity:1.0; 
stroke:#000000; stroke-width:1.000000; stroke-opacity:1; 
stroke-linecap:round; stroke-linejoin:round;">
<circle cx="73900000.000000" cy="29300000.000000" r="800000.000000" /> 
</g>
<g style="fill:#000000; fill-opacity:1.0; 
stroke:#000000; stroke-width:21200.000000; stroke-opacity:1; 
stroke-linecap:round; stroke-linejoin:round;">
</g>
<g style="fill:#000000; fill-opacity:1.0; 
stroke:#000000; stroke-width:1.000000; stroke-opacity:1; 
stroke-linecap:round; stroke-linejoin:round;">
<circle cx="68900000.000000" cy="29300000.000000" r="800000.000000" /> 
</g>
<g style="fill:#000000; fill-opacity:1.0; 
stroke:#000000; stroke-width:21200.000000; stroke-opacity:1; 
stroke-linecap:round; stroke-linejoin:round;">
</g>
<g >
</g>
<g style="fill:#000000; fill-opacity:1.0; 
stroke:#000000; stroke-width:21200.000000; stroke-opacity:1; 
stroke-linecap:round; stroke-linejoin:round;">
</g>
<g style="fill:#000000; fill-opacity:1.0; 
stroke:#000000; stroke-width:1.000000; stroke-opacity:1; 
stroke-linecap:round; stroke-linejoin:round;">
<circle cx="8600000.000000" cy="8600000.000000" r="2800000.000000" /> 
</g>
<g style="fill:#000000; fill-opacity:1.0; 
stroke:#000000; stroke-width:21200.000000; stroke-opacity:1; 
stroke-linecap:round; stroke-linejoin:round;">
</g>
<g >
</g>
<g style="fill:#000000; fill-opacity:1.0; 
stroke:#000000; stroke-width:21200.000000; stroke-opacity:1; 
stroke-linecap:round; stroke-linejoin:round;">
</g>
<g style="fill:#000000; fill-opacity:1.0; 
stroke:#000000; stroke-width:1.000000; stroke-opacity:1; 
stroke-linecap:round; stroke-linejoin:round;">
<circle cx="29280000.000000" cy="9600000.000000" r="850000.000000" /> 
<circle cx="26740000.000000" cy="9600000.000000" r="850000.000000" /> 
<path style="fill:#000000; fill-opacity:1.0; 
stroke:#000000; stroke-width:1.000000; stroke-opacity:1; 
stroke-linecap:round; stroke-linejoin:round;fill-rule:evenodd;"
d="M 25049999.000000,10449999.000000
23350001.000000,10449999.000000
23350001.000000,8750001.000000
25049999.000000,8750001.000000
Z" /> 
</g>
<g >
</g>
<g style="fill:#000000; fill-opacity:1.0; 
stroke:#000000; stroke-width:1.000000; stroke-opacity:1; 
stroke-linecap:round; stroke-linejoin:round;">
<circle cx="56500000.000000" cy="13800000.000000" r="800000.000000" /> 
</g>
<g style="fill:#000000; fill-opacity:1.0; 
stroke:#000000; stroke-width:21200.000000; stroke-opacity:1; 
stroke-linecap:round; stroke-linejoin:round;">
</g>
<g style="fill:#000000; fill-opacity:1.0; 
stroke:#000000; stroke-width:1.000000; stroke-opacity:1; 
stroke-linecap:round; stroke-linejoin:round;">
<circle cx="61500000.000000" cy="13800000.000000" r="800000.000000" /> 
</g>
<g style="fill:#000000; fill-opacity:1.0; 
stroke:#000000; stroke-width:21200.000000; stroke-opacity:1; 
stroke-linecap:round; stroke-linejoin:round;">
</g>
<g >
</g>
<g style="fill:#000000; fill-opacity:1.0; 
stroke:#000000; stroke-width:21200.000000; stroke-opacity:1; 
stroke-linecap:round; stroke-linejoin:round;">
</g>
<g style="fill:#000000; fill-opacity:1.0; 
stroke:#000000; stroke-width:1.000000; stroke-opacity:1; 
stroke-linecap:round; stroke-linejoin:round;">
<circle cx="26500000.000000" cy="13700000.000000" r="800000.000000" /> 
</g>
<g style="fill:#000000; fill-opacity:1.0; 
stroke:#000000; stroke-width:21200.000000; stroke-opacity:1; 
stroke-linecap:round; stroke-linejoin:round;">
</g>
<g style="fill:#000000; fill-opacity:1.0; 
stroke:#000000; stroke-width:1.000000; stroke-opacity:1; 
stroke-linecap:round; stroke-linejoin:round;">
<circle cx="21500000.000000" cy="13700000.000000" r="800000.000000" /> 
</g>
<g style="fill:#000000; fill-opacity:1.0; 
stroke:#000000; stroke-width:21200.000000; stroke-opacity:1; 
stroke-linecap:round; stroke-linejoin:round;">
</g>
<g >
</g>
<g style="fill:#000000; fill-opacity:1.0; 
stroke:#000000; stroke-width:21200.000000; stroke-opacity:1; 
stroke-linecap:round; stroke-linejoin:round;">
</g>
<g style="fill:#000000; fill-opacity:1.0; 
stroke:#000000; stroke-width:1.000000; stroke-opacity:1; 
stroke-linecap:round; stroke-linejoin:round;">
<circle cx="65725000.000000" cy="29380000.000000" r="800000.000000" /> 
</g>
<g style="fill:#000000; fill-opacity:1.0; 
stroke:#000000; stroke-width:21200.000000; stroke-opacity:1; 
stroke-linecap:round; stroke-linejoin:round;">
</g>
<g style="fill:#000000; fill-opacity:1.0; 
stroke:#000000; stroke-width:1.000000; stroke-opacity:1; 
stroke-linecap:round; stroke-linejoin:round;">
<circle cx="60725000.000000" cy="29380000.000000" r="800000.000000" /> 
</g>
<g style="fill:#000000; fill-opacity:1.0; 
stroke:#000000; stroke-width:21200.000000; stroke-opacity:1; 
stroke-linecap:round; stroke-linejoin:round;">
</g>
<g >
</g>
<g style="fill:#000000; fill-opacity:1.0; 
stroke:#000000; stroke-width:21200.000000; stroke-opacity:1; 
stroke-linecap:round; stroke-linejoin:round;">
</g>
<g style="fill:#000000; fill-opacity:1.0; 
stroke:#000000; stroke-width:1.000000; stroke-opacity:1; 
stroke-linecap:round; stroke-linejoin:round;">
<circle cx="20000000.000000" cy="33000000.000000" r="800000.000000" /> 
</g>
<g style="fill:#000000; fill-opacity:1.0; 
stroke:#000000; stroke-width:21200.000000; stroke-opacity:1; 
stroke-linecap:round; stroke-linejoin:round;">
</g>
<g style="fill:#000000; fill-opacity:1.0; 
stroke:#000000; stroke-width:1.000000; stroke-opacity:1; 
stroke-linecap:round; stroke-linejoin:round;">
<circle cx="20000000.000000" cy="28000000.000000" r="800000.000000" /> 
</g>
<g style="fill:#000000; fill-opacity:1.0; 
stroke:#000000; stroke-width:21200.000000; stroke-opacity:1; 
stroke-linecap:round; stroke-linejoin:round;">
</g>
<g >
</g>
<g style="fill:#000000; fill-opacity:1.0; 
stroke:#000000; stroke-width:21200.000000; stroke-opacity:1; 
stroke-linecap:round; stroke-linejoin:round;">
</g>
<g style="fill:#000000; fill-opacity:1.0; 
stroke:#000000; stroke-width:1.000000; stroke-opacity:1; 
stroke-linecap:round; stroke-linejoin:round;">
<circle cx="29600000.000000" cy="21040000.000000" r="800000.000000" /> 
<circle cx="29600000.000000" cy="31200000.000000" r="800000.000000" /> 
</g>
<g style="fill:#000000; fill-opacity:1.0; 
stroke:#000000; stroke-width:21200.000000; stroke-opacity:1; 
stroke-linecap:round; stroke-linejoin:round;">
</g>
<g >
</g>
<g style="fill:#000000; fill-opacity:1.0; 
stroke:#000000; stroke-width:21200.000000; stroke-opacity:1; 
stroke-linecap:round; stroke-linejoin:round;">
</g>
<g style="fill:#000000; fill-opacity:1.0; 
stroke:#000000; stroke-width:1.000000; stroke-opacity:1; 
stroke-linecap:round; stroke-linejoin:round;">
<circle cx="46905000.000000" cy="20180000.000000" r="800000.000000" /> 
<circle cx="36745000.000000" cy="20180000.000000" r="800000.000000" /> 
</g>
<g style="fill:#000000; fill-opacity:1.0; 
stroke:#000000; stroke-width:21200.000000; stroke-opacity:1; 
stroke-linecap:round; stroke-linejoin:round;">
</g>
<g >
</g>
<g style="fill:#000000; fill-opacity:1.0; 
stroke:#000000; stroke-width:21200.000000; stroke-opacity:1; 
stroke-linecap:round; stroke-linejoin:round;">
</g>
<g style="fill:#000000; fill-opacity:1.0; 
stroke:#000000; stroke-width:1.000000; stroke-opacity:1; 
stroke-linecap:round; stroke-linejoin:round;">
<circle cx="36745000.000000" cy="16780000.000000" r="800000.000000" /> 
<circle cx="46905000.000000" cy="16780000.000000" r="800000.000000" /> 
</g>
<g style="fill:#000000; fill-opacity:1.0; 
stroke:#000000; stroke-width:21200.000000; stroke-opacity:1; 
stroke-linecap:round; stroke-linejoin:round;">
</g>
<g >
</g>
<g style="fill:#000000; fill-opacity:1.0; 
stroke:#000000; stroke-width:21200.000000; stroke-opacity:1; 
stroke-linecap:round; stroke-linejoin:round;">
</g>
<g style="fill:#000000; fill-opacity:1.0; 
stroke:#000000; stroke-width:1.000000; stroke-opacity:1; 
stroke-linecap:round; stroke-linejoin:round;">
<circle cx="41400000.000000" cy="48600000.000000" r="1170000.000000" /> 
</g>
<g style="fill:#000000; fill-opacity:1.0; 
stroke:#000000; stroke-width:21200.000000; stroke-opacity:1; 
stroke-linecap:round; stroke-linejoin:round;">
</g>
<g style="fill:#000000; fill-opacity:1.0; 
stroke:#000000; stroke-width:1.000000; stroke-opacity:1; 
stroke-linecap:round; stroke-linejoin:round;">
<circle cx="36400000.000000" cy="48600000.000000" r="1170000.000000" /> 
</g>
<g style="fill:#000000; fill-opacity:1.0; 
stroke:#000000; stroke-width:21200.000000; stroke-opacity:1; 
stroke-linecap:round; stroke-linejoin:round;">
</g>
<g style="fill:#000000; fill-opacity:1.0; 
stroke:#000000; stroke-width:1.000000; stroke-opacity:1; 
stroke-linecap:round; stroke-linejoin:round;">
<circle cx="31400000.000000" cy="48600000.000000" r="1170000.000000" /> 
</g>
<g style="fill:#000000; fill-opacity:1.0; 
stroke:#000000; stroke-width:21200.000000; stroke-opacity:1; 
stroke-linecap:round; stroke-linejoin:round;">
</g>
<g >
</g>
<g style="fill:#000000; fill-opacity:1.0; 
stroke:#000000; stroke-width:21200.000000; stroke-opacity:1; 
stroke-linecap:round; stroke-linejoin:round;">
</g>
<g style="fill:#000000; fill-opacity:1.0; 
stroke:#000000; stroke-width:1.000000; stroke-opacity:1; 
stroke-linecap:round; stroke-linejoin:round;">
<circle cx="60145000.000000" cy="10780000.000000" r="850000.000000" /> 
<circle cx="62685000.000000" cy="10780000.000000" r="850000.000000" /> 
<circle cx="65225000.000000" cy="10780000.000000" r="850000.000000" /> 
<path style="fill:#000000; fill-opacity:1.0; 
stroke:#000000; stroke-width:1.000000; stroke-opacity:1; 
stroke-linecap:round; stroke-linejoin:round;fill-rule:evenodd;"
d="M 66915001.000000,9930001.000000
68614999.000000,9930001.000000
68614999.000000,11629999.000000
66915001.000000,11629999.000000
Z" /> 
</g>
<g >
</g>
<g style="fill:#000000; fill-opacity:1.0; 
stroke:#000000; stroke-width:1.000000; stroke-opacity:1; 
stroke-linecap:round; stroke-linejoin:round;">
<circle cx="17360000.000000" cy="32800000.000000" r="800000.000000" /> 
<circle cx="7200000.000000" cy="32800000.000000" r="800000.000000" /> 
</g>
<g style="fill:#000000; fill-opacity:1.0; 
stroke:#000000; stroke-width:21200.000000; stroke-opacity:1; 
stroke-linecap:round; stroke-linejoin:round;">
</g>
<g >
</g>
<g style="fill:#000000; fill-opacity:1.0; 
stroke:#000000; stroke-width:21200.000000; stroke-opacity:1; 
stroke-linecap:round; stroke-linejoin:round;">
</g>
<g style="fill:#000000; fill-opacity:1.0; 
stroke:#000000; stroke-width:1.000000; stroke-opacity:1; 
stroke-linecap:round; stroke-linejoin:round;">
<circle cx="81500000.000000" cy="12400000.000000" r="2500000.000000" /> 
</g>
<g style="fill:#000000; fill-opacity:1.0; 
stroke:#000000; stroke-width:21200.000000; stroke-opacity:1; 
stroke-linecap:round; stroke-linejoin:round;">
</g>
<g style="fill:#000000; fill-opacity:1.0; 
stroke:#000000; stroke-width:1.000000; stroke-opacity:1; 
stroke-linecap:round; stroke-linejoin:round;">
<circle cx="81400000.000000" cy="26400000.000000" r="2500000.000000" /> 
</g>
<g style="fill:#000000; fill-opacity:1.0; 
stroke:#000000; stroke-width:21200.000000; stroke-opacity:1; 
stroke-linecap:round; stroke-linejoin:round;">
</g>
<g style="fill:#000000; fill-opacity:1.0; 
stroke:#000000; stroke-width:1.000000; stroke-opacity:1; 
stroke-linecap:round; stroke-linejoin:round;">
<circle cx="76650000.000000" cy="22400000.000000" r="1500000.000000" /> 
</g>
<g style="fill:#000000; fill-opacity:1.0; 
stroke:#000000; stroke-width:21200.000000; stroke-opacity:1; 
stroke-linecap:round; stroke-linejoin:round;">
</g>
<g style="fill:#000000; fill-opacity:1.0; 
stroke:#000000; stroke-width:1.000000; stroke-opacity:1; 
stroke-linecap:round; stroke-linejoin:round;">
<circle cx="76650000.000000" cy="8400000.000000" r="1500000.000000" /> 
</g>
<g style="fill:#000000; fill-opacity:1.0; 
stroke:#000000; stroke-width:21200.000000; stroke-opacity:1; 
stroke-linecap:round; stroke-linejoin:round;">
</g>
<g style="fill:#000000; fill-opacity:1.0; 
stroke:#000000; stroke-width:2500000.000000; stroke-opacity:1; 
stroke-linecap:round; stroke-linejoin:round;">
</g>
<g style="fill:#000000; fill-opacity:0.0; 
stroke:#000000; stroke-width:2500000.000000; stroke-opacity:1; 
stroke-linecap:round; stroke-linejoin:round;">
<path d="M82250000 7250000
L80550000 7250000
" />
<path d="M82250000 31550000
L80550000 31550000
" />
</g>
<g >
</g>
<g >
</g>
<g >
</g>
<g >
</g>
</g> 
</svg>
